<?xml version="1.0" encoding="UTF-8" standalone="no"?><svg xmlns="http://www.w3.org/2000/svg" xmlns:xlink="http://www.w3.org/1999/xlink" clip-rule="evenodd" stroke-miterlimit="4.00" viewBox="0 0 741 1098"><desc>SVG generated by Keynote</desc><defs></defs><g transform="matrix(1.00, 0.00, -0.00, -1.00, 0.0, 1098.0)"><g><clipPath id="clip-65"><path d="M 8.6 0.4 L 740.9 0.4 L 740.9 1097.6 L 8.6 1097.6 Z M 8.6 0.4 "></path></clipPath><g clip-path="url(#clip-65)"><image xlink:href="5650005DA0414E0D411AA73649A9932C.png" width="730.00" height="1095.00" transform="matrix(1.00, 0.00, -0.00, -1.00, 9.6, 1096.6)" opacity="0.50"></image><path d="M 13.6 1094.6 L 735.9 1094.6 L 735.9 7.4 L 13.6 7.4 Z M 13.6 1094.6 " fill="#DC6A54"></path></g></g><g><clipPath id="clip-66"><path d="M -7.5 264.0 L 687.5 264.0 L 687.5 349.5 L -7.5 349.5 Z M -7.5 264.0 "></path></clipPath><g clip-path="url(#clip-66)"><text xml:space="preserve" font-family="Dosis-SemiBold" font-weight="bold" font-size="45.0" fill="#000000" transform="matrix(1.00, 0.00, -0.00, -1.00, 109.0, 289.0)">G</text><text xml:space="preserve" font-family="Dosis-SemiBold" font-weight="bold" font-size="45.0" fill="#000000" transform="matrix(1.00, 0.00, -0.00, -1.00, 134.0, 289.0)">o</text><text xml:space="preserve" font-family="Dosis-SemiBold" font-weight="bold" font-size="45.0" fill="#000000" transform="matrix(1.00, 0.00, -0.00, -1.00, 155.9, 289.0)">s</text><text xml:space="preserve" font-family="Dosis-SemiBold" font-weight="bold" font-size="45.0" fill="#000000" transform="matrix(1.00, 0.00, -0.00, -1.00, 174.1, 289.0)">t</text><text xml:space="preserve" font-family="Dosis-SemiBold" font-weight="bold" font-size="45.0" fill="#000000" transform="matrix(1.00, 0.00, -0.00, -1.00, 188.9, 289.0)">a</text><text xml:space="preserve" font-family="Dosis-SemiBold" font-weight="bold" font-size="45.0" fill="#000000" transform="matrix(1.00, 0.00, -0.00, -1.00, 209.6, 289.0)">m</text><text xml:space="preserve" font-family="Dosis-SemiBold" font-weight="bold" font-size="45.0" fill="#000000" transform="matrix(1.00, 0.00, -0.00, -1.00, 245.4, 289.0)">o</text><text xml:space="preserve" font-family="Dosis-SemiBold" font-weight="bold" font-size="45.0" fill="#000000" transform="matrix(1.00, 0.00, -0.00, -1.00, 267.3, 289.0)">s</text><text xml:space="preserve" font-family="Dosis-SemiBold" font-weight="bold" font-size="45.0" fill="#000000" transform="matrix(1.00, 0.00, -0.00, -1.00, 285.4, 289.0)"> </text><text xml:space="preserve" font-family="Dosis-SemiBold" font-weight="bold" font-size="45.0" fill="#000000" transform="matrix(1.00, 0.00, -0.00, -1.00, 294.4, 289.0)">d</text><text xml:space="preserve" font-family="Dosis-SemiBold" font-weight="bold" font-size="45.0" fill="#000000" transform="matrix(1.00, 0.00, -0.00, -1.00, 317.3, 289.0)">e</text><text xml:space="preserve" font-family="Dosis-SemiBold" font-weight="bold" font-size="45.0" fill="#000000" transform="matrix(1.00, 0.00, -0.00, -1.00, 338.6, 289.0)"> </text><text xml:space="preserve" font-family="Dosis-SemiBold" font-weight="bold" font-size="45.0" fill="#000000" transform="matrix(1.00, 0.00, -0.00, -1.00, 347.6, 289.0)">v</text><text xml:space="preserve" font-family="Dosis-SemiBold" font-weight="bold" font-size="45.0" fill="#000000" transform="matrix(1.00, 0.00, -0.00, -1.00, 368.2, 289.0)">á</text><text xml:space="preserve" font-family="Dosis-SemiBold" font-weight="bold" font-size="45.0" fill="#000000" transform="matrix(1.00, 0.00, -0.00, -1.00, 388.9, 289.0)">r</text><text xml:space="preserve" font-family="Dosis-SemiBold" font-weight="bold" font-size="45.0" fill="#000000" transform="matrix(1.00, 0.00, -0.00, -1.00, 405.1, 289.0)">i</text><text xml:space="preserve" font-family="Dosis-SemiBold" font-weight="bold" font-size="45.0" fill="#000000" transform="matrix(1.00, 0.00, -0.00, -1.00, 414.8, 289.0)">a</text><text xml:space="preserve" font-family="Dosis-SemiBold" font-weight="bold" font-size="45.0" fill="#000000" transform="matrix(1.00, 0.00, -0.00, -1.00, 435.5, 289.0)">s</text><text xml:space="preserve" font-family="Dosis-SemiBold" font-weight="bold" font-size="45.0" fill="#000000" transform="matrix(1.00, 0.00, -0.00, -1.00, 453.7, 289.0)"> </text><text xml:space="preserve" font-family="Dosis-SemiBold" font-weight="bold" font-size="45.0" fill="#000000" transform="matrix(1.00, 0.00, -0.00, -1.00, 462.7, 289.0)">c</text><text xml:space="preserve" font-family="Dosis-SemiBold" font-weight="bold" font-size="45.0" fill="#000000" transform="matrix(1.00, 0.00, -0.00, -1.00, 481.6, 289.0)">o</text><text xml:space="preserve" font-family="Dosis-SemiBold" font-weight="bold" font-size="45.0" fill="#000000" transform="matrix(1.00, 0.00, -0.00, -1.00, 503.6, 289.0)">i</text><text xml:space="preserve" font-family="Dosis-SemiBold" font-weight="bold" font-size="45.0" fill="#000000" transform="matrix(1.00, 0.00, -0.00, -1.00, 513.2, 289.0)">s</text><text xml:space="preserve" font-family="Dosis-SemiBold" font-weight="bold" font-size="45.0" fill="#000000" transform="matrix(1.00, 0.00, -0.00, -1.00, 531.4, 289.0)">a</text><text xml:space="preserve" font-family="Dosis-SemiBold" font-weight="bold" font-size="45.0" fill="#000000" transform="matrix(1.00, 0.00, -0.00, -1.00, 552.1, 289.0)">s</text><text xml:space="preserve" font-family="Dosis-SemiBold" font-weight="bold" font-size="45.0" fill="#000000" transform="matrix(1.00, 0.00, -0.00, -1.00, 570.3, 289.0)"> </text></g></g><g><clipPath id="clip-67"><path d="M 138.8 986.0 L 610.7 986.0 L 610.7 1074.7 L 138.8 1074.7 Z M 138.8 986.0 "></path></clipPath><g clip-path="url(#clip-67)"><text xml:space="preserve" font-family="Dosis-SemiBold" font-weight="bold" font-size="47.0" fill="#3A1F4C" transform="matrix(1.00, 0.00, -0.00, -1.00, 154.0, 1012.0)">T</text><text xml:space="preserve" font-family="Dosis-SemiBold" font-weight="bold" font-size="47.0" fill="#3A1F4C" transform="matrix(1.00, 0.00, -0.00, -1.00, 177.5, 1012.0)">O</text><text xml:space="preserve" font-family="Dosis-SemiBold" font-weight="bold" font-size="47.0" fill="#3A1F4C" transform="matrix(1.00, 0.00, -0.00, -1.00, 204.1, 1012.0)">D</text><text xml:space="preserve" font-family="Dosis-SemiBold" font-weight="bold" font-size="47.0" fill="#3A1F4C" transform="matrix(1.00, 0.00, -0.00, -1.00, 231.0, 1012.0)">A</text><text xml:space="preserve" font-family="Dosis-SemiBold" font-weight="bold" font-size="47.0" fill="#3A1F4C" transform="matrix(1.00, 0.00, -0.00, -1.00, 257.4, 1012.0)">S</text><text xml:space="preserve" font-family="Dosis-SemiBold" font-weight="bold" font-size="47.0" fill="#3A1F4C" transform="matrix(1.00, 0.00, -0.00, -1.00, 281.5, 1012.0)"> </text><text xml:space="preserve" font-family="Dosis-SemiBold" font-weight="bold" font-size="47.0" fill="#3A1F4C" transform="matrix(1.00, 0.00, -0.00, -1.00, 290.9, 1012.0)">A</text><text xml:space="preserve" font-family="Dosis-SemiBold" font-weight="bold" font-size="47.0" fill="#3A1F4C" transform="matrix(1.00, 0.00, -0.00, -1.00, 317.3, 1012.0)">S</text><text xml:space="preserve" font-family="Dosis-SemiBold" font-weight="bold" font-size="47.0" fill="#3A1F4C" transform="matrix(1.00, 0.00, -0.00, -1.00, 341.4, 1012.0)"> </text><text xml:space="preserve" font-family="Dosis-SemiBold" font-weight="bold" font-size="47.0" fill="#3A1F4C" transform="matrix(1.00, 0.00, -0.00, -1.00, 350.8, 1012.0)">G</text><text xml:space="preserve" font-family="Dosis-SemiBold" font-weight="bold" font-size="47.0" fill="#3A1F4C" transform="matrix(1.00, 0.00, -0.00, -1.00, 376.9, 1012.0)">E</text><text xml:space="preserve" font-family="Dosis-SemiBold" font-weight="bold" font-size="47.0" fill="#3A1F4C" transform="matrix(1.00, 0.00, -0.00, -1.00, 401.5, 1012.0)">R</text><text xml:space="preserve" font-family="Dosis-SemiBold" font-weight="bold" font-size="47.0" fill="#3A1F4C" transform="matrix(1.00, 0.00, -0.00, -1.00, 427.8, 1012.0)">A</text><text xml:space="preserve" font-family="Dosis-SemiBold" font-weight="bold" font-size="47.0" fill="#3A1F4C" transform="matrix(1.00, 0.00, -0.00, -1.00, 454.2, 1012.0)">Ç</text><text xml:space="preserve" font-family="Dosis-SemiBold" font-weight="bold" font-size="47.0" fill="#3A1F4C" transform="matrix(1.00, 0.00, -0.00, -1.00, 479.6, 1012.0)">Õ</text><text xml:space="preserve" font-family="Dosis-SemiBold" font-weight="bold" font-size="47.0" fill="#3A1F4C" transform="matrix(1.00, 0.00, -0.00, -1.00, 506.2, 1012.0)">E</text><text xml:space="preserve" font-family="Dosis-SemiBold" font-weight="bold" font-size="47.0" fill="#3A1F4C" transform="matrix(1.00, 0.00, -0.00, -1.00, 530.8, 1012.0)">S</text></g></g><g><clipPath id="clip-68"><path d="M 86.6 150.0 L 603.2 150.0 L 603.2 275.3 L 86.6 275.3 Z M 86.6 150.0 "></path></clipPath><g clip-path="url(#clip-68)"><text xml:space="preserve" font-family="Dosis-Regular" font-size="40.0" fill="#000000" transform="matrix(1.00, 0.00, -0.00, -1.00, 105.0, 222.0)">h</text><text xml:space="preserve" font-family="Dosis-Regular" font-size="40.0" fill="#000000" transform="matrix(1.00, 0.00, -0.00, -1.00, 124.8, 222.0)">o</text><text xml:space="preserve" font-family="Dosis-Regular" font-size="40.0" fill="#000000" transform="matrix(1.00, 0.00, -0.00, -1.00, 143.6, 222.0)">j</text><text xml:space="preserve" font-family="Dosis-Regular" font-size="40.0" fill="#000000" transform="matrix(1.00, 0.00, -0.00, -1.00, 151.2, 222.0)">e</text><text xml:space="preserve" font-family="Dosis-Regular" font-size="40.0" fill="#000000" transform="matrix(1.00, 0.00, -0.00, -1.00, 169.5, 222.0)"> </text><text xml:space="preserve" font-family="Dosis-Regular" font-size="40.0" fill="#000000" transform="matrix(1.00, 0.00, -0.00, -1.00, 177.5, 222.0)">p</text><text xml:space="preserve" font-family="Dosis-Regular" font-size="40.0" fill="#000000" transform="matrix(1.00, 0.00, -0.00, -1.00, 196.9, 222.0)">e</text><text xml:space="preserve" font-family="Dosis-Regular" font-size="40.0" fill="#000000" transform="matrix(1.00, 0.00, -0.00, -1.00, 215.2, 222.0)">r</text><text xml:space="preserve" font-family="Dosis-Regular" font-size="40.0" fill="#000000" transform="matrix(1.00, 0.00, -0.00, -1.00, 227.7, 222.0)">c</text><text xml:space="preserve" font-family="Dosis-Regular" font-size="40.0" fill="#000000" transform="matrix(1.00, 0.00, -0.00, -1.00, 244.0, 222.0)">e</text><text xml:space="preserve" font-family="Dosis-Regular" font-size="40.0" fill="#000000" transform="matrix(1.00, 0.00, -0.00, -1.00, 262.3, 222.0)">b</text><text xml:space="preserve" font-family="Dosis-Regular" font-size="40.0" fill="#000000" transform="matrix(1.00, 0.00, -0.00, -1.00, 281.6, 222.0)">e</text><text xml:space="preserve" font-family="Dosis-Regular" font-size="40.0" fill="#000000" transform="matrix(1.00, 0.00, -0.00, -1.00, 300.0, 222.0)">m</text><text xml:space="preserve" font-family="Dosis-Regular" font-size="40.0" fill="#000000" transform="matrix(1.00, 0.00, -0.00, -1.00, 331.2, 222.0)">o</text><text xml:space="preserve" font-family="Dosis-Regular" font-size="40.0" fill="#000000" transform="matrix(1.00, 0.00, -0.00, -1.00, 349.9, 222.0)">s</text><text xml:space="preserve" font-family="Dosis-Regular" font-size="40.0" fill="#000000" transform="matrix(1.00, 0.00, -0.00, -1.00, 365.3, 222.0)"> </text><text xml:space="preserve" font-family="Dosis-Regular" font-size="40.0" fill="#000000" transform="matrix(1.00, 0.00, -0.00, -1.00, 373.3, 222.0)">q</text><text xml:space="preserve" font-family="Dosis-Regular" font-size="40.0" fill="#000000" transform="matrix(1.00, 0.00, -0.00, -1.00, 392.6, 222.0)">u</text><text xml:space="preserve" font-family="Dosis-Regular" font-size="40.0" fill="#000000" transform="matrix(1.00, 0.00, -0.00, -1.00, 412.5, 222.0)">e</text><text xml:space="preserve" font-family="Dosis-Regular" font-size="40.0" fill="#000000" transform="matrix(1.00, 0.00, -0.00, -1.00, 430.8, 222.0)"> </text><text xml:space="preserve" font-family="Dosis-Regular" font-size="40.0" fill="#000000" transform="matrix(1.00, 0.00, -0.00, -1.00, 438.8, 222.0)">é</text><text xml:space="preserve" font-family="Dosis-Regular" font-size="40.0" fill="#000000" transform="matrix(1.00, 0.00, -0.00, -1.00, 457.1, 222.0)"> </text><text xml:space="preserve" font-family="Dosis-Regular" font-size="40.0" fill="#000000" transform="matrix(1.00, 0.00, -0.00, -1.00, 465.1, 222.0)">p</text><text xml:space="preserve" font-family="Dosis-Regular" font-size="40.0" fill="#000000" transform="matrix(1.00, 0.00, -0.00, -1.00, 484.5, 222.0)">o</text><text xml:space="preserve" font-family="Dosis-Regular" font-size="40.0" fill="#000000" transform="matrix(1.00, 0.00, -0.00, -1.00, 503.2, 222.0)">s</text><text xml:space="preserve" font-family="Dosis-Regular" font-size="40.0" fill="#000000" transform="matrix(1.00, 0.00, -0.00, -1.00, 518.6, 222.0)">s</text><text xml:space="preserve" font-family="Dosis-Regular" font-size="40.0" fill="#000000" transform="matrix(1.00, 0.00, -0.00, -1.00, 534.0, 222.0)">í</text><text xml:space="preserve" font-family="Dosis-Regular" font-size="40.0" fill="#000000" transform="matrix(1.00, 0.00, -0.00, -1.00, 541.6, 222.0)">v</text><text xml:space="preserve" font-family="Dosis-Regular" font-size="40.0" fill="#000000" transform="matrix(1.00, 0.00, -0.00, -1.00, 558.4, 222.0)">e</text><text xml:space="preserve" font-family="Dosis-Regular" font-size="40.0" fill="#000000" transform="matrix(1.00, 0.00, -0.00, -1.00, 576.8, 222.0)">l</text><text xml:space="preserve" font-family="Dosis-Regular" font-size="40.0" fill="#000000" transform="matrix(1.00, 0.00, -0.00, -1.00, 585.0, 222.0)"> </text><text xml:space="preserve" font-family="Dosis-Regular" font-size="40.0" fill="#000000" transform="matrix(1.00, 0.00, -0.00, -1.00, 205.0, 172.0)">f</text><text xml:space="preserve" font-family="Dosis-Regular" font-size="40.0" fill="#000000" transform="matrix(1.00, 0.00, -0.00, -1.00, 217.2, 172.0)">a</text><text xml:space="preserve" font-family="Dosis-Regular" font-size="40.0" fill="#000000" transform="matrix(1.00, 0.00, -0.00, -1.00, 234.7, 172.0)">z</text><text xml:space="preserve" font-family="Dosis-Regular" font-size="40.0" fill="#000000" transform="matrix(1.00, 0.00, -0.00, -1.00, 250.4, 172.0)">e</text><text xml:space="preserve" font-family="Dosis-Regular" font-size="40.0" fill="#000000" transform="matrix(1.00, 0.00, -0.00, -1.00, 268.8, 172.0)">r</text><text xml:space="preserve" font-family="Dosis-Regular" font-size="40.0" fill="#000000" transform="matrix(1.00, 0.00, -0.00, -1.00, 282.0, 172.0)"> </text><text xml:space="preserve" font-family="Dosis-Regular" font-size="40.0" fill="#000000" transform="matrix(1.00, 0.00, -0.00, -1.00, 290.0, 172.0)">m</text><text xml:space="preserve" font-family="Dosis-Regular" font-size="40.0" fill="#000000" transform="matrix(1.00, 0.00, -0.00, -1.00, 321.2, 172.0)">a</text><text xml:space="preserve" font-family="Dosis-Regular" font-size="40.0" fill="#000000" transform="matrix(1.00, 0.00, -0.00, -1.00, 338.7, 172.0)">i</text><text xml:space="preserve" font-family="Dosis-Regular" font-size="40.0" fill="#000000" transform="matrix(1.00, 0.00, -0.00, -1.00, 346.4, 172.0)">s</text><text xml:space="preserve" font-family="Dosis-Regular" font-size="40.0" fill="#000000" transform="matrix(1.00, 0.00, -0.00, -1.00, 361.8, 172.0)"> </text><text xml:space="preserve" font-family="Dosis-Regular" font-size="40.0" fill="#000000" transform="matrix(1.00, 0.00, -0.00, -1.00, 369.8, 172.0)">d</text><text xml:space="preserve" font-family="Dosis-Regular" font-size="40.0" fill="#000000" transform="matrix(1.00, 0.00, -0.00, -1.00, 389.1, 172.0)">e</text><text xml:space="preserve" font-family="Dosis-Regular" font-size="40.0" fill="#000000" transform="matrix(1.00, 0.00, -0.00, -1.00, 407.4, 172.0)"> </text><text xml:space="preserve" font-family="Dosis-Regular" font-size="40.0" fill="#000000" transform="matrix(1.00, 0.00, -0.00, -1.00, 415.4, 172.0)">u</text><text xml:space="preserve" font-family="Dosis-Regular" font-size="40.0" fill="#000000" transform="matrix(1.00, 0.00, -0.00, -1.00, 435.3, 172.0)">m</text><text xml:space="preserve" font-family="Dosis-Regular" font-size="40.0" fill="#000000" transform="matrix(1.00, 0.00, -0.00, -1.00, 466.5, 172.0)">a</text><text xml:space="preserve" font-family="Dosis-Regular" font-size="40.0" fill="#000000" transform="matrix(1.00, 0.00, -0.00, -1.00, 484.0, 172.0)"> </text></g></g><g><clipPath id="clip-69"><path d="M 216.6 466.4 L 479.9 466.4 L 479.9 833.6 L 216.6 833.6 Z M 216.6 466.4 "></path></clipPath><g clip-path="url(#clip-69)"><path d="M 440.6 779.1 C 491.6 707.8 491.6 592.2 440.6 520.9 C 389.6 449.6 306.9 449.6 255.9 520.9 C 204.9 592.2 204.9 707.8 255.9 779.1 C 306.9 850.4 389.6 850.4 440.6 779.1 Z M 440.6 779.1 " fill="#894032"></path></g></g><g><clipPath id="clip-70"><path d="M 185.7 455.2 L 298.5 455.2 L 298.5 785.6 L 185.7 785.6 Z M 185.7 455.2 "></path></clipPath><g clip-path="url(#clip-70)"><image xlink:href="F0688C1AD724BE7D5A91F744F6BC9D17.png" width="113.00" height="331.00" transform="matrix(1.00, 0.00, -0.00, -1.00, 186.0, 786.0)"></image></g></g><g><clipPath id="clip-71"><path d="M 386.0 802.0 L 529.0 802.0 L 529.0 460.0 L 386.0 460.0 Z M 385.9 801.5 "></path></clipPath><g clip-path="url(#clip-71)"><g><clipPath id="clip-72"><path d="M 385.9 459.6 L 528.5 459.6 L 528.5 801.5 L 385.9 801.5 Z M 385.9 459.6 "></path></clipPath><g clip-path="url(#clip-72)"><image xlink:href="1EF1D9DA2F18BAAFACB93EA6F5E256A0.png" width="152.00" height="353.00" transform="matrix(1.00, 0.00, -0.00, -1.00, 381.0, 801.0)"></image></g></g></g></g><g><clipPath id="clip-73"><path d="M 284.3 341.8 L 412.3 341.8 L 412.3 726.8 L 284.3 726.8 Z M 284.3 341.8 "></path></clipPath><g clip-path="url(#clip-73)"><image xlink:href="8E981770E91EB7A1A3C565CE3BB58E18.png" width="128.00" height="385.00" transform="matrix(1.00, 0.00, -0.00, -1.00, 284.0, 727.0)"></image></g></g></g></svg>