<?xml version="1.0" encoding="UTF-8" standalone="no"?><svg xmlns="http://www.w3.org/2000/svg" xmlns:xlink="http://www.w3.org/1999/xlink" clip-rule="evenodd" stroke-miterlimit="4.00" viewBox="0 0 1146 293"><desc>SVG generated by Keynote</desc><defs></defs><g transform="matrix(1.00, 0.00, -0.00, -1.00, 0.0, 293.0)"><image xlink:href="AF9232CD3B10792FDAF8A0607AED7973.png" width="1144.00" height="140.00" transform="matrix(1.00, 0.00, -0.00, -1.00, 0.0, 280.0)"></image><path d="M 19.7 234.3 L 1092.2 234.3 L 1092.2 165.3 L 19.7 165.3 Z M 19.7 234.3 " fill="#94B81F"></path><image xlink:href="189EC5D8B233F57545134753BBEB0734.png" width="1052.00" height="140.00" transform="matrix(1.00, 0.00, -0.00, -1.00, 0.0, 211.0)"></image><path d="M 19.7 165.3 L 1000.2 165.3 L 1000.2 96.3 L 19.7 96.3 Z M 19.7 165.3 " fill="#94B81F"></path><image xlink:href="869016DC7BD397ABC3D2B18D7CCDCF61.png" width="882.00" height="140.00" transform="matrix(1.00, 0.00, -0.00, -1.00, 0.0, 142.0)"></image><path d="M 19.7 96.3 L 830.1 96.3 L 830.1 27.3 L 19.7 27.3 Z M 19.7 96.3 " fill="#94B81F"></path><image xlink:href="B00C219E88A09B3DC5E86774614AD080.png" width="1129.00" height="125.00" transform="matrix(1.00, 0.00, -0.00, -1.00, 2.0, 265.0)"></image><text xml:space="preserve" font-family="Dosis-Regular" font-size="55.0" fill="#FEFFFF" transform="matrix(1.00, 0.00, -0.00, -1.00, 20.0, 178.0)">V</text><text xml:space="preserve" font-family="Dosis-Regular" font-size="55.0" fill="#FEFFFF" transform="matrix(1.00, 0.00, -0.00, -1.00, 46.7, 178.0)">o</text><text xml:space="preserve" font-family="Dosis-Regular" font-size="55.0" fill="#FEFFFF" transform="matrix(1.00, 0.00, -0.00, -1.00, 72.4, 178.0)">c</text><text xml:space="preserve" font-family="Dosis-Regular" font-size="55.0" fill="#FEFFFF" transform="matrix(1.00, 0.00, -0.00, -1.00, 94.7, 178.0)">ê</text><text xml:space="preserve" font-family="Dosis-Regular" font-size="55.0" fill="#FEFFFF" transform="matrix(1.00, 0.00, -0.00, -1.00, 119.9, 178.0)"> </text><text xml:space="preserve" font-family="Dosis-Regular" font-size="55.0" fill="#FEFFFF" transform="matrix(1.00, 0.00, -0.00, -1.00, 130.9, 178.0)">p</text><text xml:space="preserve" font-family="Dosis-Regular" font-size="55.0" fill="#FEFFFF" transform="matrix(1.00, 0.00, -0.00, -1.00, 157.6, 178.0)">o</text><text xml:space="preserve" font-family="Dosis-Regular" font-size="55.0" fill="#FEFFFF" transform="matrix(1.00, 0.00, -0.00, -1.00, 183.3, 178.0)">d</text><text xml:space="preserve" font-family="Dosis-Regular" font-size="55.0" fill="#FEFFFF" transform="matrix(1.00, 0.00, -0.00, -1.00, 209.9, 178.0)">e</text><text xml:space="preserve" font-family="Dosis-Regular" font-size="55.0" fill="#FEFFFF" transform="matrix(1.00, 0.00, -0.00, -1.00, 235.1, 178.0)">r</text><text xml:space="preserve" font-family="Dosis-Regular" font-size="55.0" fill="#FEFFFF" transform="matrix(1.00, 0.00, -0.00, -1.00, 253.3, 178.0)">á</text><text xml:space="preserve" font-family="Dosis-Regular" font-size="55.0" fill="#FEFFFF" transform="matrix(1.00, 0.00, -0.00, -1.00, 277.4, 178.0)"> </text><text xml:space="preserve" font-family="Dosis-Regular" font-size="55.0" fill="#FEFFFF" transform="matrix(1.00, 0.00, -0.00, -1.00, 288.4, 178.0)">e</text><text xml:space="preserve" font-family="Dosis-Regular" font-size="55.0" fill="#FEFFFF" transform="matrix(1.00, 0.00, -0.00, -1.00, 313.6, 178.0)">x</text><text xml:space="preserve" font-family="Dosis-Regular" font-size="55.0" fill="#FEFFFF" transform="matrix(1.00, 0.00, -0.00, -1.00, 335.6, 178.0)">e</text><text xml:space="preserve" font-family="Dosis-Regular" font-size="55.0" fill="#FEFFFF" transform="matrix(1.00, 0.00, -0.00, -1.00, 360.8, 178.0)">r</text><text xml:space="preserve" font-family="Dosis-Regular" font-size="55.0" fill="#FEFFFF" transform="matrix(1.00, 0.00, -0.00, -1.00, 378.0, 178.0)">c</text><text xml:space="preserve" font-family="Dosis-Regular" font-size="55.0" fill="#FEFFFF" transform="matrix(1.00, 0.00, -0.00, -1.00, 400.4, 178.0)">e</text><text xml:space="preserve" font-family="Dosis-Regular" font-size="55.0" fill="#FEFFFF" transform="matrix(1.00, 0.00, -0.00, -1.00, 425.6, 178.0)">r</text><text xml:space="preserve" font-family="Dosis-Regular" font-size="55.0" fill="#FEFFFF" transform="matrix(1.00, 0.00, -0.00, -1.00, 443.8, 178.0)"> </text><text xml:space="preserve" font-family="Dosis-Regular" font-size="55.0" fill="#FEFFFF" transform="matrix(1.00, 0.00, -0.00, -1.00, 454.8, 178.0)">a</text><text xml:space="preserve" font-family="Dosis-Regular" font-size="55.0" fill="#FEFFFF" transform="matrix(1.00, 0.00, -0.00, -1.00, 478.9, 178.0)"> </text><text xml:space="preserve" font-family="Dosis-Regular" font-size="55.0" fill="#FEFFFF" transform="matrix(1.00, 0.00, -0.00, -1.00, 489.9, 178.0)">a</text><text xml:space="preserve" font-family="Dosis-Regular" font-size="55.0" fill="#FEFFFF" transform="matrix(1.00, 0.00, -0.00, -1.00, 514.0, 178.0)">t</text><text xml:space="preserve" font-family="Dosis-Regular" font-size="55.0" fill="#FEFFFF" transform="matrix(1.00, 0.00, -0.00, -1.00, 530.3, 178.0)">i</text><text xml:space="preserve" font-family="Dosis-Regular" font-size="55.0" fill="#FEFFFF" transform="matrix(1.00, 0.00, -0.00, -1.00, 540.8, 178.0)">v</text><text xml:space="preserve" font-family="Dosis-Regular" font-size="55.0" fill="#FEFFFF" transform="matrix(1.00, 0.00, -0.00, -1.00, 563.9, 178.0)">i</text><text xml:space="preserve" font-family="Dosis-Regular" font-size="55.0" fill="#FEFFFF" transform="matrix(1.00, 0.00, -0.00, -1.00, 574.4, 178.0)">d</text><text xml:space="preserve" font-family="Dosis-Regular" font-size="55.0" fill="#FEFFFF" transform="matrix(1.00, 0.00, -0.00, -1.00, 601.0, 178.0)">a</text><text xml:space="preserve" font-family="Dosis-Regular" font-size="55.0" fill="#FEFFFF" transform="matrix(1.00, 0.00, -0.00, -1.00, 625.1, 178.0)">d</text><text xml:space="preserve" font-family="Dosis-Regular" font-size="55.0" fill="#FEFFFF" transform="matrix(1.00, 0.00, -0.00, -1.00, 651.7, 178.0)">e</text><text xml:space="preserve" font-family="Dosis-Regular" font-size="55.0" fill="#FEFFFF" transform="matrix(1.00, 0.00, -0.00, -1.00, 676.9, 178.0)"> </text><text xml:space="preserve" font-family="Dosis-Regular" font-size="55.0" fill="#FEFFFF" transform="matrix(1.00, 0.00, -0.00, -1.00, 687.9, 178.0)">q</text><text xml:space="preserve" font-family="Dosis-Regular" font-size="55.0" fill="#FEFFFF" transform="matrix(1.00, 0.00, -0.00, -1.00, 714.5, 178.0)">u</text><text xml:space="preserve" font-family="Dosis-Regular" font-size="55.0" fill="#FEFFFF" transform="matrix(1.00, 0.00, -0.00, -1.00, 741.8, 178.0)">e</text><text xml:space="preserve" font-family="Dosis-Regular" font-size="55.0" fill="#FEFFFF" transform="matrix(1.00, 0.00, -0.00, -1.00, 767.0, 178.0)"> </text><text xml:space="preserve" font-family="Dosis-Regular" font-size="55.0" fill="#FEFFFF" transform="matrix(1.00, 0.00, -0.00, -1.00, 778.0, 178.0)">b</text><text xml:space="preserve" font-family="Dosis-Regular" font-size="55.0" fill="#FEFFFF" transform="matrix(1.00, 0.00, -0.00, -1.00, 804.6, 178.0)">e</text><text xml:space="preserve" font-family="Dosis-Regular" font-size="55.0" fill="#FEFFFF" transform="matrix(1.00, 0.00, -0.00, -1.00, 829.8, 178.0)">m</text><text xml:space="preserve" font-family="Dosis-Regular" font-size="55.0" fill="#FEFFFF" transform="matrix(1.00, 0.00, -0.00, -1.00, 872.7, 178.0)"> </text><text xml:space="preserve" font-family="Dosis-Regular" font-size="55.0" fill="#FEFFFF" transform="matrix(1.00, 0.00, -0.00, -1.00, 883.7, 178.0)">e</text><text xml:space="preserve" font-family="Dosis-Regular" font-size="55.0" fill="#FEFFFF" transform="matrix(1.00, 0.00, -0.00, -1.00, 908.9, 178.0)">n</text><text xml:space="preserve" font-family="Dosis-Regular" font-size="55.0" fill="#FEFFFF" transform="matrix(1.00, 0.00, -0.00, -1.00, 936.2, 178.0)">t</text><text xml:space="preserve" font-family="Dosis-Regular" font-size="55.0" fill="#FEFFFF" transform="matrix(1.00, 0.00, -0.00, -1.00, 952.0, 178.0)">e</text><text xml:space="preserve" font-family="Dosis-Regular" font-size="55.0" fill="#FEFFFF" transform="matrix(1.00, 0.00, -0.00, -1.00, 977.2, 178.0)">n</text><text xml:space="preserve" font-family="Dosis-Regular" font-size="55.0" fill="#FEFFFF" transform="matrix(1.00, 0.00, -0.00, -1.00, 1004.5, 178.0)">d</text><text xml:space="preserve" font-family="Dosis-Regular" font-size="55.0" fill="#FEFFFF" transform="matrix(1.00, 0.00, -0.00, -1.00, 1031.1, 178.0)">e</text><text xml:space="preserve" font-family="Dosis-Regular" font-size="55.0" fill="#FEFFFF" transform="matrix(1.00, 0.00, -0.00, -1.00, 1056.3, 178.0)">r</text><text xml:space="preserve" font-family="Dosis-Regular" font-size="55.0" fill="#FEFFFF" transform="matrix(1.00, 0.00, -0.00, -1.00, 1072.1, 178.0)">.</text><text xml:space="preserve" font-family="Dosis-Regular" font-size="55.0" fill="#FEFFFF" transform="matrix(1.00, 0.00, -0.00, -1.00, 1081.5, 178.0)"> </text><text xml:space="preserve" font-family="Dosis-Regular" font-size="55.0" fill="#FEFFFF" transform="matrix(1.00, 0.00, -0.00, -1.00, 1092.5, 178.0)"> </text><image xlink:href="9F0180B7E607892079865548D2F6537C.png" width="1033.00" height="117.00" transform="matrix(1.00, 0.00, -0.00, -1.00, 5.0, 196.0)"></image><text xml:space="preserve" font-family="Dosis-Regular" font-size="55.0" fill="#FEFFFF" transform="matrix(1.00, 0.00, -0.00, -1.00, 20.0, 109.0)">N</text><text xml:space="preserve" font-family="Dosis-Regular" font-size="55.0" fill="#FEFFFF" transform="matrix(1.00, 0.00, -0.00, -1.00, 51.1, 109.0)">u</text><text xml:space="preserve" font-family="Dosis-Regular" font-size="55.0" fill="#FEFFFF" transform="matrix(1.00, 0.00, -0.00, -1.00, 78.4, 109.0)">m</text><text xml:space="preserve" font-family="Dosis-Regular" font-size="55.0" fill="#FEFFFF" transform="matrix(1.00, 0.00, -0.00, -1.00, 121.3, 109.0)"> </text><text xml:space="preserve" font-family="Dosis-Regular" font-size="55.0" fill="#FEFFFF" transform="matrix(1.00, 0.00, -0.00, -1.00, 132.3, 109.0)">d</text><text xml:space="preserve" font-family="Dosis-Regular" font-size="55.0" fill="#FEFFFF" transform="matrix(1.00, 0.00, -0.00, -1.00, 158.9, 109.0)">i</text><text xml:space="preserve" font-family="Dosis-Regular" font-size="55.0" fill="#FEFFFF" transform="matrix(1.00, 0.00, -0.00, -1.00, 169.4, 109.0)">a</text><text xml:space="preserve" font-family="Dosis-Regular" font-size="55.0" fill="#FEFFFF" transform="matrix(1.00, 0.00, -0.00, -1.00, 193.5, 109.0)"> </text><text xml:space="preserve" font-family="Dosis-Regular" font-size="55.0" fill="#FEFFFF" transform="matrix(1.00, 0.00, -0.00, -1.00, 204.5, 109.0)">s</text><text xml:space="preserve" font-family="Dosis-Regular" font-size="55.0" fill="#FEFFFF" transform="matrix(1.00, 0.00, -0.00, -1.00, 225.6, 109.0)">e</text><text xml:space="preserve" font-family="Dosis-Regular" font-size="55.0" fill="#FEFFFF" transform="matrix(1.00, 0.00, -0.00, -1.00, 250.8, 109.0)">r</text><text xml:space="preserve" font-family="Dosis-Regular" font-size="55.0" fill="#FEFFFF" transform="matrix(1.00, 0.00, -0.00, -1.00, 269.0, 109.0)">á</text><text xml:space="preserve" font-family="Dosis-Regular" font-size="55.0" fill="#FEFFFF" transform="matrix(1.00, 0.00, -0.00, -1.00, 293.1, 109.0)"> </text><text xml:space="preserve" font-family="Dosis-Regular" font-size="55.0" fill="#FEFFFF" transform="matrix(1.00, 0.00, -0.00, -1.00, 304.1, 109.0)">d</text><text xml:space="preserve" font-family="Dosis-Regular" font-size="55.0" fill="#FEFFFF" transform="matrix(1.00, 0.00, -0.00, -1.00, 330.8, 109.0)">e</text><text xml:space="preserve" font-family="Dosis-Regular" font-size="55.0" fill="#FEFFFF" transform="matrix(1.00, 0.00, -0.00, -1.00, 355.9, 109.0)">c</text><text xml:space="preserve" font-family="Dosis-Regular" font-size="55.0" fill="#FEFFFF" transform="matrix(1.00, 0.00, -0.00, -1.00, 378.3, 109.0)">o</text><text xml:space="preserve" font-family="Dosis-Regular" font-size="55.0" fill="#FEFFFF" transform="matrix(1.00, 0.00, -0.00, -1.00, 404.0, 109.0)">r</text><text xml:space="preserve" font-family="Dosis-Regular" font-size="55.0" fill="#FEFFFF" transform="matrix(1.00, 0.00, -0.00, -1.00, 422.2, 109.0)">a</text><text xml:space="preserve" font-family="Dosis-Regular" font-size="55.0" fill="#FEFFFF" transform="matrix(1.00, 0.00, -0.00, -1.00, 446.3, 109.0)">d</text><text xml:space="preserve" font-family="Dosis-Regular" font-size="55.0" fill="#FEFFFF" transform="matrix(1.00, 0.00, -0.00, -1.00, 472.9, 109.0)">o</text><text xml:space="preserve" font-family="Dosis-Regular" font-size="55.0" fill="#FEFFFF" transform="matrix(1.00, 0.00, -0.00, -1.00, 498.7, 109.0)">r</text><text xml:space="preserve" font-family="Dosis-Regular" font-size="55.0" fill="#FEFFFF" transform="matrix(1.00, 0.00, -0.00, -1.00, 514.5, 109.0)">,</text><text xml:space="preserve" font-family="Dosis-Regular" font-size="55.0" fill="#FEFFFF" transform="matrix(1.00, 0.00, -0.00, -1.00, 523.9, 109.0)"> </text><text xml:space="preserve" font-family="Dosis-Regular" font-size="55.0" fill="#FEFFFF" transform="matrix(1.00, 0.00, -0.00, -1.00, 534.9, 109.0)">n</text><text xml:space="preserve" font-family="Dosis-Regular" font-size="55.0" fill="#FEFFFF" transform="matrix(1.00, 0.00, -0.00, -1.00, 562.1, 109.0)">o</text><text xml:space="preserve" font-family="Dosis-Regular" font-size="55.0" fill="#FEFFFF" transform="matrix(1.00, 0.00, -0.00, -1.00, 587.9, 109.0)"> </text><text xml:space="preserve" font-family="Dosis-Regular" font-size="55.0" fill="#FEFFFF" transform="matrix(1.00, 0.00, -0.00, -1.00, 598.9, 109.0)">o</text><text xml:space="preserve" font-family="Dosis-Regular" font-size="55.0" fill="#FEFFFF" transform="matrix(1.00, 0.00, -0.00, -1.00, 624.6, 109.0)">u</text><text xml:space="preserve" font-family="Dosis-Regular" font-size="55.0" fill="#FEFFFF" transform="matrix(1.00, 0.00, -0.00, -1.00, 651.9, 109.0)">t</text><text xml:space="preserve" font-family="Dosis-Regular" font-size="55.0" fill="#FEFFFF" transform="matrix(1.00, 0.00, -0.00, -1.00, 668.2, 109.0)">r</text><text xml:space="preserve" font-family="Dosis-Regular" font-size="55.0" fill="#FEFFFF" transform="matrix(1.00, 0.00, -0.00, -1.00, 685.4, 109.0)">o</text><text xml:space="preserve" font-family="Dosis-Regular" font-size="55.0" fill="#FEFFFF" transform="matrix(1.00, 0.00, -0.00, -1.00, 711.2, 109.0)"> </text><text xml:space="preserve" font-family="Dosis-Regular" font-size="55.0" fill="#FEFFFF" transform="matrix(1.00, 0.00, -0.00, -1.00, 722.2, 109.0)">m</text><text xml:space="preserve" font-family="Dosis-Regular" font-size="55.0" fill="#FEFFFF" transform="matrix(1.00, 0.00, -0.00, -1.00, 765.1, 109.0)">ú</text><text xml:space="preserve" font-family="Dosis-Regular" font-size="55.0" fill="#FEFFFF" transform="matrix(1.00, 0.00, -0.00, -1.00, 792.4, 109.0)">s</text><text xml:space="preserve" font-family="Dosis-Regular" font-size="55.0" fill="#FEFFFF" transform="matrix(1.00, 0.00, -0.00, -1.00, 813.5, 109.0)">i</text><text xml:space="preserve" font-family="Dosis-Regular" font-size="55.0" fill="#FEFFFF" transform="matrix(1.00, 0.00, -0.00, -1.00, 824.0, 109.0)">c</text><text xml:space="preserve" font-family="Dosis-Regular" font-size="55.0" fill="#FEFFFF" transform="matrix(1.00, 0.00, -0.00, -1.00, 846.4, 109.0)">o</text><text xml:space="preserve" font-family="Dosis-Regular" font-size="55.0" fill="#FEFFFF" transform="matrix(1.00, 0.00, -0.00, -1.00, 872.1, 109.0)">,</text><text xml:space="preserve" font-family="Dosis-Regular" font-size="55.0" fill="#FEFFFF" transform="matrix(1.00, 0.00, -0.00, -1.00, 881.5, 109.0)"> </text><text xml:space="preserve" font-family="Dosis-Regular" font-size="55.0" fill="#FEFFFF" transform="matrix(1.00, 0.00, -0.00, -1.00, 892.5, 109.0)">e</text><text xml:space="preserve" font-family="Dosis-Regular" font-size="55.0" fill="#FEFFFF" transform="matrix(1.00, 0.00, -0.00, -1.00, 917.7, 109.0)">,</text><text xml:space="preserve" font-family="Dosis-Regular" font-size="55.0" fill="#FEFFFF" transform="matrix(1.00, 0.00, -0.00, -1.00, 927.1, 109.0)"> </text><text xml:space="preserve" font-family="Dosis-Regular" font-size="55.0" fill="#FEFFFF" transform="matrix(1.00, 0.00, -0.00, -1.00, 938.1, 109.0)">n</text><text xml:space="preserve" font-family="Dosis-Regular" font-size="55.0" fill="#FEFFFF" transform="matrix(1.00, 0.00, -0.00, -1.00, 965.4, 109.0)">a</text><text xml:space="preserve" font-family="Dosis-Regular" font-size="55.0" fill="#FEFFFF" transform="matrix(1.00, 0.00, -0.00, -1.00, 989.5, 109.0)"> </text><image xlink:href="8418F719EEAE5AB139723AF442C034F5.png" width="878.00" height="125.00" transform="matrix(1.00, 0.00, -0.00, -1.00, 2.0, 127.0)"></image><text xml:space="preserve" font-family="Dosis-Regular" font-size="55.0" fill="#FEFFFF" transform="matrix(1.00, 0.00, -0.00, -1.00, 20.0, 40.0)">s</text><text xml:space="preserve" font-family="Dosis-Regular" font-size="55.0" fill="#FEFFFF" transform="matrix(1.00, 0.00, -0.00, -1.00, 41.2, 40.0)">e</text><text xml:space="preserve" font-family="Dosis-Regular" font-size="55.0" fill="#FEFFFF" transform="matrix(1.00, 0.00, -0.00, -1.00, 66.4, 40.0)">m</text><text xml:space="preserve" font-family="Dosis-Regular" font-size="55.0" fill="#FEFFFF" transform="matrix(1.00, 0.00, -0.00, -1.00, 109.3, 40.0)">a</text><text xml:space="preserve" font-family="Dosis-Regular" font-size="55.0" fill="#FEFFFF" transform="matrix(1.00, 0.00, -0.00, -1.00, 133.4, 40.0)">n</text><text xml:space="preserve" font-family="Dosis-Regular" font-size="55.0" fill="#FEFFFF" transform="matrix(1.00, 0.00, -0.00, -1.00, 160.6, 40.0)">a</text><text xml:space="preserve" font-family="Dosis-Regular" font-size="55.0" fill="#FEFFFF" transform="matrix(1.00, 0.00, -0.00, -1.00, 184.7, 40.0)"> </text><text xml:space="preserve" font-family="Dosis-Regular" font-size="55.0" fill="#FEFFFF" transform="matrix(1.00, 0.00, -0.00, -1.00, 195.7, 40.0)">s</text><text xml:space="preserve" font-family="Dosis-Regular" font-size="55.0" fill="#FEFFFF" transform="matrix(1.00, 0.00, -0.00, -1.00, 216.9, 40.0)">e</text><text xml:space="preserve" font-family="Dosis-Regular" font-size="55.0" fill="#FEFFFF" transform="matrix(1.00, 0.00, -0.00, -1.00, 242.1, 40.0)">g</text><text xml:space="preserve" font-family="Dosis-Regular" font-size="55.0" fill="#FEFFFF" transform="matrix(1.00, 0.00, -0.00, -1.00, 266.9, 40.0)">u</text><text xml:space="preserve" font-family="Dosis-Regular" font-size="55.0" fill="#FEFFFF" transform="matrix(1.00, 0.00, -0.00, -1.00, 294.2, 40.0)">i</text><text xml:space="preserve" font-family="Dosis-Regular" font-size="55.0" fill="#FEFFFF" transform="matrix(1.00, 0.00, -0.00, -1.00, 304.7, 40.0)">n</text><text xml:space="preserve" font-family="Dosis-Regular" font-size="55.0" fill="#FEFFFF" transform="matrix(1.00, 0.00, -0.00, -1.00, 332.0, 40.0)">t</text><text xml:space="preserve" font-family="Dosis-Regular" font-size="55.0" fill="#FEFFFF" transform="matrix(1.00, 0.00, -0.00, -1.00, 347.9, 40.0)">e</text><text xml:space="preserve" font-family="Dosis-Regular" font-size="55.0" fill="#FEFFFF" transform="matrix(1.00, 0.00, -0.00, -1.00, 373.0, 40.0)">,</text><text xml:space="preserve" font-family="Dosis-Regular" font-size="55.0" fill="#FEFFFF" transform="matrix(1.00, 0.00, -0.00, -1.00, 382.4, 40.0)"> </text><text xml:space="preserve" font-family="Dosis-Regular" font-size="55.0" fill="#FEFFFF" transform="matrix(1.00, 0.00, -0.00, -1.00, 393.4, 40.0)">p</text><text xml:space="preserve" font-family="Dosis-Regular" font-size="55.0" fill="#FEFFFF" transform="matrix(1.00, 0.00, -0.00, -1.00, 420.1, 40.0)">r</text><text xml:space="preserve" font-family="Dosis-Regular" font-size="55.0" fill="#FEFFFF" transform="matrix(1.00, 0.00, -0.00, -1.00, 437.3, 40.0)">o</text><text xml:space="preserve" font-family="Dosis-Regular" font-size="55.0" fill="#FEFFFF" transform="matrix(1.00, 0.00, -0.00, -1.00, 463.0, 40.0)">f</text><text xml:space="preserve" font-family="Dosis-Regular" font-size="55.0" fill="#FEFFFF" transform="matrix(1.00, 0.00, -0.00, -1.00, 478.9, 40.0)">e</text><text xml:space="preserve" font-family="Dosis-Regular" font-size="55.0" fill="#FEFFFF" transform="matrix(1.00, 0.00, -0.00, -1.00, 504.1, 40.0)">s</text><text xml:space="preserve" font-family="Dosis-Regular" font-size="55.0" fill="#FEFFFF" transform="matrix(1.00, 0.00, -0.00, -1.00, 525.2, 40.0)">s</text><text xml:space="preserve" font-family="Dosis-Regular" font-size="55.0" fill="#FEFFFF" transform="matrix(1.00, 0.00, -0.00, -1.00, 546.4, 40.0)">o</text><text xml:space="preserve" font-family="Dosis-Regular" font-size="55.0" fill="#FEFFFF" transform="matrix(1.00, 0.00, -0.00, -1.00, 572.1, 40.0)">r</text><text xml:space="preserve" font-family="Dosis-Regular" font-size="55.0" fill="#FEFFFF" transform="matrix(1.00, 0.00, -0.00, -1.00, 590.3, 40.0)"> </text><text xml:space="preserve" font-family="Dosis-Regular" font-size="55.0" fill="#FEFFFF" transform="matrix(1.00, 0.00, -0.00, -1.00, 601.3, 40.0)">d</text><text xml:space="preserve" font-family="Dosis-Regular" font-size="55.0" fill="#FEFFFF" transform="matrix(1.00, 0.00, -0.00, -1.00, 628.0, 40.0)">e</text><text xml:space="preserve" font-family="Dosis-Regular" font-size="55.0" fill="#FEFFFF" transform="matrix(1.00, 0.00, -0.00, -1.00, 653.2, 40.0)"> </text><text xml:space="preserve" font-family="Dosis-Regular" font-size="55.0" fill="#FEFFFF" transform="matrix(1.00, 0.00, -0.00, -1.00, 664.2, 40.0)">j</text><text xml:space="preserve" font-family="Dosis-Regular" font-size="55.0" fill="#FEFFFF" transform="matrix(1.00, 0.00, -0.00, -1.00, 674.7, 40.0)">i</text><text xml:space="preserve" font-family="Dosis-Regular" font-size="55.0" fill="#FEFFFF" transform="matrix(1.00, 0.00, -0.00, -1.00, 685.2, 40.0)">u</text><text xml:space="preserve" font-family="Dosis-Regular" font-size="55.0" fill="#FEFFFF" transform="matrix(1.00, 0.00, -0.00, -1.00, 712.4, 40.0)">-</text><text xml:space="preserve" font-family="Dosis-Regular" font-size="55.0" fill="#FEFFFF" transform="matrix(1.00, 0.00, -0.00, -1.00, 735.2, 40.0)">j</text><text xml:space="preserve" font-family="Dosis-Regular" font-size="55.0" fill="#FEFFFF" transform="matrix(1.00, 0.00, -0.00, -1.00, 745.7, 40.0)">i</text><text xml:space="preserve" font-family="Dosis-Regular" font-size="55.0" fill="#FEFFFF" transform="matrix(1.00, 0.00, -0.00, -1.00, 756.2, 40.0)">t</text><text xml:space="preserve" font-family="Dosis-Regular" font-size="55.0" fill="#FEFFFF" transform="matrix(1.00, 0.00, -0.00, -1.00, 772.5, 40.0)">s</text><text xml:space="preserve" font-family="Dosis-Regular" font-size="55.0" fill="#FEFFFF" transform="matrix(1.00, 0.00, -0.00, -1.00, 793.7, 40.0)">u</text><text xml:space="preserve" font-family="Dosis-Regular" font-size="55.0" fill="#FEFFFF" transform="matrix(1.00, 0.00, -0.00, -1.00, 821.0, 40.0)">.</text></g></svg>