<?xml version="1.0" encoding="UTF-8" standalone="no"?><svg xmlns="http://www.w3.org/2000/svg" xmlns:xlink="http://www.w3.org/1999/xlink" clip-rule="evenodd" stroke-miterlimit="4.00" viewBox="0 0 557 149"><desc>SVG generated by Keynote</desc><defs></defs><g transform="matrix(1.00, 0.00, -0.00, -1.00, 0.0, 149.0)"><path d="M 0.5 135.9 L 566.3 135.9 L 566.3 68.9 L 0.5 68.9 Z M 0.5 135.9 " fill="#000000" fill-opacity="0.00"></path><path d="M 0.5 68.9 L 274.1 68.9 L 274.1 1.9 L 0.5 1.9 Z M 0.5 68.9 " fill="#000000" fill-opacity="0.00"></path><text xml:space="preserve" font-family="Dosis-Regular" font-size="53.0" fill="#FEFFFF" transform="matrix(1.00, 0.00, -0.00, -1.00, 1.0, 81.0)">N</text><text xml:space="preserve" font-family="Dosis-Regular" font-size="53.0" fill="#FEFFFF" transform="matrix(1.00, 0.00, -0.00, -1.00, 31.4, 81.0)">ã</text><text xml:space="preserve" font-family="Dosis-Regular" font-size="53.0" fill="#FEFFFF" transform="matrix(1.00, 0.00, -0.00, -1.00, 54.6, 81.0)">o</text><text xml:space="preserve" font-family="Dosis-Regular" font-size="53.0" fill="#FEFFFF" transform="matrix(1.00, 0.00, -0.00, -1.00, 79.4, 81.0)"> </text><text xml:space="preserve" font-family="Dosis-Regular" font-size="53.0" fill="#FEFFFF" transform="matrix(1.00, 0.00, -0.00, -1.00, 90.0, 81.0)">h</text><text xml:space="preserve" font-family="Dosis-Regular" font-size="53.0" fill="#FEFFFF" transform="matrix(1.00, 0.00, -0.00, -1.00, 116.3, 81.0)">a</text><text xml:space="preserve" font-family="Dosis-Regular" font-size="53.0" fill="#FEFFFF" transform="matrix(1.00, 0.00, -0.00, -1.00, 139.1, 81.0)">v</text><text xml:space="preserve" font-family="Dosis-Regular" font-size="53.0" fill="#FEFFFF" transform="matrix(1.00, 0.00, -0.00, -1.00, 161.4, 81.0)">e</text><text xml:space="preserve" font-family="Dosis-Regular" font-size="53.0" fill="#FEFFFF" transform="matrix(1.00, 0.00, -0.00, -1.00, 185.7, 81.0)">r</text><text xml:space="preserve" font-family="Dosis-Regular" font-size="53.0" fill="#FEFFFF" transform="matrix(1.00, 0.00, -0.00, -1.00, 203.2, 81.0)">á</text><text xml:space="preserve" font-family="Dosis-Regular" font-size="53.0" fill="#FEFFFF" transform="matrix(1.00, 0.00, -0.00, -1.00, 226.4, 81.0)"> </text><text xml:space="preserve" font-family="Dosis-Regular" font-size="53.0" fill="#FEFFFF" transform="matrix(1.00, 0.00, -0.00, -1.00, 237.0, 81.0)">e</text><text xml:space="preserve" font-family="Dosis-Regular" font-size="53.0" fill="#FEFFFF" transform="matrix(1.00, 0.00, -0.00, -1.00, 261.3, 81.0)">m</text><text xml:space="preserve" font-family="Dosis-Regular" font-size="53.0" fill="#FEFFFF" transform="matrix(1.00, 0.00, -0.00, -1.00, 302.6, 81.0)">p</text><text xml:space="preserve" font-family="Dosis-Regular" font-size="53.0" fill="#FEFFFF" transform="matrix(1.00, 0.00, -0.00, -1.00, 328.3, 81.0)">r</text><text xml:space="preserve" font-family="Dosis-Regular" font-size="53.0" fill="#FEFFFF" transform="matrix(1.00, 0.00, -0.00, -1.00, 344.9, 81.0)">e</text><text xml:space="preserve" font-family="Dosis-Regular" font-size="53.0" fill="#FEFFFF" transform="matrix(1.00, 0.00, -0.00, -1.00, 369.1, 81.0)">s</text><text xml:space="preserve" font-family="Dosis-Regular" font-size="53.0" fill="#FEFFFF" transform="matrix(1.00, 0.00, -0.00, -1.00, 389.5, 81.0)">a</text><text xml:space="preserve" font-family="Dosis-Regular" font-size="53.0" fill="#FEFFFF" transform="matrix(1.00, 0.00, -0.00, -1.00, 412.8, 81.0)">s</text><text xml:space="preserve" font-family="Dosis-Regular" font-size="53.0" fill="#FEFFFF" transform="matrix(1.00, 0.00, -0.00, -1.00, 433.2, 81.0)"> </text><text xml:space="preserve" font-family="Dosis-Regular" font-size="53.0" fill="#FEFFFF" transform="matrix(1.00, 0.00, -0.00, -1.00, 443.8, 81.0)">c</text><text xml:space="preserve" font-family="Dosis-Regular" font-size="53.0" fill="#FEFFFF" transform="matrix(1.00, 0.00, -0.00, -1.00, 465.3, 81.0)">o</text><text xml:space="preserve" font-family="Dosis-Regular" font-size="53.0" fill="#FEFFFF" transform="matrix(1.00, 0.00, -0.00, -1.00, 490.1, 81.0)">m</text><text xml:space="preserve" font-family="Dosis-Regular" font-size="53.0" fill="#FEFFFF" transform="matrix(1.00, 0.00, -0.00, -1.00, 531.4, 81.0)">o</text><text xml:space="preserve" font-family="Dosis-Regular" font-size="53.0" fill="#FEFFFF" transform="matrix(1.00, 0.00, -0.00, -1.00, 556.2, 81.0)"> </text><text xml:space="preserve" font-family="Dosis-Regular" font-size="53.0" fill="#FEFFFF" transform="matrix(1.00, 0.00, -0.00, -1.00, 1.0, 14.0)">e</text><text xml:space="preserve" font-family="Dosis-Regular" font-size="53.0" fill="#FEFFFF" transform="matrix(1.00, 0.00, -0.00, -1.00, 25.3, 14.0)">l</text><text xml:space="preserve" font-family="Dosis-Regular" font-size="53.0" fill="#FEFFFF" transform="matrix(1.00, 0.00, -0.00, -1.00, 36.2, 14.0)">a</text><text xml:space="preserve" font-family="Dosis-Regular" font-size="53.0" fill="#FEFFFF" transform="matrix(1.00, 0.00, -0.00, -1.00, 59.5, 14.0)">s</text><text xml:space="preserve" font-family="Dosis-Regular" font-size="53.0" fill="#FEFFFF" transform="matrix(1.00, 0.00, -0.00, -1.00, 79.9, 14.0)"> </text><text xml:space="preserve" font-family="Dosis-Regular" font-size="53.0" fill="#FEFFFF" transform="matrix(1.00, 0.00, -0.00, -1.00, 90.5, 14.0)">s</text><text xml:space="preserve" font-family="Dosis-Regular" font-size="53.0" fill="#FEFFFF" transform="matrix(1.00, 0.00, -0.00, -1.00, 110.9, 14.0)">ã</text><text xml:space="preserve" font-family="Dosis-Regular" font-size="53.0" fill="#FEFFFF" transform="matrix(1.00, 0.00, -0.00, -1.00, 134.1, 14.0)">o</text><text xml:space="preserve" font-family="Dosis-Regular" font-size="53.0" fill="#FEFFFF" transform="matrix(1.00, 0.00, -0.00, -1.00, 158.9, 14.0)"> </text><text xml:space="preserve" font-family="Dosis-Regular" font-size="53.0" fill="#FEFFFF" transform="matrix(1.00, 0.00, -0.00, -1.00, 169.5, 14.0)">h</text><text xml:space="preserve" font-family="Dosis-Regular" font-size="53.0" fill="#FEFFFF" transform="matrix(1.00, 0.00, -0.00, -1.00, 195.8, 14.0)">o</text><text xml:space="preserve" font-family="Dosis-Regular" font-size="53.0" fill="#FEFFFF" transform="matrix(1.00, 0.00, -0.00, -1.00, 220.6, 14.0)">j</text><text xml:space="preserve" font-family="Dosis-Regular" font-size="53.0" fill="#FEFFFF" transform="matrix(1.00, 0.00, -0.00, -1.00, 230.7, 14.0)">e</text><text xml:space="preserve" font-family="Dosis-Regular" font-size="53.0" fill="#FEFFFF" transform="matrix(1.00, 0.00, -0.00, -1.00, 255.0, 14.0)">.</text><text xml:space="preserve" font-family="Dosis-Regular" font-size="53.0" fill="#FEFFFF" transform="matrix(1.00, 0.00, -0.00, -1.00, 264.0, 14.0)"> </text></g></svg>