<?xml version="1.0" encoding="UTF-8" standalone="no"?><svg xmlns="http://www.w3.org/2000/svg" xmlns:xlink="http://www.w3.org/1999/xlink" clip-rule="evenodd" stroke-miterlimit="4.00" viewBox="0 0 686 57"><desc>SVG generated by Keynote</desc><defs></defs><g transform="matrix(1.00, 0.00, -0.00, -1.00, 0.0, 57.0)"><path d="M -1.0 68.5 L 684.7 68.5 L 684.7 1.5 L -1.0 1.5 Z M -1.0 68.5 " fill="#000000" fill-opacity="0.00"></path><text xml:space="preserve" font-family="Dosis-Regular" font-size="53.0" fill="#94B81F" transform="matrix(1.00, 0.00, -0.00, -1.00, -1.0, 14.1)">p</text><text xml:space="preserve" font-family="Dosis-Regular" font-size="53.0" fill="#94B81F" transform="matrix(1.00, 0.00, -0.00, -1.00, 24.7, 14.1)">r</text><text xml:space="preserve" font-family="Dosis-Regular" font-size="53.0" fill="#94B81F" transform="matrix(1.00, 0.00, -0.00, -1.00, 41.3, 14.1)">e</text><text xml:space="preserve" font-family="Dosis-Regular" font-size="53.0" fill="#94B81F" transform="matrix(1.00, 0.00, -0.00, -1.00, 65.5, 14.1)">v</text><text xml:space="preserve" font-family="Dosis-Regular" font-size="53.0" fill="#94B81F" transform="matrix(1.00, 0.00, -0.00, -1.00, 87.8, 14.1)">i</text><text xml:space="preserve" font-family="Dosis-Regular" font-size="53.0" fill="#94B81F" transform="matrix(1.00, 0.00, -0.00, -1.00, 97.9, 14.1)">s</text><text xml:space="preserve" font-family="Dosis-Regular" font-size="53.0" fill="#94B81F" transform="matrix(1.00, 0.00, -0.00, -1.00, 118.3, 14.1)">ã</text><text xml:space="preserve" font-family="Dosis-Regular" font-size="53.0" fill="#94B81F" transform="matrix(1.00, 0.00, -0.00, -1.00, 141.5, 14.1)">o</text><text xml:space="preserve" font-family="Dosis-Regular" font-size="53.0" fill="#94B81F" transform="matrix(1.00, 0.00, -0.00, -1.00, 166.3, 14.1)"> </text><text xml:space="preserve" font-family="Dosis-Regular" font-size="53.0" fill="#94B81F" transform="matrix(1.00, 0.00, -0.00, -1.00, 176.9, 14.1)">p</text><text xml:space="preserve" font-family="Dosis-Regular" font-size="53.0" fill="#94B81F" transform="matrix(1.00, 0.00, -0.00, -1.00, 202.6, 14.1)">a</text><text xml:space="preserve" font-family="Dosis-Regular" font-size="53.0" fill="#94B81F" transform="matrix(1.00, 0.00, -0.00, -1.00, 225.8, 14.1)">r</text><text xml:space="preserve" font-family="Dosis-Regular" font-size="53.0" fill="#94B81F" transform="matrix(1.00, 0.00, -0.00, -1.00, 243.3, 14.1)">a</text><text xml:space="preserve" font-family="Dosis-Regular" font-size="53.0" fill="#94B81F" transform="matrix(1.00, 0.00, -0.00, -1.00, 266.6, 14.1)"> </text><text xml:space="preserve" font-family="Dosis-Regular" font-size="53.0" fill="#94B81F" transform="matrix(1.00, 0.00, -0.00, -1.00, 277.2, 14.1)">u</text><text xml:space="preserve" font-family="Dosis-Regular" font-size="53.0" fill="#94B81F" transform="matrix(1.00, 0.00, -0.00, -1.00, 303.5, 14.1)">m</text><text xml:space="preserve" font-family="Dosis-Regular" font-size="53.0" fill="#94B81F" transform="matrix(1.00, 0.00, -0.00, -1.00, 344.8, 14.1)"> </text><text xml:space="preserve" font-family="Dosis-Regular" font-size="53.0" fill="#94B81F" transform="matrix(1.00, 0.00, -0.00, -1.00, 355.4, 14.1)">f</text><text xml:space="preserve" font-family="Dosis-Regular" font-size="53.0" fill="#94B81F" transform="matrix(1.00, 0.00, -0.00, -1.00, 371.6, 14.1)">u</text><text xml:space="preserve" font-family="Dosis-Regular" font-size="53.0" fill="#94B81F" transform="matrix(1.00, 0.00, -0.00, -1.00, 397.8, 14.1)">t</text><text xml:space="preserve" font-family="Dosis-Regular" font-size="53.0" fill="#94B81F" transform="matrix(1.00, 0.00, -0.00, -1.00, 413.6, 14.1)">u</text><text xml:space="preserve" font-family="Dosis-Regular" font-size="53.0" fill="#94B81F" transform="matrix(1.00, 0.00, -0.00, -1.00, 439.9, 14.1)">r</text><text xml:space="preserve" font-family="Dosis-Regular" font-size="53.0" fill="#94B81F" transform="matrix(1.00, 0.00, -0.00, -1.00, 456.5, 14.1)">o</text><text xml:space="preserve" font-family="Dosis-Regular" font-size="53.0" fill="#94B81F" transform="matrix(1.00, 0.00, -0.00, -1.00, 481.3, 14.1)"> </text><text xml:space="preserve" font-family="Dosis-Regular" font-size="53.0" fill="#94B81F" transform="matrix(1.00, 0.00, -0.00, -1.00, 491.9, 14.1)">p</text><text xml:space="preserve" font-family="Dosis-Regular" font-size="53.0" fill="#94B81F" transform="matrix(1.00, 0.00, -0.00, -1.00, 517.5, 14.1)">r</text><text xml:space="preserve" font-family="Dosis-Regular" font-size="53.0" fill="#94B81F" transform="matrix(1.00, 0.00, -0.00, -1.00, 534.1, 14.1)">ó</text><text xml:space="preserve" font-family="Dosis-Regular" font-size="53.0" fill="#94B81F" transform="matrix(1.00, 0.00, -0.00, -1.00, 558.4, 14.1)">x</text><text xml:space="preserve" font-family="Dosis-Regular" font-size="53.0" fill="#94B81F" transform="matrix(1.00, 0.00, -0.00, -1.00, 580.2, 14.1)">i</text><text xml:space="preserve" font-family="Dosis-Regular" font-size="53.0" fill="#94B81F" transform="matrix(1.00, 0.00, -0.00, -1.00, 590.3, 14.1)">m</text><text xml:space="preserve" font-family="Dosis-Regular" font-size="53.0" fill="#94B81F" transform="matrix(1.00, 0.00, -0.00, -1.00, 631.6, 14.1)">o</text><text xml:space="preserve" font-family="Dosis-Regular" font-size="53.0" fill="#94B81F" transform="matrix(1.00, 0.00, -0.00, -1.00, 656.4, 14.1)">…</text><text xml:space="preserve" font-family="Dosis-Regular" font-size="53.0" fill="#94B81F" transform="matrix(1.00, 0.00, -0.00, -1.00, 684.7, 14.1)"> </text></g></svg>