<?xml version="1.0" encoding="UTF-8" standalone="no"?><svg xmlns="http://www.w3.org/2000/svg" xmlns:xlink="http://www.w3.org/1999/xlink" clip-rule="evenodd" stroke-miterlimit="4.00" viewBox="0 0 672 407"><desc>SVG generated by Keynote</desc><defs></defs><g transform="matrix(1.00, 0.00, -0.00, -1.00, 0.0, 407.0)"><g><clipPath id="clip-233"><path d="M 0.2 0.6 L 125.8 0.6 L 125.8 406.9 L 0.2 406.9 Z M 0.2 0.6 "></path></clipPath><g clip-path="url(#clip-233)"><image xlink:href="../../103685CC-7A9D-4A24-92A5-A588DC722414/assets/6EBD3D166122693109AF200B6CC1510A.png" width="156.00" height="505.00" transform="matrix(0.81, 0.00, -0.00, -0.80, 0.0, 407.0)"></image></g></g><g><clipPath id="clip-234"><path d="M 216.2 102.2 L 679.6 102.2 L 679.6 305.3 L 216.2 305.3 Z M 216.2 102.2 "></path></clipPath><g clip-path="url(#clip-234)"><text xml:space="preserve" font-family="Dosis-SemiBold" font-weight="bold" font-size="46.0" fill="#002451" transform="matrix(1.00, 0.00, -0.00, -1.00, 314.0, 244.0)">B</text><text xml:space="preserve" font-family="Dosis-SemiBold" font-weight="bold" font-size="46.0" fill="#002451" transform="matrix(1.00, 0.00, -0.00, -1.00, 339.4, 244.0)">r</text><text xml:space="preserve" font-family="Dosis-SemiBold" font-weight="bold" font-size="46.0" fill="#002451" transform="matrix(1.00, 0.00, -0.00, -1.00, 356.0, 244.0)">i</text><text xml:space="preserve" font-family="Dosis-SemiBold" font-weight="bold" font-size="46.0" fill="#002451" transform="matrix(1.00, 0.00, -0.00, -1.00, 365.9, 244.0)">a</text><text xml:space="preserve" font-family="Dosis-SemiBold" font-weight="bold" font-size="46.0" fill="#002451" transform="matrix(1.00, 0.00, -0.00, -1.00, 387.0, 244.0)">n</text><text xml:space="preserve" font-family="Dosis-SemiBold" font-weight="bold" font-size="46.0" fill="#002451" transform="matrix(1.00, 0.00, -0.00, -1.00, 410.6, 244.0)"> </text><text xml:space="preserve" font-family="Dosis-SemiBold" font-weight="bold" font-size="46.0" fill="#002451" transform="matrix(1.00, 0.00, -0.00, -1.00, 419.8, 244.0)">ï¬</text><text xml:space="preserve" font-family="Dosis-SemiBold" font-weight="bold" font-size="46.0" fill="#002451" transform="matrix(1.00, 0.00, -0.00, -1.00, 444.9, 244.0)">c</text><text xml:space="preserve" font-family="Dosis-SemiBold" font-weight="bold" font-size="46.0" fill="#002451" transform="matrix(1.00, 0.00, -0.00, -1.00, 464.5, 244.0)">a</text><text xml:space="preserve" font-family="Dosis-SemiBold" font-weight="bold" font-size="46.0" fill="#002451" transform="matrix(1.00, 0.00, -0.00, -1.00, 485.6, 244.0)"> </text><text xml:space="preserve" font-family="Dosis-SemiBold" font-weight="bold" font-size="46.0" fill="#002451" transform="matrix(1.00, 0.00, -0.00, -1.00, 494.8, 244.0)">f</text><text xml:space="preserve" font-family="Dosis-SemiBold" font-weight="bold" font-size="46.0" fill="#002451" transform="matrix(1.00, 0.00, -0.00, -1.00, 509.3, 244.0)">e</text><text xml:space="preserve" font-family="Dosis-SemiBold" font-weight="bold" font-size="46.0" fill="#002451" transform="matrix(1.00, 0.00, -0.00, -1.00, 531.1, 244.0)">l</text><text xml:space="preserve" font-family="Dosis-SemiBold" font-weight="bold" font-size="46.0" fill="#002451" transform="matrix(1.00, 0.00, -0.00, -1.00, 541.8, 244.0)">i</text><text xml:space="preserve" font-family="Dosis-SemiBold" font-weight="bold" font-size="46.0" fill="#002451" transform="matrix(1.00, 0.00, -0.00, -1.00, 551.7, 244.0)">z</text><text xml:space="preserve" font-family="Dosis-SemiBold" font-weight="bold" font-size="46.0" fill="#002451" transform="matrix(1.00, 0.00, -0.00, -1.00, 571.3, 244.0)">:</text><text xml:space="preserve" font-family="Dosis-SemiBold" font-weight="bold" font-size="46.0" fill="#002451" transform="matrix(1.00, 0.00, -0.00, -1.00, 581.4, 244.0)"> </text><text xml:space="preserve" font-family="Dosis-SemiBold" font-weight="bold" font-size="46.0" fill="#002451" transform="matrix(1.00, 0.00, -0.00, -1.00, 590.6, 244.0)"> </text><text xml:space="preserve" font-family="Dosis-Regular" font-size="46.0" fill="#002451" transform="matrix(1.00, 0.00, -0.00, -1.00, 237.0, 186.0)">s</text><text xml:space="preserve" font-family="Dosis-Regular" font-size="46.0" fill="#002451" transform="matrix(1.00, 0.00, -0.00, -1.00, 254.7, 186.0)">u</text><text xml:space="preserve" font-family="Dosis-Regular" font-size="46.0" fill="#002451" transform="matrix(1.00, 0.00, -0.00, -1.00, 277.5, 186.0)">a</text><text xml:space="preserve" font-family="Dosis-Regular" font-size="46.0" fill="#002451" transform="matrix(1.00, 0.00, -0.00, -1.00, 297.7, 186.0)"> </text><text xml:space="preserve" font-family="Dosis-Regular" font-size="46.0" fill="#002451" transform="matrix(1.00, 0.00, -0.00, -1.00, 306.9, 186.0)">a</text><text xml:space="preserve" font-family="Dosis-Regular" font-size="46.0" fill="#002451" transform="matrix(1.00, 0.00, -0.00, -1.00, 327.0, 186.0)">t</text><text xml:space="preserve" font-family="Dosis-Regular" font-size="46.0" fill="#002451" transform="matrix(1.00, 0.00, -0.00, -1.00, 340.7, 186.0)">i</text><text xml:space="preserve" font-family="Dosis-Regular" font-size="46.0" fill="#002451" transform="matrix(1.00, 0.00, -0.00, -1.00, 349.5, 186.0)">v</text><text xml:space="preserve" font-family="Dosis-Regular" font-size="46.0" fill="#002451" transform="matrix(1.00, 0.00, -0.00, -1.00, 368.8, 186.0)">i</text><text xml:space="preserve" font-family="Dosis-Regular" font-size="46.0" fill="#002451" transform="matrix(1.00, 0.00, -0.00, -1.00, 377.6, 186.0)">d</text><text xml:space="preserve" font-family="Dosis-Regular" font-size="46.0" fill="#002451" transform="matrix(1.00, 0.00, -0.00, -1.00, 399.8, 186.0)">a</text><text xml:space="preserve" font-family="Dosis-Regular" font-size="46.0" fill="#002451" transform="matrix(1.00, 0.00, -0.00, -1.00, 420.0, 186.0)">d</text><text xml:space="preserve" font-family="Dosis-Regular" font-size="46.0" fill="#002451" transform="matrix(1.00, 0.00, -0.00, -1.00, 442.3, 186.0)">e</text><text xml:space="preserve" font-family="Dosis-Regular" font-size="46.0" fill="#002451" transform="matrix(1.00, 0.00, -0.00, -1.00, 463.3, 186.0)"> </text><text xml:space="preserve" font-family="Dosis-Regular" font-size="46.0" fill="#002451" transform="matrix(1.00, 0.00, -0.00, -1.00, 472.5, 186.0)">p</text><text xml:space="preserve" font-family="Dosis-Regular" font-size="46.0" fill="#002451" transform="matrix(1.00, 0.00, -0.00, -1.00, 494.8, 186.0)">a</text><text xml:space="preserve" font-family="Dosis-Regular" font-size="46.0" fill="#002451" transform="matrix(1.00, 0.00, -0.00, -1.00, 514.9, 186.0)">r</text><text xml:space="preserve" font-family="Dosis-Regular" font-size="46.0" fill="#002451" transform="matrix(1.00, 0.00, -0.00, -1.00, 530.2, 186.0)">a</text><text xml:space="preserve" font-family="Dosis-Regular" font-size="46.0" fill="#002451" transform="matrix(1.00, 0.00, -0.00, -1.00, 550.3, 186.0)">l</text><text xml:space="preserve" font-family="Dosis-Regular" font-size="46.0" fill="#002451" transform="matrix(1.00, 0.00, -0.00, -1.00, 559.8, 186.0)">e</text><text xml:space="preserve" font-family="Dosis-Regular" font-size="46.0" fill="#002451" transform="matrix(1.00, 0.00, -0.00, -1.00, 580.9, 186.0)">l</text><text xml:space="preserve" font-family="Dosis-Regular" font-size="46.0" fill="#002451" transform="matrix(1.00, 0.00, -0.00, -1.00, 590.4, 186.0)">a</text><text xml:space="preserve" font-family="Dosis-Regular" font-size="46.0" fill="#002451" transform="matrix(1.00, 0.00, -0.00, -1.00, 610.6, 186.0)"> </text><text xml:space="preserve" font-family="Dosis-Regular" font-size="46.0" fill="#002451" transform="matrix(1.00, 0.00, -0.00, -1.00, 619.8, 186.0)">s</text><text xml:space="preserve" font-family="Dosis-Regular" font-size="46.0" fill="#002451" transform="matrix(1.00, 0.00, -0.00, -1.00, 637.5, 186.0)">e</text><text xml:space="preserve" font-family="Dosis-Regular" font-size="46.0" fill="#002451" transform="matrix(1.00, 0.00, -0.00, -1.00, 658.5, 186.0)"> </text><text xml:space="preserve" font-family="Dosis-Regular" font-size="46.0" fill="#002451" transform="matrix(1.00, 0.00, -0.00, -1.00, 252.0, 128.0)">t</text><text xml:space="preserve" font-family="Dosis-Regular" font-size="46.0" fill="#002451" transform="matrix(1.00, 0.00, -0.00, -1.00, 265.2, 128.0)">o</text><text xml:space="preserve" font-family="Dosis-Regular" font-size="46.0" fill="#002451" transform="matrix(1.00, 0.00, -0.00, -1.00, 286.8, 128.0)">r</text><text xml:space="preserve" font-family="Dosis-Regular" font-size="46.0" fill="#002451" transform="matrix(1.00, 0.00, -0.00, -1.00, 302.0, 128.0)">n</text><text xml:space="preserve" font-family="Dosis-Regular" font-size="46.0" fill="#002451" transform="matrix(1.00, 0.00, -0.00, -1.00, 324.8, 128.0)">o</text><text xml:space="preserve" font-family="Dosis-Regular" font-size="46.0" fill="#002451" transform="matrix(1.00, 0.00, -0.00, -1.00, 346.3, 128.0)">u</text><text xml:space="preserve" font-family="Dosis-Regular" font-size="46.0" fill="#002451" transform="matrix(1.00, 0.00, -0.00, -1.00, 369.2, 128.0)"> </text><text xml:space="preserve" font-family="Dosis-Regular" font-size="46.0" fill="#002451" transform="matrix(1.00, 0.00, -0.00, -1.00, 378.4, 128.0)">e</text><text xml:space="preserve" font-family="Dosis-Regular" font-size="46.0" fill="#002451" transform="matrix(1.00, 0.00, -0.00, -1.00, 399.4, 128.0)">m</text><text xml:space="preserve" font-family="Dosis-Regular" font-size="46.0" fill="#002451" transform="matrix(1.00, 0.00, -0.00, -1.00, 435.3, 128.0)"> </text><text xml:space="preserve" font-family="Dosis-Regular" font-size="46.0" fill="#002451" transform="matrix(1.00, 0.00, -0.00, -1.00, 444.5, 128.0)">u</text><text xml:space="preserve" font-family="Dosis-Regular" font-size="46.0" fill="#002451" transform="matrix(1.00, 0.00, -0.00, -1.00, 467.3, 128.0)">m</text><text xml:space="preserve" font-family="Dosis-Regular" font-size="46.0" fill="#002451" transform="matrix(1.00, 0.00, -0.00, -1.00, 503.2, 128.0)"> </text><text xml:space="preserve" font-family="Dosis-Regular" font-size="46.0" fill="#002451" transform="matrix(1.00, 0.00, -0.00, -1.00, 512.4, 128.0)">p</text><text xml:space="preserve" font-family="Dosis-Regular" font-size="46.0" fill="#002451" transform="matrix(1.00, 0.00, -0.00, -1.00, 534.7, 128.0)">r</text><text xml:space="preserve" font-family="Dosis-Regular" font-size="46.0" fill="#002451" transform="matrix(1.00, 0.00, -0.00, -1.00, 549.1, 128.0)">o</text><text xml:space="preserve" font-family="Dosis-Regular" font-size="46.0" fill="#002451" transform="matrix(1.00, 0.00, -0.00, -1.00, 570.6, 128.0)">j</text><text xml:space="preserve" font-family="Dosis-Regular" font-size="46.0" fill="#002451" transform="matrix(1.00, 0.00, -0.00, -1.00, 579.4, 128.0)">e</text><text xml:space="preserve" font-family="Dosis-Regular" font-size="46.0" fill="#002451" transform="matrix(1.00, 0.00, -0.00, -1.00, 600.5, 128.0)">t</text><text xml:space="preserve" font-family="Dosis-Regular" font-size="46.0" fill="#002451" transform="matrix(1.00, 0.00, -0.00, -1.00, 613.7, 128.0)">o</text><text xml:space="preserve" font-family="Dosis-Regular" font-size="46.0" fill="#002451" transform="matrix(1.00, 0.00, -0.00, -1.00, 635.2, 128.0)">.</text></g></g></g></svg>