<?xml version="1.0" encoding="UTF-8" standalone="no"?><svg xmlns="http://www.w3.org/2000/svg" xmlns:xlink="http://www.w3.org/1999/xlink" clip-rule="evenodd" stroke-miterlimit="4.00" viewBox="0 0 1920 1080"><desc>SVG generated by Keynote</desc><defs></defs><g transform="matrix(1.00, 0.00, -0.00, -1.00, 0.0, 1080.0)"><path d="M 0.0 1080.0 L 1920.0 1080.0 L 1920.0 0.0 L 0.0 0.0 Z M 0.0 1080.0 " fill="#E4E4E6"></path><g><clipPath id="clip-251"><path d="M 991.7 43.6 L 1199.7 43.6 L 1199.7 497.6 L 991.7 497.6 Z M 991.7 43.6 "></path></clipPath><g clip-path="url(#clip-251)"><image xlink:href="../../6542EA6E-5DCF-4F18-9B36-2965D65440A7/assets/30D1F84D586730E4F9E0C1BC54C2C7B5.png" width="208.00" height="454.00" transform="matrix(1.00, 0.00, -0.00, -1.00, 991.7, 497.6)" opacity="0.49"></image><image xlink:href="../../31988637-2FFF-4FEC-BD34-530603D55072/assets/E017866B2569FC0446872A379BFA70C9.png" width="184.00" height="430.00" transform="matrix(1.00, 0.00, -0.00, -1.00, 996.0, 492.0)"></image></g></g><g><clipPath id="clip-252"><path d="M 1210.2 200.1 L 1735.6 200.1 L 1735.6 403.2 L 1210.2 403.2 Z M 1210.2 200.1 "></path></clipPath><g clip-path="url(#clip-252)"><text xml:space="preserve" font-family="Dosis-SemiBold" font-weight="bold" font-size="46.0" fill="#002451" transform="matrix(1.00, 0.00, -0.00, -1.00, 1346.0, 342.0)">S</text><text xml:space="preserve" font-family="Dosis-SemiBold" font-weight="bold" font-size="46.0" fill="#002451" transform="matrix(1.00, 0.00, -0.00, -1.00, 1369.6, 342.0)">a</text><text xml:space="preserve" font-family="Dosis-SemiBold" font-weight="bold" font-size="46.0" fill="#002451" transform="matrix(1.00, 0.00, -0.00, -1.00, 1390.7, 342.0)">r</text><text xml:space="preserve" font-family="Dosis-SemiBold" font-weight="bold" font-size="46.0" fill="#002451" transform="matrix(1.00, 0.00, -0.00, -1.00, 1407.3, 342.0)">a</text><text xml:space="preserve" font-family="Dosis-SemiBold" font-weight="bold" font-size="46.0" fill="#002451" transform="matrix(1.00, 0.00, -0.00, -1.00, 1428.4, 342.0)"> </text><text xml:space="preserve" font-family="Dosis-SemiBold" font-weight="bold" font-size="46.0" fill="#002451" transform="matrix(1.00, 0.00, -0.00, -1.00, 1437.6, 342.0)">ﬁ</text><text xml:space="preserve" font-family="Dosis-SemiBold" font-weight="bold" font-size="46.0" fill="#002451" transform="matrix(1.00, 0.00, -0.00, -1.00, 1462.7, 342.0)">c</text><text xml:space="preserve" font-family="Dosis-SemiBold" font-weight="bold" font-size="46.0" fill="#002451" transform="matrix(1.00, 0.00, -0.00, -1.00, 1482.3, 342.0)">a</text><text xml:space="preserve" font-family="Dosis-SemiBold" font-weight="bold" font-size="46.0" fill="#002451" transform="matrix(1.00, 0.00, -0.00, -1.00, 1503.4, 342.0)"> </text><text xml:space="preserve" font-family="Dosis-SemiBold" font-weight="bold" font-size="46.0" fill="#002451" transform="matrix(1.00, 0.00, -0.00, -1.00, 1512.6, 342.0)">f</text><text xml:space="preserve" font-family="Dosis-SemiBold" font-weight="bold" font-size="46.0" fill="#002451" transform="matrix(1.00, 0.00, -0.00, -1.00, 1527.1, 342.0)">e</text><text xml:space="preserve" font-family="Dosis-SemiBold" font-weight="bold" font-size="46.0" fill="#002451" transform="matrix(1.00, 0.00, -0.00, -1.00, 1548.9, 342.0)">l</text><text xml:space="preserve" font-family="Dosis-SemiBold" font-weight="bold" font-size="46.0" fill="#002451" transform="matrix(1.00, 0.00, -0.00, -1.00, 1559.6, 342.0)">i</text><text xml:space="preserve" font-family="Dosis-SemiBold" font-weight="bold" font-size="46.0" fill="#002451" transform="matrix(1.00, 0.00, -0.00, -1.00, 1569.5, 342.0)">z</text><text xml:space="preserve" font-family="Dosis-SemiBold" font-weight="bold" font-size="46.0" fill="#002451" transform="matrix(1.00, 0.00, -0.00, -1.00, 1589.1, 342.0)">:</text><text xml:space="preserve" font-family="Dosis-SemiBold" font-weight="bold" font-size="46.0" fill="#002451" transform="matrix(1.00, 0.00, -0.00, -1.00, 1599.1, 342.0)"> </text><text xml:space="preserve" font-family="Dosis-SemiBold" font-weight="bold" font-size="46.0" fill="#002451" transform="matrix(1.00, 0.00, -0.00, -1.00, 1608.3, 342.0)"> </text><text xml:space="preserve" font-family="Dosis-Regular" font-size="46.0" fill="#002451" transform="matrix(1.00, 0.00, -0.00, -1.00, 1230.0, 284.0)">s</text><text xml:space="preserve" font-family="Dosis-Regular" font-size="46.0" fill="#002451" transform="matrix(1.00, 0.00, -0.00, -1.00, 1247.7, 284.0)">e</text><text xml:space="preserve" font-family="Dosis-Regular" font-size="46.0" fill="#002451" transform="matrix(1.00, 0.00, -0.00, -1.00, 1268.8, 284.0)">u</text><text xml:space="preserve" font-family="Dosis-Regular" font-size="46.0" fill="#002451" transform="matrix(1.00, 0.00, -0.00, -1.00, 1291.6, 284.0)"> </text><text xml:space="preserve" font-family="Dosis-Regular" font-size="46.0" fill="#002451" transform="matrix(1.00, 0.00, -0.00, -1.00, 1300.8, 284.0)">e</text><text xml:space="preserve" font-family="Dosis-Regular" font-size="46.0" fill="#002451" transform="matrix(1.00, 0.00, -0.00, -1.00, 1321.9, 284.0)">s</text><text xml:space="preserve" font-family="Dosis-Regular" font-size="46.0" fill="#002451" transform="matrix(1.00, 0.00, -0.00, -1.00, 1339.6, 284.0)">p</text><text xml:space="preserve" font-family="Dosis-Regular" font-size="46.0" fill="#002451" transform="matrix(1.00, 0.00, -0.00, -1.00, 1361.8, 284.0)">a</text><text xml:space="preserve" font-family="Dosis-Regular" font-size="46.0" fill="#002451" transform="matrix(1.00, 0.00, -0.00, -1.00, 1382.0, 284.0)">ç</text><text xml:space="preserve" font-family="Dosis-Regular" font-size="46.0" fill="#002451" transform="matrix(1.00, 0.00, -0.00, -1.00, 1400.7, 284.0)">o</text><text xml:space="preserve" font-family="Dosis-Regular" font-size="46.0" fill="#002451" transform="matrix(1.00, 0.00, -0.00, -1.00, 1422.2, 284.0)"> </text><text xml:space="preserve" font-family="Dosis-Regular" font-size="46.0" fill="#002451" transform="matrix(1.00, 0.00, -0.00, -1.00, 1431.4, 284.0)">o</text><text xml:space="preserve" font-family="Dosis-Regular" font-size="46.0" fill="#002451" transform="matrix(1.00, 0.00, -0.00, -1.00, 1452.9, 284.0)">c</text><text xml:space="preserve" font-family="Dosis-Regular" font-size="46.0" fill="#002451" transform="matrix(1.00, 0.00, -0.00, -1.00, 1471.8, 284.0)">i</text><text xml:space="preserve" font-family="Dosis-Regular" font-size="46.0" fill="#002451" transform="matrix(1.00, 0.00, -0.00, -1.00, 1480.6, 284.0)">o</text><text xml:space="preserve" font-family="Dosis-Regular" font-size="46.0" fill="#002451" transform="matrix(1.00, 0.00, -0.00, -1.00, 1502.1, 284.0)">s</text><text xml:space="preserve" font-family="Dosis-Regular" font-size="46.0" fill="#002451" transform="matrix(1.00, 0.00, -0.00, -1.00, 1519.8, 284.0)">o</text><text xml:space="preserve" font-family="Dosis-Regular" font-size="46.0" fill="#002451" transform="matrix(1.00, 0.00, -0.00, -1.00, 1541.4, 284.0)"> </text><text xml:space="preserve" font-family="Dosis-Regular" font-size="46.0" fill="#002451" transform="matrix(1.00, 0.00, -0.00, -1.00, 1550.6, 284.0)">s</text><text xml:space="preserve" font-family="Dosis-Regular" font-size="46.0" fill="#002451" transform="matrix(1.00, 0.00, -0.00, -1.00, 1568.3, 284.0)">e</text><text xml:space="preserve" font-family="Dosis-Regular" font-size="46.0" fill="#002451" transform="matrix(1.00, 0.00, -0.00, -1.00, 1589.4, 284.0)"> </text><text xml:space="preserve" font-family="Dosis-Regular" font-size="46.0" fill="#002451" transform="matrix(1.00, 0.00, -0.00, -1.00, 1598.6, 284.0)">t</text><text xml:space="preserve" font-family="Dosis-Regular" font-size="46.0" fill="#002451" transform="matrix(1.00, 0.00, -0.00, -1.00, 1611.8, 284.0)">o</text><text xml:space="preserve" font-family="Dosis-Regular" font-size="46.0" fill="#002451" transform="matrix(1.00, 0.00, -0.00, -1.00, 1633.3, 284.0)">r</text><text xml:space="preserve" font-family="Dosis-Regular" font-size="46.0" fill="#002451" transform="matrix(1.00, 0.00, -0.00, -1.00, 1648.6, 284.0)">n</text><text xml:space="preserve" font-family="Dosis-Regular" font-size="46.0" fill="#002451" transform="matrix(1.00, 0.00, -0.00, -1.00, 1671.4, 284.0)">o</text><text xml:space="preserve" font-family="Dosis-Regular" font-size="46.0" fill="#002451" transform="matrix(1.00, 0.00, -0.00, -1.00, 1692.9, 284.0)">u</text><text xml:space="preserve" font-family="Dosis-Regular" font-size="46.0" fill="#002451" transform="matrix(1.00, 0.00, -0.00, -1.00, 1715.7, 284.0)"> </text><text xml:space="preserve" font-family="Dosis-Regular" font-size="46.0" fill="#002451" transform="matrix(1.00, 0.00, -0.00, -1.00, 1328.0, 226.0)">u</text><text xml:space="preserve" font-family="Dosis-Regular" font-size="46.0" fill="#002451" transform="matrix(1.00, 0.00, -0.00, -1.00, 1350.8, 226.0)">m</text><text xml:space="preserve" font-family="Dosis-Regular" font-size="46.0" fill="#002451" transform="matrix(1.00, 0.00, -0.00, -1.00, 1386.7, 226.0)"> </text><text xml:space="preserve" font-family="Dosis-Regular" font-size="46.0" fill="#002451" transform="matrix(1.00, 0.00, -0.00, -1.00, 1395.9, 226.0)">e</text><text xml:space="preserve" font-family="Dosis-Regular" font-size="46.0" fill="#002451" transform="matrix(1.00, 0.00, -0.00, -1.00, 1417.0, 226.0)">x</text><text xml:space="preserve" font-family="Dosis-Regular" font-size="46.0" fill="#002451" transform="matrix(1.00, 0.00, -0.00, -1.00, 1435.8, 226.0)">t</text><text xml:space="preserve" font-family="Dosis-Regular" font-size="46.0" fill="#002451" transform="matrix(1.00, 0.00, -0.00, -1.00, 1449.5, 226.0)">r</text><text xml:space="preserve" font-family="Dosis-Regular" font-size="46.0" fill="#002451" transform="matrix(1.00, 0.00, -0.00, -1.00, 1464.7, 226.0)">a</text><text xml:space="preserve" font-family="Dosis-Regular" font-size="46.0" fill="#002451" transform="matrix(1.00, 0.00, -0.00, -1.00, 1484.9, 226.0)"> </text><text xml:space="preserve" font-family="Dosis-Regular" font-size="46.0" fill="#002451" transform="matrix(1.00, 0.00, -0.00, -1.00, 1494.1, 226.0)">b</text><text xml:space="preserve" font-family="Dosis-Regular" font-size="46.0" fill="#002451" transform="matrix(1.00, 0.00, -0.00, -1.00, 1516.3, 226.0)">u</text><text xml:space="preserve" font-family="Dosis-Regular" font-size="46.0" fill="#002451" transform="matrix(1.00, 0.00, -0.00, -1.00, 1539.1, 226.0)">d</text><text xml:space="preserve" font-family="Dosis-Regular" font-size="46.0" fill="#002451" transform="matrix(1.00, 0.00, -0.00, -1.00, 1561.4, 226.0)">g</text><text xml:space="preserve" font-family="Dosis-Regular" font-size="46.0" fill="#002451" transform="matrix(1.00, 0.00, -0.00, -1.00, 1582.2, 226.0)">e</text><text xml:space="preserve" font-family="Dosis-Regular" font-size="46.0" fill="#002451" transform="matrix(1.00, 0.00, -0.00, -1.00, 1603.3, 226.0)">t</text></g></g><text xml:space="preserve" font-family="Dosis-Regular" font-size="42.0" fill="#002451" transform="matrix(1.00, 0.00, -0.00, -1.00, 164.0, 347.0)">O</text><text xml:space="preserve" font-family="Dosis-Regular" font-size="42.0" fill="#002451" transform="matrix(1.00, 0.00, -0.00, -1.00, 187.2, 347.0)"> </text><text xml:space="preserve" font-family="Dosis-Regular" font-size="42.0" fill="#002451" transform="matrix(1.00, 0.00, -0.00, -1.00, 195.6, 347.0)">P</text><text xml:space="preserve" font-family="Dosis-Regular" font-size="42.0" fill="#002451" transform="matrix(1.00, 0.00, -0.00, -1.00, 216.7, 347.0)">o</text><text xml:space="preserve" font-family="Dosis-Regular" font-size="42.0" fill="#002451" transform="matrix(1.00, 0.00, -0.00, -1.00, 236.3, 347.0)">l</text><text xml:space="preserve" font-family="Dosis-Regular" font-size="42.0" fill="#002451" transform="matrix(1.00, 0.00, -0.00, -1.00, 245.0, 347.0)">v</text><text xml:space="preserve" font-family="Dosis-Regular" font-size="42.0" fill="#002451" transform="matrix(1.00, 0.00, -0.00, -1.00, 262.7, 347.0)">o</text><text xml:space="preserve" font-family="Dosis-Regular" font-size="42.0" fill="#002451" transform="matrix(1.00, 0.00, -0.00, -1.00, 282.3, 347.0)"> </text><text xml:space="preserve" font-family="Dosis-Regular" font-size="42.0" fill="#002451" transform="matrix(1.00, 0.00, -0.00, -1.00, 290.7, 347.0)">c</text><text xml:space="preserve" font-family="Dosis-Regular" font-size="42.0" fill="#002451" transform="matrix(1.00, 0.00, -0.00, -1.00, 307.8, 347.0)">o</text><text xml:space="preserve" font-family="Dosis-Regular" font-size="42.0" fill="#002451" transform="matrix(1.00, 0.00, -0.00, -1.00, 327.4, 347.0)">n</text><text xml:space="preserve" font-family="Dosis-Regular" font-size="42.0" fill="#002451" transform="matrix(1.00, 0.00, -0.00, -1.00, 348.3, 347.0)">e</text><text xml:space="preserve" font-family="Dosis-Regular" font-size="42.0" fill="#002451" transform="matrix(1.00, 0.00, -0.00, -1.00, 367.5, 347.0)">c</text><text xml:space="preserve" font-family="Dosis-Regular" font-size="42.0" fill="#002451" transform="matrix(1.00, 0.00, -0.00, -1.00, 384.8, 347.0)">t</text><text xml:space="preserve" font-family="Dosis-Regular" font-size="42.0" fill="#002451" transform="matrix(1.00, 0.00, -0.00, -1.00, 397.2, 347.0)">a</text><text xml:space="preserve" font-family="Dosis-Regular" font-size="42.0" fill="#002451" transform="matrix(1.00, 0.00, -0.00, -1.00, 415.6, 347.0)"> </text><text xml:space="preserve" font-family="Dosis-Regular" font-size="42.0" fill="#002451" transform="matrix(1.00, 0.00, -0.00, -1.00, 424.0, 347.0)">a</text><text xml:space="preserve" font-family="Dosis-Regular" font-size="42.0" fill="#002451" transform="matrix(1.00, 0.00, -0.00, -1.00, 442.4, 347.0)"> </text><text xml:space="preserve" font-family="Dosis-Regular" font-size="42.0" fill="#002451" transform="matrix(1.00, 0.00, -0.00, -1.00, 450.8, 347.0)">n</text><text xml:space="preserve" font-family="Dosis-Regular" font-size="42.0" fill="#002451" transform="matrix(1.00, 0.00, -0.00, -1.00, 471.6, 347.0)">e</text><text xml:space="preserve" font-family="Dosis-Regular" font-size="42.0" fill="#002451" transform="matrix(1.00, 0.00, -0.00, -1.00, 490.9, 347.0)">c</text><text xml:space="preserve" font-family="Dosis-Regular" font-size="42.0" fill="#002451" transform="matrix(1.00, 0.00, -0.00, -1.00, 507.9, 347.0)">e</text><text xml:space="preserve" font-family="Dosis-Regular" font-size="42.0" fill="#002451" transform="matrix(1.00, 0.00, -0.00, -1.00, 527.2, 347.0)">s</text><text xml:space="preserve" font-family="Dosis-Regular" font-size="42.0" fill="#002451" transform="matrix(1.00, 0.00, -0.00, -1.00, 543.3, 347.0)">s</text><text xml:space="preserve" font-family="Dosis-Regular" font-size="42.0" fill="#002451" transform="matrix(1.00, 0.00, -0.00, -1.00, 559.5, 347.0)">i</text><text xml:space="preserve" font-family="Dosis-Regular" font-size="42.0" fill="#002451" transform="matrix(1.00, 0.00, -0.00, -1.00, 567.5, 347.0)">d</text><text xml:space="preserve" font-family="Dosis-Regular" font-size="42.0" fill="#002451" transform="matrix(1.00, 0.00, -0.00, -1.00, 587.9, 347.0)">a</text><text xml:space="preserve" font-family="Dosis-Regular" font-size="42.0" fill="#002451" transform="matrix(1.00, 0.00, -0.00, -1.00, 606.3, 347.0)">d</text><text xml:space="preserve" font-family="Dosis-Regular" font-size="42.0" fill="#002451" transform="matrix(1.00, 0.00, -0.00, -1.00, 626.6, 347.0)">e</text><text xml:space="preserve" font-family="Dosis-Regular" font-size="42.0" fill="#002451" transform="matrix(1.00, 0.00, -0.00, -1.00, 645.8, 347.0)"> </text><text xml:space="preserve" font-family="Dosis-Regular" font-size="42.0" fill="#002451" transform="matrix(1.00, 0.00, -0.00, -1.00, 654.2, 347.0)">d</text><text xml:space="preserve" font-family="Dosis-Regular" font-size="42.0" fill="#002451" transform="matrix(1.00, 0.00, -0.00, -1.00, 674.6, 347.0)">e</text><text xml:space="preserve" font-family="Dosis-Regular" font-size="42.0" fill="#002451" transform="matrix(1.00, 0.00, -0.00, -1.00, 693.8, 347.0)"> </text><text xml:space="preserve" font-family="Dosis-Regular" font-size="42.0" fill="#002451" transform="matrix(1.00, 0.00, -0.00, -1.00, 702.2, 347.0)">B</text><text xml:space="preserve" font-family="Dosis-Regular" font-size="42.0" fill="#002451" transform="matrix(1.00, 0.00, -0.00, -1.00, 724.8, 347.0)">r</text><text xml:space="preserve" font-family="Dosis-Regular" font-size="42.0" fill="#002451" transform="matrix(1.00, 0.00, -0.00, -1.00, 738.7, 347.0)">i</text><text xml:space="preserve" font-family="Dosis-Regular" font-size="42.0" fill="#002451" transform="matrix(1.00, 0.00, -0.00, -1.00, 746.7, 347.0)">a</text><text xml:space="preserve" font-family="Dosis-Regular" font-size="42.0" fill="#002451" transform="matrix(1.00, 0.00, -0.00, -1.00, 765.1, 347.0)">n</text><text xml:space="preserve" font-family="Dosis-Regular" font-size="42.0" fill="#002451" transform="matrix(1.00, 0.00, -0.00, -1.00, 785.9, 347.0)"> </text><text xml:space="preserve" font-family="Dosis-Regular" font-size="42.0" fill="#002451" transform="matrix(1.00, 0.00, -0.00, -1.00, 303.0, 294.0)">c</text><text xml:space="preserve" font-family="Dosis-Regular" font-size="42.0" fill="#002451" transform="matrix(1.00, 0.00, -0.00, -1.00, 320.1, 294.0)">o</text><text xml:space="preserve" font-family="Dosis-Regular" font-size="42.0" fill="#002451" transform="matrix(1.00, 0.00, -0.00, -1.00, 339.7, 294.0)">m</text><text xml:space="preserve" font-family="Dosis-Regular" font-size="42.0" fill="#002451" transform="matrix(1.00, 0.00, -0.00, -1.00, 372.5, 294.0)"> </text><text xml:space="preserve" font-family="Dosis-Regular" font-size="42.0" fill="#002451" transform="matrix(1.00, 0.00, -0.00, -1.00, 380.9, 294.0)">o</text><text xml:space="preserve" font-family="Dosis-Regular" font-size="42.0" fill="#002451" transform="matrix(1.00, 0.00, -0.00, -1.00, 400.5, 294.0)"> </text><text xml:space="preserve" font-family="Dosis-Regular" font-size="42.0" fill="#002451" transform="matrix(1.00, 0.00, -0.00, -1.00, 408.9, 294.0)">e</text><text xml:space="preserve" font-family="Dosis-Regular" font-size="42.0" fill="#002451" transform="matrix(1.00, 0.00, -0.00, -1.00, 428.2, 294.0)">s</text><text xml:space="preserve" font-family="Dosis-Regular" font-size="42.0" fill="#002451" transform="matrix(1.00, 0.00, -0.00, -1.00, 444.3, 294.0)">p</text><text xml:space="preserve" font-family="Dosis-Regular" font-size="42.0" fill="#002451" transform="matrix(1.00, 0.00, -0.00, -1.00, 464.7, 294.0)">a</text><text xml:space="preserve" font-family="Dosis-Regular" font-size="42.0" fill="#002451" transform="matrix(1.00, 0.00, -0.00, -1.00, 483.1, 294.0)">ç</text><text xml:space="preserve" font-family="Dosis-Regular" font-size="42.0" fill="#002451" transform="matrix(1.00, 0.00, -0.00, -1.00, 500.1, 294.0)">o</text><text xml:space="preserve" font-family="Dosis-Regular" font-size="42.0" fill="#002451" transform="matrix(1.00, 0.00, -0.00, -1.00, 519.8, 294.0)"> </text><text xml:space="preserve" font-family="Dosis-Regular" font-size="42.0" fill="#002451" transform="matrix(1.00, 0.00, -0.00, -1.00, 528.2, 294.0)">d</text><text xml:space="preserve" font-family="Dosis-Regular" font-size="42.0" fill="#002451" transform="matrix(1.00, 0.00, -0.00, -1.00, 548.5, 294.0)">e</text><text xml:space="preserve" font-family="Dosis-Regular" font-size="42.0" fill="#002451" transform="matrix(1.00, 0.00, -0.00, -1.00, 567.7, 294.0)"> </text><text xml:space="preserve" font-family="Dosis-Regular" font-size="42.0" fill="#002451" transform="matrix(1.00, 0.00, -0.00, -1.00, 576.1, 294.0)">S</text><text xml:space="preserve" font-family="Dosis-Regular" font-size="42.0" fill="#002451" transform="matrix(1.00, 0.00, -0.00, -1.00, 596.9, 294.0)">a</text><text xml:space="preserve" font-family="Dosis-Regular" font-size="42.0" fill="#002451" transform="matrix(1.00, 0.00, -0.00, -1.00, 615.3, 294.0)">r</text><text xml:space="preserve" font-family="Dosis-Regular" font-size="42.0" fill="#002451" transform="matrix(1.00, 0.00, -0.00, -1.00, 629.2, 294.0)">a</text><g><clipPath id="clip-253"><path d="M 1025.2 559.6 L 1150.8 559.6 L 1150.8 965.9 L 1025.2 965.9 Z M 1025.2 559.6 "></path></clipPath><g clip-path="url(#clip-253)"><image xlink:href="../../103685CC-7A9D-4A24-92A5-A588DC722414/assets/6EBD3D166122693109AF200B6CC1510A.png" width="156.00" height="505.00" transform="matrix(0.81, 0.00, -0.00, -0.80, 1025.0, 966.0)"></image></g></g><g><clipPath id="clip-254"><path d="M 1241.2 661.2 L 1704.6 661.2 L 1704.6 864.3 L 1241.2 864.3 Z M 1241.2 661.2 "></path></clipPath><g clip-path="url(#clip-254)"><text xml:space="preserve" font-family="Dosis-SemiBold" font-weight="bold" font-size="46.0" fill="#002451" transform="matrix(1.00, 0.00, -0.00, -1.00, 1339.0, 803.0)">B</text><text xml:space="preserve" font-family="Dosis-SemiBold" font-weight="bold" font-size="46.0" fill="#002451" transform="matrix(1.00, 0.00, -0.00, -1.00, 1364.4, 803.0)">r</text><text xml:space="preserve" font-family="Dosis-SemiBold" font-weight="bold" font-size="46.0" fill="#002451" transform="matrix(1.00, 0.00, -0.00, -1.00, 1381.0, 803.0)">i</text><text xml:space="preserve" font-family="Dosis-SemiBold" font-weight="bold" font-size="46.0" fill="#002451" transform="matrix(1.00, 0.00, -0.00, -1.00, 1390.9, 803.0)">a</text><text xml:space="preserve" font-family="Dosis-SemiBold" font-weight="bold" font-size="46.0" fill="#002451" transform="matrix(1.00, 0.00, -0.00, -1.00, 1412.0, 803.0)">n</text><text xml:space="preserve" font-family="Dosis-SemiBold" font-weight="bold" font-size="46.0" fill="#002451" transform="matrix(1.00, 0.00, -0.00, -1.00, 1435.6, 803.0)"> </text><text xml:space="preserve" font-family="Dosis-SemiBold" font-weight="bold" font-size="46.0" fill="#002451" transform="matrix(1.00, 0.00, -0.00, -1.00, 1444.8, 803.0)">ﬁ</text><text xml:space="preserve" font-family="Dosis-SemiBold" font-weight="bold" font-size="46.0" fill="#002451" transform="matrix(1.00, 0.00, -0.00, -1.00, 1469.9, 803.0)">c</text><text xml:space="preserve" font-family="Dosis-SemiBold" font-weight="bold" font-size="46.0" fill="#002451" transform="matrix(1.00, 0.00, -0.00, -1.00, 1489.5, 803.0)">a</text><text xml:space="preserve" font-family="Dosis-SemiBold" font-weight="bold" font-size="46.0" fill="#002451" transform="matrix(1.00, 0.00, -0.00, -1.00, 1510.6, 803.0)"> </text><text xml:space="preserve" font-family="Dosis-SemiBold" font-weight="bold" font-size="46.0" fill="#002451" transform="matrix(1.00, 0.00, -0.00, -1.00, 1519.8, 803.0)">f</text><text xml:space="preserve" font-family="Dosis-SemiBold" font-weight="bold" font-size="46.0" fill="#002451" transform="matrix(1.00, 0.00, -0.00, -1.00, 1534.3, 803.0)">e</text><text xml:space="preserve" font-family="Dosis-SemiBold" font-weight="bold" font-size="46.0" fill="#002451" transform="matrix(1.00, 0.00, -0.00, -1.00, 1556.1, 803.0)">l</text><text xml:space="preserve" font-family="Dosis-SemiBold" font-weight="bold" font-size="46.0" fill="#002451" transform="matrix(1.00, 0.00, -0.00, -1.00, 1566.8, 803.0)">i</text><text xml:space="preserve" font-family="Dosis-SemiBold" font-weight="bold" font-size="46.0" fill="#002451" transform="matrix(1.00, 0.00, -0.00, -1.00, 1576.7, 803.0)">z</text><text xml:space="preserve" font-family="Dosis-SemiBold" font-weight="bold" font-size="46.0" fill="#002451" transform="matrix(1.00, 0.00, -0.00, -1.00, 1596.3, 803.0)">:</text><text xml:space="preserve" font-family="Dosis-SemiBold" font-weight="bold" font-size="46.0" fill="#002451" transform="matrix(1.00, 0.00, -0.00, -1.00, 1606.4, 803.0)"> </text><text xml:space="preserve" font-family="Dosis-SemiBold" font-weight="bold" font-size="46.0" fill="#002451" transform="matrix(1.00, 0.00, -0.00, -1.00, 1615.6, 803.0)"> </text><text xml:space="preserve" font-family="Dosis-Regular" font-size="46.0" fill="#002451" transform="matrix(1.00, 0.00, -0.00, -1.00, 1262.0, 745.0)">s</text><text xml:space="preserve" font-family="Dosis-Regular" font-size="46.0" fill="#002451" transform="matrix(1.00, 0.00, -0.00, -1.00, 1279.7, 745.0)">u</text><text xml:space="preserve" font-family="Dosis-Regular" font-size="46.0" fill="#002451" transform="matrix(1.00, 0.00, -0.00, -1.00, 1302.5, 745.0)">a</text><text xml:space="preserve" font-family="Dosis-Regular" font-size="46.0" fill="#002451" transform="matrix(1.00, 0.00, -0.00, -1.00, 1322.7, 745.0)"> </text><text xml:space="preserve" font-family="Dosis-Regular" font-size="46.0" fill="#002451" transform="matrix(1.00, 0.00, -0.00, -1.00, 1331.9, 745.0)">a</text><text xml:space="preserve" font-family="Dosis-Regular" font-size="46.0" fill="#002451" transform="matrix(1.00, 0.00, -0.00, -1.00, 1352.0, 745.0)">t</text><text xml:space="preserve" font-family="Dosis-Regular" font-size="46.0" fill="#002451" transform="matrix(1.00, 0.00, -0.00, -1.00, 1365.7, 745.0)">i</text><text xml:space="preserve" font-family="Dosis-Regular" font-size="46.0" fill="#002451" transform="matrix(1.00, 0.00, -0.00, -1.00, 1374.5, 745.0)">v</text><text xml:space="preserve" font-family="Dosis-Regular" font-size="46.0" fill="#002451" transform="matrix(1.00, 0.00, -0.00, -1.00, 1393.8, 745.0)">i</text><text xml:space="preserve" font-family="Dosis-Regular" font-size="46.0" fill="#002451" transform="matrix(1.00, 0.00, -0.00, -1.00, 1402.6, 745.0)">d</text><text xml:space="preserve" font-family="Dosis-Regular" font-size="46.0" fill="#002451" transform="matrix(1.00, 0.00, -0.00, -1.00, 1424.8, 745.0)">a</text><text xml:space="preserve" font-family="Dosis-Regular" font-size="46.0" fill="#002451" transform="matrix(1.00, 0.00, -0.00, -1.00, 1445.0, 745.0)">d</text><text xml:space="preserve" font-family="Dosis-Regular" font-size="46.0" fill="#002451" transform="matrix(1.00, 0.00, -0.00, -1.00, 1467.3, 745.0)">e</text><text xml:space="preserve" font-family="Dosis-Regular" font-size="46.0" fill="#002451" transform="matrix(1.00, 0.00, -0.00, -1.00, 1488.3, 745.0)"> </text><text xml:space="preserve" font-family="Dosis-Regular" font-size="46.0" fill="#002451" transform="matrix(1.00, 0.00, -0.00, -1.00, 1497.5, 745.0)">p</text><text xml:space="preserve" font-family="Dosis-Regular" font-size="46.0" fill="#002451" transform="matrix(1.00, 0.00, -0.00, -1.00, 1519.8, 745.0)">a</text><text xml:space="preserve" font-family="Dosis-Regular" font-size="46.0" fill="#002451" transform="matrix(1.00, 0.00, -0.00, -1.00, 1539.9, 745.0)">r</text><text xml:space="preserve" font-family="Dosis-Regular" font-size="46.0" fill="#002451" transform="matrix(1.00, 0.00, -0.00, -1.00, 1555.2, 745.0)">a</text><text xml:space="preserve" font-family="Dosis-Regular" font-size="46.0" fill="#002451" transform="matrix(1.00, 0.00, -0.00, -1.00, 1575.3, 745.0)">l</text><text xml:space="preserve" font-family="Dosis-Regular" font-size="46.0" fill="#002451" transform="matrix(1.00, 0.00, -0.00, -1.00, 1584.8, 745.0)">e</text><text xml:space="preserve" font-family="Dosis-Regular" font-size="46.0" fill="#002451" transform="matrix(1.00, 0.00, -0.00, -1.00, 1605.9, 745.0)">l</text><text xml:space="preserve" font-family="Dosis-Regular" font-size="46.0" fill="#002451" transform="matrix(1.00, 0.00, -0.00, -1.00, 1615.4, 745.0)">a</text><text xml:space="preserve" font-family="Dosis-Regular" font-size="46.0" fill="#002451" transform="matrix(1.00, 0.00, -0.00, -1.00, 1635.6, 745.0)"> </text><text xml:space="preserve" font-family="Dosis-Regular" font-size="46.0" fill="#002451" transform="matrix(1.00, 0.00, -0.00, -1.00, 1644.8, 745.0)">s</text><text xml:space="preserve" font-family="Dosis-Regular" font-size="46.0" fill="#002451" transform="matrix(1.00, 0.00, -0.00, -1.00, 1662.5, 745.0)">e</text><text xml:space="preserve" font-family="Dosis-Regular" font-size="46.0" fill="#002451" transform="matrix(1.00, 0.00, -0.00, -1.00, 1683.5, 745.0)"> </text><text xml:space="preserve" font-family="Dosis-Regular" font-size="46.0" fill="#002451" transform="matrix(1.00, 0.00, -0.00, -1.00, 1277.0, 687.0)">t</text><text xml:space="preserve" font-family="Dosis-Regular" font-size="46.0" fill="#002451" transform="matrix(1.00, 0.00, -0.00, -1.00, 1290.2, 687.0)">o</text><text xml:space="preserve" font-family="Dosis-Regular" font-size="46.0" fill="#002451" transform="matrix(1.00, 0.00, -0.00, -1.00, 1311.8, 687.0)">r</text><text xml:space="preserve" font-family="Dosis-Regular" font-size="46.0" fill="#002451" transform="matrix(1.00, 0.00, -0.00, -1.00, 1327.0, 687.0)">n</text><text xml:space="preserve" font-family="Dosis-Regular" font-size="46.0" fill="#002451" transform="matrix(1.00, 0.00, -0.00, -1.00, 1349.8, 687.0)">o</text><text xml:space="preserve" font-family="Dosis-Regular" font-size="46.0" fill="#002451" transform="matrix(1.00, 0.00, -0.00, -1.00, 1371.3, 687.0)">u</text><text xml:space="preserve" font-family="Dosis-Regular" font-size="46.0" fill="#002451" transform="matrix(1.00, 0.00, -0.00, -1.00, 1394.2, 687.0)"> </text><text xml:space="preserve" font-family="Dosis-Regular" font-size="46.0" fill="#002451" transform="matrix(1.00, 0.00, -0.00, -1.00, 1403.4, 687.0)">e</text><text xml:space="preserve" font-family="Dosis-Regular" font-size="46.0" fill="#002451" transform="matrix(1.00, 0.00, -0.00, -1.00, 1424.4, 687.0)">m</text><text xml:space="preserve" font-family="Dosis-Regular" font-size="46.0" fill="#002451" transform="matrix(1.00, 0.00, -0.00, -1.00, 1460.3, 687.0)"> </text><text xml:space="preserve" font-family="Dosis-Regular" font-size="46.0" fill="#002451" transform="matrix(1.00, 0.00, -0.00, -1.00, 1469.5, 687.0)">u</text><text xml:space="preserve" font-family="Dosis-Regular" font-size="46.0" fill="#002451" transform="matrix(1.00, 0.00, -0.00, -1.00, 1492.3, 687.0)">m</text><text xml:space="preserve" font-family="Dosis-Regular" font-size="46.0" fill="#002451" transform="matrix(1.00, 0.00, -0.00, -1.00, 1528.2, 687.0)"> </text><text xml:space="preserve" font-family="Dosis-Regular" font-size="46.0" fill="#002451" transform="matrix(1.00, 0.00, -0.00, -1.00, 1537.4, 687.0)">p</text><text xml:space="preserve" font-family="Dosis-Regular" font-size="46.0" fill="#002451" transform="matrix(1.00, 0.00, -0.00, -1.00, 1559.7, 687.0)">r</text><text xml:space="preserve" font-family="Dosis-Regular" font-size="46.0" fill="#002451" transform="matrix(1.00, 0.00, -0.00, -1.00, 1574.1, 687.0)">o</text><text xml:space="preserve" font-family="Dosis-Regular" font-size="46.0" fill="#002451" transform="matrix(1.00, 0.00, -0.00, -1.00, 1595.6, 687.0)">j</text><text xml:space="preserve" font-family="Dosis-Regular" font-size="46.0" fill="#002451" transform="matrix(1.00, 0.00, -0.00, -1.00, 1604.4, 687.0)">e</text><text xml:space="preserve" font-family="Dosis-Regular" font-size="46.0" fill="#002451" transform="matrix(1.00, 0.00, -0.00, -1.00, 1625.5, 687.0)">t</text><text xml:space="preserve" font-family="Dosis-Regular" font-size="46.0" fill="#002451" transform="matrix(1.00, 0.00, -0.00, -1.00, 1638.7, 687.0)">o</text><text xml:space="preserve" font-family="Dosis-Regular" font-size="46.0" fill="#002451" transform="matrix(1.00, 0.00, -0.00, -1.00, 1660.2, 687.0)">.</text></g></g><g><clipPath id="clip-255"><path d="M 277.8 600.6 L 687.2 600.6 L 687.2 847.4 L 277.8 847.4 Z M 277.8 600.6 "></path></clipPath><g clip-path="url(#clip-255)"><image xlink:href="../../5A50BB4E-B044-4996-A48B-6FAC8E1AEBA6/assets/7956C120411DB08C435C4AB119A8C2F9.png" width="407.00" height="245.00" transform="matrix(1.00, 0.00, -0.00, -1.00, 278.8, 846.4)" opacity="0.49"></image><path d="M 309.2 838.9 L 640.4 838.9 C 647.3 838.9 650.9 838.9 654.6 837.7 C 658.7 836.2 661.9 833.0 663.4 828.9 C 664.6 825.1 664.6 821.6 664.6 814.6 L 664.6 646.1 C 664.6 639.2 664.6 635.7 663.4 631.9 C 661.9 627.9 658.7 624.6 654.6 623.1 C 650.9 622.0 647.3 622.0 640.3 622.0 L 309.2 622.0 C 302.3 622.0 298.8 622.0 295.1 623.1 C 291.0 624.6 287.8 627.9 286.3 631.9 C 285.1 635.7 285.1 639.2 285.1 646.2 L 285.1 814.7 C 285.1 821.6 285.1 825.1 286.3 828.9 C 287.8 833.0 291.0 836.2 295.1 837.7 C 298.8 838.9 302.3 838.9 309.3 838.9 Z M 309.2 838.9 " fill="#241D2B"></path><path d="M 24.1 0.0 L 355.3 0.0 C 362.2 0.0 365.8 0.0 369.5 1.2 C 373.6 2.7 376.8 5.9 378.3 10.0 C 379.5 13.7 379.5 17.2 379.5 24.2 L 379.5 192.7 C 379.5 199.7 379.5 203.2 378.3 206.9 C 376.8 211.0 373.6 214.2 369.5 215.7 C 365.8 216.9 362.2 216.9 355.2 216.9 L 24.1 216.9 C 17.2 216.9 13.7 216.9 10.0 215.7 C 5.9 214.2 2.7 211.0 1.2 206.9 C 0.0 203.2 0.0 199.7 0.0 192.6 L 0.0 24.1 C 0.0 17.2 0.0 13.7 1.2 10.0 C 2.7 5.9 5.9 2.7 10.0 1.2 C 13.7 0.0 17.2 0.0 24.2 0.0 Z M 24.1 0.0 " fill="none" stroke="#FEFFFF" stroke-width="2.00" transform="matrix(1.00, 0.00, 0.00, -1.00, 285.1, 838.9)"></path></g></g><g><clipPath id="clip-256"><path d="M 405.0 617.0 L 653.3 617.0 L 653.3 769.0 L 405.0 769.0 Z M 405.0 617.0 "></path></clipPath><g clip-path="url(#clip-256)"><image xlink:href="../../5A50BB4E-B044-4996-A48B-6FAC8E1AEBA6/assets/A3E316E5A2C49055836AD7831CD7AE96.png" width="247.00" height="150.00" transform="matrix(1.00, 0.00, -0.00, -1.00, 406.0, 768.0)" opacity="0.75"></image><path d="M 531.4 698.6 C 532.6 697.3 532.6 695.3 531.4 694.0 C 530.2 692.7 528.2 692.7 526.9 694.0 C 525.7 695.3 525.7 697.3 526.9 698.6 C 528.2 699.8 530.2 699.8 531.4 698.6 Z M 531.4 698.6 " fill="#B14370"></path></g></g><g><clipPath id="clip-257"><path d="M 415.1 615.1 L 663.4 615.1 L 663.4 767.1 L 415.1 767.1 Z M 415.1 615.1 "></path></clipPath><g clip-path="url(#clip-257)"><image xlink:href="../../5A50BB4E-B044-4996-A48B-6FAC8E1AEBA6/assets/A3E316E5A2C49055836AD7831CD7AE96.png" width="247.00" height="150.00" transform="matrix(1.00, 0.00, -0.00, -1.00, 416.1, 766.1)" opacity="0.75"></image><path d="M 541.5 696.6 C 542.7 695.4 542.7 693.3 541.5 692.1 C 540.2 690.8 538.2 690.8 537.0 692.1 C 535.8 693.3 535.8 695.4 537.0 696.6 C 538.2 697.9 540.2 697.9 541.5 696.6 Z M 541.5 696.6 " fill="#B14370"></path></g></g><g><clipPath id="clip-258"><path d="M 395.8 621.4 L 644.1 621.4 L 644.1 773.4 L 395.8 773.4 Z M 395.8 621.4 "></path></clipPath><g clip-path="url(#clip-258)"><image xlink:href="../../5A50BB4E-B044-4996-A48B-6FAC8E1AEBA6/assets/A3E316E5A2C49055836AD7831CD7AE96.png" width="247.00" height="150.00" transform="matrix(1.00, 0.00, -0.00, -1.00, 396.8, 772.4)" opacity="0.75"></image><path d="M 522.2 702.9 C 523.4 701.7 523.4 699.6 522.2 698.4 C 520.9 697.1 518.9 697.1 517.7 698.4 C 516.5 699.6 516.5 701.7 517.7 702.9 C 518.9 704.2 520.9 704.2 522.2 702.9 Z M 522.2 702.9 " fill="#B14370"></path></g></g><g><clipPath id="clip-259"><path d="M 387.7 626.5 L 636.0 626.5 L 636.0 778.5 L 387.7 778.5 Z M 387.7 626.5 "></path></clipPath><g clip-path="url(#clip-259)"><image xlink:href="../../5A50BB4E-B044-4996-A48B-6FAC8E1AEBA6/assets/A3E316E5A2C49055836AD7831CD7AE96.png" width="247.00" height="150.00" transform="matrix(1.00, 0.00, -0.00, -1.00, 388.7, 777.5)" opacity="0.75"></image><path d="M 514.1 708.0 C 515.3 706.7 515.3 704.7 514.1 703.4 C 512.9 702.1 510.9 702.1 509.7 703.4 C 508.4 704.7 508.4 706.7 509.7 708.0 C 510.9 709.2 512.9 709.2 514.1 708.0 Z M 514.1 708.0 " fill="#B14370"></path></g></g><g><clipPath id="clip-260"><path d="M 425.1 616.1 L 673.4 616.1 L 673.4 768.1 L 425.1 768.1 Z M 425.1 616.1 "></path></clipPath><g clip-path="url(#clip-260)"><image xlink:href="../../5A50BB4E-B044-4996-A48B-6FAC8E1AEBA6/assets/A3E316E5A2C49055836AD7831CD7AE96.png" width="247.00" height="150.00" transform="matrix(1.00, 0.00, -0.00, -1.00, 426.1, 767.1)" opacity="0.75"></image><path d="M 551.5 697.6 C 552.7 696.4 552.7 694.3 551.5 693.1 C 550.2 691.8 548.2 691.8 547.0 693.1 C 545.8 694.3 545.8 696.4 547.0 697.6 C 548.2 698.9 550.2 698.9 551.5 697.6 Z M 551.5 697.6 " fill="#B14370"></path></g></g><g><clipPath id="clip-261"><path d="M 433.9 619.6 L 682.9 619.6 L 682.9 771.6 L 433.9 771.6 Z M 433.9 619.6 "></path></clipPath><g clip-path="url(#clip-261)"><image xlink:href="../../5A50BB4E-B044-4996-A48B-6FAC8E1AEBA6/assets/0E6D208C584D804D009140995E53F093.png" width="247.00" height="150.00" transform="matrix(1.00, 0.00, -0.00, -1.00, 434.9, 770.6)" opacity="0.75"></image><path d="M 560.9 701.7 C 562.2 700.3 562.2 698.0 560.9 696.6 C 559.5 695.2 557.3 695.2 555.9 696.6 C 554.6 698.0 554.6 700.3 555.9 701.7 C 557.3 703.1 559.5 703.1 560.9 701.7 Z M 560.9 701.7 " fill="#B14370"></path></g></g><g><clipPath id="clip-262"><path d="M 495.7 698.3 L 510.5 698.3 L 510.5 713.3 L 495.7 713.3 Z M 495.7 698.3 "></path></clipPath><g clip-path="url(#clip-262)"><image xlink:href="../../5A50BB4E-B044-4996-A48B-6FAC8E1AEBA6/assets/F313C607EE7202A1184935EED659FBBA.png" width="13.00" height="13.00" transform="matrix(0.98, 0.00, -0.00, -1.00, 496.7, 712.3)" opacity="0.50"></image><path d="M 504.8 709.5 C 505.8 708.6 505.8 707.0 504.8 706.0 C 503.9 705.1 502.4 705.1 501.4 706.0 C 500.5 707.0 500.5 708.6 501.4 709.5 C 502.4 710.5 503.9 710.5 504.8 709.5 Z M 504.8 709.5 " fill="#B14370"></path></g></g><g><clipPath id="clip-263"><path d="M 374.3 624.2 L 621.1 624.2 L 621.1 776.2 L 374.3 776.2 Z M 374.3 624.2 "></path></clipPath><g clip-path="url(#clip-263)"><image xlink:href="../../5A50BB4E-B044-4996-A48B-6FAC8E1AEBA6/assets/7ED0098AE6E53A76C0CB9975C675F1D6.png" width="245.00" height="150.00" transform="matrix(1.00, 0.00, -0.00, -1.00, 375.3, 775.2)" opacity="0.75"></image><path d="M 499.4 704.4 C 500.4 703.4 500.4 701.9 499.4 700.9 C 498.5 699.9 497.0 699.9 496.0 700.9 C 495.1 701.9 495.1 703.4 496.0 704.4 C 497.0 705.4 498.5 705.4 499.4 704.4 Z M 499.4 704.4 " fill="#B14370"></path></g></g><g><clipPath id="clip-264"><path d="M 440.3 627.0 L 689.4 627.0 L 689.4 779.0 L 440.3 779.0 Z M 440.3 627.0 "></path></clipPath><g clip-path="url(#clip-264)"><image xlink:href="../../5A50BB4E-B044-4996-A48B-6FAC8E1AEBA6/assets/4417D42947FD559C3B2541B64ABDE555.png" width="248.00" height="150.00" transform="matrix(1.00, 0.00, -0.00, -1.00, 441.3, 778.0)" opacity="0.75"></image><path d="M 567.4 709.2 C 568.8 707.8 568.8 705.5 567.4 704.1 C 566.0 702.6 563.8 702.6 562.4 704.1 C 561.0 705.5 561.0 707.8 562.4 709.2 C 563.8 710.6 566.0 710.6 567.4 709.2 Z M 567.4 709.2 " fill="#B14370"></path></g></g><g><clipPath id="clip-265"><path d="M 375.8 617.0 L 622.0 617.0 L 622.0 769.0 L 375.8 769.0 Z M 375.8 617.0 "></path></clipPath><g clip-path="url(#clip-265)"><image xlink:href="../../5A50BB4E-B044-4996-A48B-6FAC8E1AEBA6/assets/CFDF8A62D53D682D86A8D40C5688CEA2.png" width="245.00" height="150.00" transform="matrix(1.00, 0.00, -0.00, -1.00, 376.8, 768.0)" opacity="0.75"></image><path d="M 500.4 696.8 C 501.2 695.9 501.2 694.5 500.4 693.7 C 499.6 692.8 498.3 692.8 497.5 693.7 C 496.6 694.5 496.6 695.9 497.5 696.8 C 498.3 697.6 499.6 697.6 500.4 696.8 Z M 500.4 696.8 " fill="#B14370"></path></g></g><g><clipPath id="clip-266"><path d="M 382.0 614.6 L 628.2 614.6 L 628.2 766.6 L 382.0 766.6 Z M 382.0 614.6 "></path></clipPath><g clip-path="url(#clip-266)"><image xlink:href="../../5A50BB4E-B044-4996-A48B-6FAC8E1AEBA6/assets/CFDF8A62D53D682D86A8D40C5688CEA2.png" width="245.00" height="150.00" transform="matrix(1.00, 0.00, -0.00, -1.00, 383.0, 765.6)" opacity="0.75"></image><path d="M 506.6 694.3 C 507.4 693.4 507.4 692.0 506.6 691.2 C 505.8 690.3 504.5 690.3 503.7 691.2 C 502.8 692.0 502.8 693.4 503.7 694.3 C 504.5 695.1 505.8 695.1 506.6 694.3 Z M 506.6 694.3 " fill="#B14370"></path></g></g><g><clipPath id="clip-267"><path d="M 351.2 690.5 L 598.4 690.5 L 598.4 795.3 L 351.2 795.3 Z M 351.2 690.5 "></path></clipPath><g clip-path="url(#clip-267)"><image xlink:href="../../5A50BB4E-B044-4996-A48B-6FAC8E1AEBA6/assets/A60F9C0E4D678A58F89A324689FD3EE2.png" width="245.00" height="103.00" transform="matrix(1.00, 0.00, -0.00, -1.00, 352.2, 794.3)" opacity="0.50"></image></g></g><g><clipPath id="clip-268"><path d="M 339.8 704.2 L 609.9 704.2 L 609.9 788.0 L 339.8 788.0 Z M 339.8 704.2 "></path></clipPath><g clip-path="url(#clip-268)"><text xml:space="preserve" font-family="MavenProMedium" font-size="75.2" fill="#B7E02E" transform="matrix(1.00, 0.00, -0.00, -1.00, 381.0, 715.0)">p</text><text xml:space="preserve" font-family="MavenProMedium" font-size="75.2" fill="#B7E02E" transform="matrix(1.00, 0.00, -0.00, -1.00, 423.4, 715.0)">o</text><text xml:space="preserve" font-family="MavenProMedium" font-size="75.2" fill="#B7E02E" transform="matrix(1.00, 0.00, -0.00, -1.00, 464.8, 715.0)">l</text><text xml:space="preserve" font-family="MavenProMedium" font-size="75.2" fill="#B7E02E" transform="matrix(1.00, 0.00, -0.00, -1.00, 486.0, 715.0)">v</text><text xml:space="preserve" font-family="MavenProMedium" font-size="75.2" fill="#B7E02E" transform="matrix(1.00, 0.00, -0.00, -1.00, 525.2, 715.0)">o</text></g></g><g><clipPath id="clip-269"><path d="M 607.9 466.6 L 650.1 466.6 L 650.1 508.8 L 607.9 508.8 Z M 607.9 466.6 "></path></clipPath><g clip-path="url(#clip-269)"><image xlink:href="../../6542EA6E-5DCF-4F18-9B36-2965D65440A7/assets/4E60E052EA36C6AEFBF30E6D38F74564.png" width="43.00" height="43.00" transform="matrix(0.98, 0.00, -0.00, -0.98, 608.0, 509.0)"></image></g></g><g><clipPath id="clip-270"><path d="M 543.2 432.1 L 658.4 432.1 L 658.4 547.4 L 543.2 547.4 Z M 543.2 432.1 "></path></clipPath><g clip-path="url(#clip-270)"><image xlink:href="../../5A50BB4E-B044-4996-A48B-6FAC8E1AEBA6/assets/1FD3A5D40D24F5576D0B2075761A5971.png" width="116.00" height="116.00" transform="matrix(0.99, 0.00, -0.00, -0.99, 543.0, 547.0)"></image></g></g><image xlink:href="../../FFBCA60A-EC32-4824-9919-CB6C89F1B1DF/assets/03A55EA430689CB45BDFC9DC84131220.png" width="148.00" height="148.00" transform="matrix(0.82, 0.00, -0.00, -0.82, 304.0, 550.0)"></image><path d="M 0.0 0.0 L 39.3 0.0 L 40.8 0.0 " fill="none" stroke="#914507" stroke-width="3.00" transform="matrix(1.00, 0.00, 0.00, -1.00, 457.9, 489.7)"></path><path d="M 497.2 483.1 L 510.4 489.7 L 497.2 496.3 Z M 497.2 483.1 " fill="#914507"></path></g></svg>