<?xml version="1.0" encoding="UTF-8" standalone="no"?><svg xmlns="http://www.w3.org/2000/svg" xmlns:xlink="http://www.w3.org/1999/xlink" clip-rule="evenodd" stroke-miterlimit="4.00" viewBox="0 0 624 98"><desc>SVG generated by Keynote</desc><defs></defs><g transform="matrix(1.00, 0.00, -0.00, -1.00, 0.0, 98.0)"><text xml:space="preserve" font-family="Dosis-Regular" font-size="42.0" fill="#002451" transform="matrix(1.00, 0.00, -0.00, -1.00, 0.0, 64.0)">O</text><text xml:space="preserve" font-family="Dosis-Regular" font-size="42.0" fill="#002451" transform="matrix(1.00, 0.00, -0.00, -1.00, 23.2, 64.0)"> </text><text xml:space="preserve" font-family="Dosis-Regular" font-size="42.0" fill="#002451" transform="matrix(1.00, 0.00, -0.00, -1.00, 31.6, 64.0)">P</text><text xml:space="preserve" font-family="Dosis-Regular" font-size="42.0" fill="#002451" transform="matrix(1.00, 0.00, -0.00, -1.00, 52.7, 64.0)">o</text><text xml:space="preserve" font-family="Dosis-Regular" font-size="42.0" fill="#002451" transform="matrix(1.00, 0.00, -0.00, -1.00, 72.3, 64.0)">l</text><text xml:space="preserve" font-family="Dosis-Regular" font-size="42.0" fill="#002451" transform="matrix(1.00, 0.00, -0.00, -1.00, 81.0, 64.0)">v</text><text xml:space="preserve" font-family="Dosis-Regular" font-size="42.0" fill="#002451" transform="matrix(1.00, 0.00, -0.00, -1.00, 98.7, 64.0)">o</text><text xml:space="preserve" font-family="Dosis-Regular" font-size="42.0" fill="#002451" transform="matrix(1.00, 0.00, -0.00, -1.00, 118.3, 64.0)"> </text><text xml:space="preserve" font-family="Dosis-Regular" font-size="42.0" fill="#002451" transform="matrix(1.00, 0.00, -0.00, -1.00, 126.7, 64.0)">c</text><text xml:space="preserve" font-family="Dosis-Regular" font-size="42.0" fill="#002451" transform="matrix(1.00, 0.00, -0.00, -1.00, 143.8, 64.0)">o</text><text xml:space="preserve" font-family="Dosis-Regular" font-size="42.0" fill="#002451" transform="matrix(1.00, 0.00, -0.00, -1.00, 163.4, 64.0)">n</text><text xml:space="preserve" font-family="Dosis-Regular" font-size="42.0" fill="#002451" transform="matrix(1.00, 0.00, -0.00, -1.00, 184.3, 64.0)">e</text><text xml:space="preserve" font-family="Dosis-Regular" font-size="42.0" fill="#002451" transform="matrix(1.00, 0.00, -0.00, -1.00, 203.5, 64.0)">c</text><text xml:space="preserve" font-family="Dosis-Regular" font-size="42.0" fill="#002451" transform="matrix(1.00, 0.00, -0.00, -1.00, 220.8, 64.0)">t</text><text xml:space="preserve" font-family="Dosis-Regular" font-size="42.0" fill="#002451" transform="matrix(1.00, 0.00, -0.00, -1.00, 233.2, 64.0)">a</text><text xml:space="preserve" font-family="Dosis-Regular" font-size="42.0" fill="#002451" transform="matrix(1.00, 0.00, -0.00, -1.00, 251.6, 64.0)"> </text><text xml:space="preserve" font-family="Dosis-Regular" font-size="42.0" fill="#002451" transform="matrix(1.00, 0.00, -0.00, -1.00, 260.0, 64.0)">a</text><text xml:space="preserve" font-family="Dosis-Regular" font-size="42.0" fill="#002451" transform="matrix(1.00, 0.00, -0.00, -1.00, 278.4, 64.0)"> </text><text xml:space="preserve" font-family="Dosis-Regular" font-size="42.0" fill="#002451" transform="matrix(1.00, 0.00, -0.00, -1.00, 286.8, 64.0)">n</text><text xml:space="preserve" font-family="Dosis-Regular" font-size="42.0" fill="#002451" transform="matrix(1.00, 0.00, -0.00, -1.00, 307.6, 64.0)">e</text><text xml:space="preserve" font-family="Dosis-Regular" font-size="42.0" fill="#002451" transform="matrix(1.00, 0.00, -0.00, -1.00, 326.9, 64.0)">c</text><text xml:space="preserve" font-family="Dosis-Regular" font-size="42.0" fill="#002451" transform="matrix(1.00, 0.00, -0.00, -1.00, 343.9, 64.0)">e</text><text xml:space="preserve" font-family="Dosis-Regular" font-size="42.0" fill="#002451" transform="matrix(1.00, 0.00, -0.00, -1.00, 363.2, 64.0)">s</text><text xml:space="preserve" font-family="Dosis-Regular" font-size="42.0" fill="#002451" transform="matrix(1.00, 0.00, -0.00, -1.00, 379.3, 64.0)">s</text><text xml:space="preserve" font-family="Dosis-Regular" font-size="42.0" fill="#002451" transform="matrix(1.00, 0.00, -0.00, -1.00, 395.5, 64.0)">i</text><text xml:space="preserve" font-family="Dosis-Regular" font-size="42.0" fill="#002451" transform="matrix(1.00, 0.00, -0.00, -1.00, 403.5, 64.0)">d</text><text xml:space="preserve" font-family="Dosis-Regular" font-size="42.0" fill="#002451" transform="matrix(1.00, 0.00, -0.00, -1.00, 423.9, 64.0)">a</text><text xml:space="preserve" font-family="Dosis-Regular" font-size="42.0" fill="#002451" transform="matrix(1.00, 0.00, -0.00, -1.00, 442.3, 64.0)">d</text><text xml:space="preserve" font-family="Dosis-Regular" font-size="42.0" fill="#002451" transform="matrix(1.00, 0.00, -0.00, -1.00, 462.6, 64.0)">e</text><text xml:space="preserve" font-family="Dosis-Regular" font-size="42.0" fill="#002451" transform="matrix(1.00, 0.00, -0.00, -1.00, 481.8, 64.0)"> </text><text xml:space="preserve" font-family="Dosis-Regular" font-size="42.0" fill="#002451" transform="matrix(1.00, 0.00, -0.00, -1.00, 490.2, 64.0)">d</text><text xml:space="preserve" font-family="Dosis-Regular" font-size="42.0" fill="#002451" transform="matrix(1.00, 0.00, -0.00, -1.00, 510.6, 64.0)">e</text><text xml:space="preserve" font-family="Dosis-Regular" font-size="42.0" fill="#002451" transform="matrix(1.00, 0.00, -0.00, -1.00, 529.8, 64.0)"> </text><text xml:space="preserve" font-family="Dosis-Regular" font-size="42.0" fill="#002451" transform="matrix(1.00, 0.00, -0.00, -1.00, 538.2, 64.0)">B</text><text xml:space="preserve" font-family="Dosis-Regular" font-size="42.0" fill="#002451" transform="matrix(1.00, 0.00, -0.00, -1.00, 560.8, 64.0)">r</text><text xml:space="preserve" font-family="Dosis-Regular" font-size="42.0" fill="#002451" transform="matrix(1.00, 0.00, -0.00, -1.00, 574.7, 64.0)">i</text><text xml:space="preserve" font-family="Dosis-Regular" font-size="42.0" fill="#002451" transform="matrix(1.00, 0.00, -0.00, -1.00, 582.7, 64.0)">a</text><text xml:space="preserve" font-family="Dosis-Regular" font-size="42.0" fill="#002451" transform="matrix(1.00, 0.00, -0.00, -1.00, 601.1, 64.0)">n</text><text xml:space="preserve" font-family="Dosis-Regular" font-size="42.0" fill="#002451" transform="matrix(1.00, 0.00, -0.00, -1.00, 621.9, 64.0)"> </text><text xml:space="preserve" font-family="Dosis-Regular" font-size="42.0" fill="#002451" transform="matrix(1.00, 0.00, -0.00, -1.00, 139.0, 11.0)">c</text><text xml:space="preserve" font-family="Dosis-Regular" font-size="42.0" fill="#002451" transform="matrix(1.00, 0.00, -0.00, -1.00, 156.1, 11.0)">o</text><text xml:space="preserve" font-family="Dosis-Regular" font-size="42.0" fill="#002451" transform="matrix(1.00, 0.00, -0.00, -1.00, 175.7, 11.0)">m</text><text xml:space="preserve" font-family="Dosis-Regular" font-size="42.0" fill="#002451" transform="matrix(1.00, 0.00, -0.00, -1.00, 208.5, 11.0)"> </text><text xml:space="preserve" font-family="Dosis-Regular" font-size="42.0" fill="#002451" transform="matrix(1.00, 0.00, -0.00, -1.00, 216.9, 11.0)">o</text><text xml:space="preserve" font-family="Dosis-Regular" font-size="42.0" fill="#002451" transform="matrix(1.00, 0.00, -0.00, -1.00, 236.5, 11.0)"> </text><text xml:space="preserve" font-family="Dosis-Regular" font-size="42.0" fill="#002451" transform="matrix(1.00, 0.00, -0.00, -1.00, 244.9, 11.0)">e</text><text xml:space="preserve" font-family="Dosis-Regular" font-size="42.0" fill="#002451" transform="matrix(1.00, 0.00, -0.00, -1.00, 264.2, 11.0)">s</text><text xml:space="preserve" font-family="Dosis-Regular" font-size="42.0" fill="#002451" transform="matrix(1.00, 0.00, -0.00, -1.00, 280.3, 11.0)">p</text><text xml:space="preserve" font-family="Dosis-Regular" font-size="42.0" fill="#002451" transform="matrix(1.00, 0.00, -0.00, -1.00, 300.7, 11.0)">a</text><text xml:space="preserve" font-family="Dosis-Regular" font-size="42.0" fill="#002451" transform="matrix(1.00, 0.00, -0.00, -1.00, 319.1, 11.0)">รง</text><text xml:space="preserve" font-family="Dosis-Regular" font-size="42.0" fill="#002451" transform="matrix(1.00, 0.00, -0.00, -1.00, 336.1, 11.0)">o</text><text xml:space="preserve" font-family="Dosis-Regular" font-size="42.0" fill="#002451" transform="matrix(1.00, 0.00, -0.00, -1.00, 355.8, 11.0)"> </text><text xml:space="preserve" font-family="Dosis-Regular" font-size="42.0" fill="#002451" transform="matrix(1.00, 0.00, -0.00, -1.00, 364.2, 11.0)">d</text><text xml:space="preserve" font-family="Dosis-Regular" font-size="42.0" fill="#002451" transform="matrix(1.00, 0.00, -0.00, -1.00, 384.5, 11.0)">e</text><text xml:space="preserve" font-family="Dosis-Regular" font-size="42.0" fill="#002451" transform="matrix(1.00, 0.00, -0.00, -1.00, 403.7, 11.0)"> </text><text xml:space="preserve" font-family="Dosis-Regular" font-size="42.0" fill="#002451" transform="matrix(1.00, 0.00, -0.00, -1.00, 412.1, 11.0)">S</text><text xml:space="preserve" font-family="Dosis-Regular" font-size="42.0" fill="#002451" transform="matrix(1.00, 0.00, -0.00, -1.00, 432.9, 11.0)">a</text><text xml:space="preserve" font-family="Dosis-Regular" font-size="42.0" fill="#002451" transform="matrix(1.00, 0.00, -0.00, -1.00, 451.3, 11.0)">r</text><text xml:space="preserve" font-family="Dosis-Regular" font-size="42.0" fill="#002451" transform="matrix(1.00, 0.00, -0.00, -1.00, 465.2, 11.0)">a</text></g></svg>