<?xml version="1.0" encoding="UTF-8" standalone="no"?><svg xmlns="http://www.w3.org/2000/svg" xmlns:xlink="http://www.w3.org/1999/xlink" clip-rule="evenodd" stroke-miterlimit="4.00" viewBox="0 0 1549 266"><desc>SVG generated by Keynote</desc><defs></defs><g transform="matrix(1.00, 0.00, -0.00, -1.00, 0.0, 266.0)"><image xlink:href="../../14C88248-491B-46E2-AA1E-00DDB765B323/assets/CEE11339731790ED041120F75BBA5AC9.png" width="993.00" height="80.00" transform="matrix(1.00, 0.00, -0.00, -1.00, 142.0, 264.0)"></image><text xml:space="preserve" font-family="Dosis-Regular" font-size="72.0" fill="#FEFFFF" transform="matrix(1.00, 0.00, -0.00, -1.00, 138.0, 203.0)">P</text><text xml:space="preserve" font-family="Dosis-Regular" font-size="72.0" fill="#FEFFFF" transform="matrix(1.00, 0.00, -0.00, -1.00, 175.9, 203.0)">l</text><text xml:space="preserve" font-family="Dosis-Regular" font-size="72.0" fill="#FEFFFF" transform="matrix(1.00, 0.00, -0.00, -1.00, 190.8, 203.0)">a</text><text xml:space="preserve" font-family="Dosis-Regular" font-size="72.0" fill="#FEFFFF" transform="matrix(1.00, 0.00, -0.00, -1.00, 222.4, 203.0)">t</text><text xml:space="preserve" font-family="Dosis-Regular" font-size="72.0" fill="#FEFFFF" transform="matrix(1.00, 0.00, -0.00, -1.00, 243.8, 203.0)">a</text><text xml:space="preserve" font-family="Dosis-Regular" font-size="72.0" fill="#FEFFFF" transform="matrix(1.00, 0.00, -0.00, -1.00, 275.3, 203.0)">f</text><text xml:space="preserve" font-family="Dosis-Regular" font-size="72.0" fill="#FEFFFF" transform="matrix(1.00, 0.00, -0.00, -1.00, 296.0, 203.0)">o</text><text xml:space="preserve" font-family="Dosis-Regular" font-size="72.0" fill="#FEFFFF" transform="matrix(1.00, 0.00, -0.00, -1.00, 329.7, 203.0)">r</text><text xml:space="preserve" font-family="Dosis-Regular" font-size="72.0" fill="#FEFFFF" transform="matrix(1.00, 0.00, -0.00, -1.00, 353.6, 203.0)">m</text><text xml:space="preserve" font-family="Dosis-Regular" font-size="72.0" fill="#FEFFFF" transform="matrix(1.00, 0.00, -0.00, -1.00, 409.7, 203.0)">a</text><text xml:space="preserve" font-family="Dosis-Regular" font-size="72.0" fill="#FEFFFF" transform="matrix(1.00, 0.00, -0.00, -1.00, 441.3, 203.0)"> </text><text xml:space="preserve" font-family="Dosis-Regular" font-size="72.0" fill="#FEFFFF" transform="matrix(1.00, 0.00, -0.00, -1.00, 455.7, 203.0)">d</text><text xml:space="preserve" font-family="Dosis-Regular" font-size="72.0" fill="#FEFFFF" transform="matrix(1.00, 0.00, -0.00, -1.00, 490.5, 203.0)">i</text><text xml:space="preserve" font-family="Dosis-Regular" font-size="72.0" fill="#FEFFFF" transform="matrix(1.00, 0.00, -0.00, -1.00, 504.3, 203.0)">g</text><text xml:space="preserve" font-family="Dosis-Regular" font-size="72.0" fill="#FEFFFF" transform="matrix(1.00, 0.00, -0.00, -1.00, 536.8, 203.0)">i</text><text xml:space="preserve" font-family="Dosis-Regular" font-size="72.0" fill="#FEFFFF" transform="matrix(1.00, 0.00, -0.00, -1.00, 550.6, 203.0)">t</text><text xml:space="preserve" font-family="Dosis-Regular" font-size="72.0" fill="#FEFFFF" transform="matrix(1.00, 0.00, -0.00, -1.00, 571.9, 203.0)">a</text><text xml:space="preserve" font-family="Dosis-Regular" font-size="72.0" fill="#FEFFFF" transform="matrix(1.00, 0.00, -0.00, -1.00, 603.5, 203.0)">l</text><text xml:space="preserve" font-family="Dosis-Regular" font-size="72.0" fill="#FEFFFF" transform="matrix(1.00, 0.00, -0.00, -1.00, 618.4, 203.0)"> </text><text xml:space="preserve" font-family="Dosis-Regular" font-size="72.0" fill="#FEFFFF" transform="matrix(1.00, 0.00, -0.00, -1.00, 632.8, 203.0)">q</text><text xml:space="preserve" font-family="Dosis-Regular" font-size="72.0" fill="#FEFFFF" transform="matrix(1.00, 0.00, -0.00, -1.00, 667.6, 203.0)">u</text><text xml:space="preserve" font-family="Dosis-Regular" font-size="72.0" fill="#FEFFFF" transform="matrix(1.00, 0.00, -0.00, -1.00, 703.3, 203.0)">e</text><text xml:space="preserve" font-family="Dosis-Regular" font-size="72.0" fill="#FEFFFF" transform="matrix(1.00, 0.00, -0.00, -1.00, 736.3, 203.0)"> </text><text xml:space="preserve" font-family="Dosis-Regular" font-size="72.0" fill="#FEFFFF" transform="matrix(1.00, 0.00, -0.00, -1.00, 750.7, 203.0)">a</text><text xml:space="preserve" font-family="Dosis-Regular" font-size="72.0" fill="#FEFFFF" transform="matrix(1.00, 0.00, -0.00, -1.00, 782.3, 203.0)">p</text><text xml:space="preserve" font-family="Dosis-Regular" font-size="72.0" fill="#FEFFFF" transform="matrix(1.00, 0.00, -0.00, -1.00, 817.1, 203.0)">o</text><text xml:space="preserve" font-family="Dosis-Regular" font-size="72.0" fill="#FEFFFF" transform="matrix(1.00, 0.00, -0.00, -1.00, 850.8, 203.0)">i</text><text xml:space="preserve" font-family="Dosis-Regular" font-size="72.0" fill="#FEFFFF" transform="matrix(1.00, 0.00, -0.00, -1.00, 864.6, 203.0)">a</text><text xml:space="preserve" font-family="Dosis-Regular" font-size="72.0" fill="#FEFFFF" transform="matrix(1.00, 0.00, -0.00, -1.00, 896.1, 203.0)"> </text><text xml:space="preserve" font-family="Dosis-Regular" font-size="72.0" fill="#FEFFFF" transform="matrix(1.00, 0.00, -0.00, -1.00, 910.5, 203.0)">p</text><text xml:space="preserve" font-family="Dosis-Regular" font-size="72.0" fill="#FEFFFF" transform="matrix(1.00, 0.00, -0.00, -1.00, 945.3, 203.0)">r</text><text xml:space="preserve" font-family="Dosis-Regular" font-size="72.0" fill="#FEFFFF" transform="matrix(1.00, 0.00, -0.00, -1.00, 967.9, 203.0)">o</text><text xml:space="preserve" font-family="Dosis-Regular" font-size="72.0" fill="#FEFFFF" transform="matrix(1.00, 0.00, -0.00, -1.00, 1001.6, 203.0)">j</text><text xml:space="preserve" font-family="Dosis-Regular" font-size="72.0" fill="#FEFFFF" transform="matrix(1.00, 0.00, -0.00, -1.00, 1015.3, 203.0)">e</text><text xml:space="preserve" font-family="Dosis-Regular" font-size="72.0" fill="#FEFFFF" transform="matrix(1.00, 0.00, -0.00, -1.00, 1048.3, 203.0)">t</text><text xml:space="preserve" font-family="Dosis-Regular" font-size="72.0" fill="#FEFFFF" transform="matrix(1.00, 0.00, -0.00, -1.00, 1069.0, 203.0)">o</text><text xml:space="preserve" font-family="Dosis-Regular" font-size="72.0" fill="#FEFFFF" transform="matrix(1.00, 0.00, -0.00, -1.00, 1102.7, 203.0)">s</text><text xml:space="preserve" font-family="Dosis-Regular" font-size="72.0" fill="#FEFFFF" transform="matrix(1.00, 0.00, -0.00, -1.00, 1130.4, 203.0)"> </text><image xlink:href="../../14C88248-491B-46E2-AA1E-00DDB765B323/assets/9B80B841E56B39E7BAF00F380D014BCB.png" width="260.00" height="80.00" transform="matrix(1.00, 0.00, -0.00, -1.00, 1148.0, 264.0)"></image><text xml:space="preserve" font-family="Dosis-Regular" font-size="72.0" fill="#FEFFFF" transform="matrix(1.00, 0.00, -0.00, -1.00, 1144.8, 203.0)">p</text><text xml:space="preserve" font-family="Dosis-Regular" font-size="72.0" fill="#FEFFFF" transform="matrix(1.00, 0.00, -0.00, -1.00, 1179.7, 203.0)">a</text><text xml:space="preserve" font-family="Dosis-Regular" font-size="72.0" fill="#FEFFFF" transform="matrix(1.00, 0.00, -0.00, -1.00, 1211.2, 203.0)">r</text><text xml:space="preserve" font-family="Dosis-Regular" font-size="72.0" fill="#FEFFFF" transform="matrix(1.00, 0.00, -0.00, -1.00, 1235.1, 203.0)">a</text><text xml:space="preserve" font-family="Dosis-Regular" font-size="72.0" fill="#FEFFFF" transform="matrix(1.00, 0.00, -0.00, -1.00, 1266.6, 203.0)">l</text><text xml:space="preserve" font-family="Dosis-Regular" font-size="72.0" fill="#FEFFFF" transform="matrix(1.00, 0.00, -0.00, -1.00, 1281.5, 203.0)">e</text><text xml:space="preserve" font-family="Dosis-Regular" font-size="72.0" fill="#FEFFFF" transform="matrix(1.00, 0.00, -0.00, -1.00, 1314.5, 203.0)">l</text><text xml:space="preserve" font-family="Dosis-Regular" font-size="72.0" fill="#FEFFFF" transform="matrix(1.00, 0.00, -0.00, -1.00, 1329.4, 203.0)">o</text><text xml:space="preserve" font-family="Dosis-Regular" font-size="72.0" fill="#FEFFFF" transform="matrix(1.00, 0.00, -0.00, -1.00, 1363.1, 203.0)">s</text><text xml:space="preserve" font-family="Dosis-Regular" font-size="72.0" fill="#FEFFFF" transform="matrix(1.00, 0.00, -0.00, -1.00, 1390.8, 203.0)">,</text><text xml:space="preserve" font-family="Dosis-Regular" font-size="72.0" fill="#FEFFFF" transform="matrix(1.00, 0.00, -0.00, -1.00, 1403.1, 203.0)"> </text><image xlink:href="../../14C88248-491B-46E2-AA1E-00DDB765B323/assets/12B844AAB46BF6B2225DC85985C4358E.png" width="1506.00" height="80.00" transform="matrix(1.00, 0.00, -0.00, -1.00, 21.0, 173.0)"></image><text xml:space="preserve" font-family="Dosis-Regular" font-size="72.0" fill="#FEFFFF" transform="matrix(1.00, 0.00, -0.00, -1.00, 19.0, 112.0)">c</text><text xml:space="preserve" font-family="Dosis-Regular" font-size="72.0" fill="#FEFFFF" transform="matrix(1.00, 0.00, -0.00, -1.00, 48.2, 112.0)">o</text><text xml:space="preserve" font-family="Dosis-Regular" font-size="72.0" fill="#FEFFFF" transform="matrix(1.00, 0.00, -0.00, -1.00, 81.9, 112.0)">n</text><text xml:space="preserve" font-family="Dosis-Regular" font-size="72.0" fill="#FEFFFF" transform="matrix(1.00, 0.00, -0.00, -1.00, 117.6, 112.0)">e</text><text xml:space="preserve" font-family="Dosis-Regular" font-size="72.0" fill="#FEFFFF" transform="matrix(1.00, 0.00, -0.00, -1.00, 150.6, 112.0)">c</text><text xml:space="preserve" font-family="Dosis-Regular" font-size="72.0" fill="#FEFFFF" transform="matrix(1.00, 0.00, -0.00, -1.00, 180.2, 112.0)">t</text><text xml:space="preserve" font-family="Dosis-Regular" font-size="72.0" fill="#FEFFFF" transform="matrix(1.00, 0.00, -0.00, -1.00, 201.6, 112.0)">a</text><text xml:space="preserve" font-family="Dosis-Regular" font-size="72.0" fill="#FEFFFF" transform="matrix(1.00, 0.00, -0.00, -1.00, 233.1, 112.0)">n</text><text xml:space="preserve" font-family="Dosis-Regular" font-size="72.0" fill="#FEFFFF" transform="matrix(1.00, 0.00, -0.00, -1.00, 268.8, 112.0)">d</text><text xml:space="preserve" font-family="Dosis-Regular" font-size="72.0" fill="#FEFFFF" transform="matrix(1.00, 0.00, -0.00, -1.00, 303.7, 112.0)">o</text><text xml:space="preserve" font-family="Dosis-Regular" font-size="72.0" fill="#FEFFFF" transform="matrix(1.00, 0.00, -0.00, -1.00, 337.4, 112.0)"> </text><text xml:space="preserve" font-family="Dosis-Regular" font-size="72.0" fill="#FEFFFF" transform="matrix(1.00, 0.00, -0.00, -1.00, 351.8, 112.0)">p</text><text xml:space="preserve" font-family="Dosis-Regular" font-size="72.0" fill="#FEFFFF" transform="matrix(1.00, 0.00, -0.00, -1.00, 386.6, 112.0)">e</text><text xml:space="preserve" font-family="Dosis-Regular" font-size="72.0" fill="#FEFFFF" transform="matrix(1.00, 0.00, -0.00, -1.00, 419.6, 112.0)">s</text><text xml:space="preserve" font-family="Dosis-Regular" font-size="72.0" fill="#FEFFFF" transform="matrix(1.00, 0.00, -0.00, -1.00, 447.3, 112.0)">s</text><text xml:space="preserve" font-family="Dosis-Regular" font-size="72.0" fill="#FEFFFF" transform="matrix(1.00, 0.00, -0.00, -1.00, 475.0, 112.0)">o</text><text xml:space="preserve" font-family="Dosis-Regular" font-size="72.0" fill="#FEFFFF" transform="matrix(1.00, 0.00, -0.00, -1.00, 508.7, 112.0)">a</text><text xml:space="preserve" font-family="Dosis-Regular" font-size="72.0" fill="#FEFFFF" transform="matrix(1.00, 0.00, -0.00, -1.00, 540.3, 112.0)">s</text><text xml:space="preserve" font-family="Dosis-Regular" font-size="72.0" fill="#FEFFFF" transform="matrix(1.00, 0.00, -0.00, -1.00, 568.0, 112.0)"> </text><text xml:space="preserve" font-family="Dosis-Regular" font-size="72.0" fill="#FEFFFF" transform="matrix(1.00, 0.00, -0.00, -1.00, 582.4, 112.0)">q</text><text xml:space="preserve" font-family="Dosis-Regular" font-size="72.0" fill="#FEFFFF" transform="matrix(1.00, 0.00, -0.00, -1.00, 617.2, 112.0)">u</text><text xml:space="preserve" font-family="Dosis-Regular" font-size="72.0" fill="#FEFFFF" transform="matrix(1.00, 0.00, -0.00, -1.00, 653.0, 112.0)">e</text><text xml:space="preserve" font-family="Dosis-Regular" font-size="72.0" fill="#FEFFFF" transform="matrix(1.00, 0.00, -0.00, -1.00, 685.9, 112.0)"> </text><text xml:space="preserve" font-family="Dosis-Regular" font-size="72.0" fill="#FEFFFF" transform="matrix(1.00, 0.00, -0.00, -1.00, 700.3, 112.0)">q</text><text xml:space="preserve" font-family="Dosis-Regular" font-size="72.0" fill="#FEFFFF" transform="matrix(1.00, 0.00, -0.00, -1.00, 735.2, 112.0)">u</text><text xml:space="preserve" font-family="Dosis-Regular" font-size="72.0" fill="#FEFFFF" transform="matrix(1.00, 0.00, -0.00, -1.00, 770.9, 112.0)">e</text><text xml:space="preserve" font-family="Dosis-Regular" font-size="72.0" fill="#FEFFFF" transform="matrix(1.00, 0.00, -0.00, -1.00, 803.9, 112.0)">r</text><text xml:space="preserve" font-family="Dosis-Regular" font-size="72.0" fill="#FEFFFF" transform="matrix(1.00, 0.00, -0.00, -1.00, 826.4, 112.0)">e</text><text xml:space="preserve" font-family="Dosis-Regular" font-size="72.0" fill="#FEFFFF" transform="matrix(1.00, 0.00, -0.00, -1.00, 859.4, 112.0)">m</text><text xml:space="preserve" font-family="Dosis-Regular" font-size="72.0" fill="#FEFFFF" transform="matrix(1.00, 0.00, -0.00, -1.00, 915.5, 112.0)"> </text><text xml:space="preserve" font-family="Dosis-Regular" font-size="72.0" fill="#FEFFFF" transform="matrix(1.00, 0.00, -0.00, -1.00, 929.9, 112.0)">c</text><text xml:space="preserve" font-family="Dosis-Regular" font-size="72.0" fill="#FEFFFF" transform="matrix(1.00, 0.00, -0.00, -1.00, 959.2, 112.0)">o</text><text xml:space="preserve" font-family="Dosis-Regular" font-size="72.0" fill="#FEFFFF" transform="matrix(1.00, 0.00, -0.00, -1.00, 992.9, 112.0)">n</text><text xml:space="preserve" font-family="Dosis-Regular" font-size="72.0" fill="#FEFFFF" transform="matrix(1.00, 0.00, -0.00, -1.00, 1028.6, 112.0)">c</text><text xml:space="preserve" font-family="Dosis-Regular" font-size="72.0" fill="#FEFFFF" transform="matrix(1.00, 0.00, -0.00, -1.00, 1058.2, 112.0)">r</text><text xml:space="preserve" font-family="Dosis-Regular" font-size="72.0" fill="#FEFFFF" transform="matrix(1.00, 0.00, -0.00, -1.00, 1080.7, 112.0)">e</text><text xml:space="preserve" font-family="Dosis-Regular" font-size="72.0" fill="#FEFFFF" transform="matrix(1.00, 0.00, -0.00, -1.00, 1113.7, 112.0)">t</text><text xml:space="preserve" font-family="Dosis-Regular" font-size="72.0" fill="#FEFFFF" transform="matrix(1.00, 0.00, -0.00, -1.00, 1135.1, 112.0)">i</text><text xml:space="preserve" font-family="Dosis-Regular" font-size="72.0" fill="#FEFFFF" transform="matrix(1.00, 0.00, -0.00, -1.00, 1148.8, 112.0)">z</text><text xml:space="preserve" font-family="Dosis-Regular" font-size="72.0" fill="#FEFFFF" transform="matrix(1.00, 0.00, -0.00, -1.00, 1177.7, 112.0)">รก</text><text xml:space="preserve" font-family="Dosis-Regular" font-size="72.0" fill="#FEFFFF" transform="matrix(1.00, 0.00, -0.00, -1.00, 1209.2, 112.0)">-</text><text xml:space="preserve" font-family="Dosis-Regular" font-size="72.0" fill="#FEFFFF" transform="matrix(1.00, 0.00, -0.00, -1.00, 1239.0, 112.0)">l</text><text xml:space="preserve" font-family="Dosis-Regular" font-size="72.0" fill="#FEFFFF" transform="matrix(1.00, 0.00, -0.00, -1.00, 1253.9, 112.0)">o</text><text xml:space="preserve" font-family="Dosis-Regular" font-size="72.0" fill="#FEFFFF" transform="matrix(1.00, 0.00, -0.00, -1.00, 1287.6, 112.0)">s</text><text xml:space="preserve" font-family="Dosis-Regular" font-size="72.0" fill="#FEFFFF" transform="matrix(1.00, 0.00, -0.00, -1.00, 1315.3, 112.0)"> </text><text xml:space="preserve" font-family="Dosis-Regular" font-size="72.0" fill="#FEFFFF" transform="matrix(1.00, 0.00, -0.00, -1.00, 1329.7, 112.0)">c</text><text xml:space="preserve" font-family="Dosis-Regular" font-size="72.0" fill="#FEFFFF" transform="matrix(1.00, 0.00, -0.00, -1.00, 1358.9, 112.0)">o</text><text xml:space="preserve" font-family="Dosis-Regular" font-size="72.0" fill="#FEFFFF" transform="matrix(1.00, 0.00, -0.00, -1.00, 1392.6, 112.0)">m</text><text xml:space="preserve" font-family="Dosis-Regular" font-size="72.0" fill="#FEFFFF" transform="matrix(1.00, 0.00, -0.00, -1.00, 1448.8, 112.0)"> </text><text xml:space="preserve" font-family="Dosis-Regular" font-size="72.0" fill="#FEFFFF" transform="matrix(1.00, 0.00, -0.00, -1.00, 1463.2, 112.0)">a</text><text xml:space="preserve" font-family="Dosis-Regular" font-size="72.0" fill="#FEFFFF" transform="matrix(1.00, 0.00, -0.00, -1.00, 1494.7, 112.0)">s</text><text xml:space="preserve" font-family="Dosis-Regular" font-size="72.0" fill="#FEFFFF" transform="matrix(1.00, 0.00, -0.00, -1.00, 1522.4, 112.0)"> </text><image xlink:href="../../14C88248-491B-46E2-AA1E-00DDB765B323/assets/8078D6DB5EFAA57269EB2F4BFEF03498.png" width="1545.00" height="80.00" transform="matrix(1.00, 0.00, -0.00, -1.00, 2.0, 82.0)"></image><text xml:space="preserve" font-family="Dosis-Regular" font-size="72.0" fill="#FEFFFF" transform="matrix(1.00, 0.00, -0.00, -1.00, 0.0, 21.0)">q</text><text xml:space="preserve" font-family="Dosis-Regular" font-size="72.0" fill="#FEFFFF" transform="matrix(1.00, 0.00, -0.00, -1.00, 34.8, 21.0)">u</text><text xml:space="preserve" font-family="Dosis-Regular" font-size="72.0" fill="#FEFFFF" transform="matrix(1.00, 0.00, -0.00, -1.00, 70.6, 21.0)">e</text><text xml:space="preserve" font-family="Dosis-Regular" font-size="72.0" fill="#FEFFFF" transform="matrix(1.00, 0.00, -0.00, -1.00, 103.5, 21.0)"> </text><text xml:space="preserve" font-family="Dosis-Regular" font-size="72.0" fill="#FEFFFF" transform="matrix(1.00, 0.00, -0.00, -1.00, 117.9, 21.0)">p</text><text xml:space="preserve" font-family="Dosis-Regular" font-size="72.0" fill="#FEFFFF" transform="matrix(1.00, 0.00, -0.00, -1.00, 152.8, 21.0)">o</text><text xml:space="preserve" font-family="Dosis-Regular" font-size="72.0" fill="#FEFFFF" transform="matrix(1.00, 0.00, -0.00, -1.00, 186.5, 21.0)">s</text><text xml:space="preserve" font-family="Dosis-Regular" font-size="72.0" fill="#FEFFFF" transform="matrix(1.00, 0.00, -0.00, -1.00, 214.2, 21.0)">s</text><text xml:space="preserve" font-family="Dosis-Regular" font-size="72.0" fill="#FEFFFF" transform="matrix(1.00, 0.00, -0.00, -1.00, 241.9, 21.0)">u</text><text xml:space="preserve" font-family="Dosis-Regular" font-size="72.0" fill="#FEFFFF" transform="matrix(1.00, 0.00, -0.00, -1.00, 277.6, 21.0)">e</text><text xml:space="preserve" font-family="Dosis-Regular" font-size="72.0" fill="#FEFFFF" transform="matrix(1.00, 0.00, -0.00, -1.00, 310.6, 21.0)">m</text><text xml:space="preserve" font-family="Dosis-Regular" font-size="72.0" fill="#FEFFFF" transform="matrix(1.00, 0.00, -0.00, -1.00, 366.8, 21.0)"> </text><text xml:space="preserve" font-family="Dosis-Regular" font-size="72.0" fill="#FEFFFF" transform="matrix(1.00, 0.00, -0.00, -1.00, 381.2, 21.0)">u</text><text xml:space="preserve" font-family="Dosis-Regular" font-size="72.0" fill="#FEFFFF" transform="matrix(1.00, 0.00, -0.00, -1.00, 416.9, 21.0)">m</text><text xml:space="preserve" font-family="Dosis-Regular" font-size="72.0" fill="#FEFFFF" transform="matrix(1.00, 0.00, -0.00, -1.00, 473.0, 21.0)"> </text><text xml:space="preserve" font-family="Dosis-Regular" font-size="72.0" fill="#FEFFFF" transform="matrix(1.00, 0.00, -0.00, -1.00, 487.4, 21.0)">c</text><text xml:space="preserve" font-family="Dosis-Regular" font-size="72.0" fill="#FEFFFF" transform="matrix(1.00, 0.00, -0.00, -1.00, 516.7, 21.0)">o</text><text xml:space="preserve" font-family="Dosis-Regular" font-size="72.0" fill="#FEFFFF" transform="matrix(1.00, 0.00, -0.00, -1.00, 550.4, 21.0)">n</text><text xml:space="preserve" font-family="Dosis-Regular" font-size="72.0" fill="#FEFFFF" transform="matrix(1.00, 0.00, -0.00, -1.00, 586.1, 21.0)">h</text><text xml:space="preserve" font-family="Dosis-Regular" font-size="72.0" fill="#FEFFFF" transform="matrix(1.00, 0.00, -0.00, -1.00, 621.8, 21.0)">e</text><text xml:space="preserve" font-family="Dosis-Regular" font-size="72.0" fill="#FEFFFF" transform="matrix(1.00, 0.00, -0.00, -1.00, 654.8, 21.0)">c</text><text xml:space="preserve" font-family="Dosis-Regular" font-size="72.0" fill="#FEFFFF" transform="matrix(1.00, 0.00, -0.00, -1.00, 684.4, 21.0)">i</text><text xml:space="preserve" font-family="Dosis-Regular" font-size="72.0" fill="#FEFFFF" transform="matrix(1.00, 0.00, -0.00, -1.00, 698.1, 21.0)">m</text><text xml:space="preserve" font-family="Dosis-Regular" font-size="72.0" fill="#FEFFFF" transform="matrix(1.00, 0.00, -0.00, -1.00, 754.3, 21.0)">e</text><text xml:space="preserve" font-family="Dosis-Regular" font-size="72.0" fill="#FEFFFF" transform="matrix(1.00, 0.00, -0.00, -1.00, 787.2, 21.0)">n</text><text xml:space="preserve" font-family="Dosis-Regular" font-size="72.0" fill="#FEFFFF" transform="matrix(1.00, 0.00, -0.00, -1.00, 823.0, 21.0)">t</text><text xml:space="preserve" font-family="Dosis-Regular" font-size="72.0" fill="#FEFFFF" transform="matrix(1.00, 0.00, -0.00, -1.00, 843.7, 21.0)">o</text><text xml:space="preserve" font-family="Dosis-Regular" font-size="72.0" fill="#FEFFFF" transform="matrix(1.00, 0.00, -0.00, -1.00, 877.4, 21.0)">,</text><text xml:space="preserve" font-family="Dosis-Regular" font-size="72.0" fill="#FEFFFF" transform="matrix(1.00, 0.00, -0.00, -1.00, 889.7, 21.0)"> </text><text xml:space="preserve" font-family="Dosis-Regular" font-size="72.0" fill="#FEFFFF" transform="matrix(1.00, 0.00, -0.00, -1.00, 904.1, 21.0)">u</text><text xml:space="preserve" font-family="Dosis-Regular" font-size="72.0" fill="#FEFFFF" transform="matrix(1.00, 0.00, -0.00, -1.00, 939.8, 21.0)">m</text><text xml:space="preserve" font-family="Dosis-Regular" font-size="72.0" fill="#FEFFFF" transform="matrix(1.00, 0.00, -0.00, -1.00, 996.0, 21.0)"> </text><text xml:space="preserve" font-family="Dosis-Regular" font-size="72.0" fill="#FEFFFF" transform="matrix(1.00, 0.00, -0.00, -1.00, 1010.4, 21.0)">b</text><text xml:space="preserve" font-family="Dosis-Regular" font-size="72.0" fill="#FEFFFF" transform="matrix(1.00, 0.00, -0.00, -1.00, 1045.2, 21.0)">e</text><text xml:space="preserve" font-family="Dosis-Regular" font-size="72.0" fill="#FEFFFF" transform="matrix(1.00, 0.00, -0.00, -1.00, 1078.2, 21.0)">m</text><text xml:space="preserve" font-family="Dosis-Regular" font-size="72.0" fill="#FEFFFF" transform="matrix(1.00, 0.00, -0.00, -1.00, 1134.4, 21.0)"> </text><text xml:space="preserve" font-family="Dosis-Regular" font-size="72.0" fill="#FEFFFF" transform="matrix(1.00, 0.00, -0.00, -1.00, 1148.8, 21.0)">o</text><text xml:space="preserve" font-family="Dosis-Regular" font-size="72.0" fill="#FEFFFF" transform="matrix(1.00, 0.00, -0.00, -1.00, 1182.5, 21.0)">u</text><text xml:space="preserve" font-family="Dosis-Regular" font-size="72.0" fill="#FEFFFF" transform="matrix(1.00, 0.00, -0.00, -1.00, 1218.2, 21.0)"> </text><text xml:space="preserve" font-family="Dosis-Regular" font-size="72.0" fill="#FEFFFF" transform="matrix(1.00, 0.00, -0.00, -1.00, 1232.6, 21.0)">u</text><text xml:space="preserve" font-family="Dosis-Regular" font-size="72.0" fill="#FEFFFF" transform="matrix(1.00, 0.00, -0.00, -1.00, 1268.3, 21.0)">m</text><text xml:space="preserve" font-family="Dosis-Regular" font-size="72.0" fill="#FEFFFF" transform="matrix(1.00, 0.00, -0.00, -1.00, 1324.4, 21.0)"> </text><text xml:space="preserve" font-family="Dosis-Regular" font-size="72.0" fill="#FEFFFF" transform="matrix(1.00, 0.00, -0.00, -1.00, 1338.8, 21.0)">s</text><text xml:space="preserve" font-family="Dosis-Regular" font-size="72.0" fill="#FEFFFF" transform="matrix(1.00, 0.00, -0.00, -1.00, 1366.6, 21.0)">e</text><text xml:space="preserve" font-family="Dosis-Regular" font-size="72.0" fill="#FEFFFF" transform="matrix(1.00, 0.00, -0.00, -1.00, 1399.5, 21.0)">r</text><text xml:space="preserve" font-family="Dosis-Regular" font-size="72.0" fill="#FEFFFF" transform="matrix(1.00, 0.00, -0.00, -1.00, 1423.4, 21.0)">v</text><text xml:space="preserve" font-family="Dosis-Regular" font-size="72.0" fill="#FEFFFF" transform="matrix(1.00, 0.00, -0.00, -1.00, 1453.6, 21.0)">i</text><text xml:space="preserve" font-family="Dosis-Regular" font-size="72.0" fill="#FEFFFF" transform="matrix(1.00, 0.00, -0.00, -1.00, 1467.4, 21.0)">รง</text><text xml:space="preserve" font-family="Dosis-Regular" font-size="72.0" fill="#FEFFFF" transform="matrix(1.00, 0.00, -0.00, -1.00, 1496.6, 21.0)">o</text><text xml:space="preserve" font-family="Dosis-Regular" font-size="72.0" fill="#FEFFFF" transform="matrix(1.00, 0.00, -0.00, -1.00, 1530.3, 21.0)">.</text></g></svg>