<?xml version="1.0" encoding="UTF-8" standalone="no"?><svg xmlns="http://www.w3.org/2000/svg" xmlns:xlink="http://www.w3.org/1999/xlink" clip-rule="evenodd" stroke-miterlimit="4.00" viewBox="0 0 1920 1080"><desc>SVG generated by Keynote</desc><defs></defs><g transform="matrix(1.00, 0.00, -0.00, -1.00, 0.0, 1080.0)"><path d="M 0.0 1080.0 L 1920.0 1080.0 L 1920.0 0.0 L 0.0 0.0 Z M 0.0 1080.0 " fill="#E4E4E6"></path><image xlink:href="86756150D8EFF9FBE0CA14ADC7E18036.png" width="696.00" height="271.00" transform="matrix(1.00, 0.00, -0.00, -1.00, 911.8, 612.4)" opacity="0.60"></image><path d="M 968.1 597.7 L 1551.3 597.7 C 1559.9 597.7 1564.2 597.7 1568.8 596.2 C 1573.9 594.4 1577.9 590.4 1579.7 585.3 C 1581.2 580.7 1581.2 576.4 1581.2 567.7 L 1581.2 409.7 C 1581.2 401.1 1581.2 396.8 1579.7 392.2 C 1577.9 387.1 1573.9 383.1 1568.8 381.3 C 1564.2 379.8 1559.9 379.8 1551.2 379.8 L 968.1 379.8 C 959.6 379.8 955.2 379.8 950.6 381.3 C 945.6 383.1 941.6 387.1 939.7 392.2 C 938.3 396.8 938.3 401.1 938.3 409.8 L 938.3 567.8 C 938.3 576.4 938.3 580.7 939.7 585.3 C 941.6 590.4 945.6 594.4 950.6 596.2 C 955.2 597.7 959.6 597.7 968.3 597.7 Z M 968.1 597.7 " fill="#241D2B"></path><path d="M 29.9 0.0 L 613.0 0.0 C 621.6 0.0 625.9 0.0 630.6 1.5 C 635.6 3.3 639.6 7.3 641.4 12.3 C 642.9 17.0 642.9 21.3 642.9 30.0 L 642.9 188.0 C 642.9 196.6 642.9 200.9 641.4 205.5 C 639.6 210.6 635.6 214.5 630.6 216.4 C 625.9 217.8 621.6 217.8 612.9 217.8 L 29.9 217.8 C 21.3 217.8 17.0 217.8 12.3 216.4 C 7.3 214.5 3.3 210.6 1.5 205.5 C 0.0 200.9 0.0 196.6 0.0 187.9 L 0.0 29.9 C 0.0 21.3 0.0 17.0 1.5 12.3 C 3.3 7.3 7.3 3.3 12.3 1.5 C 17.0 0.0 21.3 0.0 30.0 0.0 Z M 29.9 0.0 " fill="none" stroke="#F2F6F5" stroke-width="1.10" transform="matrix(1.00, 0.00, 0.00, -1.00, 938.3, 597.7)"></path><image xlink:href="../../103685CC-7A9D-4A24-92A5-A588DC722414/assets/86756150D8EFF9FBE0CA14ADC7E18036.png" width="696.00" height="271.00" transform="matrix(1.00, 0.00, -0.00, -1.00, 911.8, 354.3)" opacity="0.60"></image><path d="M 968.1 339.6 L 1551.3 339.6 C 1559.9 339.6 1564.2 339.6 1568.8 338.1 C 1573.9 336.3 1577.9 332.3 1579.7 327.2 C 1581.2 322.6 1581.2 318.3 1581.2 309.6 L 1581.2 151.6 C 1581.2 143.0 1581.2 138.7 1579.7 134.1 C 1577.9 129.0 1573.9 125.0 1568.8 123.2 C 1564.2 121.7 1559.9 121.7 1551.2 121.7 L 968.1 121.7 C 959.6 121.7 955.2 121.7 950.6 123.2 C 945.6 125.0 941.6 129.0 939.7 134.1 C 938.3 138.7 938.3 143.0 938.3 151.7 L 938.3 309.7 C 938.3 318.3 938.3 322.6 939.7 327.2 C 941.6 332.3 945.6 336.3 950.6 338.1 C 955.2 339.6 959.6 339.6 968.3 339.6 Z M 968.1 339.6 " fill="#241D2B"></path><path d="M 29.9 0.0 L 613.0 0.0 C 621.6 0.0 625.9 0.0 630.6 1.5 C 635.6 3.3 639.6 7.3 641.4 12.3 C 642.9 17.0 642.9 21.3 642.9 30.0 L 642.9 188.0 C 642.9 196.6 642.9 200.9 641.4 205.5 C 639.6 210.6 635.6 214.5 630.6 216.4 C 625.9 217.8 621.6 217.8 612.9 217.8 L 29.9 217.8 C 21.3 217.8 17.0 217.8 12.3 216.4 C 7.3 214.5 3.3 210.6 1.5 205.5 C 0.0 200.9 0.0 196.6 0.0 187.9 L 0.0 29.9 C 0.0 21.3 0.0 17.0 1.5 12.3 C 3.3 7.3 7.3 3.3 12.3 1.5 C 17.0 0.0 21.3 0.0 30.0 0.0 Z M 29.9 0.0 " fill="none" stroke="#F2F6F5" stroke-width="1.10" transform="matrix(1.00, 0.00, 0.00, -1.00, 938.3, 339.6)"></path><image xlink:href="../../103685CC-7A9D-4A24-92A5-A588DC722414/assets/86756150D8EFF9FBE0CA14ADC7E18036.png" width="696.00" height="271.00" transform="matrix(1.00, 0.00, -0.00, -1.00, 911.8, 868.5)" opacity="0.60"></image><path d="M 968.1 853.8 L 1551.3 853.8 C 1559.9 853.8 1564.2 853.8 1568.8 852.3 C 1573.9 850.5 1577.9 846.5 1579.7 841.4 C 1581.2 836.8 1581.2 832.5 1581.2 823.8 L 1581.2 665.8 C 1581.2 657.2 1581.2 652.9 1579.7 648.3 C 1577.9 643.2 1573.9 639.2 1568.8 637.4 C 1564.2 635.9 1559.9 635.9 1551.2 635.9 L 968.1 635.9 C 959.6 635.9 955.2 635.9 950.6 637.4 C 945.6 639.2 941.6 643.2 939.7 648.3 C 938.3 652.9 938.3 657.2 938.3 665.9 L 938.3 823.9 C 938.3 832.5 938.3 836.8 939.7 841.4 C 941.6 846.5 945.6 850.5 950.6 852.3 C 955.2 853.8 959.6 853.8 968.3 853.8 Z M 968.1 853.8 " fill="#241D2B"></path><path d="M 29.9 0.0 L 613.0 0.0 C 621.6 0.0 625.9 0.0 630.6 1.5 C 635.6 3.3 639.6 7.3 641.4 12.3 C 642.9 17.0 642.9 21.3 642.9 30.0 L 642.9 188.0 C 642.9 196.6 642.9 200.9 641.4 205.5 C 639.6 210.6 635.6 214.5 630.6 216.4 C 625.9 217.8 621.6 217.8 612.9 217.8 L 29.9 217.8 C 21.3 217.8 17.0 217.8 12.3 216.4 C 7.3 214.5 3.3 210.6 1.5 205.5 C 0.0 200.9 0.0 196.6 0.0 187.9 L 0.0 29.9 C 0.0 21.3 0.0 17.0 1.5 12.3 C 3.3 7.3 7.3 3.3 12.3 1.5 C 17.0 0.0 21.3 0.0 30.0 0.0 Z M 29.9 0.0 " fill="none" stroke="#F2F6F5" stroke-width="1.10" transform="matrix(1.00, 0.00, 0.00, -1.00, 938.3, 853.8)"></path><image xlink:href="C93B861DC1D32B482E3282A89048242E.png" width="583.00" height="788.00" transform="matrix(1.00, 0.00, -0.00, -1.00, 322.6, 867.9)" opacity="0.50"></image><path d="M 382.5 852.4 L 845.7 852.4 C 855.0 852.4 859.7 852.4 864.8 850.8 C 870.2 848.8 874.6 844.4 876.6 839.0 C 878.2 833.9 878.2 829.2 878.2 819.7 L 878.2 151.6 C 878.2 142.3 878.2 137.6 876.6 132.6 C 874.6 127.1 870.2 122.7 864.8 120.7 C 859.7 119.1 855.0 119.1 845.5 119.1 L 382.5 119.1 C 373.2 119.1 368.5 119.1 363.5 120.7 C 358.0 122.7 353.6 127.1 351.6 132.6 C 350.1 137.6 350.1 142.3 350.1 151.8 L 350.1 819.9 C 350.1 829.2 350.1 833.9 351.6 839.0 C 353.6 844.4 358.0 848.8 363.5 850.8 C 368.5 852.4 373.2 852.4 382.7 852.4 Z M 382.5 852.4 " fill="#241D2B"></path><path d="M 32.5 0.0 L 495.6 0.0 C 504.9 0.0 509.7 0.0 514.7 1.6 C 520.2 3.6 524.5 7.9 526.5 13.4 C 528.1 18.4 528.1 23.2 528.1 32.6 L 528.1 700.7 C 528.1 710.1 528.1 714.8 526.5 719.8 C 524.5 725.3 520.2 729.6 514.7 731.6 C 509.7 733.2 504.9 733.2 495.5 733.2 L 32.5 733.2 C 23.2 733.2 18.4 733.2 13.4 731.6 C 7.9 729.6 3.6 725.3 1.6 719.8 C 0.0 714.8 0.0 710.1 0.0 700.6 L 0.0 32.5 C 0.0 23.2 0.0 18.4 1.6 13.4 C 3.6 7.9 7.9 3.6 13.4 1.6 C 18.4 0.0 23.2 0.0 32.6 0.0 Z M 32.5 0.0 " fill="none" stroke="#F2F6F5" stroke-width="1.10" transform="matrix(1.00, 0.00, 0.00, -1.00, 350.1, 852.4)"></path><text xml:space="preserve" font-family="Dosis-SemiBold" font-weight="bold" font-size="53.0" fill="#FEFFFF" transform="matrix(1.00, 0.00, -0.00, -1.00, 559.0, 211.0)">B</text><text xml:space="preserve" font-family="Dosis-SemiBold" font-weight="bold" font-size="53.0" fill="#FEFFFF" transform="matrix(1.00, 0.00, -0.00, -1.00, 588.3, 211.0)">r</text><text xml:space="preserve" font-family="Dosis-SemiBold" font-weight="bold" font-size="53.0" fill="#FEFFFF" transform="matrix(1.00, 0.00, -0.00, -1.00, 607.4, 211.0)">i</text><text xml:space="preserve" font-family="Dosis-SemiBold" font-weight="bold" font-size="53.0" fill="#FEFFFF" transform="matrix(1.00, 0.00, -0.00, -1.00, 618.8, 211.0)">a</text><text xml:space="preserve" font-family="Dosis-SemiBold" font-weight="bold" font-size="53.0" fill="#FEFFFF" transform="matrix(1.00, 0.00, -0.00, -1.00, 643.2, 211.0)">n</text><text xml:space="preserve" font-family="Dosis-Regular" font-size="41.0" fill="#FEFFFF" transform="matrix(1.00, 0.00, -0.00, -1.00, 427.0, 164.0)">f</text><text xml:space="preserve" font-family="Dosis-Regular" font-size="41.0" fill="#FEFFFF" transform="matrix(1.00, 0.00, -0.00, -1.00, 438.8, 164.0)">o</text><text xml:space="preserve" font-family="Dosis-Regular" font-size="41.0" fill="#FEFFFF" transform="matrix(1.00, 0.00, -0.00, -1.00, 458.0, 164.0)">t</text><text xml:space="preserve" font-family="Dosis-Regular" font-size="41.0" fill="#FEFFFF" transform="matrix(1.00, 0.00, -0.00, -1.00, 469.8, 164.0)">ó</text><text xml:space="preserve" font-family="Dosis-Regular" font-size="41.0" fill="#FEFFFF" transform="matrix(1.00, 0.00, -0.00, -1.00, 489.0, 164.0)">g</text><text xml:space="preserve" font-family="Dosis-Regular" font-size="41.0" fill="#FEFFFF" transform="matrix(1.00, 0.00, -0.00, -1.00, 507.5, 164.0)">r</text><text xml:space="preserve" font-family="Dosis-Regular" font-size="41.0" fill="#FEFFFF" transform="matrix(1.00, 0.00, -0.00, -1.00, 521.1, 164.0)">a</text><text xml:space="preserve" font-family="Dosis-Regular" font-size="41.0" fill="#FEFFFF" transform="matrix(1.00, 0.00, -0.00, -1.00, 539.1, 164.0)">f</text><text xml:space="preserve" font-family="Dosis-Regular" font-size="41.0" fill="#FEFFFF" transform="matrix(1.00, 0.00, -0.00, -1.00, 550.9, 164.0)">o</text><text xml:space="preserve" font-family="Dosis-Regular" font-size="41.0" fill="#FEFFFF" transform="matrix(1.00, 0.00, -0.00, -1.00, 570.0, 164.0)"> </text><text xml:space="preserve" font-family="Dosis-Regular" font-size="41.0" fill="#FEFFFF" transform="matrix(1.00, 0.00, -0.00, -1.00, 578.2, 164.0)">e</text><text xml:space="preserve" font-family="Dosis-Regular" font-size="41.0" fill="#FEFFFF" transform="matrix(1.00, 0.00, -0.00, -1.00, 597.0, 164.0)"> </text><text xml:space="preserve" font-family="Dosis-Regular" font-size="41.0" fill="#FEFFFF" transform="matrix(1.00, 0.00, -0.00, -1.00, 605.2, 164.0)">g</text><text xml:space="preserve" font-family="Dosis-Regular" font-size="41.0" fill="#FEFFFF" transform="matrix(1.00, 0.00, -0.00, -1.00, 623.8, 164.0)">u</text><text xml:space="preserve" font-family="Dosis-Regular" font-size="41.0" fill="#FEFFFF" transform="matrix(1.00, 0.00, -0.00, -1.00, 644.1, 164.0)">i</text><text xml:space="preserve" font-family="Dosis-Regular" font-size="41.0" fill="#FEFFFF" transform="matrix(1.00, 0.00, -0.00, -1.00, 651.9, 164.0)">a</text><text xml:space="preserve" font-family="Dosis-Regular" font-size="41.0" fill="#FEFFFF" transform="matrix(1.00, 0.00, -0.00, -1.00, 669.9, 164.0)"> </text><text xml:space="preserve" font-family="Dosis-Regular" font-size="41.0" fill="#FEFFFF" transform="matrix(1.00, 0.00, -0.00, -1.00, 678.1, 164.0)">t</text><text xml:space="preserve" font-family="Dosis-Regular" font-size="41.0" fill="#FEFFFF" transform="matrix(1.00, 0.00, -0.00, -1.00, 690.3, 164.0)">u</text><text xml:space="preserve" font-family="Dosis-Regular" font-size="41.0" fill="#FEFFFF" transform="matrix(1.00, 0.00, -0.00, -1.00, 710.6, 164.0)">r</text><text xml:space="preserve" font-family="Dosis-Regular" font-size="41.0" fill="#FEFFFF" transform="matrix(1.00, 0.00, -0.00, -1.00, 724.2, 164.0)">i</text><text xml:space="preserve" font-family="Dosis-Regular" font-size="41.0" fill="#FEFFFF" transform="matrix(1.00, 0.00, -0.00, -1.00, 732.0, 164.0)">s</text><text xml:space="preserve" font-family="Dosis-Regular" font-size="41.0" fill="#FEFFFF" transform="matrix(1.00, 0.00, -0.00, -1.00, 747.8, 164.0)">t</text><text xml:space="preserve" font-family="Dosis-Regular" font-size="41.0" fill="#FEFFFF" transform="matrix(1.00, 0.00, -0.00, -1.00, 760.0, 164.0)">i</text><text xml:space="preserve" font-family="Dosis-Regular" font-size="41.0" fill="#FEFFFF" transform="matrix(1.00, 0.00, -0.00, -1.00, 767.8, 164.0)">c</text><text xml:space="preserve" font-family="Dosis-Regular" font-size="41.0" fill="#FEFFFF" transform="matrix(1.00, 0.00, -0.00, -1.00, 784.4, 164.0)">o</text><text xml:space="preserve" font-family="Dosis-SemiBold" font-weight="bold" font-size="43.0" fill="#94B81F" transform="matrix(1.00, 0.00, -0.00, -1.00, 967.0, 517.0)">A</text><text xml:space="preserve" font-family="Dosis-SemiBold" font-weight="bold" font-size="43.0" fill="#94B81F" transform="matrix(1.00, 0.00, -0.00, -1.00, 991.2, 517.0)">t</text><text xml:space="preserve" font-family="Dosis-SemiBold" font-weight="bold" font-size="43.0" fill="#94B81F" transform="matrix(1.00, 0.00, -0.00, -1.00, 1005.3, 517.0)">i</text><text xml:space="preserve" font-family="Dosis-SemiBold" font-weight="bold" font-size="43.0" fill="#94B81F" transform="matrix(1.00, 0.00, -0.00, -1.00, 1014.6, 517.0)">v</text><text xml:space="preserve" font-family="Dosis-SemiBold" font-weight="bold" font-size="43.0" fill="#94B81F" transform="matrix(1.00, 0.00, -0.00, -1.00, 1034.3, 517.0)">i</text><text xml:space="preserve" font-family="Dosis-SemiBold" font-weight="bold" font-size="43.0" fill="#94B81F" transform="matrix(1.00, 0.00, -0.00, -1.00, 1043.5, 517.0)">d</text><text xml:space="preserve" font-family="Dosis-SemiBold" font-weight="bold" font-size="43.0" fill="#94B81F" transform="matrix(1.00, 0.00, -0.00, -1.00, 1065.3, 517.0)">a</text><text xml:space="preserve" font-family="Dosis-SemiBold" font-weight="bold" font-size="43.0" fill="#94B81F" transform="matrix(1.00, 0.00, -0.00, -1.00, 1085.1, 517.0)">d</text><text xml:space="preserve" font-family="Dosis-SemiBold" font-weight="bold" font-size="43.0" fill="#94B81F" transform="matrix(1.00, 0.00, -0.00, -1.00, 1106.9, 517.0)">e</text><text xml:space="preserve" font-family="Dosis-SemiBold" font-weight="bold" font-size="43.0" fill="#94B81F" transform="matrix(1.00, 0.00, -0.00, -1.00, 1127.3, 517.0)">s</text><text xml:space="preserve" font-family="Dosis-SemiBold" font-weight="bold" font-size="43.0" fill="#94B81F" transform="matrix(1.00, 0.00, -0.00, -1.00, 1144.7, 517.0)"> </text><text xml:space="preserve" font-family="Dosis-SemiBold" font-weight="bold" font-size="43.0" fill="#94B81F" transform="matrix(1.00, 0.00, -0.00, -1.00, 1153.3, 517.0)">d</text><text xml:space="preserve" font-family="Dosis-SemiBold" font-weight="bold" font-size="43.0" fill="#94B81F" transform="matrix(1.00, 0.00, -0.00, -1.00, 1175.1, 517.0)">e</text><text xml:space="preserve" font-family="Dosis-SemiBold" font-weight="bold" font-size="43.0" fill="#94B81F" transform="matrix(1.00, 0.00, -0.00, -1.00, 1195.5, 517.0)"> </text><text xml:space="preserve" font-family="Dosis-SemiBold" font-weight="bold" font-size="43.0" fill="#94B81F" transform="matrix(1.00, 0.00, -0.00, -1.00, 1204.1, 517.0)">I</text><text xml:space="preserve" font-family="Dosis-SemiBold" font-weight="bold" font-size="43.0" fill="#94B81F" transform="matrix(1.00, 0.00, -0.00, -1.00, 1214.3, 517.0)">n</text><text xml:space="preserve" font-family="Dosis-SemiBold" font-weight="bold" font-size="43.0" fill="#94B81F" transform="matrix(1.00, 0.00, -0.00, -1.00, 1236.4, 517.0)">t</text><text xml:space="preserve" font-family="Dosis-SemiBold" font-weight="bold" font-size="43.0" fill="#94B81F" transform="matrix(1.00, 0.00, -0.00, -1.00, 1250.2, 517.0)">e</text><text xml:space="preserve" font-family="Dosis-SemiBold" font-weight="bold" font-size="43.0" fill="#94B81F" transform="matrix(1.00, 0.00, -0.00, -1.00, 1270.6, 517.0)">r</text><text xml:space="preserve" font-family="Dosis-SemiBold" font-weight="bold" font-size="43.0" fill="#94B81F" transform="matrix(1.00, 0.00, -0.00, -1.00, 1285.5, 517.0)">e</text><text xml:space="preserve" font-family="Dosis-SemiBold" font-weight="bold" font-size="43.0" fill="#94B81F" transform="matrix(1.00, 0.00, -0.00, -1.00, 1305.9, 517.0)">s</text><text xml:space="preserve" font-family="Dosis-SemiBold" font-weight="bold" font-size="43.0" fill="#94B81F" transform="matrix(1.00, 0.00, -0.00, -1.00, 1323.3, 517.0)">s</text><text xml:space="preserve" font-family="Dosis-SemiBold" font-weight="bold" font-size="43.0" fill="#94B81F" transform="matrix(1.00, 0.00, -0.00, -1.00, 1340.7, 517.0)">e</text><text xml:space="preserve" font-family="Dosis-SemiBold" font-weight="bold" font-size="43.0" fill="#94B81F" transform="matrix(1.00, 0.00, -0.00, -1.00, 1361.1, 517.0)">s</text><image xlink:href="A0E0D90518EDD75647E8310FABA78B54.png" width="161.00" height="161.00" transform="matrix(1.00, 0.00, -0.00, -1.00, 1404.0, 571.0)"></image><text xml:space="preserve" font-family="Dosis-SemiBold" font-weight="bold" font-size="43.0" fill="#94B81F" transform="matrix(1.00, 0.00, -0.00, -1.00, 968.0, 267.0)">I</text><text xml:space="preserve" font-family="Dosis-SemiBold" font-weight="bold" font-size="43.0" fill="#94B81F" transform="matrix(1.00, 0.00, -0.00, -1.00, 978.0, 267.0)">d</text><text xml:space="preserve" font-family="Dosis-SemiBold" font-weight="bold" font-size="43.0" fill="#94B81F" transform="matrix(1.00, 0.00, -0.00, -1.00, 999.8, 267.0)">é</text><text xml:space="preserve" font-family="Dosis-SemiBold" font-weight="bold" font-size="43.0" fill="#94B81F" transform="matrix(1.00, 0.00, -0.00, -1.00, 1020.2, 267.0)">i</text><text xml:space="preserve" font-family="Dosis-SemiBold" font-weight="bold" font-size="43.0" fill="#94B81F" transform="matrix(1.00, 0.00, -0.00, -1.00, 1029.4, 267.0)">a</text><text xml:space="preserve" font-family="Dosis-SemiBold" font-weight="bold" font-size="43.0" fill="#94B81F" transform="matrix(1.00, 0.00, -0.00, -1.00, 1049.2, 267.0)">s</text><text xml:space="preserve" font-family="Dosis-SemiBold" font-weight="bold" font-size="43.0" fill="#94B81F" transform="matrix(1.00, 0.00, -0.00, -1.00, 1066.6, 267.0)"> </text><text xml:space="preserve" font-family="Dosis-SemiBold" font-weight="bold" font-size="43.0" fill="#94B81F" transform="matrix(1.00, 0.00, -0.00, -1.00, 1075.2, 267.0)">d</text><text xml:space="preserve" font-family="Dosis-SemiBold" font-weight="bold" font-size="43.0" fill="#94B81F" transform="matrix(1.00, 0.00, -0.00, -1.00, 1097.0, 267.0)">e</text><text xml:space="preserve" font-family="Dosis-SemiBold" font-weight="bold" font-size="43.0" fill="#94B81F" transform="matrix(1.00, 0.00, -0.00, -1.00, 1117.4, 267.0)"> </text><text xml:space="preserve" font-family="Dosis-SemiBold" font-weight="bold" font-size="43.0" fill="#94B81F" transform="matrix(1.00, 0.00, -0.00, -1.00, 1126.0, 267.0)">p</text><text xml:space="preserve" font-family="Dosis-SemiBold" font-weight="bold" font-size="43.0" fill="#94B81F" transform="matrix(1.00, 0.00, -0.00, -1.00, 1147.7, 267.0)">r</text><text xml:space="preserve" font-family="Dosis-SemiBold" font-weight="bold" font-size="43.0" fill="#94B81F" transform="matrix(1.00, 0.00, -0.00, -1.00, 1162.7, 267.0)">o</text><text xml:space="preserve" font-family="Dosis-SemiBold" font-weight="bold" font-size="43.0" fill="#94B81F" transform="matrix(1.00, 0.00, -0.00, -1.00, 1183.6, 267.0)">j</text><text xml:space="preserve" font-family="Dosis-SemiBold" font-weight="bold" font-size="43.0" fill="#94B81F" transform="matrix(1.00, 0.00, -0.00, -1.00, 1192.9, 267.0)">e</text><text xml:space="preserve" font-family="Dosis-SemiBold" font-weight="bold" font-size="43.0" fill="#94B81F" transform="matrix(1.00, 0.00, -0.00, -1.00, 1213.3, 267.0)">t</text><text xml:space="preserve" font-family="Dosis-SemiBold" font-weight="bold" font-size="43.0" fill="#94B81F" transform="matrix(1.00, 0.00, -0.00, -1.00, 1227.1, 267.0)">o</text><image xlink:href="E15114D7EECEEDC1EA91BB007A8B5A49.png" width="162.00" height="161.00" transform="matrix(1.07, 0.00, -0.00, -1.07, 1394.0, 307.0)"></image><text xml:space="preserve" font-family="Dosis-SemiBold" font-weight="bold" font-size="43.0" fill="#9ABA28" transform="matrix(1.00, 0.00, -0.00, -1.00, 974.0, 784.0)">T</text><text xml:space="preserve" font-family="Dosis-SemiBold" font-weight="bold" font-size="43.0" fill="#9ABA28" transform="matrix(1.00, 0.00, -0.00, -1.00, 992.0, 784.0)">r</text><text xml:space="preserve" font-family="Dosis-SemiBold" font-weight="bold" font-size="43.0" fill="#9ABA28" transform="matrix(1.00, 0.00, -0.00, -1.00, 1007.5, 784.0)">a</text><text xml:space="preserve" font-family="Dosis-SemiBold" font-weight="bold" font-size="43.0" fill="#9ABA28" transform="matrix(1.00, 0.00, -0.00, -1.00, 1027.2, 784.0)">b</text><text xml:space="preserve" font-family="Dosis-SemiBold" font-weight="bold" font-size="43.0" fill="#9ABA28" transform="matrix(1.00, 0.00, -0.00, -1.00, 1049.0, 784.0)">a</text><text xml:space="preserve" font-family="Dosis-SemiBold" font-weight="bold" font-size="43.0" fill="#9ABA28" transform="matrix(1.00, 0.00, -0.00, -1.00, 1068.8, 784.0)">l</text><text xml:space="preserve" font-family="Dosis-SemiBold" font-weight="bold" font-size="43.0" fill="#9ABA28" transform="matrix(1.00, 0.00, -0.00, -1.00, 1078.8, 784.0)">h</text><text xml:space="preserve" font-family="Dosis-SemiBold" font-weight="bold" font-size="43.0" fill="#9ABA28" transform="matrix(1.00, 0.00, -0.00, -1.00, 1100.9, 784.0)">o</text><text xml:space="preserve" font-family="Dosis-SemiBold" font-weight="bold" font-size="43.0" fill="#9ABA28" transform="matrix(1.00, 0.00, -0.00, -1.00, 1121.8, 784.0)"> </text><text xml:space="preserve" font-family="Dosis-SemiBold" font-weight="bold" font-size="43.0" fill="#9ABA28" transform="matrix(1.00, 0.00, -0.00, -1.00, 1130.4, 784.0)">a</text><text xml:space="preserve" font-family="Dosis-SemiBold" font-weight="bold" font-size="43.0" fill="#9ABA28" transform="matrix(1.00, 0.00, -0.00, -1.00, 1150.2, 784.0)">t</text><text xml:space="preserve" font-family="Dosis-SemiBold" font-weight="bold" font-size="43.0" fill="#9ABA28" transform="matrix(1.00, 0.00, -0.00, -1.00, 1164.4, 784.0)">u</text><text xml:space="preserve" font-family="Dosis-SemiBold" font-weight="bold" font-size="43.0" fill="#9ABA28" transform="matrix(1.00, 0.00, -0.00, -1.00, 1186.5, 784.0)">a</text><text xml:space="preserve" font-family="Dosis-SemiBold" font-weight="bold" font-size="43.0" fill="#9ABA28" transform="matrix(1.00, 0.00, -0.00, -1.00, 1206.3, 784.0)">l</text><text xml:space="preserve" font-family="Dosis-Regular" font-size="38.0" fill="#FEFFFF" transform="matrix(1.00, 0.00, -0.00, -1.00, 980.0, 710.0)">A</text><text xml:space="preserve" font-family="Dosis-Regular" font-size="38.0" fill="#FEFFFF" transform="matrix(1.00, 0.00, -0.00, -1.00, 1000.5, 710.0)">g</text><text xml:space="preserve" font-family="Dosis-Regular" font-size="38.0" fill="#FEFFFF" transform="matrix(1.00, 0.00, -0.00, -1.00, 1017.7, 710.0)">e</text><text xml:space="preserve" font-family="Dosis-Regular" font-size="38.0" fill="#FEFFFF" transform="matrix(1.00, 0.00, -0.00, -1.00, 1035.1, 710.0)">n</text><text xml:space="preserve" font-family="Dosis-Regular" font-size="38.0" fill="#FEFFFF" transform="matrix(1.00, 0.00, -0.00, -1.00, 1053.9, 710.0)">c</text><text xml:space="preserve" font-family="Dosis-Regular" font-size="38.0" fill="#FEFFFF" transform="matrix(1.00, 0.00, -0.00, -1.00, 1069.6, 710.0)">i</text><text xml:space="preserve" font-family="Dosis-Regular" font-size="38.0" fill="#FEFFFF" transform="matrix(1.00, 0.00, -0.00, -1.00, 1076.8, 710.0)">a</text><text xml:space="preserve" font-family="Dosis-Regular" font-size="38.0" fill="#FEFFFF" transform="matrix(1.00, 0.00, -0.00, -1.00, 1093.5, 710.0)"> </text><text xml:space="preserve" font-family="Dosis-Regular" font-size="38.0" fill="#FEFFFF" transform="matrix(1.00, 0.00, -0.00, -1.00, 1101.1, 710.0)">d</text><text xml:space="preserve" font-family="Dosis-Regular" font-size="38.0" fill="#FEFFFF" transform="matrix(1.00, 0.00, -0.00, -1.00, 1119.5, 710.0)">e</text><text xml:space="preserve" font-family="Dosis-Regular" font-size="38.0" fill="#FEFFFF" transform="matrix(1.00, 0.00, -0.00, -1.00, 1136.9, 710.0)"> </text><text xml:space="preserve" font-family="Dosis-Regular" font-size="38.0" fill="#FEFFFF" transform="matrix(1.00, 0.00, -0.00, -1.00, 1144.5, 710.0)">v</text><text xml:space="preserve" font-family="Dosis-Regular" font-size="38.0" fill="#FEFFFF" transform="matrix(1.00, 0.00, -0.00, -1.00, 1160.4, 710.0)">i</text><text xml:space="preserve" font-family="Dosis-Regular" font-size="38.0" fill="#FEFFFF" transform="matrix(1.00, 0.00, -0.00, -1.00, 1167.7, 710.0)">a</text><text xml:space="preserve" font-family="Dosis-Regular" font-size="38.0" fill="#FEFFFF" transform="matrix(1.00, 0.00, -0.00, -1.00, 1184.3, 710.0)">g</text><text xml:space="preserve" font-family="Dosis-Regular" font-size="38.0" fill="#FEFFFF" transform="matrix(1.00, 0.00, -0.00, -1.00, 1201.5, 710.0)">e</text><text xml:space="preserve" font-family="Dosis-Regular" font-size="38.0" fill="#FEFFFF" transform="matrix(1.00, 0.00, -0.00, -1.00, 1218.9, 710.0)">n</text><text xml:space="preserve" font-family="Dosis-Regular" font-size="38.0" fill="#FEFFFF" transform="matrix(1.00, 0.00, -0.00, -1.00, 1237.8, 710.0)">s</text><image xlink:href="57FD5D01B36E997956C666828566CE21.png" width="128.00" height="128.00" transform="matrix(1.00, 0.00, -0.00, -1.00, 1416.0, 816.0)"></image><text xml:space="preserve" font-family="Dosis-Regular" font-size="38.0" fill="#FEFFFF" transform="matrix(1.00, 0.00, -0.00, -1.00, 969.0, 449.0)">C</text><text xml:space="preserve" font-family="Dosis-Regular" font-size="38.0" fill="#FEFFFF" transform="matrix(1.00, 0.00, -0.00, -1.00, 988.9, 449.0)">u</text><text xml:space="preserve" font-family="Dosis-Regular" font-size="38.0" fill="#FEFFFF" transform="matrix(1.00, 0.00, -0.00, -1.00, 1007.7, 449.0)">l</text><text xml:space="preserve" font-family="Dosis-Regular" font-size="38.0" fill="#FEFFFF" transform="matrix(1.00, 0.00, -0.00, -1.00, 1015.6, 449.0)">i</text><text xml:space="preserve" font-family="Dosis-Regular" font-size="38.0" fill="#FEFFFF" transform="matrix(1.00, 0.00, -0.00, -1.00, 1022.8, 449.0)">n</text><text xml:space="preserve" font-family="Dosis-Regular" font-size="38.0" fill="#FEFFFF" transform="matrix(1.00, 0.00, -0.00, -1.00, 1041.7, 449.0)">á</text><text xml:space="preserve" font-family="Dosis-Regular" font-size="38.0" fill="#FEFFFF" transform="matrix(1.00, 0.00, -0.00, -1.00, 1058.3, 449.0)">r</text><text xml:space="preserve" font-family="Dosis-Regular" font-size="38.0" fill="#FEFFFF" transform="matrix(1.00, 0.00, -0.00, -1.00, 1070.9, 449.0)">i</text><text xml:space="preserve" font-family="Dosis-Regular" font-size="38.0" fill="#FEFFFF" transform="matrix(1.00, 0.00, -0.00, -1.00, 1078.2, 449.0)">a</text><text xml:space="preserve" font-family="Dosis-Regular" font-size="38.0" fill="#FEFFFF" transform="matrix(1.00, 0.00, -0.00, -1.00, 1094.8, 449.0)"> </text><text xml:space="preserve" font-family="Dosis-Regular" font-size="38.0" fill="#FEFFFF" transform="matrix(1.00, 0.00, -0.00, -1.00, 1102.4, 449.0)">t</text><text xml:space="preserve" font-family="Dosis-Regular" font-size="38.0" fill="#FEFFFF" transform="matrix(1.00, 0.00, -0.00, -1.00, 1113.7, 449.0)">a</text><text xml:space="preserve" font-family="Dosis-Regular" font-size="38.0" fill="#FEFFFF" transform="matrix(1.00, 0.00, -0.00, -1.00, 1130.3, 449.0)">i</text><text xml:space="preserve" font-family="Dosis-Regular" font-size="38.0" fill="#FEFFFF" transform="matrix(1.00, 0.00, -0.00, -1.00, 1137.6, 449.0)">l</text><text xml:space="preserve" font-family="Dosis-Regular" font-size="38.0" fill="#FEFFFF" transform="matrix(1.00, 0.00, -0.00, -1.00, 1145.5, 449.0)">a</text><text xml:space="preserve" font-family="Dosis-Regular" font-size="38.0" fill="#FEFFFF" transform="matrix(1.00, 0.00, -0.00, -1.00, 1162.1, 449.0)">n</text><text xml:space="preserve" font-family="Dosis-Regular" font-size="38.0" fill="#FEFFFF" transform="matrix(1.00, 0.00, -0.00, -1.00, 1181.0, 449.0)">d</text><text xml:space="preserve" font-family="Dosis-Regular" font-size="38.0" fill="#FEFFFF" transform="matrix(1.00, 0.00, -0.00, -1.00, 1199.4, 449.0)">e</text><text xml:space="preserve" font-family="Dosis-Regular" font-size="38.0" fill="#FEFFFF" transform="matrix(1.00, 0.00, -0.00, -1.00, 1216.8, 449.0)">s</text><text xml:space="preserve" font-family="Dosis-Regular" font-size="38.0" fill="#FEFFFF" transform="matrix(1.00, 0.00, -0.00, -1.00, 1231.4, 449.0)">a</text><text xml:space="preserve" font-family="Dosis-Regular" font-size="38.0" fill="#FEFFFF" transform="matrix(1.00, 0.00, -0.00, -1.00, 969.0, 199.0)">C</text><text xml:space="preserve" font-family="Dosis-Regular" font-size="38.0" fill="#FEFFFF" transform="matrix(1.00, 0.00, -0.00, -1.00, 988.9, 199.0)">o</text><text xml:space="preserve" font-family="Dosis-Regular" font-size="38.0" fill="#FEFFFF" transform="matrix(1.00, 0.00, -0.00, -1.00, 1006.7, 199.0)">o</text><text xml:space="preserve" font-family="Dosis-Regular" font-size="38.0" fill="#FEFFFF" transform="matrix(1.00, 0.00, -0.00, -1.00, 1024.4, 199.0)">k</text><text xml:space="preserve" font-family="Dosis-Regular" font-size="38.0" fill="#FEFFFF" transform="matrix(1.00, 0.00, -0.00, -1.00, 1041.8, 199.0)"> </text><text xml:space="preserve" font-family="Dosis-Regular" font-size="38.0" fill="#FEFFFF" transform="matrix(1.00, 0.00, -0.00, -1.00, 1049.4, 199.0)">s</text><text xml:space="preserve" font-family="Dosis-Regular" font-size="38.0" fill="#FEFFFF" transform="matrix(1.00, 0.00, -0.00, -1.00, 1064.0, 199.0)">h</text><text xml:space="preserve" font-family="Dosis-Regular" font-size="38.0" fill="#FEFFFF" transform="matrix(1.00, 0.00, -0.00, -1.00, 1082.8, 199.0)">o</text><text xml:space="preserve" font-family="Dosis-Regular" font-size="38.0" fill="#FEFFFF" transform="matrix(1.00, 0.00, -0.00, -1.00, 1100.6, 199.0)">w</text><text xml:space="preserve" font-family="Dosis-Regular" font-size="38.0" fill="#FEFFFF" transform="matrix(1.00, 0.00, -0.00, -1.00, 1126.0, 199.0)"> </text><text xml:space="preserve" font-family="Dosis-Regular" font-size="38.0" fill="#FEFFFF" transform="matrix(1.00, 0.00, -0.00, -1.00, 1133.6, 199.0)">e</text><text xml:space="preserve" font-family="Dosis-Regular" font-size="38.0" fill="#FEFFFF" transform="matrix(1.00, 0.00, -0.00, -1.00, 1151.0, 199.0)"> </text><text xml:space="preserve" font-family="Dosis-Regular" font-size="38.0" fill="#FEFFFF" transform="matrix(1.00, 0.00, -0.00, -1.00, 1158.6, 199.0)">j</text><text xml:space="preserve" font-family="Dosis-Regular" font-size="38.0" fill="#FEFFFF" transform="matrix(1.00, 0.00, -0.00, -1.00, 1165.8, 199.0)">a</text><text xml:space="preserve" font-family="Dosis-Regular" font-size="38.0" fill="#FEFFFF" transform="matrix(1.00, 0.00, -0.00, -1.00, 1182.5, 199.0)">n</text><text xml:space="preserve" font-family="Dosis-Regular" font-size="38.0" fill="#FEFFFF" transform="matrix(1.00, 0.00, -0.00, -1.00, 1201.3, 199.0)">t</text><text xml:space="preserve" font-family="Dosis-Regular" font-size="38.0" fill="#FEFFFF" transform="matrix(1.00, 0.00, -0.00, -1.00, 1212.6, 199.0)">a</text><text xml:space="preserve" font-family="Dosis-Regular" font-size="38.0" fill="#FEFFFF" transform="matrix(1.00, 0.00, -0.00, -1.00, 1229.3, 199.0)">r</text><text xml:space="preserve" font-family="Dosis-Regular" font-size="38.0" fill="#FEFFFF" transform="matrix(1.00, 0.00, -0.00, -1.00, 1241.2, 199.0)">e</text><text xml:space="preserve" font-family="Dosis-Regular" font-size="38.0" fill="#FEFFFF" transform="matrix(1.00, 0.00, -0.00, -1.00, 1258.6, 199.0)">s</text><text xml:space="preserve" font-family="Dosis-Regular" font-size="38.0" fill="#FEFFFF" transform="matrix(1.00, 0.00, -0.00, -1.00, 1273.2, 199.0)"> </text><text xml:space="preserve" font-family="Dosis-Regular" font-size="38.0" fill="#FEFFFF" transform="matrix(1.00, 0.00, -0.00, -1.00, 969.0, 156.0)">p</text><text xml:space="preserve" font-family="Dosis-Regular" font-size="38.0" fill="#FEFFFF" transform="matrix(1.00, 0.00, -0.00, -1.00, 987.4, 156.0)">a</text><text xml:space="preserve" font-family="Dosis-Regular" font-size="38.0" fill="#FEFFFF" transform="matrix(1.00, 0.00, -0.00, -1.00, 1004.0, 156.0)">r</text><text xml:space="preserve" font-family="Dosis-Regular" font-size="38.0" fill="#FEFFFF" transform="matrix(1.00, 0.00, -0.00, -1.00, 1016.6, 156.0)">a</text><text xml:space="preserve" font-family="Dosis-Regular" font-size="38.0" fill="#FEFFFF" transform="matrix(1.00, 0.00, -0.00, -1.00, 1033.3, 156.0)"> </text><text xml:space="preserve" font-family="Dosis-Regular" font-size="38.0" fill="#FEFFFF" transform="matrix(1.00, 0.00, -0.00, -1.00, 1040.9, 156.0)">p</text><text xml:space="preserve" font-family="Dosis-Regular" font-size="38.0" fill="#FEFFFF" transform="matrix(1.00, 0.00, -0.00, -1.00, 1059.2, 156.0)">e</text><text xml:space="preserve" font-family="Dosis-Regular" font-size="38.0" fill="#FEFFFF" transform="matrix(1.00, 0.00, -0.00, -1.00, 1076.7, 156.0)">q</text><text xml:space="preserve" font-family="Dosis-Regular" font-size="38.0" fill="#FEFFFF" transform="matrix(1.00, 0.00, -0.00, -1.00, 1095.0, 156.0)">u</text><text xml:space="preserve" font-family="Dosis-Regular" font-size="38.0" fill="#FEFFFF" transform="matrix(1.00, 0.00, -0.00, -1.00, 1113.9, 156.0)">e</text><text xml:space="preserve" font-family="Dosis-Regular" font-size="38.0" fill="#FEFFFF" transform="matrix(1.00, 0.00, -0.00, -1.00, 1131.3, 156.0)">n</text><text xml:space="preserve" font-family="Dosis-Regular" font-size="38.0" fill="#FEFFFF" transform="matrix(1.00, 0.00, -0.00, -1.00, 1150.1, 156.0)">o</text><text xml:space="preserve" font-family="Dosis-Regular" font-size="38.0" fill="#FEFFFF" transform="matrix(1.00, 0.00, -0.00, -1.00, 1167.9, 156.0)"> </text><text xml:space="preserve" font-family="Dosis-Regular" font-size="38.0" fill="#FEFFFF" transform="matrix(1.00, 0.00, -0.00, -1.00, 1175.5, 156.0)">p</text><text xml:space="preserve" font-family="Dosis-Regular" font-size="38.0" fill="#FEFFFF" transform="matrix(1.00, 0.00, -0.00, -1.00, 1193.9, 156.0)">ú</text><text xml:space="preserve" font-family="Dosis-Regular" font-size="38.0" fill="#FEFFFF" transform="matrix(1.00, 0.00, -0.00, -1.00, 1212.8, 156.0)">b</text><text xml:space="preserve" font-family="Dosis-Regular" font-size="38.0" fill="#FEFFFF" transform="matrix(1.00, 0.00, -0.00, -1.00, 1231.2, 156.0)">l</text><text xml:space="preserve" font-family="Dosis-Regular" font-size="38.0" fill="#FEFFFF" transform="matrix(1.00, 0.00, -0.00, -1.00, 1239.0, 156.0)">i</text><text xml:space="preserve" font-family="Dosis-Regular" font-size="38.0" fill="#FEFFFF" transform="matrix(1.00, 0.00, -0.00, -1.00, 1246.3, 156.0)">c</text><text xml:space="preserve" font-family="Dosis-Regular" font-size="38.0" fill="#FEFFFF" transform="matrix(1.00, 0.00, -0.00, -1.00, 1261.7, 156.0)">o</text><image xlink:href="EA93CF88316DAEDEA50BAADEEF9BF928.png" width="201.00" height="557.00" transform="matrix(1.00, 0.00, -0.00, -1.00, 515.1, 829.9)" opacity="0.37"></image><g><clipPath id="clip-171"><path d="M 536.0 814.0 L 695.0 814.0 L 695.0 299.0 L 536.0 299.0 Z M 536.1 813.8 "></path></clipPath><g clip-path="url(#clip-171)"><image xlink:href="6EBD3D166122693109AF200B6CC1510A.png" width="156.00" height="505.00" transform="matrix(1.02, 0.00, -0.00, -1.02, 536.0, 814.0)"></image></g></g><image xlink:href="C83EDF2BD9748403C09D33DCEDBF8727.png" width="663.00" height="505.00" transform="matrix(0.24, 0.00, -0.00, -0.24, 536.1, 299.0)"></image><image xlink:href="F1F7F616AEB369BE3B5D1E847EFBFC5F.png" width="385.00" height="78.00" transform="matrix(1.00, 0.00, -0.00, -1.00, 72.0, 1013.0)"></image><g><clipPath id="clip-172"><path d="M 40.0 935.0 L 673.6 935.0 L 673.6 1040.8 L 40.0 1040.8 Z M 40.0 935.0 "></path></clipPath><g clip-path="url(#clip-172)"><text xml:space="preserve" font-family="MavenProRegular" font-size="89.8" fill="#95B71E" transform="matrix(1.00, 0.00, -0.00, -1.00, 66.0, 954.0)">n</text><text xml:space="preserve" font-family="MavenProRegular" font-size="89.8" fill="#95B71E" transform="matrix(1.00, 0.00, -0.00, -1.00, 115.5, 954.0)">a</text><text xml:space="preserve" font-family="MavenProRegular" font-size="89.8" fill="#95B71E" transform="matrix(1.00, 0.00, -0.00, -1.00, 163.4, 954.0)"> </text><text xml:space="preserve" font-family="MavenProRegular" font-size="89.8" fill="#95B71E" transform="matrix(1.00, 0.00, -0.00, -1.00, 193.7, 954.0)">p</text><text xml:space="preserve" font-family="MavenProRegular" font-size="89.8" fill="#95B71E" transform="matrix(1.00, 0.00, -0.00, -1.00, 242.8, 954.0)">r</text><text xml:space="preserve" font-family="MavenProRegular" font-size="89.8" fill="#95B71E" transform="matrix(1.00, 0.00, -0.00, -1.00, 272.6, 954.0)">á</text><text xml:space="preserve" font-family="MavenProRegular" font-size="89.8" fill="#95B71E" transform="matrix(1.00, 0.00, -0.00, -1.00, 319.5, 954.0)">t</text><text xml:space="preserve" font-family="MavenProRegular" font-size="89.8" fill="#95B71E" transform="matrix(1.00, 0.00, -0.00, -1.00, 349.3, 954.0)">i</text><text xml:space="preserve" font-family="MavenProRegular" font-size="89.8" fill="#95B71E" transform="matrix(1.00, 0.00, -0.00, -1.00, 370.7, 954.0)">c</text><text xml:space="preserve" font-family="MavenProRegular" font-size="89.8" fill="#95B71E" transform="matrix(1.00, 0.00, -0.00, -1.00, 413.2, 954.0)">a</text></g></g></g></svg>