<?xml version="1.0" encoding="UTF-8" standalone="no"?><svg xmlns="http://www.w3.org/2000/svg" xmlns:xlink="http://www.w3.org/1999/xlink" clip-rule="evenodd" stroke-miterlimit="4.00" viewBox="0 0 413 248"><desc>SVG generated by Keynote</desc><defs></defs><g transform="matrix(1.00, 0.00, -0.00, -1.00, 0.0, 248.0)"><g><clipPath id="clip-235"><path d="M 0.8 0.6 L 410.2 0.6 L 410.2 247.4 L 0.8 247.4 Z M 0.8 0.6 "></path></clipPath><g clip-path="url(#clip-235)"><image xlink:href="../../5A50BB4E-B044-4996-A48B-6FAC8E1AEBA6/assets/7956C120411DB08C435C4AB119A8C2F9.png" width="407.00" height="245.00" transform="matrix(1.00, 0.00, -0.00, -1.00, 1.8, 246.4)" opacity="0.49"></image><path d="M 32.2 238.9 L 363.4 238.9 C 370.3 238.9 373.9 238.9 377.6 237.7 C 381.7 236.2 384.9 233.0 386.4 228.9 C 387.6 225.1 387.6 221.6 387.6 214.6 L 387.6 46.1 C 387.6 39.2 387.6 35.7 386.4 31.9 C 384.9 27.9 381.7 24.6 377.6 23.1 C 373.9 22.0 370.3 22.0 363.3 22.0 L 32.2 22.0 C 25.3 22.0 21.8 22.0 18.1 23.1 C 14.0 24.6 10.8 27.9 9.3 31.9 C 8.1 35.7 8.1 39.2 8.1 46.2 L 8.1 214.7 C 8.1 221.6 8.1 225.1 9.3 228.9 C 10.8 233.0 14.0 236.2 18.1 237.7 C 21.8 238.9 25.3 238.9 32.3 238.9 Z M 32.2 238.9 " fill="#241D2B"></path><path d="M 24.1 0.0 L 355.3 0.0 C 362.2 0.0 365.8 0.0 369.5 1.2 C 373.6 2.7 376.8 5.9 378.3 10.0 C 379.5 13.7 379.5 17.2 379.5 24.2 L 379.5 192.7 C 379.5 199.7 379.5 203.2 378.3 206.9 C 376.8 211.0 373.6 214.2 369.5 215.7 C 365.8 216.9 362.2 216.9 355.2 216.9 L 24.1 216.9 C 17.2 216.9 13.7 216.9 10.0 215.7 C 5.9 214.2 2.7 211.0 1.2 206.9 C 0.0 203.2 0.0 199.7 0.0 192.6 L 0.0 24.1 C 0.0 17.2 0.0 13.7 1.2 10.0 C 2.7 5.9 5.9 2.7 10.0 1.2 C 13.7 0.0 17.2 0.0 24.2 0.0 Z M 24.1 0.0 " fill="none" stroke="#FEFFFF" stroke-width="2.00" transform="matrix(1.00, 0.00, 0.00, -1.00, 8.1, 238.9)"></path></g></g><g><clipPath id="clip-236"><path d="M 128.0 17.0 L 376.3 17.0 L 376.3 169.0 L 128.0 169.0 Z M 128.0 17.0 "></path></clipPath><g clip-path="url(#clip-236)"><image xlink:href="../../5A50BB4E-B044-4996-A48B-6FAC8E1AEBA6/assets/A3E316E5A2C49055836AD7831CD7AE96.png" width="247.00" height="150.00" transform="matrix(1.00, 0.00, -0.00, -1.00, 129.0, 168.0)" opacity="0.75"></image><path d="M 254.4 98.6 C 255.6 97.3 255.6 95.3 254.4 94.0 C 253.2 92.7 251.2 92.7 249.9 94.0 C 248.7 95.3 248.7 97.3 249.9 98.6 C 251.2 99.8 253.2 99.8 254.4 98.6 Z M 254.4 98.6 " fill="#B14370"></path></g></g><g><clipPath id="clip-237"><path d="M 138.1 15.1 L 386.4 15.1 L 386.4 167.1 L 138.1 167.1 Z M 138.1 15.1 "></path></clipPath><g clip-path="url(#clip-237)"><image xlink:href="../../5A50BB4E-B044-4996-A48B-6FAC8E1AEBA6/assets/A3E316E5A2C49055836AD7831CD7AE96.png" width="247.00" height="150.00" transform="matrix(1.00, 0.00, -0.00, -1.00, 139.1, 166.1)" opacity="0.75"></image><path d="M 264.5 96.6 C 265.7 95.4 265.7 93.3 264.5 92.1 C 263.2 90.8 261.2 90.8 260.0 92.1 C 258.8 93.3 258.8 95.4 260.0 96.6 C 261.2 97.9 263.2 97.9 264.5 96.6 Z M 264.5 96.6 " fill="#B14370"></path></g></g><g><clipPath id="clip-238"><path d="M 118.8 21.4 L 367.1 21.4 L 367.1 173.4 L 118.8 173.4 Z M 118.8 21.4 "></path></clipPath><g clip-path="url(#clip-238)"><image xlink:href="../../5A50BB4E-B044-4996-A48B-6FAC8E1AEBA6/assets/A3E316E5A2C49055836AD7831CD7AE96.png" width="247.00" height="150.00" transform="matrix(1.00, 0.00, -0.00, -1.00, 119.8, 172.4)" opacity="0.75"></image><path d="M 245.2 102.9 C 246.4 101.7 246.4 99.6 245.2 98.4 C 243.9 97.1 241.9 97.1 240.7 98.4 C 239.5 99.6 239.5 101.7 240.7 102.9 C 241.9 104.2 243.9 104.2 245.2 102.9 Z M 245.2 102.9 " fill="#B14370"></path></g></g><g><clipPath id="clip-239"><path d="M 110.7 26.5 L 359.0 26.5 L 359.0 178.5 L 110.7 178.5 Z M 110.7 26.5 "></path></clipPath><g clip-path="url(#clip-239)"><image xlink:href="../../5A50BB4E-B044-4996-A48B-6FAC8E1AEBA6/assets/A3E316E5A2C49055836AD7831CD7AE96.png" width="247.00" height="150.00" transform="matrix(1.00, 0.00, -0.00, -1.00, 111.7, 177.5)" opacity="0.75"></image><path d="M 237.1 108.0 C 238.3 106.7 238.3 104.7 237.1 103.4 C 235.9 102.1 233.9 102.1 232.7 103.4 C 231.4 104.7 231.4 106.7 232.7 108.0 C 233.9 109.2 235.9 109.2 237.1 108.0 Z M 237.1 108.0 " fill="#B14370"></path></g></g><g><clipPath id="clip-240"><path d="M 148.1 16.1 L 396.4 16.1 L 396.4 168.1 L 148.1 168.1 Z M 148.1 16.1 "></path></clipPath><g clip-path="url(#clip-240)"><image xlink:href="../../5A50BB4E-B044-4996-A48B-6FAC8E1AEBA6/assets/A3E316E5A2C49055836AD7831CD7AE96.png" width="247.00" height="150.00" transform="matrix(1.00, 0.00, -0.00, -1.00, 149.1, 167.1)" opacity="0.75"></image><path d="M 274.5 97.6 C 275.7 96.4 275.7 94.3 274.5 93.1 C 273.2 91.8 271.2 91.8 270.0 93.1 C 268.8 94.3 268.8 96.4 270.0 97.6 C 271.2 98.9 273.2 98.9 274.5 97.6 Z M 274.5 97.6 " fill="#B14370"></path></g></g><g><clipPath id="clip-241"><path d="M 156.9 19.6 L 405.9 19.6 L 405.9 171.6 L 156.9 171.6 Z M 156.9 19.6 "></path></clipPath><g clip-path="url(#clip-241)"><image xlink:href="../../5A50BB4E-B044-4996-A48B-6FAC8E1AEBA6/assets/0E6D208C584D804D009140995E53F093.png" width="247.00" height="150.00" transform="matrix(1.00, 0.00, -0.00, -1.00, 157.9, 170.6)" opacity="0.75"></image><path d="M 283.9 101.7 C 285.2 100.3 285.2 98.0 283.9 96.6 C 282.5 95.2 280.3 95.2 278.9 96.6 C 277.6 98.0 277.6 100.3 278.9 101.7 C 280.3 103.1 282.5 103.1 283.9 101.7 Z M 283.9 101.7 " fill="#B14370"></path></g></g><g><clipPath id="clip-242"><path d="M 218.7 98.3 L 233.5 98.3 L 233.5 113.3 L 218.7 113.3 Z M 218.7 98.3 "></path></clipPath><g clip-path="url(#clip-242)"><image xlink:href="../../5A50BB4E-B044-4996-A48B-6FAC8E1AEBA6/assets/F313C607EE7202A1184935EED659FBBA.png" width="13.00" height="13.00" transform="matrix(0.98, 0.00, -0.00, -1.00, 219.7, 112.3)" opacity="0.50"></image><path d="M 227.8 109.5 C 228.8 108.6 228.8 107.0 227.8 106.0 C 226.9 105.1 225.4 105.1 224.4 106.0 C 223.5 107.0 223.5 108.6 224.4 109.5 C 225.4 110.5 226.9 110.5 227.8 109.5 Z M 227.8 109.5 " fill="#B14370"></path></g></g><g><clipPath id="clip-243"><path d="M 97.3 24.2 L 344.1 24.2 L 344.1 176.2 L 97.3 176.2 Z M 97.3 24.2 "></path></clipPath><g clip-path="url(#clip-243)"><image xlink:href="../../5A50BB4E-B044-4996-A48B-6FAC8E1AEBA6/assets/7ED0098AE6E53A76C0CB9975C675F1D6.png" width="245.00" height="150.00" transform="matrix(1.00, 0.00, -0.00, -1.00, 98.3, 175.2)" opacity="0.75"></image><path d="M 222.4 104.4 C 223.4 103.4 223.4 101.9 222.4 100.9 C 221.5 99.9 220.0 99.9 219.0 100.9 C 218.1 101.9 218.1 103.4 219.0 104.4 C 220.0 105.4 221.5 105.4 222.4 104.4 Z M 222.4 104.4 " fill="#B14370"></path></g></g><g><clipPath id="clip-244"><path d="M 163.3 27.0 L 412.4 27.0 L 412.4 179.0 L 163.3 179.0 Z M 163.3 27.0 "></path></clipPath><g clip-path="url(#clip-244)"><image xlink:href="../../5A50BB4E-B044-4996-A48B-6FAC8E1AEBA6/assets/4417D42947FD559C3B2541B64ABDE555.png" width="248.00" height="150.00" transform="matrix(1.00, 0.00, -0.00, -1.00, 164.3, 178.0)" opacity="0.75"></image><path d="M 290.4 109.2 C 291.8 107.8 291.8 105.5 290.4 104.1 C 289.0 102.6 286.8 102.6 285.4 104.1 C 284.0 105.5 284.0 107.8 285.4 109.2 C 286.8 110.6 289.0 110.6 290.4 109.2 Z M 290.4 109.2 " fill="#B14370"></path></g></g><g><clipPath id="clip-245"><path d="M 98.8 17.0 L 345.0 17.0 L 345.0 169.0 L 98.8 169.0 Z M 98.8 17.0 "></path></clipPath><g clip-path="url(#clip-245)"><image xlink:href="../../5A50BB4E-B044-4996-A48B-6FAC8E1AEBA6/assets/CFDF8A62D53D682D86A8D40C5688CEA2.png" width="245.00" height="150.00" transform="matrix(1.00, 0.00, -0.00, -1.00, 99.8, 168.0)" opacity="0.75"></image><path d="M 223.4 96.8 C 224.2 95.9 224.2 94.5 223.4 93.7 C 222.6 92.8 221.3 92.8 220.5 93.7 C 219.6 94.5 219.6 95.9 220.5 96.8 C 221.3 97.6 222.6 97.6 223.4 96.8 Z M 223.4 96.8 " fill="#B14370"></path></g></g><g><clipPath id="clip-246"><path d="M 105.0 14.6 L 351.2 14.6 L 351.2 166.6 L 105.0 166.6 Z M 105.0 14.6 "></path></clipPath><g clip-path="url(#clip-246)"><image xlink:href="../../5A50BB4E-B044-4996-A48B-6FAC8E1AEBA6/assets/CFDF8A62D53D682D86A8D40C5688CEA2.png" width="245.00" height="150.00" transform="matrix(1.00, 0.00, -0.00, -1.00, 106.0, 165.6)" opacity="0.75"></image><path d="M 229.6 94.3 C 230.4 93.4 230.4 92.0 229.6 91.2 C 228.8 90.3 227.5 90.3 226.7 91.2 C 225.8 92.0 225.8 93.4 226.7 94.3 C 227.5 95.1 228.8 95.1 229.6 94.3 Z M 229.6 94.3 " fill="#B14370"></path></g></g><g><clipPath id="clip-247"><path d="M 74.2 90.5 L 321.4 90.5 L 321.4 195.3 L 74.2 195.3 Z M 74.2 90.5 "></path></clipPath><g clip-path="url(#clip-247)"><image xlink:href="../../5A50BB4E-B044-4996-A48B-6FAC8E1AEBA6/assets/A60F9C0E4D678A58F89A324689FD3EE2.png" width="245.00" height="103.00" transform="matrix(1.00, 0.00, -0.00, -1.00, 75.2, 194.3)" opacity="0.50"></image></g></g><g><clipPath id="clip-248"><path d="M 62.8 104.2 L 332.9 104.2 L 332.9 188.0 L 62.8 188.0 Z M 62.8 104.2 "></path></clipPath><g clip-path="url(#clip-248)"><text xml:space="preserve" font-family="MavenProMedium" font-size="75.2" fill="#B7E02E" transform="matrix(1.00, 0.00, -0.00, -1.00, 104.0, 115.0)">p</text><text xml:space="preserve" font-family="MavenProMedium" font-size="75.2" fill="#B7E02E" transform="matrix(1.00, 0.00, -0.00, -1.00, 146.4, 115.0)">o</text><text xml:space="preserve" font-family="MavenProMedium" font-size="75.2" fill="#B7E02E" transform="matrix(1.00, 0.00, -0.00, -1.00, 187.8, 115.0)">l</text><text xml:space="preserve" font-family="MavenProMedium" font-size="75.2" fill="#B7E02E" transform="matrix(1.00, 0.00, -0.00, -1.00, 209.0, 115.0)">v</text><text xml:space="preserve" font-family="MavenProMedium" font-size="75.2" fill="#B7E02E" transform="matrix(1.00, 0.00, -0.00, -1.00, 248.2, 115.0)">o</text></g></g></g></svg>