<svg xmlns="http://www.w3.org/2000/svg" viewBox="0 0 50 50" width="50" height="50" style="fill: rgb(255, 255, 255);">
    <path style="text-indent:0;text-align:start;line-height:normal;text-transform:none;block-progression:tb;-inkscape-font-specification:Sans" d="M 25 1 C 11.757011 1 1 11.757011 1 25 C 1 38.242989 11.757011 49 25 49 C 38.242989 49 49 38.242989 49 25 C 49 11.757011 38.242989 1 25 1 z M 25 3 C 37.162109 3 47 12.837891 47 25 C 47 37.162109 37.162109 47 25 47 C 12.837891 47 3 37.162109 3 25 C 3 12.837891 12.837891 3 25 3 z M 18 16 C 13.029 16 9 20.029 9 25 C 9 29.971 13.029 34 18 34 C 20.83638 34 23.350444 32.67497 25 30.625 C 26.649556 32.67497 29.16362 34 32 34 C 36.971 34 41 29.971 41 25 C 41 20.029 36.971 16 32 16 C 29.16362 16 26.649556 17.32503 25 19.375 C 23.350444 17.32503 20.83638 16 18 16 z M 18 20 C 20.757 20 23 22.243 23 25 C 23 27.757 20.757 30 18 30 C 15.243 30 13 27.757 13 25 C 13 22.243 15.243 20 18 20 z M 32 20 C 34.757 20 37 22.243 37 25 C 37 27.757 34.757 30 32 30 C 29.243 30 27 27.757 27 25 C 27 22.243 29.243 20 32 20 z" color="#000" overflow="visible" font-family="Sans"/>
</svg>