<?xml version="1.0" encoding="UTF-8" standalone="no"?><svg xmlns="http://www.w3.org/2000/svg" xmlns:xlink="http://www.w3.org/1999/xlink" clip-rule="evenodd" stroke-miterlimit="4.00" viewBox="0 0 1920 1080"><desc>SVG generated by Keynote</desc><defs></defs><g transform="matrix(1.00, 0.00, -0.00, -1.00, 0.0, 1080.0)"><path d="M 0.0 1080.0 L 1920.0 1080.0 L 1920.0 0.0 L 0.0 0.0 Z M 0.0 1080.0 " fill="#E4E4E6"></path><image xlink:href="511F4687444878A237B01D99A7DCACE7.png" width="148.00" height="428.00" transform="matrix(1.00, 0.00, -0.00, -1.00, 213.3, 929.2)" opacity="0.10"></image><image xlink:href="../../103685CC-7A9D-4A24-92A5-A588DC722414/assets/6EBD3D166122693109AF200B6CC1510A.png" width="156.00" height="505.00" transform="matrix(0.81, 0.00, -0.00, -0.80, 224.0, 930.0)"></image><g><clipPath id="clip-175"><path d="M 139.8 192.9 L 434.2 192.9 L 434.2 335.3 L 139.8 335.3 Z M 139.8 192.9 "></path></clipPath><g clip-path="url(#clip-175)"><text xml:space="preserve" font-family="Dosis-Regular" font-size="45.0" fill="#002451" transform="matrix(1.00, 0.00, -0.00, -1.00, 166.0, 275.0)">B</text><text xml:space="preserve" font-family="Dosis-Regular" font-size="45.0" fill="#002451" transform="matrix(1.00, 0.00, -0.00, -1.00, 190.2, 275.0)">r</text><text xml:space="preserve" font-family="Dosis-Regular" font-size="45.0" fill="#002451" transform="matrix(1.00, 0.00, -0.00, -1.00, 205.1, 275.0)">i</text><text xml:space="preserve" font-family="Dosis-Regular" font-size="45.0" fill="#002451" transform="matrix(1.00, 0.00, -0.00, -1.00, 213.7, 275.0)">a</text><text xml:space="preserve" font-family="Dosis-Regular" font-size="45.0" fill="#002451" transform="matrix(1.00, 0.00, -0.00, -1.00, 233.4, 275.0)">n</text><text xml:space="preserve" font-family="Dosis-Regular" font-size="45.0" fill="#002451" transform="matrix(1.00, 0.00, -0.00, -1.00, 255.7, 275.0)"> </text><text xml:space="preserve" font-family="Dosis-Regular" font-size="45.0" fill="#002451" transform="matrix(1.00, 0.00, -0.00, -1.00, 264.7, 275.0)">e</text><text xml:space="preserve" font-family="Dosis-Regular" font-size="45.0" fill="#002451" transform="matrix(1.00, 0.00, -0.00, -1.00, 285.3, 275.0)">n</text><text xml:space="preserve" font-family="Dosis-Regular" font-size="45.0" fill="#002451" transform="matrix(1.00, 0.00, -0.00, -1.00, 307.7, 275.0)">t</text><text xml:space="preserve" font-family="Dosis-Regular" font-size="45.0" fill="#002451" transform="matrix(1.00, 0.00, -0.00, -1.00, 321.0, 275.0)">r</text><text xml:space="preserve" font-family="Dosis-Regular" font-size="45.0" fill="#002451" transform="matrix(1.00, 0.00, -0.00, -1.00, 335.9, 275.0)">a</text><text xml:space="preserve" font-family="Dosis-Regular" font-size="45.0" fill="#002451" transform="matrix(1.00, 0.00, -0.00, -1.00, 355.6, 275.0)"> </text><text xml:space="preserve" font-family="Dosis-Regular" font-size="45.0" fill="#002451" transform="matrix(1.00, 0.00, -0.00, -1.00, 364.6, 275.0)">n</text><text xml:space="preserve" font-family="Dosis-Regular" font-size="45.0" fill="#002451" transform="matrix(1.00, 0.00, -0.00, -1.00, 387.0, 275.0)">o</text><text xml:space="preserve" font-family="Dosis-Regular" font-size="45.0" fill="#002451" transform="matrix(1.00, 0.00, -0.00, -1.00, 408.0, 275.0)"> </text><text xml:space="preserve" font-family="Dosis-Regular" font-size="45.0" fill="#002451" transform="matrix(1.00, 0.00, -0.00, -1.00, 241.0, 218.0)">P</text><text xml:space="preserve" font-family="Dosis-Regular" font-size="45.0" fill="#002451" transform="matrix(1.00, 0.00, -0.00, -1.00, 263.6, 218.0)">o</text><text xml:space="preserve" font-family="Dosis-Regular" font-size="45.0" fill="#002451" transform="matrix(1.00, 0.00, -0.00, -1.00, 284.6, 218.0)">l</text><text xml:space="preserve" font-family="Dosis-Regular" font-size="45.0" fill="#002451" transform="matrix(1.00, 0.00, -0.00, -1.00, 294.0, 218.0)">v</text><text xml:space="preserve" font-family="Dosis-Regular" font-size="45.0" fill="#002451" transform="matrix(1.00, 0.00, -0.00, -1.00, 312.9, 218.0)">o</text></g></g><g><clipPath id="clip-176"><path d="M 226.7 343.1 L 347.4 343.1 L 347.4 443.7 L 226.7 443.7 Z M 226.7 343.1 "></path></clipPath><g clip-path="url(#clip-176)"><image xlink:href="4AA6F75880E731E58E560F8BB9F0DA7E.png" width="121.00" height="100.00" transform="matrix(0.99, 0.00, -0.00, -1.01, 227.0, 444.0)"></image></g></g></g></svg>