<?xml version="1.0" encoding="UTF-8" standalone="no"?><svg xmlns="http://www.w3.org/2000/svg" xmlns:xlink="http://www.w3.org/1999/xlink" clip-rule="evenodd" stroke-miterlimit="4.00" viewBox="0 0 531 315"><desc>SVG generated by Keynote</desc><defs></defs><g transform="matrix(1.00, 0.00, -0.00, -1.00, 0.0, 315.0)"><g><clipPath id="clip-195"><path d="M -9.5 -9.2 L 540.5 -9.2 L 540.5 193.9 L -9.5 193.9 Z M -9.5 -9.2 "></path></clipPath><g clip-path="url(#clip-195)"><text xml:space="preserve" font-family="Dosis-Regular" font-size="46.0" fill="#002451" transform="matrix(1.00, 0.00, -0.00, -1.00, 12.0, 132.0)">O</text><text xml:space="preserve" font-family="Dosis-Regular" font-size="46.0" fill="#002451" transform="matrix(1.00, 0.00, -0.00, -1.00, 37.4, 132.0)"> </text><text xml:space="preserve" font-family="Dosis-Regular" font-size="46.0" fill="#002451" transform="matrix(1.00, 0.00, -0.00, -1.00, 46.6, 132.0)">P</text><text xml:space="preserve" font-family="Dosis-Regular" font-size="46.0" fill="#002451" transform="matrix(1.00, 0.00, -0.00, -1.00, 69.7, 132.0)">o</text><text xml:space="preserve" font-family="Dosis-Regular" font-size="46.0" fill="#002451" transform="matrix(1.00, 0.00, -0.00, -1.00, 91.2, 132.0)">l</text><text xml:space="preserve" font-family="Dosis-Regular" font-size="46.0" fill="#002451" transform="matrix(1.00, 0.00, -0.00, -1.00, 100.7, 132.0)">v</text><text xml:space="preserve" font-family="Dosis-Regular" font-size="46.0" fill="#002451" transform="matrix(1.00, 0.00, -0.00, -1.00, 120.1, 132.0)">o</text><text xml:space="preserve" font-family="Dosis-Regular" font-size="46.0" fill="#002451" transform="matrix(1.00, 0.00, -0.00, -1.00, 141.6, 132.0)"> </text><text xml:space="preserve" font-family="Dosis-Regular" font-size="46.0" fill="#002451" transform="matrix(1.00, 0.00, -0.00, -1.00, 150.8, 132.0)">f</text><text xml:space="preserve" font-family="Dosis-Regular" font-size="46.0" fill="#002451" transform="matrix(1.00, 0.00, -0.00, -1.00, 164.8, 132.0)">a</text><text xml:space="preserve" font-family="Dosis-Regular" font-size="46.0" fill="#002451" transform="matrix(1.00, 0.00, -0.00, -1.00, 185.0, 132.0)">z</text><text xml:space="preserve" font-family="Dosis-Regular" font-size="46.0" fill="#002451" transform="matrix(1.00, 0.00, -0.00, -1.00, 203.4, 132.0)"> </text><text xml:space="preserve" font-family="Dosis-Regular" font-size="46.0" fill="#002451" transform="matrix(1.00, 0.00, -0.00, -1.00, 212.6, 132.0)">u</text><text xml:space="preserve" font-family="Dosis-Regular" font-size="46.0" fill="#002451" transform="matrix(1.00, 0.00, -0.00, -1.00, 235.4, 132.0)">m</text><text xml:space="preserve" font-family="Dosis-Regular" font-size="46.0" fill="#002451" transform="matrix(1.00, 0.00, -0.00, -1.00, 271.3, 132.0)">a</text><text xml:space="preserve" font-family="Dosis-Regular" font-size="46.0" fill="#002451" transform="matrix(1.00, 0.00, -0.00, -1.00, 291.4, 132.0)"> </text><text xml:space="preserve" font-family="Dosis-Regular" font-size="46.0" fill="#002451" transform="matrix(1.00, 0.00, -0.00, -1.00, 300.6, 132.0)">c</text><text xml:space="preserve" font-family="Dosis-Regular" font-size="46.0" fill="#002451" transform="matrix(1.00, 0.00, -0.00, -1.00, 319.6, 132.0)">u</text><text xml:space="preserve" font-family="Dosis-Regular" font-size="46.0" fill="#002451" transform="matrix(1.00, 0.00, -0.00, -1.00, 342.4, 132.0)">r</text><text xml:space="preserve" font-family="Dosis-Regular" font-size="46.0" fill="#002451" transform="matrix(1.00, 0.00, -0.00, -1.00, 357.6, 132.0)">a</text><text xml:space="preserve" font-family="Dosis-Regular" font-size="46.0" fill="#002451" transform="matrix(1.00, 0.00, -0.00, -1.00, 377.7, 132.0)">d</text><text xml:space="preserve" font-family="Dosis-Regular" font-size="46.0" fill="#002451" transform="matrix(1.00, 0.00, -0.00, -1.00, 400.0, 132.0)">o</text><text xml:space="preserve" font-family="Dosis-Regular" font-size="46.0" fill="#002451" transform="matrix(1.00, 0.00, -0.00, -1.00, 421.5, 132.0)">r</text><text xml:space="preserve" font-family="Dosis-Regular" font-size="46.0" fill="#002451" transform="matrix(1.00, 0.00, -0.00, -1.00, 436.8, 132.0)">i</text><text xml:space="preserve" font-family="Dosis-Regular" font-size="46.0" fill="#002451" transform="matrix(1.00, 0.00, -0.00, -1.00, 445.6, 132.0)">a</text><text xml:space="preserve" font-family="Dosis-Regular" font-size="46.0" fill="#002451" transform="matrix(1.00, 0.00, -0.00, -1.00, 465.7, 132.0)"> </text><text xml:space="preserve" font-family="Dosis-Regular" font-size="46.0" fill="#002451" transform="matrix(1.00, 0.00, -0.00, -1.00, 474.9, 132.0)">d</text><text xml:space="preserve" font-family="Dosis-Regular" font-size="46.0" fill="#002451" transform="matrix(1.00, 0.00, -0.00, -1.00, 497.2, 132.0)">o</text><text xml:space="preserve" font-family="Dosis-Regular" font-size="46.0" fill="#002451" transform="matrix(1.00, 0.00, -0.00, -1.00, 518.7, 132.0)"> </text><text xml:space="preserve" font-family="Dosis-Regular" font-size="46.0" fill="#002451" transform="matrix(1.00, 0.00, -0.00, -1.00, 39.0, 74.0)">p</text><text xml:space="preserve" font-family="Dosis-Regular" font-size="46.0" fill="#002451" transform="matrix(1.00, 0.00, -0.00, -1.00, 61.3, 74.0)">r</text><text xml:space="preserve" font-family="Dosis-Regular" font-size="46.0" fill="#002451" transform="matrix(1.00, 0.00, -0.00, -1.00, 75.7, 74.0)">o</text><text xml:space="preserve" font-family="Dosis-Regular" font-size="46.0" fill="#002451" transform="matrix(1.00, 0.00, -0.00, -1.00, 97.2, 74.0)">j</text><text xml:space="preserve" font-family="Dosis-Regular" font-size="46.0" fill="#002451" transform="matrix(1.00, 0.00, -0.00, -1.00, 106.0, 74.0)">e</text><text xml:space="preserve" font-family="Dosis-Regular" font-size="46.0" fill="#002451" transform="matrix(1.00, 0.00, -0.00, -1.00, 127.0, 74.0)">t</text><text xml:space="preserve" font-family="Dosis-Regular" font-size="46.0" fill="#002451" transform="matrix(1.00, 0.00, -0.00, -1.00, 140.3, 74.0)">o</text><text xml:space="preserve" font-family="Dosis-Regular" font-size="46.0" fill="#002451" transform="matrix(1.00, 0.00, -0.00, -1.00, 161.8, 74.0)">,</text><text xml:space="preserve" font-family="Dosis-Regular" font-size="46.0" fill="#002451" transform="matrix(1.00, 0.00, -0.00, -1.00, 169.7, 74.0)"> </text><text xml:space="preserve" font-family="Dosis-Regular" font-size="46.0" fill="#002451" transform="matrix(1.00, 0.00, -0.00, -1.00, 178.9, 74.0)">a</text><text xml:space="preserve" font-family="Dosis-Regular" font-size="46.0" fill="#002451" transform="matrix(1.00, 0.00, -0.00, -1.00, 199.0, 74.0)">j</text><text xml:space="preserve" font-family="Dosis-Regular" font-size="46.0" fill="#002451" transform="matrix(1.00, 0.00, -0.00, -1.00, 207.8, 74.0)">u</text><text xml:space="preserve" font-family="Dosis-Regular" font-size="46.0" fill="#002451" transform="matrix(1.00, 0.00, -0.00, -1.00, 230.6, 74.0)">d</text><text xml:space="preserve" font-family="Dosis-Regular" font-size="46.0" fill="#002451" transform="matrix(1.00, 0.00, -0.00, -1.00, 252.9, 74.0)">a</text><text xml:space="preserve" font-family="Dosis-Regular" font-size="46.0" fill="#002451" transform="matrix(1.00, 0.00, -0.00, -1.00, 273.0, 74.0)">n</text><text xml:space="preserve" font-family="Dosis-Regular" font-size="46.0" fill="#002451" transform="matrix(1.00, 0.00, -0.00, -1.00, 295.9, 74.0)">d</text><text xml:space="preserve" font-family="Dosis-Regular" font-size="46.0" fill="#002451" transform="matrix(1.00, 0.00, -0.00, -1.00, 318.1, 74.0)">o</text><text xml:space="preserve" font-family="Dosis-Regular" font-size="46.0" fill="#002451" transform="matrix(1.00, 0.00, -0.00, -1.00, 339.7, 74.0)"> </text><text xml:space="preserve" font-family="Dosis-Regular" font-size="46.0" fill="#002451" transform="matrix(1.00, 0.00, -0.00, -1.00, 348.9, 74.0)">B</text><text xml:space="preserve" font-family="Dosis-Regular" font-size="46.0" fill="#002451" transform="matrix(1.00, 0.00, -0.00, -1.00, 373.6, 74.0)">r</text><text xml:space="preserve" font-family="Dosis-Regular" font-size="46.0" fill="#002451" transform="matrix(1.00, 0.00, -0.00, -1.00, 388.8, 74.0)">i</text><text xml:space="preserve" font-family="Dosis-Regular" font-size="46.0" fill="#002451" transform="matrix(1.00, 0.00, -0.00, -1.00, 397.6, 74.0)">a</text><text xml:space="preserve" font-family="Dosis-Regular" font-size="46.0" fill="#002451" transform="matrix(1.00, 0.00, -0.00, -1.00, 417.8, 74.0)">n</text><text xml:space="preserve" font-family="Dosis-Regular" font-size="46.0" fill="#002451" transform="matrix(1.00, 0.00, -0.00, -1.00, 440.6, 74.0)"> </text><text xml:space="preserve" font-family="Dosis-Regular" font-size="46.0" fill="#002451" transform="matrix(1.00, 0.00, -0.00, -1.00, 449.8, 74.0)">n</text><text xml:space="preserve" font-family="Dosis-Regular" font-size="46.0" fill="#002451" transform="matrix(1.00, 0.00, -0.00, -1.00, 472.6, 74.0)">a</text><text xml:space="preserve" font-family="Dosis-Regular" font-size="46.0" fill="#002451" transform="matrix(1.00, 0.00, -0.00, -1.00, 492.7, 74.0)"> </text><text xml:space="preserve" font-family="Dosis-Regular" font-size="46.0" fill="#002451" transform="matrix(1.00, 0.00, -0.00, -1.00, 92.0, 16.0)">c</text><text xml:space="preserve" font-family="Dosis-Regular" font-size="46.0" fill="#002451" transform="matrix(1.00, 0.00, -0.00, -1.00, 110.9, 16.0)">r</text><text xml:space="preserve" font-family="Dosis-Regular" font-size="46.0" fill="#002451" transform="matrix(1.00, 0.00, -0.00, -1.00, 126.1, 16.0)">i</text><text xml:space="preserve" font-family="Dosis-Regular" font-size="46.0" fill="#002451" transform="matrix(1.00, 0.00, -0.00, -1.00, 134.9, 16.0)">a</text><text xml:space="preserve" font-family="Dosis-Regular" font-size="46.0" fill="#002451" transform="matrix(1.00, 0.00, -0.00, -1.00, 155.1, 16.0)">ç</text><text xml:space="preserve" font-family="Dosis-Regular" font-size="46.0" fill="#002451" transform="matrix(1.00, 0.00, -0.00, -1.00, 174.0, 16.0)">ã</text><text xml:space="preserve" font-family="Dosis-Regular" font-size="46.0" fill="#002451" transform="matrix(1.00, 0.00, -0.00, -1.00, 194.1, 16.0)">o</text><text xml:space="preserve" font-family="Dosis-Regular" font-size="46.0" fill="#002451" transform="matrix(1.00, 0.00, -0.00, -1.00, 215.6, 16.0)"> </text><text xml:space="preserve" font-family="Dosis-Regular" font-size="46.0" fill="#002451" transform="matrix(1.00, 0.00, -0.00, -1.00, 224.8, 16.0)">e</text><text xml:space="preserve" font-family="Dosis-Regular" font-size="46.0" fill="#002451" transform="matrix(1.00, 0.00, -0.00, -1.00, 245.9, 16.0)"> </text><text xml:space="preserve" font-family="Dosis-Regular" font-size="46.0" fill="#002451" transform="matrix(1.00, 0.00, -0.00, -1.00, 255.1, 16.0)">d</text><text xml:space="preserve" font-family="Dosis-Regular" font-size="46.0" fill="#002451" transform="matrix(1.00, 0.00, -0.00, -1.00, 277.4, 16.0)">i</text><text xml:space="preserve" font-family="Dosis-Regular" font-size="46.0" fill="#002451" transform="matrix(1.00, 0.00, -0.00, -1.00, 286.2, 16.0)">v</text><text xml:space="preserve" font-family="Dosis-Regular" font-size="46.0" fill="#002451" transform="matrix(1.00, 0.00, -0.00, -1.00, 305.5, 16.0)">u</text><text xml:space="preserve" font-family="Dosis-Regular" font-size="46.0" fill="#002451" transform="matrix(1.00, 0.00, -0.00, -1.00, 328.3, 16.0)">l</text><text xml:space="preserve" font-family="Dosis-Regular" font-size="46.0" fill="#002451" transform="matrix(1.00, 0.00, -0.00, -1.00, 337.8, 16.0)">g</text><text xml:space="preserve" font-family="Dosis-Regular" font-size="46.0" fill="#002451" transform="matrix(1.00, 0.00, -0.00, -1.00, 358.6, 16.0)">a</text><text xml:space="preserve" font-family="Dosis-Regular" font-size="46.0" fill="#002451" transform="matrix(1.00, 0.00, -0.00, -1.00, 378.8, 16.0)">ç</text><text xml:space="preserve" font-family="Dosis-Regular" font-size="46.0" fill="#002451" transform="matrix(1.00, 0.00, -0.00, -1.00, 397.7, 16.0)">ã</text><text xml:space="preserve" font-family="Dosis-Regular" font-size="46.0" fill="#002451" transform="matrix(1.00, 0.00, -0.00, -1.00, 417.8, 16.0)">o</text></g></g><g><clipPath id="clip-196"><path d="M 194.6 214.4 L 336.4 214.4 L 336.4 315.0 L 194.6 315.0 Z M 194.6 214.4 "></path></clipPath><g clip-path="url(#clip-196)"><image xlink:href="F793FDAB9B6DD3895CBD25462363AF88.png" width="142.00" height="100.00" transform="matrix(0.99, 0.00, -0.00, -1.01, 195.0, 315.0)"></image></g></g></g></svg>