<?xml version="1.0" encoding="UTF-8" standalone="no"?><svg xmlns="http://www.w3.org/2000/svg" xmlns:xlink="http://www.w3.org/1999/xlink" clip-rule="evenodd" stroke-miterlimit="4.00" viewBox="0 0 939 345"><desc>SVG generated by Keynote</desc><defs></defs><g transform="matrix(1.00, 0.00, -0.00, -1.00, 0.0, 345.0)"><g><clipPath id="clip-197"><path d="M 398.5 202.4 L 541.1 202.4 L 541.1 345.0 L 398.5 345.0 Z M 398.5 202.4 "></path></clipPath><g clip-path="url(#clip-197)"><image xlink:href="C98B7E2A60B87C18E63BC9D3D7BE4358.png" width="143.00" height="143.00" transform="matrix(1.00, 0.00, -0.00, -1.00, 398.0, 345.0)"></image></g></g><g><clipPath id="clip-198"><path d="M -6.9 -6.9 L 946.5 -6.9 L 946.5 196.1 L -6.9 196.1 Z M -6.9 -6.9 "></path></clipPath><g clip-path="url(#clip-198)"><text xml:space="preserve" font-family="Dosis-Regular" font-size="46.0" fill="#002451" transform="matrix(1.00, 0.00, -0.00, -1.00, 26.0, 134.0)">m</text><text xml:space="preserve" font-family="Dosis-Regular" font-size="46.0" fill="#002451" transform="matrix(1.00, 0.00, -0.00, -1.00, 61.9, 134.0)">a</text><text xml:space="preserve" font-family="Dosis-Regular" font-size="46.0" fill="#002451" transform="matrix(1.00, 0.00, -0.00, -1.00, 82.0, 134.0)">n</text><text xml:space="preserve" font-family="Dosis-Regular" font-size="46.0" fill="#002451" transform="matrix(1.00, 0.00, -0.00, -1.00, 104.8, 134.0)">d</text><text xml:space="preserve" font-family="Dosis-Regular" font-size="46.0" fill="#002451" transform="matrix(1.00, 0.00, -0.00, -1.00, 127.1, 134.0)">a</text><text xml:space="preserve" font-family="Dosis-Regular" font-size="46.0" fill="#002451" transform="matrix(1.00, 0.00, -0.00, -1.00, 147.3, 134.0)"> </text><text xml:space="preserve" font-family="Dosis-Regular" font-size="46.0" fill="#002451" transform="matrix(1.00, 0.00, -0.00, -1.00, 156.5, 134.0)">e</text><text xml:space="preserve" font-family="Dosis-Regular" font-size="46.0" fill="#002451" transform="matrix(1.00, 0.00, -0.00, -1.00, 177.5, 134.0)">-</text><text xml:space="preserve" font-family="Dosis-Regular" font-size="46.0" fill="#002451" transform="matrix(1.00, 0.00, -0.00, -1.00, 196.5, 134.0)">m</text><text xml:space="preserve" font-family="Dosis-Regular" font-size="46.0" fill="#002451" transform="matrix(1.00, 0.00, -0.00, -1.00, 232.4, 134.0)">a</text><text xml:space="preserve" font-family="Dosis-Regular" font-size="46.0" fill="#002451" transform="matrix(1.00, 0.00, -0.00, -1.00, 252.5, 134.0)">i</text><text xml:space="preserve" font-family="Dosis-Regular" font-size="46.0" fill="#002451" transform="matrix(1.00, 0.00, -0.00, -1.00, 261.3, 134.0)">l</text><text xml:space="preserve" font-family="Dosis-Regular" font-size="46.0" fill="#002451" transform="matrix(1.00, 0.00, -0.00, -1.00, 270.9, 134.0)"> </text><text xml:space="preserve" font-family="Dosis-Regular" font-size="46.0" fill="#002451" transform="matrix(1.00, 0.00, -0.00, -1.00, 280.1, 134.0)">m</text><text xml:space="preserve" font-family="Dosis-Regular" font-size="46.0" fill="#002451" transform="matrix(1.00, 0.00, -0.00, -1.00, 315.9, 134.0)">a</text><text xml:space="preserve" font-family="Dosis-Regular" font-size="46.0" fill="#002451" transform="matrix(1.00, 0.00, -0.00, -1.00, 336.1, 134.0)">r</text><text xml:space="preserve" font-family="Dosis-Regular" font-size="46.0" fill="#002451" transform="matrix(1.00, 0.00, -0.00, -1.00, 351.3, 134.0)">k</text><text xml:space="preserve" font-family="Dosis-Regular" font-size="46.0" fill="#002451" transform="matrix(1.00, 0.00, -0.00, -1.00, 371.6, 134.0)">e</text><text xml:space="preserve" font-family="Dosis-Regular" font-size="46.0" fill="#002451" transform="matrix(1.00, 0.00, -0.00, -1.00, 392.7, 134.0)">t</text><text xml:space="preserve" font-family="Dosis-Regular" font-size="46.0" fill="#002451" transform="matrix(1.00, 0.00, -0.00, -1.00, 406.4, 134.0)">i</text><text xml:space="preserve" font-family="Dosis-Regular" font-size="46.0" fill="#002451" transform="matrix(1.00, 0.00, -0.00, -1.00, 415.2, 134.0)">n</text><text xml:space="preserve" font-family="Dosis-Regular" font-size="46.0" fill="#002451" transform="matrix(1.00, 0.00, -0.00, -1.00, 438.0, 134.0)">g</text><text xml:space="preserve" font-family="Dosis-Regular" font-size="46.0" fill="#002451" transform="matrix(1.00, 0.00, -0.00, -1.00, 458.8, 134.0)">,</text><text xml:space="preserve" font-family="Dosis-Regular" font-size="46.0" fill="#002451" transform="matrix(1.00, 0.00, -0.00, -1.00, 466.6, 134.0)"> </text><text xml:space="preserve" font-family="Dosis-Regular" font-size="46.0" fill="#002451" transform="matrix(1.00, 0.00, -0.00, -1.00, 475.8, 134.0)">f</text><text xml:space="preserve" font-family="Dosis-Regular" font-size="46.0" fill="#002451" transform="matrix(1.00, 0.00, -0.00, -1.00, 489.9, 134.0)">a</text><text xml:space="preserve" font-family="Dosis-Regular" font-size="46.0" fill="#002451" transform="matrix(1.00, 0.00, -0.00, -1.00, 510.0, 134.0)">z</text><text xml:space="preserve" font-family="Dosis-Regular" font-size="46.0" fill="#002451" transform="matrix(1.00, 0.00, -0.00, -1.00, 528.5, 134.0)"> </text><text xml:space="preserve" font-family="Dosis-Regular" font-size="46.0" fill="#002451" transform="matrix(1.00, 0.00, -0.00, -1.00, 537.7, 134.0)">l</text><text xml:space="preserve" font-family="Dosis-Regular" font-size="46.0" fill="#002451" transform="matrix(1.00, 0.00, -0.00, -1.00, 547.2, 134.0)">i</text><text xml:space="preserve" font-family="Dosis-Regular" font-size="46.0" fill="#002451" transform="matrix(1.00, 0.00, -0.00, -1.00, 556.0, 134.0)">s</text><text xml:space="preserve" font-family="Dosis-Regular" font-size="46.0" fill="#002451" transform="matrix(1.00, 0.00, -0.00, -1.00, 573.7, 134.0)">t</text><text xml:space="preserve" font-family="Dosis-Regular" font-size="46.0" fill="#002451" transform="matrix(1.00, 0.00, -0.00, -1.00, 587.3, 134.0)">a</text><text xml:space="preserve" font-family="Dosis-Regular" font-size="46.0" fill="#002451" transform="matrix(1.00, 0.00, -0.00, -1.00, 607.5, 134.0)"> </text><text xml:space="preserve" font-family="Dosis-Regular" font-size="46.0" fill="#002451" transform="matrix(1.00, 0.00, -0.00, -1.00, 616.7, 134.0)">d</text><text xml:space="preserve" font-family="Dosis-Regular" font-size="46.0" fill="#002451" transform="matrix(1.00, 0.00, -0.00, -1.00, 638.9, 134.0)">e</text><text xml:space="preserve" font-family="Dosis-Regular" font-size="46.0" fill="#002451" transform="matrix(1.00, 0.00, -0.00, -1.00, 660.0, 134.0)"> </text><text xml:space="preserve" font-family="Dosis-Regular" font-size="46.0" fill="#002451" transform="matrix(1.00, 0.00, -0.00, -1.00, 669.2, 134.0)">c</text><text xml:space="preserve" font-family="Dosis-Regular" font-size="46.0" fill="#002451" transform="matrix(1.00, 0.00, -0.00, -1.00, 687.9, 134.0)">o</text><text xml:space="preserve" font-family="Dosis-Regular" font-size="46.0" fill="#002451" transform="matrix(1.00, 0.00, -0.00, -1.00, 709.4, 134.0)">n</text><text xml:space="preserve" font-family="Dosis-Regular" font-size="46.0" fill="#002451" transform="matrix(1.00, 0.00, -0.00, -1.00, 732.2, 134.0)">ﬁ</text><text xml:space="preserve" font-family="Dosis-Regular" font-size="46.0" fill="#002451" transform="matrix(1.00, 0.00, -0.00, -1.00, 755.5, 134.0)">r</text><text xml:space="preserve" font-family="Dosis-Regular" font-size="46.0" fill="#002451" transform="matrix(1.00, 0.00, -0.00, -1.00, 770.7, 134.0)">m</text><text xml:space="preserve" font-family="Dosis-Regular" font-size="46.0" fill="#002451" transform="matrix(1.00, 0.00, -0.00, -1.00, 806.6, 134.0)">a</text><text xml:space="preserve" font-family="Dosis-Regular" font-size="46.0" fill="#002451" transform="matrix(1.00, 0.00, -0.00, -1.00, 826.8, 134.0)">ç</text><text xml:space="preserve" font-family="Dosis-Regular" font-size="46.0" fill="#002451" transform="matrix(1.00, 0.00, -0.00, -1.00, 845.4, 134.0)">õ</text><text xml:space="preserve" font-family="Dosis-Regular" font-size="46.0" fill="#002451" transform="matrix(1.00, 0.00, -0.00, -1.00, 867.0, 134.0)">e</text><text xml:space="preserve" font-family="Dosis-Regular" font-size="46.0" fill="#002451" transform="matrix(1.00, 0.00, -0.00, -1.00, 888.0, 134.0)">s</text><text xml:space="preserve" font-family="Dosis-Regular" font-size="46.0" fill="#002451" transform="matrix(1.00, 0.00, -0.00, -1.00, 905.7, 134.0)">,</text><text xml:space="preserve" font-family="Dosis-Regular" font-size="46.0" fill="#002451" transform="matrix(1.00, 0.00, -0.00, -1.00, 913.6, 134.0)"> </text><text xml:space="preserve" font-family="Dosis-Regular" font-size="46.0" fill="#002451" transform="matrix(1.00, 0.00, -0.00, -1.00, 24.0, 76.0)">d</text><text xml:space="preserve" font-family="Dosis-Regular" font-size="46.0" fill="#002451" transform="matrix(1.00, 0.00, -0.00, -1.00, 46.3, 76.0)">i</text><text xml:space="preserve" font-family="Dosis-Regular" font-size="46.0" fill="#002451" transform="matrix(1.00, 0.00, -0.00, -1.00, 55.0, 76.0)">s</text><text xml:space="preserve" font-family="Dosis-Regular" font-size="46.0" fill="#002451" transform="matrix(1.00, 0.00, -0.00, -1.00, 72.8, 76.0)">p</text><text xml:space="preserve" font-family="Dosis-Regular" font-size="46.0" fill="#002451" transform="matrix(1.00, 0.00, -0.00, -1.00, 95.0, 76.0)">o</text><text xml:space="preserve" font-family="Dosis-Regular" font-size="46.0" fill="#002451" transform="matrix(1.00, 0.00, -0.00, -1.00, 116.6, 76.0)">n</text><text xml:space="preserve" font-family="Dosis-Regular" font-size="46.0" fill="#002451" transform="matrix(1.00, 0.00, -0.00, -1.00, 139.4, 76.0)">i</text><text xml:space="preserve" font-family="Dosis-Regular" font-size="46.0" fill="#002451" transform="matrix(1.00, 0.00, -0.00, -1.00, 148.2, 76.0)">b</text><text xml:space="preserve" font-family="Dosis-Regular" font-size="46.0" fill="#002451" transform="matrix(1.00, 0.00, -0.00, -1.00, 170.4, 76.0)">i</text><text xml:space="preserve" font-family="Dosis-Regular" font-size="46.0" fill="#002451" transform="matrix(1.00, 0.00, -0.00, -1.00, 179.2, 76.0)">l</text><text xml:space="preserve" font-family="Dosis-Regular" font-size="46.0" fill="#002451" transform="matrix(1.00, 0.00, -0.00, -1.00, 188.7, 76.0)">i</text><text xml:space="preserve" font-family="Dosis-Regular" font-size="46.0" fill="#002451" transform="matrix(1.00, 0.00, -0.00, -1.00, 197.5, 76.0)">z</text><text xml:space="preserve" font-family="Dosis-Regular" font-size="46.0" fill="#002451" transform="matrix(1.00, 0.00, -0.00, -1.00, 216.0, 76.0)">a</text><text xml:space="preserve" font-family="Dosis-Regular" font-size="46.0" fill="#002451" transform="matrix(1.00, 0.00, -0.00, -1.00, 236.1, 76.0)"> </text><text xml:space="preserve" font-family="Dosis-Regular" font-size="46.0" fill="#002451" transform="matrix(1.00, 0.00, -0.00, -1.00, 245.3, 76.0)">i</text><text xml:space="preserve" font-family="Dosis-Regular" font-size="46.0" fill="#002451" transform="matrix(1.00, 0.00, -0.00, -1.00, 254.1, 76.0)">n</text><text xml:space="preserve" font-family="Dosis-Regular" font-size="46.0" fill="#002451" transform="matrix(1.00, 0.00, -0.00, -1.00, 276.9, 76.0)">f</text><text xml:space="preserve" font-family="Dosis-Regular" font-size="46.0" fill="#002451" transform="matrix(1.00, 0.00, -0.00, -1.00, 290.2, 76.0)">o</text><text xml:space="preserve" font-family="Dosis-Regular" font-size="46.0" fill="#002451" transform="matrix(1.00, 0.00, -0.00, -1.00, 311.7, 76.0)">r</text><text xml:space="preserve" font-family="Dosis-Regular" font-size="46.0" fill="#002451" transform="matrix(1.00, 0.00, -0.00, -1.00, 326.9, 76.0)">m</text><text xml:space="preserve" font-family="Dosis-Regular" font-size="46.0" fill="#002451" transform="matrix(1.00, 0.00, -0.00, -1.00, 362.8, 76.0)">a</text><text xml:space="preserve" font-family="Dosis-Regular" font-size="46.0" fill="#002451" transform="matrix(1.00, 0.00, -0.00, -1.00, 382.9, 76.0)">ç</text><text xml:space="preserve" font-family="Dosis-Regular" font-size="46.0" fill="#002451" transform="matrix(1.00, 0.00, -0.00, -1.00, 401.6, 76.0)">õ</text><text xml:space="preserve" font-family="Dosis-Regular" font-size="46.0" fill="#002451" transform="matrix(1.00, 0.00, -0.00, -1.00, 423.1, 76.0)">e</text><text xml:space="preserve" font-family="Dosis-Regular" font-size="46.0" fill="#002451" transform="matrix(1.00, 0.00, -0.00, -1.00, 444.2, 76.0)">s</text><text xml:space="preserve" font-family="Dosis-Regular" font-size="46.0" fill="#002451" transform="matrix(1.00, 0.00, -0.00, -1.00, 461.9, 76.0)"> </text><text xml:space="preserve" font-family="Dosis-Regular" font-size="46.0" fill="#002451" transform="matrix(1.00, 0.00, -0.00, -1.00, 471.1, 76.0)">d</text><text xml:space="preserve" font-family="Dosis-Regular" font-size="46.0" fill="#002451" transform="matrix(1.00, 0.00, -0.00, -1.00, 493.4, 76.0)">e</text><text xml:space="preserve" font-family="Dosis-Regular" font-size="46.0" fill="#002451" transform="matrix(1.00, 0.00, -0.00, -1.00, 514.5, 76.0)"> </text><text xml:space="preserve" font-family="Dosis-Regular" font-size="46.0" fill="#002451" transform="matrix(1.00, 0.00, -0.00, -1.00, 523.7, 76.0)">c</text><text xml:space="preserve" font-family="Dosis-Regular" font-size="46.0" fill="#002451" transform="matrix(1.00, 0.00, -0.00, -1.00, 542.3, 76.0)">o</text><text xml:space="preserve" font-family="Dosis-Regular" font-size="46.0" fill="#002451" transform="matrix(1.00, 0.00, -0.00, -1.00, 563.9, 76.0)">m</text><text xml:space="preserve" font-family="Dosis-Regular" font-size="46.0" fill="#002451" transform="matrix(1.00, 0.00, -0.00, -1.00, 599.7, 76.0)">o</text><text xml:space="preserve" font-family="Dosis-Regular" font-size="46.0" fill="#002451" transform="matrix(1.00, 0.00, -0.00, -1.00, 621.3, 76.0)"> </text><text xml:space="preserve" font-family="Dosis-Regular" font-size="46.0" fill="#002451" transform="matrix(1.00, 0.00, -0.00, -1.00, 630.5, 76.0)">c</text><text xml:space="preserve" font-family="Dosis-Regular" font-size="46.0" fill="#002451" transform="matrix(1.00, 0.00, -0.00, -1.00, 649.4, 76.0)">h</text><text xml:space="preserve" font-family="Dosis-Regular" font-size="46.0" fill="#002451" transform="matrix(1.00, 0.00, -0.00, -1.00, 672.2, 76.0)">e</text><text xml:space="preserve" font-family="Dosis-Regular" font-size="46.0" fill="#002451" transform="matrix(1.00, 0.00, -0.00, -1.00, 693.3, 76.0)">g</text><text xml:space="preserve" font-family="Dosis-Regular" font-size="46.0" fill="#002451" transform="matrix(1.00, 0.00, -0.00, -1.00, 714.0, 76.0)">a</text><text xml:space="preserve" font-family="Dosis-Regular" font-size="46.0" fill="#002451" transform="matrix(1.00, 0.00, -0.00, -1.00, 734.2, 76.0)">r</text><text xml:space="preserve" font-family="Dosis-Regular" font-size="46.0" fill="#002451" transform="matrix(1.00, 0.00, -0.00, -1.00, 747.4, 76.0)">,</text><text xml:space="preserve" font-family="Dosis-Regular" font-size="46.0" fill="#002451" transform="matrix(1.00, 0.00, -0.00, -1.00, 755.3, 76.0)"> </text><text xml:space="preserve" font-family="Dosis-Regular" font-size="46.0" fill="#002451" transform="matrix(1.00, 0.00, -0.00, -1.00, 764.5, 76.0)">c</text><text xml:space="preserve" font-family="Dosis-Regular" font-size="46.0" fill="#002451" transform="matrix(1.00, 0.00, -0.00, -1.00, 783.4, 76.0)">r</text><text xml:space="preserve" font-family="Dosis-Regular" font-size="46.0" fill="#002451" transform="matrix(1.00, 0.00, -0.00, -1.00, 798.6, 76.0)">i</text><text xml:space="preserve" font-family="Dosis-Regular" font-size="46.0" fill="#002451" transform="matrix(1.00, 0.00, -0.00, -1.00, 807.4, 76.0)">a</text><text xml:space="preserve" font-family="Dosis-Regular" font-size="46.0" fill="#002451" transform="matrix(1.00, 0.00, -0.00, -1.00, 827.5, 76.0)"> </text><text xml:space="preserve" font-family="Dosis-Regular" font-size="46.0" fill="#002451" transform="matrix(1.00, 0.00, -0.00, -1.00, 836.7, 76.0)">u</text><text xml:space="preserve" font-family="Dosis-Regular" font-size="46.0" fill="#002451" transform="matrix(1.00, 0.00, -0.00, -1.00, 859.5, 76.0)">m</text><text xml:space="preserve" font-family="Dosis-Regular" font-size="46.0" fill="#002451" transform="matrix(1.00, 0.00, -0.00, -1.00, 895.4, 76.0)">a</text><text xml:space="preserve" font-family="Dosis-Regular" font-size="46.0" fill="#002451" transform="matrix(1.00, 0.00, -0.00, -1.00, 915.6, 76.0)"> </text><text xml:space="preserve" font-family="Dosis-Regular" font-size="46.0" fill="#002451" transform="matrix(1.00, 0.00, -0.00, -1.00, 84.0, 18.0)">a</text><text xml:space="preserve" font-family="Dosis-Regular" font-size="46.0" fill="#002451" transform="matrix(1.00, 0.00, -0.00, -1.00, 104.1, 18.0)">g</text><text xml:space="preserve" font-family="Dosis-Regular" font-size="46.0" fill="#002451" transform="matrix(1.00, 0.00, -0.00, -1.00, 124.9, 18.0)">e</text><text xml:space="preserve" font-family="Dosis-Regular" font-size="46.0" fill="#002451" transform="matrix(1.00, 0.00, -0.00, -1.00, 146.0, 18.0)">n</text><text xml:space="preserve" font-family="Dosis-Regular" font-size="46.0" fill="#002451" transform="matrix(1.00, 0.00, -0.00, -1.00, 168.8, 18.0)">d</text><text xml:space="preserve" font-family="Dosis-Regular" font-size="46.0" fill="#002451" transform="matrix(1.00, 0.00, -0.00, -1.00, 191.1, 18.0)">a</text><text xml:space="preserve" font-family="Dosis-Regular" font-size="46.0" fill="#002451" transform="matrix(1.00, 0.00, -0.00, -1.00, 211.2, 18.0)">,</text><text xml:space="preserve" font-family="Dosis-Regular" font-size="46.0" fill="#002451" transform="matrix(1.00, 0.00, -0.00, -1.00, 219.1, 18.0)"> </text><text xml:space="preserve" font-family="Dosis-Regular" font-size="46.0" fill="#002451" transform="matrix(1.00, 0.00, -0.00, -1.00, 228.3, 18.0)">d</text><text xml:space="preserve" font-family="Dosis-Regular" font-size="46.0" fill="#002451" transform="matrix(1.00, 0.00, -0.00, -1.00, 250.6, 18.0)">i</text><text xml:space="preserve" font-family="Dosis-Regular" font-size="46.0" fill="#002451" transform="matrix(1.00, 0.00, -0.00, -1.00, 259.4, 18.0)">v</text><text xml:space="preserve" font-family="Dosis-Regular" font-size="46.0" fill="#002451" transform="matrix(1.00, 0.00, -0.00, -1.00, 278.7, 18.0)">u</text><text xml:space="preserve" font-family="Dosis-Regular" font-size="46.0" fill="#002451" transform="matrix(1.00, 0.00, -0.00, -1.00, 301.5, 18.0)">l</text><text xml:space="preserve" font-family="Dosis-Regular" font-size="46.0" fill="#002451" transform="matrix(1.00, 0.00, -0.00, -1.00, 311.0, 18.0)">g</text><text xml:space="preserve" font-family="Dosis-Regular" font-size="46.0" fill="#002451" transform="matrix(1.00, 0.00, -0.00, -1.00, 331.8, 18.0)">a</text><text xml:space="preserve" font-family="Dosis-Regular" font-size="46.0" fill="#002451" transform="matrix(1.00, 0.00, -0.00, -1.00, 351.9, 18.0)"> </text><text xml:space="preserve" font-family="Dosis-Regular" font-size="46.0" fill="#002451" transform="matrix(1.00, 0.00, -0.00, -1.00, 361.1, 18.0)">o</text><text xml:space="preserve" font-family="Dosis-Regular" font-size="46.0" fill="#002451" transform="matrix(1.00, 0.00, -0.00, -1.00, 382.7, 18.0)"> </text><text xml:space="preserve" font-family="Dosis-Regular" font-size="46.0" fill="#002451" transform="matrix(1.00, 0.00, -0.00, -1.00, 391.9, 18.0)">e</text><text xml:space="preserve" font-family="Dosis-Regular" font-size="46.0" fill="#002451" transform="matrix(1.00, 0.00, -0.00, -1.00, 412.9, 18.0)">v</text><text xml:space="preserve" font-family="Dosis-Regular" font-size="46.0" fill="#002451" transform="matrix(1.00, 0.00, -0.00, -1.00, 432.3, 18.0)">e</text><text xml:space="preserve" font-family="Dosis-Regular" font-size="46.0" fill="#002451" transform="matrix(1.00, 0.00, -0.00, -1.00, 453.3, 18.0)">n</text><text xml:space="preserve" font-family="Dosis-Regular" font-size="46.0" fill="#002451" transform="matrix(1.00, 0.00, -0.00, -1.00, 476.1, 18.0)">t</text><text xml:space="preserve" font-family="Dosis-Regular" font-size="46.0" fill="#002451" transform="matrix(1.00, 0.00, -0.00, -1.00, 489.4, 18.0)">o</text><text xml:space="preserve" font-family="Dosis-Regular" font-size="46.0" fill="#002451" transform="matrix(1.00, 0.00, -0.00, -1.00, 510.9, 18.0)">,</text><text xml:space="preserve" font-family="Dosis-Regular" font-size="46.0" fill="#002451" transform="matrix(1.00, 0.00, -0.00, -1.00, 518.8, 18.0)"> </text><text xml:space="preserve" font-family="Dosis-Regular" font-size="46.0" fill="#002451" transform="matrix(1.00, 0.00, -0.00, -1.00, 528.0, 18.0)">v</text><text xml:space="preserve" font-family="Dosis-Regular" font-size="46.0" fill="#002451" transform="matrix(1.00, 0.00, -0.00, -1.00, 547.3, 18.0)">e</text><text xml:space="preserve" font-family="Dosis-Regular" font-size="46.0" fill="#002451" transform="matrix(1.00, 0.00, -0.00, -1.00, 568.4, 18.0)">n</text><text xml:space="preserve" font-family="Dosis-Regular" font-size="46.0" fill="#002451" transform="matrix(1.00, 0.00, -0.00, -1.00, 591.2, 18.0)">d</text><text xml:space="preserve" font-family="Dosis-Regular" font-size="46.0" fill="#002451" transform="matrix(1.00, 0.00, -0.00, -1.00, 613.5, 18.0)">e</text><text xml:space="preserve" font-family="Dosis-Regular" font-size="46.0" fill="#002451" transform="matrix(1.00, 0.00, -0.00, -1.00, 634.5, 18.0)"> </text><text xml:space="preserve" font-family="Dosis-Regular" font-size="46.0" fill="#002451" transform="matrix(1.00, 0.00, -0.00, -1.00, 643.7, 18.0)">o</text><text xml:space="preserve" font-family="Dosis-Regular" font-size="46.0" fill="#002451" transform="matrix(1.00, 0.00, -0.00, -1.00, 665.3, 18.0)">s</text><text xml:space="preserve" font-family="Dosis-Regular" font-size="46.0" fill="#002451" transform="matrix(1.00, 0.00, -0.00, -1.00, 683.0, 18.0)"> </text><text xml:space="preserve" font-family="Dosis-Regular" font-size="46.0" fill="#002451" transform="matrix(1.00, 0.00, -0.00, -1.00, 692.2, 18.0)">i</text><text xml:space="preserve" font-family="Dosis-Regular" font-size="46.0" fill="#002451" transform="matrix(1.00, 0.00, -0.00, -1.00, 701.0, 18.0)">n</text><text xml:space="preserve" font-family="Dosis-Regular" font-size="46.0" fill="#002451" transform="matrix(1.00, 0.00, -0.00, -1.00, 723.8, 18.0)">g</text><text xml:space="preserve" font-family="Dosis-Regular" font-size="46.0" fill="#002451" transform="matrix(1.00, 0.00, -0.00, -1.00, 744.6, 18.0)">r</text><text xml:space="preserve" font-family="Dosis-Regular" font-size="46.0" fill="#002451" transform="matrix(1.00, 0.00, -0.00, -1.00, 759.0, 18.0)">e</text><text xml:space="preserve" font-family="Dosis-Regular" font-size="46.0" fill="#002451" transform="matrix(1.00, 0.00, -0.00, -1.00, 780.0, 18.0)">s</text><text xml:space="preserve" font-family="Dosis-Regular" font-size="46.0" fill="#002451" transform="matrix(1.00, 0.00, -0.00, -1.00, 797.7, 18.0)">s</text><text xml:space="preserve" font-family="Dosis-Regular" font-size="46.0" fill="#002451" transform="matrix(1.00, 0.00, -0.00, -1.00, 815.4, 18.0)">o</text><text xml:space="preserve" font-family="Dosis-Regular" font-size="46.0" fill="#002451" transform="matrix(1.00, 0.00, -0.00, -1.00, 837.0, 18.0)">s</text></g></g></g></svg>