<?xml version="1.0" encoding="UTF-8" standalone="no"?><svg xmlns="http://www.w3.org/2000/svg" xmlns:xlink="http://www.w3.org/1999/xlink" clip-rule="evenodd" stroke-miterlimit="4.00" viewBox="0 0 1920 1080"><desc>SVG generated by Keynote</desc><defs></defs><g transform="matrix(1.00, 0.00, -0.00, -1.00, 0.0, 1080.0)"><path d="M 0.0 1080.0 L 1920.0 1080.0 L 1920.0 0.0 L 0.0 0.0 Z M 0.0 1080.0 " fill="#251D2C"></path><image xlink:href="../../61BA4D48-2DFA-48D3-A3D5-E15A6D3B54F8/assets/0BF2DEEB94C1AC4E35F2C72BBC53651E.png" width="565.00" height="73.00" transform="matrix(1.00, 0.00, -0.00, -1.00, 68.0, 1020.0)"></image><g><clipPath id="clip-352"><path d="M 43.0 947.0 L 1018.3 947.0 L 1018.3 1040.8 L 43.0 1040.8 Z M 43.0 947.0 "></path></clipPath><g clip-path="url(#clip-352)"><text xml:space="preserve" font-family="MavenProRegular" font-size="79.6" fill="#95B71E" transform="matrix(1.00, 0.00, -0.00, -1.00, 66.0, 963.0)">p</text><text xml:space="preserve" font-family="MavenProRegular" font-size="79.6" fill="#95B71E" transform="matrix(1.00, 0.00, -0.00, -1.00, 109.2, 963.0)">l</text><text xml:space="preserve" font-family="MavenProRegular" font-size="79.6" fill="#95B71E" transform="matrix(1.00, 0.00, -0.00, -1.00, 128.3, 963.0)">a</text><text xml:space="preserve" font-family="MavenProRegular" font-size="79.6" fill="#95B71E" transform="matrix(1.00, 0.00, -0.00, -1.00, 170.0, 963.0)">n</text><text xml:space="preserve" font-family="MavenProRegular" font-size="79.6" fill="#95B71E" transform="matrix(1.00, 0.00, -0.00, -1.00, 214.8, 963.0)">o</text><text xml:space="preserve" font-family="MavenProRegular" font-size="79.6" fill="#95B71E" transform="matrix(1.00, 0.00, -0.00, -1.00, 259.6, 963.0)"> </text><text xml:space="preserve" font-family="MavenProRegular" font-size="79.6" fill="#95B71E" transform="matrix(1.00, 0.00, -0.00, -1.00, 286.5, 963.0)">f</text><text xml:space="preserve" font-family="MavenProRegular" font-size="79.6" fill="#95B71E" transform="matrix(1.00, 0.00, -0.00, -1.00, 313.3, 963.0)">i</text><text xml:space="preserve" font-family="MavenProRegular" font-size="79.6" fill="#95B71E" transform="matrix(1.00, 0.00, -0.00, -1.00, 332.9, 963.0)">n</text><text xml:space="preserve" font-family="MavenProRegular" font-size="79.6" fill="#95B71E" transform="matrix(1.00, 0.00, -0.00, -1.00, 376.8, 963.0)">a</text><text xml:space="preserve" font-family="MavenProRegular" font-size="79.6" fill="#95B71E" transform="matrix(1.00, 0.00, -0.00, -1.00, 418.5, 963.0)">n</text><text xml:space="preserve" font-family="MavenProRegular" font-size="79.6" fill="#95B71E" transform="matrix(1.00, 0.00, -0.00, -1.00, 462.3, 963.0)">c</text><text xml:space="preserve" font-family="MavenProRegular" font-size="79.6" fill="#95B71E" transform="matrix(1.00, 0.00, -0.00, -1.00, 499.2, 963.0)">e</text><text xml:space="preserve" font-family="MavenProRegular" font-size="79.6" fill="#95B71E" transform="matrix(1.00, 0.00, -0.00, -1.00, 541.5, 963.0)">i</text><text xml:space="preserve" font-family="MavenProRegular" font-size="79.6" fill="#95B71E" transform="matrix(1.00, 0.00, -0.00, -1.00, 560.0, 963.0)">r</text><text xml:space="preserve" font-family="MavenProRegular" font-size="79.6" fill="#95B71E" transform="matrix(1.00, 0.00, -0.00, -1.00, 586.7, 963.0)">o</text></g></g><path d="M 155.0 477.8 L 1341.0 477.8 " fill="none" stroke="#919191" stroke-width="1.00" stroke-dasharray="2.0, 2.0" transform="matrix(1.00, 0.00, 0.00, -1.00, 174.0, 826.3)"></path><path d="M 155.0 329.8 L 1341.0 329.8 " fill="none" stroke="#919191" stroke-width="1.00" stroke-dasharray="2.0, 2.0" transform="matrix(1.00, 0.00, 0.00, -1.00, 174.0, 826.3)"></path><path d="M 155.0 181.8 L 1341.0 181.8 " fill="none" stroke="#919191" stroke-width="1.00" stroke-dasharray="2.0, 2.0" transform="matrix(1.00, 0.00, 0.00, -1.00, 174.0, 826.3)"></path><path d="M 155.0 33.8 L 1341.0 33.8 " fill="none" stroke="#919191" stroke-width="1.00" stroke-dasharray="2.0, 2.0" transform="matrix(1.00, 0.00, 0.00, -1.00, 174.0, 826.3)"></path><g><clipPath id="clip-353"><path d="M 258.6 182.1 L 311.4 182.1 L 311.4 218.1 L 258.6 218.1 Z M 258.6 182.1 "></path></clipPath><g clip-path="url(#clip-353)"><text xml:space="preserve" font-family="Helvetica-Light" font-size="28.0" fill="#FEFFFF" transform="matrix(1.00, 0.00, -0.00, -1.00, 260.0, 190.0)">R</text><text xml:space="preserve" font-family="Helvetica-Light" font-size="28.0" fill="#FEFFFF" transform="matrix(1.00, 0.00, -0.00, -1.00, 278.7, 190.0)">$</text><text xml:space="preserve" font-family="Helvetica-Light" font-size="28.0" fill="#FEFFFF" transform="matrix(1.00, 0.00, -0.00, -1.00, 294.2, 190.0)">0</text></g></g><g><clipPath id="clip-354"><path d="M 188.6 330.2 L 311.4 330.2 L 311.4 366.2 L 188.6 366.2 Z M 188.6 330.2 "></path></clipPath><g clip-path="url(#clip-354)"><text xml:space="preserve" font-family="Helvetica-Light" font-size="28.0" fill="#FEFFFF" transform="matrix(1.00, 0.00, -0.00, -1.00, 190.0, 338.0)">R</text><text xml:space="preserve" font-family="Helvetica-Light" font-size="28.0" fill="#FEFFFF" transform="matrix(1.00, 0.00, -0.00, -1.00, 208.7, 338.0)">$</text><text xml:space="preserve" font-family="Helvetica-Light" font-size="28.0" fill="#FEFFFF" transform="matrix(1.00, 0.00, -0.00, -1.00, 224.2, 338.0)">4</text><text xml:space="preserve" font-family="Helvetica-Light" font-size="28.0" fill="#FEFFFF" transform="matrix(1.00, 0.00, -0.00, -1.00, 239.8, 338.0)">0</text><text xml:space="preserve" font-family="Helvetica-Light" font-size="28.0" fill="#FEFFFF" transform="matrix(1.00, 0.00, -0.00, -1.00, 255.4, 338.0)">.</text><text xml:space="preserve" font-family="Helvetica-Light" font-size="28.0" fill="#FEFFFF" transform="matrix(1.00, 0.00, -0.00, -1.00, 263.2, 338.0)">0</text><text xml:space="preserve" font-family="Helvetica-Light" font-size="28.0" fill="#FEFFFF" transform="matrix(1.00, 0.00, -0.00, -1.00, 278.7, 338.0)">0</text><text xml:space="preserve" font-family="Helvetica-Light" font-size="28.0" fill="#FEFFFF" transform="matrix(1.00, 0.00, -0.00, -1.00, 294.3, 338.0)">0</text></g></g><g><clipPath id="clip-355"><path d="M 188.6 478.2 L 311.4 478.2 L 311.4 514.2 L 188.6 514.2 Z M 188.6 478.2 "></path></clipPath><g clip-path="url(#clip-355)"><text xml:space="preserve" font-family="Helvetica-Light" font-size="28.0" fill="#FEFFFF" transform="matrix(1.00, 0.00, -0.00, -1.00, 190.0, 486.0)">R</text><text xml:space="preserve" font-family="Helvetica-Light" font-size="28.0" fill="#FEFFFF" transform="matrix(1.00, 0.00, -0.00, -1.00, 208.7, 486.0)">$</text><text xml:space="preserve" font-family="Helvetica-Light" font-size="28.0" fill="#FEFFFF" transform="matrix(1.00, 0.00, -0.00, -1.00, 224.2, 486.0)">8</text><text xml:space="preserve" font-family="Helvetica-Light" font-size="28.0" fill="#FEFFFF" transform="matrix(1.00, 0.00, -0.00, -1.00, 239.8, 486.0)">0</text><text xml:space="preserve" font-family="Helvetica-Light" font-size="28.0" fill="#FEFFFF" transform="matrix(1.00, 0.00, -0.00, -1.00, 255.4, 486.0)">.</text><text xml:space="preserve" font-family="Helvetica-Light" font-size="28.0" fill="#FEFFFF" transform="matrix(1.00, 0.00, -0.00, -1.00, 263.2, 486.0)">0</text><text xml:space="preserve" font-family="Helvetica-Light" font-size="28.0" fill="#FEFFFF" transform="matrix(1.00, 0.00, -0.00, -1.00, 278.7, 486.0)">0</text><text xml:space="preserve" font-family="Helvetica-Light" font-size="28.0" fill="#FEFFFF" transform="matrix(1.00, 0.00, -0.00, -1.00, 294.3, 486.0)">0</text></g></g><g><clipPath id="clip-356"><path d="M 173.0 626.2 L 311.4 626.2 L 311.4 662.2 L 173.0 662.2 Z M 173.0 626.2 "></path></clipPath><g clip-path="url(#clip-356)"><text xml:space="preserve" font-family="Helvetica-Light" font-size="28.0" fill="#FEFFFF" transform="matrix(1.00, 0.00, -0.00, -1.00, 175.0, 634.0)">R</text><text xml:space="preserve" font-family="Helvetica-Light" font-size="28.0" fill="#FEFFFF" transform="matrix(1.00, 0.00, -0.00, -1.00, 193.7, 634.0)">$</text><text xml:space="preserve" font-family="Helvetica-Light" font-size="28.0" fill="#FEFFFF" transform="matrix(1.00, 0.00, -0.00, -1.00, 209.2, 634.0)">1</text><text xml:space="preserve" font-family="Helvetica-Light" font-size="28.0" fill="#FEFFFF" transform="matrix(1.00, 0.00, -0.00, -1.00, 224.8, 634.0)">2</text><text xml:space="preserve" font-family="Helvetica-Light" font-size="28.0" fill="#FEFFFF" transform="matrix(1.00, 0.00, -0.00, -1.00, 240.4, 634.0)">0</text><text xml:space="preserve" font-family="Helvetica-Light" font-size="28.0" fill="#FEFFFF" transform="matrix(1.00, 0.00, -0.00, -1.00, 255.9, 634.0)">.</text><text xml:space="preserve" font-family="Helvetica-Light" font-size="28.0" fill="#FEFFFF" transform="matrix(1.00, 0.00, -0.00, -1.00, 263.7, 634.0)">0</text><text xml:space="preserve" font-family="Helvetica-Light" font-size="28.0" fill="#FEFFFF" transform="matrix(1.00, 0.00, -0.00, -1.00, 279.3, 634.0)">0</text><text xml:space="preserve" font-family="Helvetica-Light" font-size="28.0" fill="#FEFFFF" transform="matrix(1.00, 0.00, -0.00, -1.00, 294.9, 634.0)">0</text></g></g><g><clipPath id="clip-357"><path d="M 173.0 774.3 L 311.4 774.3 L 311.4 810.3 L 173.0 810.3 Z M 173.0 774.3 "></path></clipPath><g clip-path="url(#clip-357)"><text xml:space="preserve" font-family="Helvetica-Light" font-size="28.0" fill="#FEFFFF" transform="matrix(1.00, 0.00, -0.00, -1.00, 175.0, 782.0)">R</text><text xml:space="preserve" font-family="Helvetica-Light" font-size="28.0" fill="#FEFFFF" transform="matrix(1.00, 0.00, -0.00, -1.00, 193.7, 782.0)">$</text><text xml:space="preserve" font-family="Helvetica-Light" font-size="28.0" fill="#FEFFFF" transform="matrix(1.00, 0.00, -0.00, -1.00, 209.2, 782.0)">1</text><text xml:space="preserve" font-family="Helvetica-Light" font-size="28.0" fill="#FEFFFF" transform="matrix(1.00, 0.00, -0.00, -1.00, 224.8, 782.0)">6</text><text xml:space="preserve" font-family="Helvetica-Light" font-size="28.0" fill="#FEFFFF" transform="matrix(1.00, 0.00, -0.00, -1.00, 240.4, 782.0)">0</text><text xml:space="preserve" font-family="Helvetica-Light" font-size="28.0" fill="#FEFFFF" transform="matrix(1.00, 0.00, -0.00, -1.00, 255.9, 782.0)">.</text><text xml:space="preserve" font-family="Helvetica-Light" font-size="28.0" fill="#FEFFFF" transform="matrix(1.00, 0.00, -0.00, -1.00, 263.7, 782.0)">0</text><text xml:space="preserve" font-family="Helvetica-Light" font-size="28.0" fill="#FEFFFF" transform="matrix(1.00, 0.00, -0.00, -1.00, 279.3, 782.0)">0</text><text xml:space="preserve" font-family="Helvetica-Light" font-size="28.0" fill="#FEFFFF" transform="matrix(1.00, 0.00, -0.00, -1.00, 294.9, 782.0)">0</text></g></g><path d="M 155.5 625.8 L 1341.5 625.8 " fill="none" stroke="#000000" stroke-width="1.00" stroke-linecap="square" transform="matrix(1.00, 0.00, 0.00, -1.00, 174.0, 826.3)"></path><g><clipPath id="clip-358"><path d="M 295.3 152.6 L 363.6 152.6 L 363.6 188.6 L 295.3 188.6 Z M 295.3 152.6 "></path></clipPath><g clip-path="url(#clip-358)"><text xml:space="preserve" font-family="Helvetica-Light" font-size="28.0" fill="#FEFFFF" transform="matrix(1.00, 0.00, -0.00, -1.00, 297.0, 160.0)">A</text><text xml:space="preserve" font-family="Helvetica-Light" font-size="28.0" fill="#FEFFFF" transform="matrix(1.00, 0.00, -0.00, -1.00, 315.7, 160.0)">n</text><text xml:space="preserve" font-family="Helvetica-Light" font-size="28.0" fill="#FEFFFF" transform="matrix(1.00, 0.00, -0.00, -1.00, 331.2, 160.0)">o</text><text xml:space="preserve" font-family="Helvetica-Light" font-size="28.0" fill="#FEFFFF" transform="matrix(1.00, 0.00, -0.00, -1.00, 346.8, 160.0)"> </text><text xml:space="preserve" font-family="Helvetica-Light" font-size="28.0" fill="#FEFFFF" transform="matrix(1.00, 0.00, -0.00, -1.00, 354.6, 160.0)">I</text></g></g><g><clipPath id="clip-359"><path d="M 587.8 152.6 L 663.9 152.6 L 663.9 188.6 L 587.8 188.6 Z M 587.8 152.6 "></path></clipPath><g clip-path="url(#clip-359)"><text xml:space="preserve" font-family="Helvetica-Light" font-size="28.0" fill="#FEFFFF" transform="matrix(1.00, 0.00, -0.00, -1.00, 589.0, 160.0)">A</text><text xml:space="preserve" font-family="Helvetica-Light" font-size="28.0" fill="#FEFFFF" transform="matrix(1.00, 0.00, -0.00, -1.00, 607.7, 160.0)">n</text><text xml:space="preserve" font-family="Helvetica-Light" font-size="28.0" fill="#FEFFFF" transform="matrix(1.00, 0.00, -0.00, -1.00, 623.2, 160.0)">o</text><text xml:space="preserve" font-family="Helvetica-Light" font-size="28.0" fill="#FEFFFF" transform="matrix(1.00, 0.00, -0.00, -1.00, 638.8, 160.0)"> </text><text xml:space="preserve" font-family="Helvetica-Light" font-size="28.0" fill="#FEFFFF" transform="matrix(1.00, 0.00, -0.00, -1.00, 646.6, 160.0)">I</text><text xml:space="preserve" font-family="Helvetica-Light" font-size="28.0" fill="#FEFFFF" transform="matrix(1.00, 0.00, -0.00, -1.00, 654.4, 160.0)">I</text></g></g><g><clipPath id="clip-360"><path d="M 880.3 152.6 L 964.2 152.6 L 964.2 188.6 L 880.3 188.6 Z M 880.3 152.6 "></path></clipPath><g clip-path="url(#clip-360)"><text xml:space="preserve" font-family="Helvetica-Light" font-size="28.0" fill="#FEFFFF" transform="matrix(1.00, 0.00, -0.00, -1.00, 882.0, 160.0)">A</text><text xml:space="preserve" font-family="Helvetica-Light" font-size="28.0" fill="#FEFFFF" transform="matrix(1.00, 0.00, -0.00, -1.00, 900.7, 160.0)">n</text><text xml:space="preserve" font-family="Helvetica-Light" font-size="28.0" fill="#FEFFFF" transform="matrix(1.00, 0.00, -0.00, -1.00, 916.2, 160.0)">o</text><text xml:space="preserve" font-family="Helvetica-Light" font-size="28.0" fill="#FEFFFF" transform="matrix(1.00, 0.00, -0.00, -1.00, 931.8, 160.0)"> </text><text xml:space="preserve" font-family="Helvetica-Light" font-size="28.0" fill="#FEFFFF" transform="matrix(1.00, 0.00, -0.00, -1.00, 939.6, 160.0)">I</text><text xml:space="preserve" font-family="Helvetica-Light" font-size="28.0" fill="#FEFFFF" transform="matrix(1.00, 0.00, -0.00, -1.00, 947.4, 160.0)">I</text><text xml:space="preserve" font-family="Helvetica-Light" font-size="28.0" fill="#FEFFFF" transform="matrix(1.00, 0.00, -0.00, -1.00, 955.2, 160.0)">I</text></g></g><g><clipPath id="clip-361"><path d="M 1175.9 152.6 L 1261.4 152.6 L 1261.4 188.6 L 1175.9 188.6 Z M 1175.9 152.6 "></path></clipPath><g clip-path="url(#clip-361)"><text xml:space="preserve" font-family="Helvetica-Light" font-size="28.0" fill="#FEFFFF" transform="matrix(1.00, 0.00, -0.00, -1.00, 1177.0, 160.0)">A</text><text xml:space="preserve" font-family="Helvetica-Light" font-size="28.0" fill="#FEFFFF" transform="matrix(1.00, 0.00, -0.00, -1.00, 1195.7, 160.0)">n</text><text xml:space="preserve" font-family="Helvetica-Light" font-size="28.0" fill="#FEFFFF" transform="matrix(1.00, 0.00, -0.00, -1.00, 1211.2, 160.0)">o</text><text xml:space="preserve" font-family="Helvetica-Light" font-size="28.0" fill="#FEFFFF" transform="matrix(1.00, 0.00, -0.00, -1.00, 1226.8, 160.0)"> </text><text xml:space="preserve" font-family="Helvetica-Light" font-size="28.0" fill="#FEFFFF" transform="matrix(1.00, 0.00, -0.00, -1.00, 1234.6, 160.0)">I</text><text xml:space="preserve" font-family="Helvetica-Light" font-size="28.0" fill="#FEFFFF" transform="matrix(1.00, 0.00, -0.00, -1.00, 1242.4, 160.0)">V</text></g></g><g><clipPath id="clip-362"><path d="M 1476.2 152.6 L 1553.9 152.6 L 1553.9 188.6 L 1476.2 188.6 Z M 1476.2 152.6 "></path></clipPath><g clip-path="url(#clip-362)"><text xml:space="preserve" font-family="Helvetica-Light" font-size="28.0" fill="#FEFFFF" transform="matrix(1.00, 0.00, -0.00, -1.00, 1478.0, 160.0)">A</text><text xml:space="preserve" font-family="Helvetica-Light" font-size="28.0" fill="#FEFFFF" transform="matrix(1.00, 0.00, -0.00, -1.00, 1496.7, 160.0)">n</text><text xml:space="preserve" font-family="Helvetica-Light" font-size="28.0" fill="#FEFFFF" transform="matrix(1.00, 0.00, -0.00, -1.00, 1512.2, 160.0)">o</text><text xml:space="preserve" font-family="Helvetica-Light" font-size="28.0" fill="#FEFFFF" transform="matrix(1.00, 0.00, -0.00, -1.00, 1527.8, 160.0)"> </text><text xml:space="preserve" font-family="Helvetica-Light" font-size="28.0" fill="#FEFFFF" transform="matrix(1.00, 0.00, -0.00, -1.00, 1535.6, 160.0)">V</text></g></g><image xlink:href="EF92BCA14E171852B02AB11B5CAEF5B2.png" width="299.00" height="120.00" transform="matrix(1.00, 0.00, -0.00, -1.00, 1567.0, 549.0)"></image><g><g><clipPath id="clip-363"><path d="M 1532.0 419.0 L 1873.0 419.0 L 1873.0 555.0 L 1532.0 555.0 Z M 1532.0 419.0 "></path></clipPath><g clip-path="url(#clip-363)"><g><g><clipPath id="clip-364"><path d="M 1573.0 491.0 L 1600.0 491.0 L 1600.0 518.0 L 1573.0 518.0 Z M 1573.0 491.0 "></path></clipPath><g clip-path="url(#clip-364)"><path d="M 0.5 13.8 L 27.5 13.8 " fill="none" stroke="#51A7F9" stroke-width="5.04" transform="matrix(1.00, 0.00, 0.00, -1.00, 1572.5, 518.3)"></path></g></g></g><text xml:space="preserve" font-family="Helvetica-Light" font-size="36.0" fill="#FEFFFF" transform="matrix(1.00, 0.00, -0.00, -1.00, 1621.0, 491.0)">D</text><text xml:space="preserve" font-family="Helvetica-Light" font-size="36.0" fill="#FEFFFF" transform="matrix(1.00, 0.00, -0.00, -1.00, 1647.0, 491.0)">e</text><text xml:space="preserve" font-family="Helvetica-Light" font-size="36.0" fill="#FEFFFF" transform="matrix(1.00, 0.00, -0.00, -1.00, 1667.0, 491.0)">s</text><text xml:space="preserve" font-family="Helvetica-Light" font-size="36.0" fill="#FEFFFF" transform="matrix(1.00, 0.00, -0.00, -1.00, 1685.0, 491.0)">p</text><text xml:space="preserve" font-family="Helvetica-Light" font-size="36.0" fill="#FEFFFF" transform="matrix(1.00, 0.00, -0.00, -1.00, 1707.0, 491.0)">e</text><text xml:space="preserve" font-family="Helvetica-Light" font-size="36.0" fill="#FEFFFF" transform="matrix(1.00, 0.00, -0.00, -1.00, 1727.0, 491.0)">s</text><text xml:space="preserve" font-family="Helvetica-Light" font-size="36.0" fill="#FEFFFF" transform="matrix(1.00, 0.00, -0.00, -1.00, 1745.0, 491.0)">a</text><text xml:space="preserve" font-family="Helvetica-Light" font-size="36.0" fill="#FEFFFF" transform="matrix(1.00, 0.00, -0.00, -1.00, 1765.0, 491.0)">s</text></g></g><g><clipPath id="clip-365"><path d="M 1532.0 419.0 L 1873.0 419.0 L 1873.0 555.0 L 1532.0 555.0 Z M 1532.0 419.0 "></path></clipPath><g clip-path="url(#clip-365)"><g><g><clipPath id="clip-366"><path d="M 1573.0 448.0 L 1600.0 448.0 L 1600.0 475.0 L 1573.0 475.0 Z M 1573.0 448.0 "></path></clipPath><g clip-path="url(#clip-366)"><path d="M 0.5 13.8 L 27.5 13.8 " fill="none" stroke="#6FBF40" stroke-width="5.04" transform="matrix(1.00, 0.00, 0.00, -1.00, 1572.5, 475.3)"></path></g></g></g><text xml:space="preserve" font-family="Helvetica-Light" font-size="36.0" fill="#FEFFFF" transform="matrix(1.00, 0.00, -0.00, -1.00, 1621.0, 448.0)">F</text><text xml:space="preserve" font-family="Helvetica-Light" font-size="36.0" fill="#FEFFFF" transform="matrix(1.00, 0.00, -0.00, -1.00, 1641.0, 448.0)">a</text><text xml:space="preserve" font-family="Helvetica-Light" font-size="36.0" fill="#FEFFFF" transform="matrix(1.00, 0.00, -0.00, -1.00, 1661.0, 448.0)">t</text><text xml:space="preserve" font-family="Helvetica-Light" font-size="36.0" fill="#FEFFFF" transform="matrix(1.00, 0.00, -0.00, -1.00, 1671.0, 448.0)">u</text><text xml:space="preserve" font-family="Helvetica-Light" font-size="36.0" fill="#FEFFFF" transform="matrix(1.00, 0.00, -0.00, -1.00, 1691.1, 448.0)">r</text><text xml:space="preserve" font-family="Helvetica-Light" font-size="36.0" fill="#FEFFFF" transform="matrix(1.00, 0.00, -0.00, -1.00, 1703.0, 448.0)">a</text><text xml:space="preserve" font-family="Helvetica-Light" font-size="36.0" fill="#FEFFFF" transform="matrix(1.00, 0.00, -0.00, -1.00, 1723.1, 448.0)">m</text><text xml:space="preserve" font-family="Helvetica-Light" font-size="36.0" fill="#FEFFFF" transform="matrix(1.00, 0.00, -0.00, -1.00, 1753.0, 448.0)">e</text><text xml:space="preserve" font-family="Helvetica-Light" font-size="36.0" fill="#FEFFFF" transform="matrix(1.00, 0.00, -0.00, -1.00, 1773.1, 448.0)">n</text><text xml:space="preserve" font-family="Helvetica-Light" font-size="36.0" fill="#FEFFFF" transform="matrix(1.00, 0.00, -0.00, -1.00, 1793.1, 448.0)">t</text><text xml:space="preserve" font-family="Helvetica-Light" font-size="36.0" fill="#FEFFFF" transform="matrix(1.00, 0.00, -0.00, -1.00, 1803.1, 448.0)">o</text></g></g></g><image xlink:href="2623E8E9B6D82722EA327544550D64C0.png" width="1228.00" height="489.00" transform="matrix(1.00, 0.00, -0.00, -1.00, 314.0, 804.0)"></image><g><g><clipPath id="clip-367"><path d="M 320.1 190.8 L 1532.9 190.8 L 1532.9 810.1 L 320.1 810.1 Z M 320.1 190.8 "></path></clipPath><g clip-path="url(#clip-367)"><path d="M 0.0 444.1 L 296.4 310.9 L 592.8 177.7 L 889.2 96.2 L 1185.6 0.0 " fill="none" stroke="#6FBF40" stroke-width="6.00" transform="matrix(1.00, 0.00, 0.00, -1.00, 329.4, 777.5)"></path></g></g></g><image xlink:href="../../B5506AC3-F532-4395-8177-816ADD22F97C/assets/BAA09FBD039DBDD6FCE104D94118D09A.png" width="1228.00" height="112.00" transform="matrix(1.00, 0.00, -0.00, -1.00, 314.0, 530.0)"></image><g><g><clipPath id="clip-368"><path d="M 320.1 190.8 L 1532.9 190.8 L 1532.9 810.1 L 320.1 810.1 Z M 320.1 190.8 "></path></clipPath><g clip-path="url(#clip-368)"><path d="M 0.0 66.6 L 296.4 66.6 L 592.8 0.0 L 889.2 0.0 L 1185.6 0.0 " fill="none" stroke="#51A7F9" stroke-width="6.00" transform="matrix(1.00, 0.00, 0.00, -1.00, 329.4, 503.6)"></path></g></g></g></g></svg>