<?xml version="1.0" encoding="UTF-8" standalone="no"?><svg xmlns="http://www.w3.org/2000/svg" xmlns:xlink="http://www.w3.org/1999/xlink" clip-rule="evenodd" stroke-miterlimit="4.00" viewBox="0 0 567 83"><desc>SVG generated by Keynote</desc><defs></defs><g transform="matrix(1.00, 0.00, -0.00, -1.00, 0.0, 83.0)"><image xlink:href="../../61BA4D48-2DFA-48D3-A3D5-E15A6D3B54F8/assets/0BF2DEEB94C1AC4E35F2C72BBC53651E.png" width="565.00" height="73.00" transform="matrix(1.00, 0.00, -0.00, -1.00, 1.0, 81.0)"></image><g><clipPath id="clip-335"><path d="M 0.0 8.0 L 567.0 8.0 L 567.0 83.0 L 0.0 83.0 Z M 0.0 8.0 "></path></clipPath><g clip-path="url(#clip-335)"><text xml:space="preserve" font-family="MavenProRegular" font-size="79.6" fill="#95B71E" transform="matrix(1.00, 0.00, -0.00, -1.00, -1.0, 24.0)">p</text><text xml:space="preserve" font-family="MavenProRegular" font-size="79.6" fill="#95B71E" transform="matrix(1.00, 0.00, -0.00, -1.00, 42.2, 24.0)">l</text><text xml:space="preserve" font-family="MavenProRegular" font-size="79.6" fill="#95B71E" transform="matrix(1.00, 0.00, -0.00, -1.00, 61.3, 24.0)">a</text><text xml:space="preserve" font-family="MavenProRegular" font-size="79.6" fill="#95B71E" transform="matrix(1.00, 0.00, -0.00, -1.00, 103.0, 24.0)">n</text><text xml:space="preserve" font-family="MavenProRegular" font-size="79.6" fill="#95B71E" transform="matrix(1.00, 0.00, -0.00, -1.00, 147.8, 24.0)">o</text><text xml:space="preserve" font-family="MavenProRegular" font-size="79.6" fill="#95B71E" transform="matrix(1.00, 0.00, -0.00, -1.00, 192.6, 24.0)"> </text><text xml:space="preserve" font-family="MavenProRegular" font-size="79.6" fill="#95B71E" transform="matrix(1.00, 0.00, -0.00, -1.00, 219.5, 24.0)">f</text><text xml:space="preserve" font-family="MavenProRegular" font-size="79.6" fill="#95B71E" transform="matrix(1.00, 0.00, -0.00, -1.00, 246.3, 24.0)">i</text><text xml:space="preserve" font-family="MavenProRegular" font-size="79.6" fill="#95B71E" transform="matrix(1.00, 0.00, -0.00, -1.00, 265.9, 24.0)">n</text><text xml:space="preserve" font-family="MavenProRegular" font-size="79.6" fill="#95B71E" transform="matrix(1.00, 0.00, -0.00, -1.00, 309.8, 24.0)">a</text><text xml:space="preserve" font-family="MavenProRegular" font-size="79.6" fill="#95B71E" transform="matrix(1.00, 0.00, -0.00, -1.00, 351.5, 24.0)">n</text><text xml:space="preserve" font-family="MavenProRegular" font-size="79.6" fill="#95B71E" transform="matrix(1.00, 0.00, -0.00, -1.00, 395.3, 24.0)">c</text><text xml:space="preserve" font-family="MavenProRegular" font-size="79.6" fill="#95B71E" transform="matrix(1.00, 0.00, -0.00, -1.00, 432.2, 24.0)">e</text><text xml:space="preserve" font-family="MavenProRegular" font-size="79.6" fill="#95B71E" transform="matrix(1.00, 0.00, -0.00, -1.00, 474.5, 24.0)">i</text><text xml:space="preserve" font-family="MavenProRegular" font-size="79.6" fill="#95B71E" transform="matrix(1.00, 0.00, -0.00, -1.00, 493.0, 24.0)">r</text><text xml:space="preserve" font-family="MavenProRegular" font-size="79.6" fill="#95B71E" transform="matrix(1.00, 0.00, -0.00, -1.00, 519.7, 24.0)">o</text></g></g></g></svg>