<?xml version="1.0" encoding="UTF-8" standalone="no"?><svg xmlns="http://www.w3.org/2000/svg" xmlns:xlink="http://www.w3.org/1999/xlink" clip-rule="evenodd" stroke-miterlimit="4.00" viewBox="0 0 579 302"><desc>SVG generated by Keynote</desc><defs></defs><g transform="matrix(1.00, 0.00, -0.00, -1.00, 0.0, 302.0)"><g><clipPath id="clip-138"><path d="M 0.7 0.9 L 304.2 0.9 L 304.2 295.3 L 0.7 295.3 Z M 0.7 0.9 "></path></clipPath><g clip-path="url(#clip-138)"><image xlink:href="8FBB61E24FA463FB2933DDA8FA528015.png" width="302.00" height="292.00" transform="matrix(1.00, 0.00, -0.00, -1.00, 1.7, 294.3)" opacity="0.50"></image><path d="M 252.7 247.2 C 308.1 193.6 308.1 106.7 252.7 53.1 C 197.3 -0.5 107.6 -0.5 52.2 53.1 C -3.1 106.7 -3.1 193.6 52.2 247.2 C 107.6 300.7 197.3 300.7 252.7 247.2 Z M 252.7 247.2 " fill="#C6C7CA"></path><path d="M 242.0 40.2 C 297.3 93.8 297.3 180.6 242.0 234.2 C 186.6 287.8 96.9 287.8 41.5 234.2 C -13.8 180.6 -13.8 93.8 41.5 40.2 C 96.9 -13.4 186.6 -13.4 242.0 40.2 Z M 242.0 40.2 " fill="none" stroke="#A8C92E" stroke-width="10.00" transform="matrix(1.00, 0.00, 0.00, -1.00, 10.7, 287.3)"></path></g></g><g><clipPath id="clip-139"><path d="M 3.8 119.3 L 305.1 119.3 L 305.1 231.1 L 3.8 231.1 Z M 3.8 119.3 "></path></clipPath><g clip-path="url(#clip-139)"><text xml:space="preserve" font-family="MavenProMedium" font-size="97.2" fill="#424242" transform="matrix(1.00, 0.00, -0.00, -1.00, 52.0, 137.0)">7</text><text xml:space="preserve" font-family="MavenProMedium" font-size="97.2" fill="#424242" transform="matrix(1.00, 0.00, -0.00, -1.00, 107.2, 137.0)">0</text><text xml:space="preserve" font-family="MavenProMedium" font-size="97.2" fill="#424242" transform="matrix(1.00, 0.00, -0.00, -1.00, 171.3, 137.0)">%</text><text xml:space="preserve" font-family="MavenProMedium" font-size="97.2" fill="#424242" transform="matrix(1.00, 0.00, -0.00, -1.00, 257.3, 137.0)"> </text></g></g><g><clipPath id="clip-140"><path d="M 277.7 210.1 L 578.9 210.1 L 578.9 302.0 L 277.7 302.0 Z M 277.7 210.1 "></path></clipPath><g clip-path="url(#clip-140)"><path d="M 0.0 81.4 C 89.0 44.2 185.9 17.0 290.7 0.0 " fill="none" stroke="#A8C92E" stroke-width="6.00" stroke-linecap="round" stroke-linejoin="round" stroke-dasharray="0.0, 18.0" transform="matrix(1.00, 0.00, 0.00, -1.00, 282.9, 296.8)"></path></g></g><g><clipPath id="clip-141"><path d="M 41.5 59.1 L 263.4 59.1 L 263.4 119.4 L 41.5 119.4 Z M 41.5 59.1 "></path></clipPath><g clip-path="url(#clip-141)"><text xml:space="preserve" font-family="MavenProMedium" font-size="21.0" fill="#5E5E5E" transform="matrix(1.00, 0.00, -0.00, -1.00, 81.0, 94.0)">d</text><text xml:space="preserve" font-family="MavenProMedium" font-size="21.0" fill="#5E5E5E" transform="matrix(1.00, 0.00, -0.00, -1.00, 92.5, 94.0)">a</text><text xml:space="preserve" font-family="MavenProMedium" font-size="21.0" fill="#5E5E5E" transform="matrix(1.00, 0.00, -0.00, -1.00, 103.6, 94.0)">s</text><text xml:space="preserve" font-family="MavenProMedium" font-size="21.0" fill="#5E5E5E" transform="matrix(1.00, 0.00, -0.00, -1.00, 112.7, 94.0)"> </text><text xml:space="preserve" font-family="MavenProMedium" font-size="21.0" fill="#5E5E5E" transform="matrix(1.00, 0.00, -0.00, -1.00, 119.8, 94.0)">p</text><text xml:space="preserve" font-family="MavenProMedium" font-size="21.0" fill="#5E5E5E" transform="matrix(1.00, 0.00, -0.00, -1.00, 131.6, 94.0)">e</text><text xml:space="preserve" font-family="MavenProMedium" font-size="21.0" fill="#5E5E5E" transform="matrix(1.00, 0.00, -0.00, -1.00, 143.2, 94.0)">s</text><text xml:space="preserve" font-family="MavenProMedium" font-size="21.0" fill="#5E5E5E" transform="matrix(1.00, 0.00, -0.00, -1.00, 152.3, 94.0)">s</text><text xml:space="preserve" font-family="MavenProMedium" font-size="21.0" fill="#5E5E5E" transform="matrix(1.00, 0.00, -0.00, -1.00, 161.4, 94.0)">o</text><text xml:space="preserve" font-family="MavenProMedium" font-size="21.0" fill="#5E5E5E" transform="matrix(1.00, 0.00, -0.00, -1.00, 173.0, 94.0)">a</text><text xml:space="preserve" font-family="MavenProMedium" font-size="21.0" fill="#5E5E5E" transform="matrix(1.00, 0.00, -0.00, -1.00, 184.1, 94.0)">s</text><text xml:space="preserve" font-family="MavenProMedium" font-size="21.0" fill="#5E5E5E" transform="matrix(1.00, 0.00, -0.00, -1.00, 193.2, 94.0)"> </text><text xml:space="preserve" font-family="MavenProMedium" font-size="21.0" fill="#5E5E5E" transform="matrix(1.00, 0.00, -0.00, -1.00, 200.3, 94.0)">d</text><text xml:space="preserve" font-family="MavenProMedium" font-size="21.0" fill="#5E5E5E" transform="matrix(1.00, 0.00, -0.00, -1.00, 211.8, 94.0)">a</text><text xml:space="preserve" font-family="MavenProMedium" font-size="21.0" fill="#5E5E5E" transform="matrix(1.00, 0.00, -0.00, -1.00, 223.0, 94.0)"> </text><text xml:space="preserve" font-family="MavenProMedium" font-size="21.0" fill="#5E5E5E" transform="matrix(1.00, 0.00, -0.00, -1.00, 84.0, 70.0)">A</text><text xml:space="preserve" font-family="MavenProMedium" font-size="21.0" fill="#5E5E5E" transform="matrix(1.00, 0.00, -0.00, -1.00, 97.6, 70.0)">m</text><text xml:space="preserve" font-family="MavenProMedium" font-size="21.0" fill="#5E5E5E" transform="matrix(1.00, 0.00, -0.00, -1.00, 116.3, 70.0)">é</text><text xml:space="preserve" font-family="MavenProMedium" font-size="21.0" fill="#5E5E5E" transform="matrix(1.00, 0.00, -0.00, -1.00, 127.6, 70.0)">r</text><text xml:space="preserve" font-family="MavenProMedium" font-size="21.0" fill="#5E5E5E" transform="matrix(1.00, 0.00, -0.00, -1.00, 134.6, 70.0)">i</text><text xml:space="preserve" font-family="MavenProMedium" font-size="21.0" fill="#5E5E5E" transform="matrix(1.00, 0.00, -0.00, -1.00, 140.1, 70.0)">c</text><text xml:space="preserve" font-family="MavenProMedium" font-size="21.0" fill="#5E5E5E" transform="matrix(1.00, 0.00, -0.00, -1.00, 150.0, 70.0)">a</text><text xml:space="preserve" font-family="MavenProMedium" font-size="21.0" fill="#5E5E5E" transform="matrix(1.00, 0.00, -0.00, -1.00, 161.2, 70.0)"> </text><text xml:space="preserve" font-family="MavenProMedium" font-size="21.0" fill="#5E5E5E" transform="matrix(1.00, 0.00, -0.00, -1.00, 168.3, 70.0)">l</text><text xml:space="preserve" font-family="MavenProMedium" font-size="21.0" fill="#5E5E5E" transform="matrix(1.00, 0.00, -0.00, -1.00, 173.9, 70.0)">a</text><text xml:space="preserve" font-family="MavenProMedium" font-size="21.0" fill="#5E5E5E" transform="matrix(1.00, 0.00, -0.00, -1.00, 184.8, 70.0)">t</text><text xml:space="preserve" font-family="MavenProMedium" font-size="21.0" fill="#5E5E5E" transform="matrix(1.00, 0.00, -0.00, -1.00, 192.4, 70.0)">i</text><text xml:space="preserve" font-family="MavenProMedium" font-size="21.0" fill="#5E5E5E" transform="matrix(1.00, 0.00, -0.00, -1.00, 198.1, 70.0)">n</text><text xml:space="preserve" font-family="MavenProMedium" font-size="21.0" fill="#5E5E5E" transform="matrix(1.00, 0.00, -0.00, -1.00, 209.8, 70.0)">a</text></g></g></g></svg>