<?xml version="1.0" encoding="UTF-8" standalone="no"?><svg xmlns="http://www.w3.org/2000/svg" xmlns:xlink="http://www.w3.org/1999/xlink" clip-rule="evenodd" stroke-miterlimit="4.00" viewBox="0 0 1920 1080"><desc>SVG generated by Keynote</desc><defs></defs><g transform="matrix(1.00, 0.00, -0.00, -1.00, 0.0, 1080.0)"><path d="M 0.0 1080.0 L 1920.0 1080.0 L 1920.0 0.0 L 0.0 0.0 Z M 0.0 1080.0 " fill="#E4E4E6"></path><image xlink:href="../../60C7244F-A6CF-43A2-8623-674B37A5376C/assets/6587F70E07F0226EC12AD01D3AACB5AF.png" width="1541.00" height="161.00" transform="matrix(1.00, 0.00, -0.00, -1.00, 201.3, 1072.4)" opacity="0.50"></image><path d="M 208.3 1067.4 L 1735.3 1067.4 L 1735.3 920.7 L 208.3 920.7 Z M 208.3 1067.4 " fill="#251D2C"></path><path d="M 0.0 0.0 L 1527.0 0.0 L 1527.0 146.7 L 0.0 146.7 Z M 0.0 0.0 " fill="none" stroke="#FEFFFF" stroke-width="6.00" transform="matrix(1.00, 0.00, 0.00, -1.00, 208.3, 1067.4)"></path><path d="M 208.9 916.0 L 508.4 916.0 L 508.4 255.6 L 208.9 255.6 Z M 208.9 916.0 " fill="#2D7787"></path><path d="M 0.0 0.0 L 299.5 0.0 L 299.5 660.4 L 0.0 660.4 Z M 0.0 0.0 " fill="none" stroke="#FEFFFF" stroke-width="6.00" transform="matrix(1.00, 0.00, 0.00, -1.00, 208.9, 916.0)"></path><path d="M 515.4 915.1 L 815.5 915.1 L 815.5 584.5 L 515.4 584.5 Z M 515.4 915.1 " fill="#4695CA"></path><path d="M 0.0 0.0 L 300.1 0.0 L 300.1 330.6 L 0.0 330.6 Z M 0.0 0.0 " fill="none" stroke="#FEFFFF" stroke-width="6.00" transform="matrix(1.00, 0.00, 0.00, -1.00, 515.4, 915.1)"></path><path d="M 515.4 578.0 L 815.5 578.0 L 815.5 256.4 L 515.4 256.4 Z M 515.4 578.0 " fill="#296052"></path><path d="M 0.0 0.0 L 300.1 0.0 L 300.1 321.6 L 0.0 321.6 Z M 0.0 0.0 " fill="none" stroke="#FEFFFF" stroke-width="6.00" transform="matrix(1.00, 0.00, 0.00, -1.00, 515.4, 578.0)"></path><path d="M 821.7 917.3 L 1121.9 917.3 L 1121.9 257.0 L 821.7 257.0 Z M 821.7 917.3 " fill="#5F5A9E"></path><path d="M 0.0 0.0 L 300.1 0.0 L 300.1 660.4 L 0.0 660.4 Z M 0.0 0.0 " fill="none" stroke="#FEFFFF" stroke-width="6.00" transform="matrix(1.00, 0.00, 0.00, -1.00, 821.7, 917.3)"></path><path d="M 1433.9 916.2 L 1734.0 916.2 L 1734.0 255.4 L 1433.9 255.4 Z M 1433.9 916.2 " fill="#2F7785"></path><path d="M 0.0 0.0 L 300.1 0.0 L 300.1 660.8 L 0.0 660.8 Z M 0.0 0.0 " fill="none" stroke="#FEFFFF" stroke-width="6.00" transform="matrix(1.00, 0.00, 0.00, -1.00, 1433.9, 916.2)"></path><path d="M 1126.8 584.5 L 1427.0 584.5 L 1427.0 255.4 L 1126.8 255.4 Z M 1126.8 584.5 " fill="#4695CA"></path><path d="M 0.0 0.0 L 300.1 0.0 L 300.1 329.1 L 0.0 329.1 Z M 0.0 0.0 " fill="none" stroke="#FEFFFF" stroke-width="6.00" transform="matrix(1.00, 0.00, 0.00, -1.00, 1126.8, 584.5)"></path><path d="M 1127.9 920.7 L 1428.1 920.7 L 1428.1 590.1 L 1127.9 590.1 Z M 1127.9 920.7 " fill="#296052"></path><path d="M 0.0 0.0 L 300.1 0.0 L 300.1 330.6 L 0.0 330.6 Z M 0.0 0.0 " fill="none" stroke="#FEFFFF" stroke-width="6.00" transform="matrix(1.00, 0.00, 0.00, -1.00, 1127.9, 920.7)"></path><path d="M 207.0 250.8 L 968.8 250.8 L 968.8 15.1 L 207.0 15.1 Z M 207.0 250.8 " fill="#883238"></path><path d="M 0.0 0.0 L 761.8 0.0 L 761.8 235.6 L 0.0 235.6 Z M 0.0 0.0 " fill="none" stroke="#FEFFFF" stroke-width="6.00" transform="matrix(1.00, 0.00, 0.00, -1.00, 207.0, 250.8)"></path><path d="M 974.0 250.8 L 1735.8 250.8 L 1735.8 15.1 L 974.0 15.1 Z M 974.0 250.8 " fill="#78782F"></path><path d="M 0.0 0.0 L 761.8 0.0 L 761.8 235.6 L 0.0 235.6 Z M 0.0 0.0 " fill="none" stroke="#FEFFFF" stroke-width="6.00" transform="matrix(1.00, 0.00, 0.00, -1.00, 974.0, 250.8)"></path><text xml:space="preserve" font-family="Dosis-SemiBold" font-weight="bold" font-size="40.0" fill="#FEFFFF" transform="matrix(1.00, 0.00, -0.00, -1.00, 226.0, 849.0)">P</text><text xml:space="preserve" font-family="Dosis-SemiBold" font-weight="bold" font-size="40.0" fill="#FEFFFF" transform="matrix(1.00, 0.00, -0.00, -1.00, 247.3, 849.0)">a</text><text xml:space="preserve" font-family="Dosis-SemiBold" font-weight="bold" font-size="40.0" fill="#FEFFFF" transform="matrix(1.00, 0.00, -0.00, -1.00, 265.7, 849.0)">r</text><text xml:space="preserve" font-family="Dosis-SemiBold" font-weight="bold" font-size="40.0" fill="#FEFFFF" transform="matrix(1.00, 0.00, -0.00, -1.00, 279.6, 849.0)">c</text><text xml:space="preserve" font-family="Dosis-SemiBold" font-weight="bold" font-size="40.0" fill="#FEFFFF" transform="matrix(1.00, 0.00, -0.00, -1.00, 296.4, 849.0)">e</text><text xml:space="preserve" font-family="Dosis-SemiBold" font-weight="bold" font-size="40.0" fill="#FEFFFF" transform="matrix(1.00, 0.00, -0.00, -1.00, 315.4, 849.0)">i</text><text xml:space="preserve" font-family="Dosis-SemiBold" font-weight="bold" font-size="40.0" fill="#FEFFFF" transform="matrix(1.00, 0.00, -0.00, -1.00, 324.0, 849.0)">r</text><text xml:space="preserve" font-family="Dosis-SemiBold" font-weight="bold" font-size="40.0" fill="#FEFFFF" transform="matrix(1.00, 0.00, -0.00, -1.00, 337.9, 849.0)">o</text><text xml:space="preserve" font-family="Dosis-SemiBold" font-weight="bold" font-size="40.0" fill="#FEFFFF" transform="matrix(1.00, 0.00, -0.00, -1.00, 357.4, 849.0)">s</text><text xml:space="preserve" font-family="Dosis-SemiBold" font-weight="bold" font-size="40.0" fill="#FEFFFF" transform="matrix(1.00, 0.00, -0.00, -1.00, 373.6, 849.0)"> </text><text xml:space="preserve" font-family="Dosis-SemiBold" font-weight="bold" font-size="40.0" fill="#FEFFFF" transform="matrix(1.00, 0.00, -0.00, -1.00, 381.6, 849.0)">c</text><text xml:space="preserve" font-family="Dosis-SemiBold" font-weight="bold" font-size="40.0" fill="#FEFFFF" transform="matrix(1.00, 0.00, -0.00, -1.00, 398.6, 849.0)">h</text><text xml:space="preserve" font-family="Dosis-SemiBold" font-weight="bold" font-size="40.0" fill="#FEFFFF" transform="matrix(1.00, 0.00, -0.00, -1.00, 419.2, 849.0)">a</text><text xml:space="preserve" font-family="Dosis-SemiBold" font-weight="bold" font-size="40.0" fill="#FEFFFF" transform="matrix(1.00, 0.00, -0.00, -1.00, 437.3, 849.0)">v</text><text xml:space="preserve" font-family="Dosis-SemiBold" font-weight="bold" font-size="40.0" fill="#FEFFFF" transform="matrix(1.00, 0.00, -0.00, -1.00, 455.5, 849.0)">e</text><text xml:space="preserve" font-family="Dosis-SemiBold" font-weight="bold" font-size="34.0" fill="#FEFFFF" transform="matrix(1.00, 0.00, -0.00, -1.00, 537.0, 855.0)">A</text><text xml:space="preserve" font-family="Dosis-SemiBold" font-weight="bold" font-size="34.0" fill="#FEFFFF" transform="matrix(1.00, 0.00, -0.00, -1.00, 556.1, 855.0)">t</text><text xml:space="preserve" font-family="Dosis-SemiBold" font-weight="bold" font-size="34.0" fill="#FEFFFF" transform="matrix(1.00, 0.00, -0.00, -1.00, 567.3, 855.0)">i</text><text xml:space="preserve" font-family="Dosis-SemiBold" font-weight="bold" font-size="34.0" fill="#FEFFFF" transform="matrix(1.00, 0.00, -0.00, -1.00, 574.6, 855.0)">v</text><text xml:space="preserve" font-family="Dosis-SemiBold" font-weight="bold" font-size="34.0" fill="#FEFFFF" transform="matrix(1.00, 0.00, -0.00, -1.00, 590.2, 855.0)">i</text><text xml:space="preserve" font-family="Dosis-SemiBold" font-weight="bold" font-size="34.0" fill="#FEFFFF" transform="matrix(1.00, 0.00, -0.00, -1.00, 597.5, 855.0)">d</text><text xml:space="preserve" font-family="Dosis-SemiBold" font-weight="bold" font-size="34.0" fill="#FEFFFF" transform="matrix(1.00, 0.00, -0.00, -1.00, 614.8, 855.0)">a</text><text xml:space="preserve" font-family="Dosis-SemiBold" font-weight="bold" font-size="34.0" fill="#FEFFFF" transform="matrix(1.00, 0.00, -0.00, -1.00, 630.4, 855.0)">d</text><text xml:space="preserve" font-family="Dosis-SemiBold" font-weight="bold" font-size="34.0" fill="#FEFFFF" transform="matrix(1.00, 0.00, -0.00, -1.00, 647.6, 855.0)">e</text><text xml:space="preserve" font-family="Dosis-SemiBold" font-weight="bold" font-size="34.0" fill="#FEFFFF" transform="matrix(1.00, 0.00, -0.00, -1.00, 663.8, 855.0)">s</text><text xml:space="preserve" font-family="Dosis-SemiBold" font-weight="bold" font-size="34.0" fill="#FEFFFF" transform="matrix(1.00, 0.00, -0.00, -1.00, 677.5, 855.0)">-</text><text xml:space="preserve" font-family="Dosis-SemiBold" font-weight="bold" font-size="34.0" fill="#FEFFFF" transform="matrix(1.00, 0.00, -0.00, -1.00, 691.5, 855.0)">c</text><text xml:space="preserve" font-family="Dosis-SemiBold" font-weight="bold" font-size="34.0" fill="#FEFFFF" transform="matrix(1.00, 0.00, -0.00, -1.00, 706.0, 855.0)">h</text><text xml:space="preserve" font-family="Dosis-SemiBold" font-weight="bold" font-size="34.0" fill="#FEFFFF" transform="matrix(1.00, 0.00, -0.00, -1.00, 723.5, 855.0)">a</text><text xml:space="preserve" font-family="Dosis-SemiBold" font-weight="bold" font-size="34.0" fill="#FEFFFF" transform="matrix(1.00, 0.00, -0.00, -1.00, 738.9, 855.0)">v</text><text xml:space="preserve" font-family="Dosis-SemiBold" font-weight="bold" font-size="34.0" fill="#FEFFFF" transform="matrix(1.00, 0.00, -0.00, -1.00, 754.3, 855.0)">e</text><text xml:space="preserve" font-family="Dosis-SemiBold" font-weight="bold" font-size="40.0" fill="#FEFFFF" transform="matrix(1.00, 0.00, -0.00, -1.00, 853.0, 860.0)">P</text><text xml:space="preserve" font-family="Dosis-SemiBold" font-weight="bold" font-size="40.0" fill="#FEFFFF" transform="matrix(1.00, 0.00, -0.00, -1.00, 874.5, 860.0)">r</text><text xml:space="preserve" font-family="Dosis-SemiBold" font-weight="bold" font-size="40.0" fill="#FEFFFF" transform="matrix(1.00, 0.00, -0.00, -1.00, 888.4, 860.0)">o</text><text xml:space="preserve" font-family="Dosis-SemiBold" font-weight="bold" font-size="40.0" fill="#FEFFFF" transform="matrix(1.00, 0.00, -0.00, -1.00, 907.9, 860.0)">p</text><text xml:space="preserve" font-family="Dosis-SemiBold" font-weight="bold" font-size="40.0" fill="#FEFFFF" transform="matrix(1.00, 0.00, -0.00, -1.00, 928.2, 860.0)">o</text><text xml:space="preserve" font-family="Dosis-SemiBold" font-weight="bold" font-size="40.0" fill="#FEFFFF" transform="matrix(1.00, 0.00, -0.00, -1.00, 947.6, 860.0)">s</text><text xml:space="preserve" font-family="Dosis-SemiBold" font-weight="bold" font-size="40.0" fill="#FEFFFF" transform="matrix(1.00, 0.00, -0.00, -1.00, 963.8, 860.0)">t</text><text xml:space="preserve" font-family="Dosis-SemiBold" font-weight="bold" font-size="40.0" fill="#FEFFFF" transform="matrix(1.00, 0.00, -0.00, -1.00, 977.0, 860.0)">a</text><text xml:space="preserve" font-family="Dosis-SemiBold" font-weight="bold" font-size="40.0" fill="#FEFFFF" transform="matrix(1.00, 0.00, -0.00, -1.00, 995.4, 860.0)"> </text><text xml:space="preserve" font-family="Dosis-SemiBold" font-weight="bold" font-size="40.0" fill="#FEFFFF" transform="matrix(1.00, 0.00, -0.00, -1.00, 1003.4, 860.0)">d</text><text xml:space="preserve" font-family="Dosis-SemiBold" font-weight="bold" font-size="40.0" fill="#FEFFFF" transform="matrix(1.00, 0.00, -0.00, -1.00, 1023.6, 860.0)">e</text><text xml:space="preserve" font-family="Dosis-SemiBold" font-weight="bold" font-size="40.0" fill="#FEFFFF" transform="matrix(1.00, 0.00, -0.00, -1.00, 1042.6, 860.0)"> </text><text xml:space="preserve" font-family="Dosis-SemiBold" font-weight="bold" font-size="40.0" fill="#FEFFFF" transform="matrix(1.00, 0.00, -0.00, -1.00, 853.0, 810.0)">v</text><text xml:space="preserve" font-family="Dosis-SemiBold" font-weight="bold" font-size="40.0" fill="#FEFFFF" transform="matrix(1.00, 0.00, -0.00, -1.00, 871.4, 810.0)">a</text><text xml:space="preserve" font-family="Dosis-SemiBold" font-weight="bold" font-size="40.0" fill="#FEFFFF" transform="matrix(1.00, 0.00, -0.00, -1.00, 889.8, 810.0)">l</text><text xml:space="preserve" font-family="Dosis-SemiBold" font-weight="bold" font-size="40.0" fill="#FEFFFF" transform="matrix(1.00, 0.00, -0.00, -1.00, 899.1, 810.0)">o</text><text xml:space="preserve" font-family="Dosis-SemiBold" font-weight="bold" font-size="40.0" fill="#FEFFFF" transform="matrix(1.00, 0.00, -0.00, -1.00, 918.6, 810.0)">r</text><text xml:space="preserve" font-family="Dosis-SemiBold" font-weight="bold" font-size="40.0" fill="#FEFFFF" transform="matrix(1.00, 0.00, -0.00, -1.00, 1149.0, 852.0)">R</text><text xml:space="preserve" font-family="Dosis-SemiBold" font-weight="bold" font-size="40.0" fill="#FEFFFF" transform="matrix(1.00, 0.00, -0.00, -1.00, 1170.8, 852.0)">e</text><text xml:space="preserve" font-family="Dosis-SemiBold" font-weight="bold" font-size="40.0" fill="#FEFFFF" transform="matrix(1.00, 0.00, -0.00, -1.00, 1189.8, 852.0)">l</text><text xml:space="preserve" font-family="Dosis-SemiBold" font-weight="bold" font-size="40.0" fill="#FEFFFF" transform="matrix(1.00, 0.00, -0.00, -1.00, 1199.1, 852.0)">a</text><text xml:space="preserve" font-family="Dosis-SemiBold" font-weight="bold" font-size="40.0" fill="#FEFFFF" transform="matrix(1.00, 0.00, -0.00, -1.00, 1217.5, 852.0)">c</text><text xml:space="preserve" font-family="Dosis-SemiBold" font-weight="bold" font-size="40.0" fill="#FEFFFF" transform="matrix(1.00, 0.00, -0.00, -1.00, 1234.5, 852.0)">i</text><text xml:space="preserve" font-family="Dosis-SemiBold" font-weight="bold" font-size="40.0" fill="#FEFFFF" transform="matrix(1.00, 0.00, -0.00, -1.00, 1243.1, 852.0)">o</text><text xml:space="preserve" font-family="Dosis-SemiBold" font-weight="bold" font-size="40.0" fill="#FEFFFF" transform="matrix(1.00, 0.00, -0.00, -1.00, 1262.6, 852.0)">n</text><text xml:space="preserve" font-family="Dosis-SemiBold" font-weight="bold" font-size="40.0" fill="#FEFFFF" transform="matrix(1.00, 0.00, -0.00, -1.00, 1283.1, 852.0)">a</text><text xml:space="preserve" font-family="Dosis-SemiBold" font-weight="bold" font-size="40.0" fill="#FEFFFF" transform="matrix(1.00, 0.00, -0.00, -1.00, 1301.5, 852.0)">m</text><text xml:space="preserve" font-family="Dosis-SemiBold" font-weight="bold" font-size="40.0" fill="#FEFFFF" transform="matrix(1.00, 0.00, -0.00, -1.00, 1333.3, 852.0)">e</text><text xml:space="preserve" font-family="Dosis-SemiBold" font-weight="bold" font-size="40.0" fill="#FEFFFF" transform="matrix(1.00, 0.00, -0.00, -1.00, 1352.2, 852.0)">n</text><text xml:space="preserve" font-family="Dosis-SemiBold" font-weight="bold" font-size="40.0" fill="#FEFFFF" transform="matrix(1.00, 0.00, -0.00, -1.00, 1372.8, 852.0)">t</text><text xml:space="preserve" font-family="Dosis-SemiBold" font-weight="bold" font-size="40.0" fill="#FEFFFF" transform="matrix(1.00, 0.00, -0.00, -1.00, 1385.6, 852.0)">o</text><text xml:space="preserve" font-family="Dosis-SemiBold" font-weight="bold" font-size="40.0" fill="#FEFFFF" transform="matrix(1.00, 0.00, -0.00, -1.00, 1405.1, 852.0)"> </text><text xml:space="preserve" font-family="Dosis-SemiBold" font-weight="bold" font-size="40.0" fill="#FEFFFF" transform="matrix(1.00, 0.00, -0.00, -1.00, 1149.0, 802.0)">c</text><text xml:space="preserve" font-family="Dosis-SemiBold" font-weight="bold" font-size="40.0" fill="#FEFFFF" transform="matrix(1.00, 0.00, -0.00, -1.00, 1166.0, 802.0)">l</text><text xml:space="preserve" font-family="Dosis-SemiBold" font-weight="bold" font-size="40.0" fill="#FEFFFF" transform="matrix(1.00, 0.00, -0.00, -1.00, 1175.4, 802.0)">i</text><text xml:space="preserve" font-family="Dosis-SemiBold" font-weight="bold" font-size="40.0" fill="#FEFFFF" transform="matrix(1.00, 0.00, -0.00, -1.00, 1184.0, 802.0)">e</text><text xml:space="preserve" font-family="Dosis-SemiBold" font-weight="bold" font-size="40.0" fill="#FEFFFF" transform="matrix(1.00, 0.00, -0.00, -1.00, 1202.9, 802.0)">n</text><text xml:space="preserve" font-family="Dosis-SemiBold" font-weight="bold" font-size="40.0" fill="#FEFFFF" transform="matrix(1.00, 0.00, -0.00, -1.00, 1223.4, 802.0)">t</text><text xml:space="preserve" font-family="Dosis-SemiBold" font-weight="bold" font-size="40.0" fill="#FEFFFF" transform="matrix(1.00, 0.00, -0.00, -1.00, 1236.3, 802.0)">e</text><text xml:space="preserve" font-family="Dosis-SemiBold" font-weight="bold" font-size="40.0" fill="#FEFFFF" transform="matrix(1.00, 0.00, -0.00, -1.00, 1465.0, 852.0)">S</text><text xml:space="preserve" font-family="Dosis-SemiBold" font-weight="bold" font-size="40.0" fill="#FEFFFF" transform="matrix(1.00, 0.00, -0.00, -1.00, 1485.5, 852.0)">e</text><text xml:space="preserve" font-family="Dosis-SemiBold" font-weight="bold" font-size="40.0" fill="#FEFFFF" transform="matrix(1.00, 0.00, -0.00, -1.00, 1504.4, 852.0)">g</text><text xml:space="preserve" font-family="Dosis-SemiBold" font-weight="bold" font-size="40.0" fill="#FEFFFF" transform="matrix(1.00, 0.00, -0.00, -1.00, 1523.0, 852.0)">m</text><text xml:space="preserve" font-family="Dosis-SemiBold" font-weight="bold" font-size="40.0" fill="#FEFFFF" transform="matrix(1.00, 0.00, -0.00, -1.00, 1554.7, 852.0)">e</text><text xml:space="preserve" font-family="Dosis-SemiBold" font-weight="bold" font-size="40.0" fill="#FEFFFF" transform="matrix(1.00, 0.00, -0.00, -1.00, 1573.7, 852.0)">n</text><text xml:space="preserve" font-family="Dosis-SemiBold" font-weight="bold" font-size="40.0" fill="#FEFFFF" transform="matrix(1.00, 0.00, -0.00, -1.00, 1594.2, 852.0)">t</text><text xml:space="preserve" font-family="Dosis-SemiBold" font-weight="bold" font-size="40.0" fill="#FEFFFF" transform="matrix(1.00, 0.00, -0.00, -1.00, 1607.1, 852.0)">o</text><text xml:space="preserve" font-family="Dosis-SemiBold" font-weight="bold" font-size="40.0" fill="#FEFFFF" transform="matrix(1.00, 0.00, -0.00, -1.00, 1626.6, 852.0)"> </text><text xml:space="preserve" font-family="Dosis-SemiBold" font-weight="bold" font-size="40.0" fill="#FEFFFF" transform="matrix(1.00, 0.00, -0.00, -1.00, 1634.6, 852.0)">d</text><text xml:space="preserve" font-family="Dosis-SemiBold" font-weight="bold" font-size="40.0" fill="#FEFFFF" transform="matrix(1.00, 0.00, -0.00, -1.00, 1654.8, 852.0)">e</text><text xml:space="preserve" font-family="Dosis-SemiBold" font-weight="bold" font-size="40.0" fill="#FEFFFF" transform="matrix(1.00, 0.00, -0.00, -1.00, 1673.8, 852.0)"> </text><text xml:space="preserve" font-family="Dosis-SemiBold" font-weight="bold" font-size="40.0" fill="#FEFFFF" transform="matrix(1.00, 0.00, -0.00, -1.00, 1465.0, 802.0)">c</text><text xml:space="preserve" font-family="Dosis-SemiBold" font-weight="bold" font-size="40.0" fill="#FEFFFF" transform="matrix(1.00, 0.00, -0.00, -1.00, 1482.0, 802.0)">l</text><text xml:space="preserve" font-family="Dosis-SemiBold" font-weight="bold" font-size="40.0" fill="#FEFFFF" transform="matrix(1.00, 0.00, -0.00, -1.00, 1491.4, 802.0)">i</text><text xml:space="preserve" font-family="Dosis-SemiBold" font-weight="bold" font-size="40.0" fill="#FEFFFF" transform="matrix(1.00, 0.00, -0.00, -1.00, 1500.0, 802.0)">e</text><text xml:space="preserve" font-family="Dosis-SemiBold" font-weight="bold" font-size="40.0" fill="#FEFFFF" transform="matrix(1.00, 0.00, -0.00, -1.00, 1518.9, 802.0)">n</text><text xml:space="preserve" font-family="Dosis-SemiBold" font-weight="bold" font-size="40.0" fill="#FEFFFF" transform="matrix(1.00, 0.00, -0.00, -1.00, 1539.4, 802.0)">t</text><text xml:space="preserve" font-family="Dosis-SemiBold" font-weight="bold" font-size="40.0" fill="#FEFFFF" transform="matrix(1.00, 0.00, -0.00, -1.00, 1552.3, 802.0)">e</text><text xml:space="preserve" font-family="Dosis-SemiBold" font-weight="bold" font-size="40.0" fill="#FEFFFF" transform="matrix(1.00, 0.00, -0.00, -1.00, 1571.3, 802.0)">s</text><text xml:space="preserve" font-family="Dosis-SemiBold" font-weight="bold" font-size="40.0" fill="#FEFFFF" transform="matrix(1.00, 0.00, -0.00, -1.00, 1149.0, 529.0)">C</text><text xml:space="preserve" font-family="Dosis-SemiBold" font-weight="bold" font-size="40.0" fill="#FEFFFF" transform="matrix(1.00, 0.00, -0.00, -1.00, 1170.6, 529.0)">a</text><text xml:space="preserve" font-family="Dosis-SemiBold" font-weight="bold" font-size="40.0" fill="#FEFFFF" transform="matrix(1.00, 0.00, -0.00, -1.00, 1189.0, 529.0)">n</text><text xml:space="preserve" font-family="Dosis-SemiBold" font-weight="bold" font-size="40.0" fill="#FEFFFF" transform="matrix(1.00, 0.00, -0.00, -1.00, 1209.6, 529.0)">a</text><text xml:space="preserve" font-family="Dosis-SemiBold" font-weight="bold" font-size="40.0" fill="#FEFFFF" transform="matrix(1.00, 0.00, -0.00, -1.00, 1228.0, 529.0)">i</text><text xml:space="preserve" font-family="Dosis-SemiBold" font-weight="bold" font-size="40.0" fill="#FEFFFF" transform="matrix(1.00, 0.00, -0.00, -1.00, 1236.6, 529.0)">s</text><text xml:space="preserve" font-family="Dosis-SemiBold" font-weight="bold" font-size="40.0" fill="#FEFFFF" transform="matrix(1.00, 0.00, -0.00, -1.00, 537.0, 509.0)">R</text><text xml:space="preserve" font-family="Dosis-SemiBold" font-weight="bold" font-size="40.0" fill="#FEFFFF" transform="matrix(1.00, 0.00, -0.00, -1.00, 558.8, 509.0)">e</text><text xml:space="preserve" font-family="Dosis-SemiBold" font-weight="bold" font-size="40.0" fill="#FEFFFF" transform="matrix(1.00, 0.00, -0.00, -1.00, 577.8, 509.0)">c</text><text xml:space="preserve" font-family="Dosis-SemiBold" font-weight="bold" font-size="40.0" fill="#FEFFFF" transform="matrix(1.00, 0.00, -0.00, -1.00, 594.8, 509.0)">u</text><text xml:space="preserve" font-family="Dosis-SemiBold" font-weight="bold" font-size="40.0" fill="#FEFFFF" transform="matrix(1.00, 0.00, -0.00, -1.00, 615.4, 509.0)">r</text><text xml:space="preserve" font-family="Dosis-SemiBold" font-weight="bold" font-size="40.0" fill="#FEFFFF" transform="matrix(1.00, 0.00, -0.00, -1.00, 629.8, 509.0)">s</text><text xml:space="preserve" font-family="Dosis-SemiBold" font-weight="bold" font-size="40.0" fill="#FEFFFF" transform="matrix(1.00, 0.00, -0.00, -1.00, 646.0, 509.0)">o</text><text xml:space="preserve" font-family="Dosis-SemiBold" font-weight="bold" font-size="40.0" fill="#FEFFFF" transform="matrix(1.00, 0.00, -0.00, -1.00, 665.4, 509.0)">s</text><text xml:space="preserve" font-family="Dosis-SemiBold" font-weight="bold" font-size="40.0" fill="#FEFFFF" transform="matrix(1.00, 0.00, -0.00, -1.00, 681.6, 509.0)">-</text><text xml:space="preserve" font-family="Dosis-SemiBold" font-weight="bold" font-size="40.0" fill="#FEFFFF" transform="matrix(1.00, 0.00, -0.00, -1.00, 537.0, 459.0)">c</text><text xml:space="preserve" font-family="Dosis-SemiBold" font-weight="bold" font-size="40.0" fill="#FEFFFF" transform="matrix(1.00, 0.00, -0.00, -1.00, 554.0, 459.0)">h</text><text xml:space="preserve" font-family="Dosis-SemiBold" font-weight="bold" font-size="40.0" fill="#FEFFFF" transform="matrix(1.00, 0.00, -0.00, -1.00, 574.6, 459.0)">a</text><text xml:space="preserve" font-family="Dosis-SemiBold" font-weight="bold" font-size="40.0" fill="#FEFFFF" transform="matrix(1.00, 0.00, -0.00, -1.00, 592.7, 459.0)">v</text><text xml:space="preserve" font-family="Dosis-SemiBold" font-weight="bold" font-size="40.0" fill="#FEFFFF" transform="matrix(1.00, 0.00, -0.00, -1.00, 610.9, 459.0)">e</text><text xml:space="preserve" font-family="Dosis-SemiBold" font-weight="bold" font-size="40.0" fill="#FEFFFF" transform="matrix(1.00, 0.00, -0.00, -1.00, 239.0, 185.0)">E</text><text xml:space="preserve" font-family="Dosis-SemiBold" font-weight="bold" font-size="40.0" fill="#FEFFFF" transform="matrix(1.00, 0.00, -0.00, -1.00, 259.9, 185.0)">s</text><text xml:space="preserve" font-family="Dosis-SemiBold" font-weight="bold" font-size="40.0" fill="#FEFFFF" transform="matrix(1.00, 0.00, -0.00, -1.00, 276.1, 185.0)">t</text><text xml:space="preserve" font-family="Dosis-SemiBold" font-weight="bold" font-size="40.0" fill="#FEFFFF" transform="matrix(1.00, 0.00, -0.00, -1.00, 289.2, 185.0)">r</text><text xml:space="preserve" font-family="Dosis-SemiBold" font-weight="bold" font-size="40.0" fill="#FEFFFF" transform="matrix(1.00, 0.00, -0.00, -1.00, 303.6, 185.0)">u</text><text xml:space="preserve" font-family="Dosis-SemiBold" font-weight="bold" font-size="40.0" fill="#FEFFFF" transform="matrix(1.00, 0.00, -0.00, -1.00, 324.2, 185.0)">t</text><text xml:space="preserve" font-family="Dosis-SemiBold" font-weight="bold" font-size="40.0" fill="#FEFFFF" transform="matrix(1.00, 0.00, -0.00, -1.00, 337.4, 185.0)">u</text><text xml:space="preserve" font-family="Dosis-SemiBold" font-weight="bold" font-size="40.0" fill="#FEFFFF" transform="matrix(1.00, 0.00, -0.00, -1.00, 358.0, 185.0)">r</text><text xml:space="preserve" font-family="Dosis-SemiBold" font-weight="bold" font-size="40.0" fill="#FEFFFF" transform="matrix(1.00, 0.00, -0.00, -1.00, 372.4, 185.0)">a</text><text xml:space="preserve" font-family="Dosis-SemiBold" font-weight="bold" font-size="40.0" fill="#FEFFFF" transform="matrix(1.00, 0.00, -0.00, -1.00, 390.8, 185.0)"> </text><text xml:space="preserve" font-family="Dosis-SemiBold" font-weight="bold" font-size="40.0" fill="#FEFFFF" transform="matrix(1.00, 0.00, -0.00, -1.00, 398.8, 185.0)">d</text><text xml:space="preserve" font-family="Dosis-SemiBold" font-weight="bold" font-size="40.0" fill="#FEFFFF" transform="matrix(1.00, 0.00, -0.00, -1.00, 419.1, 185.0)">e</text><text xml:space="preserve" font-family="Dosis-SemiBold" font-weight="bold" font-size="40.0" fill="#FEFFFF" transform="matrix(1.00, 0.00, -0.00, -1.00, 438.0, 185.0)"> </text><text xml:space="preserve" font-family="Dosis-SemiBold" font-weight="bold" font-size="40.0" fill="#FEFFFF" transform="matrix(1.00, 0.00, -0.00, -1.00, 239.0, 135.0)">c</text><text xml:space="preserve" font-family="Dosis-SemiBold" font-weight="bold" font-size="40.0" fill="#FEFFFF" transform="matrix(1.00, 0.00, -0.00, -1.00, 256.0, 135.0)">u</text><text xml:space="preserve" font-family="Dosis-SemiBold" font-weight="bold" font-size="40.0" fill="#FEFFFF" transform="matrix(1.00, 0.00, -0.00, -1.00, 276.6, 135.0)">s</text><text xml:space="preserve" font-family="Dosis-SemiBold" font-weight="bold" font-size="40.0" fill="#FEFFFF" transform="matrix(1.00, 0.00, -0.00, -1.00, 292.8, 135.0)">t</text><text xml:space="preserve" font-family="Dosis-SemiBold" font-weight="bold" font-size="40.0" fill="#FEFFFF" transform="matrix(1.00, 0.00, -0.00, -1.00, 305.7, 135.0)">o</text><text xml:space="preserve" font-family="Dosis-SemiBold" font-weight="bold" font-size="40.0" fill="#FEFFFF" transform="matrix(1.00, 0.00, -0.00, -1.00, 325.2, 135.0)">s</text><text xml:space="preserve" font-family="Dosis-SemiBold" font-weight="bold" font-size="40.0" fill="#FEFFFF" transform="matrix(1.00, 0.00, -0.00, -1.00, 1007.0, 185.0)">F</text><text xml:space="preserve" font-family="Dosis-SemiBold" font-weight="bold" font-size="40.0" fill="#FEFFFF" transform="matrix(1.00, 0.00, -0.00, -1.00, 1023.1, 185.0)">o</text><text xml:space="preserve" font-family="Dosis-SemiBold" font-weight="bold" font-size="40.0" fill="#FEFFFF" transform="matrix(1.00, 0.00, -0.00, -1.00, 1042.6, 185.0)">n</text><text xml:space="preserve" font-family="Dosis-SemiBold" font-weight="bold" font-size="40.0" fill="#FEFFFF" transform="matrix(1.00, 0.00, -0.00, -1.00, 1063.1, 185.0)">t</text><text xml:space="preserve" font-family="Dosis-SemiBold" font-weight="bold" font-size="40.0" fill="#FEFFFF" transform="matrix(1.00, 0.00, -0.00, -1.00, 1076.0, 185.0)">e</text><text xml:space="preserve" font-family="Dosis-SemiBold" font-weight="bold" font-size="40.0" fill="#FEFFFF" transform="matrix(1.00, 0.00, -0.00, -1.00, 1094.9, 185.0)">s</text><text xml:space="preserve" font-family="Dosis-SemiBold" font-weight="bold" font-size="40.0" fill="#FEFFFF" transform="matrix(1.00, 0.00, -0.00, -1.00, 1111.1, 185.0)"> </text><text xml:space="preserve" font-family="Dosis-SemiBold" font-weight="bold" font-size="40.0" fill="#FEFFFF" transform="matrix(1.00, 0.00, -0.00, -1.00, 1119.1, 185.0)">d</text><text xml:space="preserve" font-family="Dosis-SemiBold" font-weight="bold" font-size="40.0" fill="#FEFFFF" transform="matrix(1.00, 0.00, -0.00, -1.00, 1139.4, 185.0)">e</text><text xml:space="preserve" font-family="Dosis-SemiBold" font-weight="bold" font-size="40.0" fill="#FEFFFF" transform="matrix(1.00, 0.00, -0.00, -1.00, 1158.3, 185.0)"> </text><text xml:space="preserve" font-family="Dosis-SemiBold" font-weight="bold" font-size="40.0" fill="#FEFFFF" transform="matrix(1.00, 0.00, -0.00, -1.00, 1007.0, 135.0)">r</text><text xml:space="preserve" font-family="Dosis-SemiBold" font-weight="bold" font-size="40.0" fill="#FEFFFF" transform="matrix(1.00, 0.00, -0.00, -1.00, 1020.9, 135.0)">e</text><text xml:space="preserve" font-family="Dosis-SemiBold" font-weight="bold" font-size="40.0" fill="#FEFFFF" transform="matrix(1.00, 0.00, -0.00, -1.00, 1039.9, 135.0)">c</text><text xml:space="preserve" font-family="Dosis-SemiBold" font-weight="bold" font-size="40.0" fill="#FEFFFF" transform="matrix(1.00, 0.00, -0.00, -1.00, 1056.7, 135.0)">e</text><text xml:space="preserve" font-family="Dosis-SemiBold" font-weight="bold" font-size="40.0" fill="#FEFFFF" transform="matrix(1.00, 0.00, -0.00, -1.00, 1075.7, 135.0)">i</text><text xml:space="preserve" font-family="Dosis-SemiBold" font-weight="bold" font-size="40.0" fill="#FEFFFF" transform="matrix(1.00, 0.00, -0.00, -1.00, 1084.3, 135.0)">t</text><text xml:space="preserve" font-family="Dosis-SemiBold" font-weight="bold" font-size="40.0" fill="#FEFFFF" transform="matrix(1.00, 0.00, -0.00, -1.00, 1097.4, 135.0)">a</text><g><clipPath id="clip-287"><path d="M 223.2 955.5 L 1046.6 955.5 L 1046.6 1032.3 L 223.2 1032.3 Z M 223.2 955.5 "></path></clipPath><g clip-path="url(#clip-287)"><text xml:space="preserve" font-family="MavenProRegular" font-size="65.5" fill="#B7DF2E" transform="matrix(1.00, 0.00, -0.00, -1.00, 242.0, 969.0)">b</text><text xml:space="preserve" font-family="MavenProRegular" font-size="65.5" fill="#B7DF2E" transform="matrix(1.00, 0.00, -0.00, -1.00, 277.9, 969.0)">u</text><text xml:space="preserve" font-family="MavenProRegular" font-size="65.5" fill="#B7DF2E" transform="matrix(1.00, 0.00, -0.00, -1.00, 315.1, 969.0)">s</text><text xml:space="preserve" font-family="MavenProRegular" font-size="65.5" fill="#B7DF2E" transform="matrix(1.00, 0.00, -0.00, -1.00, 342.0, 969.0)">i</text><text xml:space="preserve" font-family="MavenProRegular" font-size="65.5" fill="#B7DF2E" transform="matrix(1.00, 0.00, -0.00, -1.00, 358.2, 969.0)">n</text><text xml:space="preserve" font-family="MavenProRegular" font-size="65.5" fill="#B7DF2E" transform="matrix(1.00, 0.00, -0.00, -1.00, 394.4, 969.0)">e</text><text xml:space="preserve" font-family="MavenProRegular" font-size="65.5" fill="#B7DF2E" transform="matrix(1.00, 0.00, -0.00, -1.00, 430.5, 969.0)">s</text><text xml:space="preserve" font-family="MavenProRegular" font-size="65.5" fill="#B7DF2E" transform="matrix(1.00, 0.00, -0.00, -1.00, 458.3, 969.0)">s</text><text xml:space="preserve" font-family="MavenProRegular" font-size="65.5" fill="#B7DF2E" transform="matrix(1.00, 0.00, -0.00, -1.00, 486.2, 969.0)"> </text><text xml:space="preserve" font-family="MavenProRegular" font-size="65.5" fill="#B7DF2E" transform="matrix(1.00, 0.00, -0.00, -1.00, 508.3, 969.0)">m</text><text xml:space="preserve" font-family="MavenProRegular" font-size="65.5" fill="#B7DF2E" transform="matrix(1.00, 0.00, -0.00, -1.00, 565.5, 969.0)">o</text><text xml:space="preserve" font-family="MavenProRegular" font-size="65.5" fill="#B7DF2E" transform="matrix(1.00, 0.00, -0.00, -1.00, 601.7, 969.0)">d</text><text xml:space="preserve" font-family="MavenProRegular" font-size="65.5" fill="#B7DF2E" transform="matrix(1.00, 0.00, -0.00, -1.00, 637.2, 969.0)">e</text><text xml:space="preserve" font-family="MavenProRegular" font-size="65.5" fill="#B7DF2E" transform="matrix(1.00, 0.00, -0.00, -1.00, 670.9, 969.0)">l</text><text xml:space="preserve" font-family="MavenProRegular" font-size="65.5" fill="#B7DF2E" transform="matrix(1.00, 0.00, -0.00, -1.00, 688.5, 969.0)"> </text><text xml:space="preserve" font-family="MavenProRegular" font-size="65.5" fill="#B7DF2E" transform="matrix(1.00, 0.00, -0.00, -1.00, 710.7, 969.0)">c</text><text xml:space="preserve" font-family="MavenProRegular" font-size="65.5" fill="#B7DF2E" transform="matrix(1.00, 0.00, -0.00, -1.00, 741.7, 969.0)">a</text><text xml:space="preserve" font-family="MavenProRegular" font-size="65.5" fill="#B7DF2E" transform="matrix(1.00, 0.00, -0.00, -1.00, 776.1, 969.0)">n</text><text xml:space="preserve" font-family="MavenProRegular" font-size="65.5" fill="#B7DF2E" transform="matrix(1.00, 0.00, -0.00, -1.00, 812.3, 969.0)">v</text><text xml:space="preserve" font-family="MavenProRegular" font-size="65.5" fill="#B7DF2E" transform="matrix(1.00, 0.00, -0.00, -1.00, 844.3, 969.0)">a</text><text xml:space="preserve" font-family="MavenProRegular" font-size="65.5" fill="#B7DF2E" transform="matrix(1.00, 0.00, -0.00, -1.00, 878.9, 969.0)">s</text></g></g><g><clipPath id="clip-288"><path d="M 1529.2 883.4 L 1778.0 883.4 L 1778.0 1035.4 L 1529.2 1035.4 Z M 1529.2 883.4 "></path></clipPath><g clip-path="url(#clip-288)"><image xlink:href="../../60C7244F-A6CF-43A2-8623-674B37A5376C/assets/CD8BA377148DF0569B275EA2E676A86C.png" width="247.00" height="150.00" transform="matrix(1.00, 0.00, -0.00, -1.00, 1530.2, 1034.4)" opacity="0.75"></image><path d="M 1656.0 965.3 C 1657.3 963.9 1657.3 961.7 1656.0 960.4 C 1654.7 959.0 1652.5 959.0 1651.2 960.4 C 1649.9 961.7 1649.9 963.9 1651.2 965.3 C 1652.5 966.7 1654.7 966.7 1656.0 965.3 Z M 1656.0 965.3 " fill="#B14370"></path></g></g><g><clipPath id="clip-289"><path d="M 1540.1 881.3 L 1788.9 881.3 L 1788.9 1033.3 L 1540.1 1033.3 Z M 1540.1 881.3 "></path></clipPath><g clip-path="url(#clip-289)"><image xlink:href="../../60C7244F-A6CF-43A2-8623-674B37A5376C/assets/CD8BA377148DF0569B275EA2E676A86C.png" width="247.00" height="150.00" transform="matrix(1.00, 0.00, -0.00, -1.00, 1541.1, 1032.3)" opacity="0.75"></image><path d="M 1666.9 963.2 C 1668.2 961.9 1668.2 959.6 1666.9 958.3 C 1665.5 956.9 1663.4 956.9 1662.1 958.3 C 1660.7 959.6 1660.7 961.9 1662.1 963.2 C 1663.4 964.6 1665.5 964.6 1666.9 963.2 Z M 1666.9 963.2 " fill="#B14370"></path></g></g><g><clipPath id="clip-290"><path d="M 1519.2 888.1 L 1768.0 888.1 L 1768.0 1040.1 L 1519.2 1040.1 Z M 1519.2 888.1 "></path></clipPath><g clip-path="url(#clip-290)"><image xlink:href="../../60C7244F-A6CF-43A2-8623-674B37A5376C/assets/CD8BA377148DF0569B275EA2E676A86C.png" width="247.00" height="150.00" transform="matrix(1.00, 0.00, -0.00, -1.00, 1520.2, 1039.1)" opacity="0.75"></image><path d="M 1646.0 970.0 C 1647.4 968.7 1647.4 966.5 1646.0 965.1 C 1644.7 963.7 1642.5 963.7 1641.2 965.1 C 1639.9 966.5 1639.9 968.7 1641.2 970.0 C 1642.5 971.4 1644.7 971.4 1646.0 970.0 Z M 1646.0 970.0 " fill="#B14370"></path></g></g><g><clipPath id="clip-291"><path d="M 1510.5 893.5 L 1759.3 893.5 L 1759.3 1045.5 L 1510.5 1045.5 Z M 1510.5 893.5 "></path></clipPath><g clip-path="url(#clip-291)"><image xlink:href="../../60C7244F-A6CF-43A2-8623-674B37A5376C/assets/CD8BA377148DF0569B275EA2E676A86C.png" width="247.00" height="150.00" transform="matrix(1.00, 0.00, -0.00, -1.00, 1511.5, 1044.5)" opacity="0.75"></image><path d="M 1637.3 975.5 C 1638.7 974.1 1638.7 971.9 1637.3 970.5 C 1636.0 969.2 1633.8 969.2 1632.5 970.5 C 1631.2 971.9 1631.2 974.1 1632.5 975.5 C 1633.8 976.8 1636.0 976.8 1637.3 975.5 Z M 1637.3 975.5 " fill="#B14370"></path></g></g><g><clipPath id="clip-292"><path d="M 1550.9 882.4 L 1799.7 882.4 L 1799.7 1034.4 L 1550.9 1034.4 Z M 1550.9 882.4 "></path></clipPath><g clip-path="url(#clip-292)"><image xlink:href="../../60C7244F-A6CF-43A2-8623-674B37A5376C/assets/CD8BA377148DF0569B275EA2E676A86C.png" width="247.00" height="150.00" transform="matrix(1.00, 0.00, -0.00, -1.00, 1551.9, 1033.4)" opacity="0.75"></image><path d="M 1677.7 964.3 C 1679.0 962.9 1679.0 960.7 1677.7 959.4 C 1676.3 958.0 1674.2 958.0 1672.9 959.4 C 1671.5 960.7 1671.5 962.9 1672.9 964.3 C 1674.2 965.7 1676.3 965.7 1677.7 964.3 Z M 1677.7 964.3 " fill="#B14370"></path></g></g><g><clipPath id="clip-293"><path d="M 1560.4 886.1 L 1809.9 886.1 L 1809.9 1038.1 L 1560.4 1038.1 Z M 1560.4 886.1 "></path></clipPath><g clip-path="url(#clip-293)"><image xlink:href="../../60C7244F-A6CF-43A2-8623-674B37A5376C/assets/FF9A2A01E7AF1D7F3D1A2C0C22D03576.png" width="248.00" height="150.00" transform="matrix(1.00, 0.00, -0.00, -1.00, 1561.4, 1037.1)" opacity="0.75"></image><path d="M 1687.8 968.7 C 1689.3 967.2 1689.3 964.7 1687.8 963.2 C 1686.3 961.7 1684.0 961.7 1682.5 963.2 C 1681.0 964.7 1681.0 967.2 1682.5 968.7 C 1684.0 970.2 1686.3 970.2 1687.8 968.7 Z M 1687.8 968.7 " fill="#B14370"></path></g></g><g><clipPath id="clip-294"><path d="M 1617.9 965.6 L 1633.1 965.6 L 1633.1 980.9 L 1617.9 980.9 Z M 1617.9 965.6 "></path></clipPath><g clip-path="url(#clip-294)"><image xlink:href="../../60C7244F-A6CF-43A2-8623-674B37A5376C/assets/4FCECB0915CE281FB518767B8D38FABD.png" width="13.00" height="13.00" transform="matrix(1.01, 0.00, -0.00, -1.03, 1618.9, 979.9)" opacity="0.50"></image><path d="M 1627.3 977.2 C 1628.3 976.1 1628.3 974.4 1627.3 973.4 C 1626.3 972.3 1624.6 972.3 1623.6 973.4 C 1622.6 974.4 1622.6 976.1 1623.6 977.2 C 1624.6 978.2 1626.3 978.2 1627.3 977.2 Z M 1627.3 977.2 " fill="#B14370"></path></g></g><g><clipPath id="clip-295"><path d="M 1496.1 891.1 L 1743.2 891.1 L 1743.2 1043.1 L 1496.1 1043.1 Z M 1496.1 891.1 "></path></clipPath><g clip-path="url(#clip-295)"><image xlink:href="../../60C7244F-A6CF-43A2-8623-674B37A5376C/assets/D6E7E541FA3990BEA85D85F4F44298CC.png" width="246.00" height="150.00" transform="matrix(1.00, 0.00, -0.00, -1.00, 1497.1, 1042.1)" opacity="0.75"></image><path d="M 1621.5 971.6 C 1622.5 970.6 1622.5 968.9 1621.5 967.8 C 1620.5 966.8 1618.8 966.8 1617.8 967.8 C 1616.8 968.9 1616.8 970.6 1617.8 971.6 C 1618.8 972.7 1620.5 972.7 1621.5 971.6 Z M 1621.5 971.6 " fill="#B14370"></path></g></g><g><clipPath id="clip-296"><path d="M 1567.3 894.1 L 1817.0 894.1 L 1817.0 1046.1 L 1567.3 1046.1 Z M 1567.3 894.1 "></path></clipPath><g clip-path="url(#clip-296)"><image xlink:href="../../60C7244F-A6CF-43A2-8623-674B37A5376C/assets/56A40EC7969CD857C720702CBC0F351D.png" width="248.00" height="150.00" transform="matrix(1.00, 0.00, -0.00, -1.00, 1568.3, 1045.1)" opacity="0.75"></image><path d="M 1694.9 976.8 C 1696.4 975.3 1696.4 972.8 1694.9 971.2 C 1693.4 969.7 1690.9 969.7 1689.4 971.2 C 1687.9 972.8 1687.9 975.3 1689.4 976.8 C 1690.9 978.3 1693.4 978.3 1694.9 976.8 Z M 1694.9 976.8 " fill="#B14370"></path></g></g><g><clipPath id="clip-297"><path d="M 1497.7 883.3 L 1744.2 883.3 L 1744.2 1035.3 L 1497.7 1035.3 Z M 1497.7 883.3 "></path></clipPath><g clip-path="url(#clip-297)"><image xlink:href="../../60C7244F-A6CF-43A2-8623-674B37A5376C/assets/D32A9A795175A4A38CF396FC498C8618.png" width="245.00" height="150.00" transform="matrix(1.00, 0.00, -0.00, -1.00, 1498.7, 1034.3)" opacity="0.75"></image><path d="M 1622.5 963.4 C 1623.4 962.4 1623.4 960.9 1622.5 960.0 C 1621.7 959.1 1620.2 959.1 1619.3 960.0 C 1618.4 960.9 1618.4 962.4 1619.3 963.4 C 1620.2 964.3 1621.7 964.3 1622.5 963.4 Z M 1622.5 963.4 " fill="#B14370"></path></g></g><g><clipPath id="clip-298"><path d="M 1504.4 880.7 L 1750.9 880.7 L 1750.9 1032.7 L 1504.4 1032.7 Z M 1504.4 880.7 "></path></clipPath><g clip-path="url(#clip-298)"><image xlink:href="../../60C7244F-A6CF-43A2-8623-674B37A5376C/assets/D32A9A795175A4A38CF396FC498C8618.png" width="245.00" height="150.00" transform="matrix(1.00, 0.00, -0.00, -1.00, 1505.4, 1031.7)" opacity="0.75"></image><path d="M 1629.2 960.7 C 1630.1 959.8 1630.1 958.3 1629.2 957.3 C 1628.4 956.4 1626.9 956.4 1626.0 957.3 C 1625.1 958.3 1625.1 959.8 1626.0 960.7 C 1626.9 961.6 1628.4 961.6 1629.2 960.7 Z M 1629.2 960.7 " fill="#B14370"></path></g></g><g><clipPath id="clip-299"><path d="M 1461.8 957.3 L 1728.0 957.3 L 1728.0 1069.7 L 1461.8 1069.7 Z M 1461.8 957.3 "></path></clipPath><g clip-path="url(#clip-299)"><image xlink:href="../../60C7244F-A6CF-43A2-8623-674B37A5376C/assets/20B3094AD924A23985C7110EBFE0B70A.png" width="264.00" height="110.00" transform="matrix(1.00, 0.00, -0.00, -1.00, 1462.8, 1068.7)" opacity="0.50"></image></g></g><g><clipPath id="clip-300"><path d="M 1449.8 971.5 L 1740.0 971.5 L 1740.0 1062.3 L 1449.8 1062.3 Z M 1449.8 971.5 "></path></clipPath><g clip-path="url(#clip-300)"><text xml:space="preserve" font-family="MavenProMedium" font-size="77.1" fill="#B7E02E" transform="matrix(1.00, 0.00, -0.00, -1.00, 1499.0, 987.0)">p</text><text xml:space="preserve" font-family="MavenProMedium" font-size="77.1" fill="#B7E02E" transform="matrix(1.00, 0.00, -0.00, -1.00, 1542.5, 987.0)">o</text><text xml:space="preserve" font-family="MavenProMedium" font-size="77.1" fill="#B7E02E" transform="matrix(1.00, 0.00, -0.00, -1.00, 1584.8, 987.0)">l</text><text xml:space="preserve" font-family="MavenProMedium" font-size="77.1" fill="#B7E02E" transform="matrix(1.00, 0.00, -0.00, -1.00, 1606.7, 987.0)">v</text><text xml:space="preserve" font-family="MavenProMedium" font-size="77.1" fill="#B7E02E" transform="matrix(1.00, 0.00, -0.00, -1.00, 1646.8, 987.0)">o</text></g></g><text xml:space="preserve" font-family="Dosis-Regular" font-size="40.0" fill="#FEFFFF" transform="matrix(1.00, 0.00, -0.00, -1.00, 226.0, 767.0)">-</text><text xml:space="preserve" font-family="Dosis-Regular" font-size="40.0" fill="#FEFFFF" transform="matrix(1.00, 0.00, -0.00, -1.00, 242.5, 767.0)"> </text></g></svg>