<?xml version="1.0" encoding="UTF-8" standalone="no"?><svg xmlns="http://www.w3.org/2000/svg" xmlns:xlink="http://www.w3.org/1999/xlink" clip-rule="evenodd" stroke-miterlimit="4.00" viewBox="0 0 1920 1080"><desc>SVG generated by Keynote</desc><defs></defs><g transform="matrix(1.00, 0.00, -0.00, -1.00, 0.0, 1080.0)"><path d="M 0.0 1080.0 L 1920.0 1080.0 L 1920.0 0.0 L 0.0 0.0 Z M 0.0 1080.0 " fill="#241D2B"></path><image xlink:href="../../3D7589F3-5D02-4E60-9521-9749A54F339A/assets/447AED56B0B57759D50D5C82BB2AC7A6.png" width="339.00" height="80.00" transform="matrix(1.00, 0.00, -0.00, -1.00, 60.0, 863.0)"></image><text xml:space="preserve" font-family="Dosis-Regular" font-size="89.5" fill="#FEFFFF" transform="matrix(1.00, 0.00, -0.00, -1.00, 64.0, 796.0)">e</text><text xml:space="preserve" font-family="Dosis-Regular" font-size="89.5" fill="#FEFFFF" transform="matrix(1.00, 0.00, -0.00, -1.00, 105.0, 796.0)">c</text><text xml:space="preserve" font-family="Dosis-Regular" font-size="89.5" fill="#FEFFFF" transform="matrix(1.00, 0.00, -0.00, -1.00, 141.3, 796.0)">o</text><text xml:space="preserve" font-family="Dosis-Regular" font-size="89.5" fill="#FEFFFF" transform="matrix(1.00, 0.00, -0.00, -1.00, 183.2, 796.0)">n</text><text xml:space="preserve" font-family="Dosis-Regular" font-size="89.5" fill="#FEFFFF" transform="matrix(1.00, 0.00, -0.00, -1.00, 227.6, 796.0)">o</text><text xml:space="preserve" font-family="Dosis-Regular" font-size="89.5" fill="#FEFFFF" transform="matrix(1.00, 0.00, -0.00, -1.00, 269.5, 796.0)">m</text><text xml:space="preserve" font-family="Dosis-Regular" font-size="89.5" fill="#FEFFFF" transform="matrix(1.00, 0.00, -0.00, -1.00, 339.3, 796.0)">i</text><text xml:space="preserve" font-family="Dosis-Regular" font-size="89.5" fill="#FEFFFF" transform="matrix(1.00, 0.00, -0.00, -1.00, 356.4, 796.0)">a</text><text xml:space="preserve" font-family="Dosis-Regular" font-size="89.5" fill="#FEFFFF" transform="matrix(1.00, 0.00, -0.00, -1.00, 395.6, 796.0)"> </text><image xlink:href="../../3D7589F3-5D02-4E60-9521-9749A54F339A/assets/68C94A2F575953E269DB927C220DD920.png" width="496.00" height="106.00" transform="matrix(1.00, 0.00, -0.00, -1.00, 60.0, 767.0)"></image><text xml:space="preserve" font-family="Dosis-Regular" font-size="89.5" fill="#FEFFFF" transform="matrix(1.00, 0.00, -0.00, -1.00, 64.0, 694.0)">c</text><text xml:space="preserve" font-family="Dosis-Regular" font-size="89.5" fill="#FEFFFF" transform="matrix(1.00, 0.00, -0.00, -1.00, 100.3, 694.0)">o</text><text xml:space="preserve" font-family="Dosis-Regular" font-size="89.5" fill="#FEFFFF" transform="matrix(1.00, 0.00, -0.00, -1.00, 142.2, 694.0)">m</text><text xml:space="preserve" font-family="Dosis-Regular" font-size="89.5" fill="#FEFFFF" transform="matrix(1.00, 0.00, -0.00, -1.00, 212.0, 694.0)">p</text><text xml:space="preserve" font-family="Dosis-Regular" font-size="89.5" fill="#FEFFFF" transform="matrix(1.00, 0.00, -0.00, -1.00, 255.3, 694.0)">a</text><text xml:space="preserve" font-family="Dosis-Regular" font-size="89.5" fill="#FEFFFF" transform="matrix(1.00, 0.00, -0.00, -1.00, 294.5, 694.0)">r</text><text xml:space="preserve" font-family="Dosis-Regular" font-size="89.5" fill="#FEFFFF" transform="matrix(1.00, 0.00, -0.00, -1.00, 324.1, 694.0)">t</text><text xml:space="preserve" font-family="Dosis-Regular" font-size="89.5" fill="#FEFFFF" transform="matrix(1.00, 0.00, -0.00, -1.00, 350.7, 694.0)">i</text><text xml:space="preserve" font-family="Dosis-Regular" font-size="89.5" fill="#FEFFFF" transform="matrix(1.00, 0.00, -0.00, -1.00, 367.8, 694.0)">l</text><text xml:space="preserve" font-family="Dosis-Regular" font-size="89.5" fill="#FEFFFF" transform="matrix(1.00, 0.00, -0.00, -1.00, 386.3, 694.0)">h</text><text xml:space="preserve" font-family="Dosis-Regular" font-size="89.5" fill="#FEFFFF" transform="matrix(1.00, 0.00, -0.00, -1.00, 430.7, 694.0)">a</text><text xml:space="preserve" font-family="Dosis-Regular" font-size="89.5" fill="#FEFFFF" transform="matrix(1.00, 0.00, -0.00, -1.00, 469.9, 694.0)">d</text><text xml:space="preserve" font-family="Dosis-Regular" font-size="89.5" fill="#FEFFFF" transform="matrix(1.00, 0.00, -0.00, -1.00, 513.2, 694.0)">a</text><g><clipPath id="clip-112"><path d="M 714.3 63.6 L 1284.1 63.6 L 1284.1 818.8 L 714.3 818.8 Z M 714.3 63.6 "></path></clipPath><g clip-path="url(#clip-112)"><image xlink:href="../../3D7589F3-5D02-4E60-9521-9749A54F339A/assets/E51EAC8A9A5462724CD20C5BB8009AEC.png" width="568.00" height="753.00" transform="matrix(1.00, 0.00, -0.00, -1.00, 715.3, 817.8)" opacity="0.90"></image><path d="M 729.3 805.8 L 1269.1 805.8 L 1269.1 80.6 L 729.3 80.6 Z M 729.3 805.8 " fill="#94B81F"></path></g></g><g><clipPath id="clip-113"><path d="M 735.7 388.4 L 1262.6 388.4 L 1262.6 508.5 L 735.7 508.5 Z M 735.7 388.4 "></path></clipPath><g clip-path="url(#clip-113)"><text xml:space="preserve" font-family="Dosis-SemiBold" font-weight="bold" font-size="38.0" fill="#000000" transform="matrix(1.00, 0.00, -0.00, -1.00, 810.0, 457.0)">C</text><text xml:space="preserve" font-family="Dosis-SemiBold" font-weight="bold" font-size="38.0" fill="#000000" transform="matrix(1.00, 0.00, -0.00, -1.00, 830.6, 457.0)">O</text><text xml:space="preserve" font-family="Dosis-SemiBold" font-weight="bold" font-size="38.0" fill="#000000" transform="matrix(1.00, 0.00, -0.00, -1.00, 852.1, 457.0)">M</text><text xml:space="preserve" font-family="Dosis-SemiBold" font-weight="bold" font-size="38.0" fill="#000000" transform="matrix(1.00, 0.00, -0.00, -1.00, 878.2, 457.0)">P</text><text xml:space="preserve" font-family="Dosis-SemiBold" font-weight="bold" font-size="38.0" fill="#000000" transform="matrix(1.00, 0.00, -0.00, -1.00, 897.4, 457.0)">A</text><text xml:space="preserve" font-family="Dosis-SemiBold" font-weight="bold" font-size="38.0" fill="#000000" transform="matrix(1.00, 0.00, -0.00, -1.00, 918.8, 457.0)">R</text><text xml:space="preserve" font-family="Dosis-SemiBold" font-weight="bold" font-size="38.0" fill="#000000" transform="matrix(1.00, 0.00, -0.00, -1.00, 939.7, 457.0)">T</text><text xml:space="preserve" font-family="Dosis-SemiBold" font-weight="bold" font-size="38.0" fill="#000000" transform="matrix(1.00, 0.00, -0.00, -1.00, 959.2, 457.0)">I</text><text xml:space="preserve" font-family="Dosis-SemiBold" font-weight="bold" font-size="38.0" fill="#000000" transform="matrix(1.00, 0.00, -0.00, -1.00, 968.2, 457.0)">L</text><text xml:space="preserve" font-family="Dosis-SemiBold" font-weight="bold" font-size="38.0" fill="#000000" transform="matrix(1.00, 0.00, -0.00, -1.00, 986.4, 457.0)">H</text><text xml:space="preserve" font-family="Dosis-SemiBold" font-weight="bold" font-size="38.0" fill="#000000" transform="matrix(1.00, 0.00, -0.00, -1.00, 1008.9, 457.0)">A</text><text xml:space="preserve" font-family="Dosis-SemiBold" font-weight="bold" font-size="38.0" fill="#000000" transform="matrix(1.00, 0.00, -0.00, -1.00, 1030.2, 457.0)">M</text><text xml:space="preserve" font-family="Dosis-SemiBold" font-weight="bold" font-size="38.0" fill="#000000" transform="matrix(1.00, 0.00, -0.00, -1.00, 1056.4, 457.0)">E</text><text xml:space="preserve" font-family="Dosis-SemiBold" font-weight="bold" font-size="38.0" fill="#000000" transform="matrix(1.00, 0.00, -0.00, -1.00, 1076.2, 457.0)">N</text><text xml:space="preserve" font-family="Dosis-SemiBold" font-weight="bold" font-size="38.0" fill="#000000" transform="matrix(1.00, 0.00, -0.00, -1.00, 1098.8, 457.0)">T</text><text xml:space="preserve" font-family="Dosis-SemiBold" font-weight="bold" font-size="38.0" fill="#000000" transform="matrix(1.00, 0.00, -0.00, -1.00, 1117.8, 457.0)">O</text><text xml:space="preserve" font-family="Dosis-SemiBold" font-weight="bold" font-size="38.0" fill="#000000" transform="matrix(1.00, 0.00, -0.00, -1.00, 1139.3, 457.0)"> </text><text xml:space="preserve" font-family="Dosis-SemiBold" font-weight="bold" font-size="38.0" fill="#000000" transform="matrix(1.00, 0.00, -0.00, -1.00, 1146.9, 457.0)">D</text><text xml:space="preserve" font-family="Dosis-SemiBold" font-weight="bold" font-size="38.0" fill="#000000" transform="matrix(1.00, 0.00, -0.00, -1.00, 1168.6, 457.0)">E</text><text xml:space="preserve" font-family="Dosis-SemiBold" font-weight="bold" font-size="38.0" fill="#000000" transform="matrix(1.00, 0.00, -0.00, -1.00, 1188.5, 457.0)"> </text><text xml:space="preserve" font-family="Dosis-SemiBold" font-weight="bold" font-size="38.0" fill="#000000" transform="matrix(1.00, 0.00, -0.00, -1.00, 748.0, 409.0)">I</text><text xml:space="preserve" font-family="Dosis-SemiBold" font-weight="bold" font-size="38.0" fill="#000000" transform="matrix(1.00, 0.00, -0.00, -1.00, 757.0, 409.0)">N</text><text xml:space="preserve" font-family="Dosis-SemiBold" font-weight="bold" font-size="38.0" fill="#000000" transform="matrix(1.00, 0.00, -0.00, -1.00, 779.6, 409.0)">F</text><text xml:space="preserve" font-family="Dosis-SemiBold" font-weight="bold" font-size="38.0" fill="#000000" transform="matrix(1.00, 0.00, -0.00, -1.00, 798.3, 409.0)">O</text><text xml:space="preserve" font-family="Dosis-SemiBold" font-weight="bold" font-size="38.0" fill="#000000" transform="matrix(1.00, 0.00, -0.00, -1.00, 819.8, 409.0)">R</text><text xml:space="preserve" font-family="Dosis-SemiBold" font-weight="bold" font-size="38.0" fill="#000000" transform="matrix(1.00, 0.00, -0.00, -1.00, 841.0, 409.0)">M</text><text xml:space="preserve" font-family="Dosis-SemiBold" font-weight="bold" font-size="38.0" fill="#000000" transform="matrix(1.00, 0.00, -0.00, -1.00, 867.1, 409.0)">A</text><text xml:space="preserve" font-family="Dosis-SemiBold" font-weight="bold" font-size="38.0" fill="#000000" transform="matrix(1.00, 0.00, -0.00, -1.00, 888.5, 409.0)">Ç</text><text xml:space="preserve" font-family="Dosis-SemiBold" font-weight="bold" font-size="38.0" fill="#000000" transform="matrix(1.00, 0.00, -0.00, -1.00, 909.0, 409.0)">Õ</text><text xml:space="preserve" font-family="Dosis-SemiBold" font-weight="bold" font-size="38.0" fill="#000000" transform="matrix(1.00, 0.00, -0.00, -1.00, 930.5, 409.0)">E</text><text xml:space="preserve" font-family="Dosis-SemiBold" font-weight="bold" font-size="38.0" fill="#000000" transform="matrix(1.00, 0.00, -0.00, -1.00, 950.4, 409.0)">S</text><text xml:space="preserve" font-family="Dosis-SemiBold" font-weight="bold" font-size="38.0" fill="#000000" transform="matrix(1.00, 0.00, -0.00, -1.00, 969.8, 409.0)"> </text><text xml:space="preserve" font-family="Dosis-SemiBold" font-weight="bold" font-size="38.0" fill="#000000" transform="matrix(1.00, 0.00, -0.00, -1.00, 977.4, 409.0)">E</text><text xml:space="preserve" font-family="Dosis-SemiBold" font-weight="bold" font-size="38.0" fill="#000000" transform="matrix(1.00, 0.00, -0.00, -1.00, 997.3, 409.0)"> </text><text xml:space="preserve" font-family="Dosis-SemiBold" font-weight="bold" font-size="38.0" fill="#000000" transform="matrix(1.00, 0.00, -0.00, -1.00, 1004.9, 409.0)">C</text><text xml:space="preserve" font-family="Dosis-SemiBold" font-weight="bold" font-size="38.0" fill="#000000" transform="matrix(1.00, 0.00, -0.00, -1.00, 1025.5, 409.0)">O</text><text xml:space="preserve" font-family="Dosis-SemiBold" font-weight="bold" font-size="38.0" fill="#000000" transform="matrix(1.00, 0.00, -0.00, -1.00, 1047.0, 409.0)">N</text><text xml:space="preserve" font-family="Dosis-SemiBold" font-weight="bold" font-size="38.0" fill="#000000" transform="matrix(1.00, 0.00, -0.00, -1.00, 1069.5, 409.0)">H</text><text xml:space="preserve" font-family="Dosis-SemiBold" font-weight="bold" font-size="38.0" fill="#000000" transform="matrix(1.00, 0.00, -0.00, -1.00, 1092.1, 409.0)">E</text><text xml:space="preserve" font-family="Dosis-SemiBold" font-weight="bold" font-size="38.0" fill="#000000" transform="matrix(1.00, 0.00, -0.00, -1.00, 1111.6, 409.0)">C</text><text xml:space="preserve" font-family="Dosis-SemiBold" font-weight="bold" font-size="38.0" fill="#000000" transform="matrix(1.00, 0.00, -0.00, -1.00, 1132.1, 409.0)">I</text><text xml:space="preserve" font-family="Dosis-SemiBold" font-weight="bold" font-size="38.0" fill="#000000" transform="matrix(1.00, 0.00, -0.00, -1.00, 1141.2, 409.0)">M</text><text xml:space="preserve" font-family="Dosis-SemiBold" font-weight="bold" font-size="38.0" fill="#000000" transform="matrix(1.00, 0.00, -0.00, -1.00, 1167.3, 409.0)">E</text><text xml:space="preserve" font-family="Dosis-SemiBold" font-weight="bold" font-size="38.0" fill="#000000" transform="matrix(1.00, 0.00, -0.00, -1.00, 1187.2, 409.0)">N</text><text xml:space="preserve" font-family="Dosis-SemiBold" font-weight="bold" font-size="38.0" fill="#000000" transform="matrix(1.00, 0.00, -0.00, -1.00, 1209.7, 409.0)">T</text><text xml:space="preserve" font-family="Dosis-SemiBold" font-weight="bold" font-size="38.0" fill="#000000" transform="matrix(1.00, 0.00, -0.00, -1.00, 1228.7, 409.0)">O</text></g></g><g><clipPath id="clip-114"><path d="M 868.3 108.9 L 1358.8 108.9 L 1358.8 374.6 L 868.3 374.6 Z M 868.3 108.9 "></path></clipPath><g clip-path="url(#clip-114)"><text xml:space="preserve" font-family="Dosis-Regular" font-size="35.2" fill="#FEFFFF" transform="matrix(1.00, 0.00, -0.00, -1.00, 883.2, 316.6)">-</text><text xml:space="preserve" font-family="Dosis-Regular" font-size="47.0" fill="#FEFFFF" transform="matrix(1.00, 0.00, -0.00, -1.00, 932.0, 312.0)">W</text><text xml:space="preserve" font-family="Dosis-Regular" font-size="47.0" fill="#FEFFFF" transform="matrix(1.00, 0.00, -0.00, -1.00, 969.0, 312.0)">i</text><text xml:space="preserve" font-family="Dosis-Regular" font-size="47.0" fill="#FEFFFF" transform="matrix(1.00, 0.00, -0.00, -1.00, 978.0, 312.0)">k</text><text xml:space="preserve" font-family="Dosis-Regular" font-size="47.0" fill="#FEFFFF" transform="matrix(1.00, 0.00, -0.00, -1.00, 999.4, 312.0)">i</text><text xml:space="preserve" font-family="Dosis-Regular" font-size="47.0" fill="#FEFFFF" transform="matrix(1.00, 0.00, -0.00, -1.00, 1008.4, 312.0)">p</text><text xml:space="preserve" font-family="Dosis-Regular" font-size="47.0" fill="#FEFFFF" transform="matrix(1.00, 0.00, -0.00, -1.00, 1031.1, 312.0)">e</text><text xml:space="preserve" font-family="Dosis-Regular" font-size="47.0" fill="#FEFFFF" transform="matrix(1.00, 0.00, -0.00, -1.00, 1052.6, 312.0)">d</text><text xml:space="preserve" font-family="Dosis-Regular" font-size="47.0" fill="#FEFFFF" transform="matrix(1.00, 0.00, -0.00, -1.00, 1075.4, 312.0)">i</text><text xml:space="preserve" font-family="Dosis-Regular" font-size="47.0" fill="#FEFFFF" transform="matrix(1.00, 0.00, -0.00, -1.00, 1084.4, 312.0)">a</text><text xml:space="preserve" font-family="Dosis-Regular" font-size="47.0" fill="#FEFFFF" transform="matrix(1.00, 0.00, -0.00, -1.00, 1105.0, 312.0)"> </text><text xml:space="preserve" font-family="Dosis-Regular" font-size="35.2" fill="#FEFFFF" transform="matrix(1.00, 0.00, -0.00, -1.00, 883.2, 257.6)">-</text><text xml:space="preserve" font-family="Dosis-Regular" font-size="47.0" fill="#FEFFFF" transform="matrix(1.00, 0.00, -0.00, -1.00, 932.0, 253.0)">E</text><text xml:space="preserve" font-family="Dosis-Regular" font-size="47.0" fill="#FEFFFF" transform="matrix(1.00, 0.00, -0.00, -1.00, 955.9, 253.0)">b</text><text xml:space="preserve" font-family="Dosis-Regular" font-size="47.0" fill="#FEFFFF" transform="matrix(1.00, 0.00, -0.00, -1.00, 978.6, 253.0)">a</text><text xml:space="preserve" font-family="Dosis-Regular" font-size="47.0" fill="#FEFFFF" transform="matrix(1.00, 0.00, -0.00, -1.00, 999.2, 253.0)">h</text><text xml:space="preserve" font-family="Dosis-Regular" font-size="47.0" fill="#FEFFFF" transform="matrix(1.00, 0.00, -0.00, -1.00, 1022.5, 253.0)"> </text><text xml:space="preserve" font-family="Dosis-Regular" font-size="35.2" fill="#FEFFFF" transform="matrix(1.00, 0.00, -0.00, -1.00, 883.2, 198.6)">-</text><text xml:space="preserve" font-family="Dosis-Regular" font-size="47.0" fill="#FEFFFF" transform="matrix(1.00, 0.00, -0.00, -1.00, 932.0, 194.0)">B</text><text xml:space="preserve" font-family="Dosis-Regular" font-size="47.0" fill="#FEFFFF" transform="matrix(1.00, 0.00, -0.00, -1.00, 957.3, 194.0)">l</text><text xml:space="preserve" font-family="Dosis-Regular" font-size="47.0" fill="#FEFFFF" transform="matrix(1.00, 0.00, -0.00, -1.00, 967.0, 194.0)">i</text><text xml:space="preserve" font-family="Dosis-Regular" font-size="47.0" fill="#FEFFFF" transform="matrix(1.00, 0.00, -0.00, -1.00, 976.0, 194.0)">i</text><text xml:space="preserve" font-family="Dosis-Regular" font-size="47.0" fill="#FEFFFF" transform="matrix(1.00, 0.00, -0.00, -1.00, 985.0, 194.0)">v</text><text xml:space="preserve" font-family="Dosis-Regular" font-size="47.0" fill="#FEFFFF" transform="matrix(1.00, 0.00, -0.00, -1.00, 1004.7, 194.0)">e</text><text xml:space="preserve" font-family="Dosis-Regular" font-size="47.0" fill="#FEFFFF" transform="matrix(1.00, 0.00, -0.00, -1.00, 1026.2, 194.0)"> </text><text xml:space="preserve" font-family="Dosis-Regular" font-size="35.2" fill="#FEFFFF" transform="matrix(1.00, 0.00, -0.00, -1.00, 883.2, 139.6)">-</text><text xml:space="preserve" font-family="Dosis-Regular" font-size="47.0" fill="#FEFFFF" transform="matrix(1.00, 0.00, -0.00, -1.00, 932.0, 135.0)">E</text><text xml:space="preserve" font-family="Dosis-Regular" font-size="47.0" fill="#FEFFFF" transform="matrix(1.00, 0.00, -0.00, -1.00, 955.9, 135.0)">a</text><text xml:space="preserve" font-family="Dosis-Regular" font-size="47.0" fill="#FEFFFF" transform="matrix(1.00, 0.00, -0.00, -1.00, 976.5, 135.0)">t</text><text xml:space="preserve" font-family="Dosis-Regular" font-size="47.0" fill="#FEFFFF" transform="matrix(1.00, 0.00, -0.00, -1.00, 989.8, 135.0)">W</text><text xml:space="preserve" font-family="Dosis-Regular" font-size="47.0" fill="#FEFFFF" transform="matrix(1.00, 0.00, -0.00, -1.00, 1026.8, 135.0)">i</text><text xml:space="preserve" font-family="Dosis-Regular" font-size="47.0" fill="#FEFFFF" transform="matrix(1.00, 0.00, -0.00, -1.00, 1035.7, 135.0)">t</text><text xml:space="preserve" font-family="Dosis-Regular" font-size="47.0" fill="#FEFFFF" transform="matrix(1.00, 0.00, -0.00, -1.00, 1049.7, 135.0)">h</text></g></g><g><clipPath id="clip-115"><path d="M 832.4 525.0 L 1180.0 525.0 L 1180.0 872.6 L 832.4 872.6 Z M 832.4 525.0 "></path></clipPath><g clip-path="url(#clip-115)"><image xlink:href="../../3D7589F3-5D02-4E60-9521-9749A54F339A/assets/3D04B0FC8CA2F2C86932117639BD67D0.png" width="346.00" height="346.00" transform="matrix(1.00, 0.00, -0.00, -1.00, 833.4, 871.6)"></image></g></g><g><clipPath id="clip-116"><path d="M 1121.3 819.5 C 1184.9 755.9 1184.9 652.8 1121.3 589.2 C 1057.7 525.6 954.6 525.6 891.1 589.2 C 827.5 652.8 827.5 755.9 891.1 819.5 C 954.6 883.0 1057.7 883.0 1121.3 819.5 Z M 1121.3 819.5 "></path></clipPath><g clip-path="url(#clip-116)"><g><clipPath id="clip-117"><path d="M 832.4 525.0 L 1180.0 525.0 L 1180.0 872.6 L 832.4 872.6 Z M 832.4 525.0 "></path></clipPath><g clip-path="url(#clip-117)"><image xlink:href="../../3D7589F3-5D02-4E60-9521-9749A54F339A/assets/AFB0F33B0347D4C88DF4FFE7C7BEE67A.png" width="348.00" height="348.00" transform="matrix(1.00, 0.00, -0.00, 1.00, 832.4, 525.2)"></image></g></g></g></g><g><clipPath id="clip-118"><path d="M 884.0 840.0 L 1128.0 840.0 L 1128.0 596.0 L 884.0 596.0 Z M 884.3 839.8 "></path></clipPath><g clip-path="url(#clip-118)"><g><clipPath id="clip-119"><path d="M 884.3 596.1 L 1128.0 596.1 L 1128.0 839.8 L 884.3 839.8 Z M 884.3 596.1 "></path></clipPath><g clip-path="url(#clip-119)"><image xlink:href="../../3D7589F3-5D02-4E60-9521-9749A54F339A/assets/F1E709479060C312B0C65A3928933B99.png" width="331.00" height="331.00" transform="matrix(1.00, 0.00, -0.00, -1.00, 835.0, 855.0)"></image></g></g></g></g><g><clipPath id="clip-120"><path d="M 1286.1 65.8 L 1856.6 65.8 L 1856.6 821.0 L 1286.1 821.0 Z M 1286.1 65.8 "></path></clipPath><g clip-path="url(#clip-120)"><image xlink:href="../../3D7589F3-5D02-4E60-9521-9749A54F339A/assets/48D8CCCDABFC3E2A59D4FE2E303D3AA2.png" width="568.00" height="753.00" transform="matrix(1.00, 0.00, -0.00, -1.00, 1287.1, 820.0)" opacity="0.90"></image><path d="M 1301.1 808.0 L 1841.6 808.0 L 1841.6 82.8 L 1301.1 82.8 Z M 1301.1 808.0 " fill="#94B81F"></path></g></g><g><clipPath id="clip-121"><path d="M 1325.2 385.4 L 1817.5 385.4 L 1817.5 505.4 L 1325.2 505.4 Z M 1325.2 385.4 "></path></clipPath><g clip-path="url(#clip-121)"><text xml:space="preserve" font-family="Dosis-SemiBold" font-weight="bold" font-size="38.0" fill="#000000" transform="matrix(1.00, 0.00, -0.00, -1.00, 1382.0, 454.0)">C</text><text xml:space="preserve" font-family="Dosis-SemiBold" font-weight="bold" font-size="38.0" fill="#000000" transform="matrix(1.00, 0.00, -0.00, -1.00, 1402.6, 454.0)">O</text><text xml:space="preserve" font-family="Dosis-SemiBold" font-weight="bold" font-size="38.0" fill="#000000" transform="matrix(1.00, 0.00, -0.00, -1.00, 1424.1, 454.0)">M</text><text xml:space="preserve" font-family="Dosis-SemiBold" font-weight="bold" font-size="38.0" fill="#000000" transform="matrix(1.00, 0.00, -0.00, -1.00, 1450.2, 454.0)">P</text><text xml:space="preserve" font-family="Dosis-SemiBold" font-weight="bold" font-size="38.0" fill="#000000" transform="matrix(1.00, 0.00, -0.00, -1.00, 1469.4, 454.0)">A</text><text xml:space="preserve" font-family="Dosis-SemiBold" font-weight="bold" font-size="38.0" fill="#000000" transform="matrix(1.00, 0.00, -0.00, -1.00, 1490.8, 454.0)">R</text><text xml:space="preserve" font-family="Dosis-SemiBold" font-weight="bold" font-size="38.0" fill="#000000" transform="matrix(1.00, 0.00, -0.00, -1.00, 1511.7, 454.0)">T</text><text xml:space="preserve" font-family="Dosis-SemiBold" font-weight="bold" font-size="38.0" fill="#000000" transform="matrix(1.00, 0.00, -0.00, -1.00, 1531.2, 454.0)">I</text><text xml:space="preserve" font-family="Dosis-SemiBold" font-weight="bold" font-size="38.0" fill="#000000" transform="matrix(1.00, 0.00, -0.00, -1.00, 1540.2, 454.0)">L</text><text xml:space="preserve" font-family="Dosis-SemiBold" font-weight="bold" font-size="38.0" fill="#000000" transform="matrix(1.00, 0.00, -0.00, -1.00, 1558.4, 454.0)">H</text><text xml:space="preserve" font-family="Dosis-SemiBold" font-weight="bold" font-size="38.0" fill="#000000" transform="matrix(1.00, 0.00, -0.00, -1.00, 1580.9, 454.0)">A</text><text xml:space="preserve" font-family="Dosis-SemiBold" font-weight="bold" font-size="38.0" fill="#000000" transform="matrix(1.00, 0.00, -0.00, -1.00, 1602.2, 454.0)">M</text><text xml:space="preserve" font-family="Dosis-SemiBold" font-weight="bold" font-size="38.0" fill="#000000" transform="matrix(1.00, 0.00, -0.00, -1.00, 1628.4, 454.0)">E</text><text xml:space="preserve" font-family="Dosis-SemiBold" font-weight="bold" font-size="38.0" fill="#000000" transform="matrix(1.00, 0.00, -0.00, -1.00, 1648.2, 454.0)">N</text><text xml:space="preserve" font-family="Dosis-SemiBold" font-weight="bold" font-size="38.0" fill="#000000" transform="matrix(1.00, 0.00, -0.00, -1.00, 1670.8, 454.0)">T</text><text xml:space="preserve" font-family="Dosis-SemiBold" font-weight="bold" font-size="38.0" fill="#000000" transform="matrix(1.00, 0.00, -0.00, -1.00, 1689.8, 454.0)">O</text><text xml:space="preserve" font-family="Dosis-SemiBold" font-weight="bold" font-size="38.0" fill="#000000" transform="matrix(1.00, 0.00, -0.00, -1.00, 1711.3, 454.0)"> </text><text xml:space="preserve" font-family="Dosis-SemiBold" font-weight="bold" font-size="38.0" fill="#000000" transform="matrix(1.00, 0.00, -0.00, -1.00, 1718.9, 454.0)">D</text><text xml:space="preserve" font-family="Dosis-SemiBold" font-weight="bold" font-size="38.0" fill="#000000" transform="matrix(1.00, 0.00, -0.00, -1.00, 1740.6, 454.0)">E</text><text xml:space="preserve" font-family="Dosis-SemiBold" font-weight="bold" font-size="38.0" fill="#000000" transform="matrix(1.00, 0.00, -0.00, -1.00, 1760.5, 454.0)"> </text><text xml:space="preserve" font-family="Dosis-SemiBold" font-weight="bold" font-size="38.0" fill="#000000" transform="matrix(1.00, 0.00, -0.00, -1.00, 1436.0, 406.0)">B</text><text xml:space="preserve" font-family="Dosis-SemiBold" font-weight="bold" font-size="38.0" fill="#000000" transform="matrix(1.00, 0.00, -0.00, -1.00, 1457.0, 406.0)">E</text><text xml:space="preserve" font-family="Dosis-SemiBold" font-weight="bold" font-size="38.0" fill="#000000" transform="matrix(1.00, 0.00, -0.00, -1.00, 1476.9, 406.0)">N</text><text xml:space="preserve" font-family="Dosis-SemiBold" font-weight="bold" font-size="38.0" fill="#000000" transform="matrix(1.00, 0.00, -0.00, -1.00, 1499.4, 406.0)">S</text><text xml:space="preserve" font-family="Dosis-SemiBold" font-weight="bold" font-size="38.0" fill="#000000" transform="matrix(1.00, 0.00, -0.00, -1.00, 1518.9, 406.0)"> </text><text xml:space="preserve" font-family="Dosis-SemiBold" font-weight="bold" font-size="38.0" fill="#000000" transform="matrix(1.00, 0.00, -0.00, -1.00, 1526.5, 406.0)">E</text><text xml:space="preserve" font-family="Dosis-SemiBold" font-weight="bold" font-size="38.0" fill="#000000" transform="matrix(1.00, 0.00, -0.00, -1.00, 1546.4, 406.0)"> </text><text xml:space="preserve" font-family="Dosis-SemiBold" font-weight="bold" font-size="38.0" fill="#000000" transform="matrix(1.00, 0.00, -0.00, -1.00, 1554.0, 406.0)">S</text><text xml:space="preserve" font-family="Dosis-SemiBold" font-weight="bold" font-size="38.0" fill="#000000" transform="matrix(1.00, 0.00, -0.00, -1.00, 1573.4, 406.0)">E</text><text xml:space="preserve" font-family="Dosis-SemiBold" font-weight="bold" font-size="38.0" fill="#000000" transform="matrix(1.00, 0.00, -0.00, -1.00, 1593.3, 406.0)">R</text><text xml:space="preserve" font-family="Dosis-SemiBold" font-weight="bold" font-size="38.0" fill="#000000" transform="matrix(1.00, 0.00, -0.00, -1.00, 1614.5, 406.0)">V</text><text xml:space="preserve" font-family="Dosis-SemiBold" font-weight="bold" font-size="38.0" fill="#000000" transform="matrix(1.00, 0.00, -0.00, -1.00, 1635.8, 406.0)">I</text><text xml:space="preserve" font-family="Dosis-SemiBold" font-weight="bold" font-size="38.0" fill="#000000" transform="matrix(1.00, 0.00, -0.00, -1.00, 1644.9, 406.0)">Ç</text><text xml:space="preserve" font-family="Dosis-SemiBold" font-weight="bold" font-size="38.0" fill="#000000" transform="matrix(1.00, 0.00, -0.00, -1.00, 1665.4, 406.0)">O</text><text xml:space="preserve" font-family="Dosis-SemiBold" font-weight="bold" font-size="38.0" fill="#000000" transform="matrix(1.00, 0.00, -0.00, -1.00, 1686.9, 406.0)">S</text></g></g><g><clipPath id="clip-122"><path d="M 1439.8 124.9 L 2003.2 124.9 L 2003.2 390.6 L 1439.8 390.6 Z M 1439.8 124.9 "></path></clipPath><g clip-path="url(#clip-122)"><text xml:space="preserve" font-family="Dosis-Regular" font-size="35.2" fill="#FEFFFF" transform="matrix(1.00, 0.00, -0.00, -1.00, 1454.6, 332.6)">-</text><text xml:space="preserve" font-family="Dosis-Regular" font-size="47.0" fill="#FEFFFF" transform="matrix(1.00, 0.00, -0.00, -1.00, 1503.0, 328.0)">U</text><text xml:space="preserve" font-family="Dosis-Regular" font-size="47.0" fill="#FEFFFF" transform="matrix(1.00, 0.00, -0.00, -1.00, 1529.6, 328.0)">b</text><text xml:space="preserve" font-family="Dosis-Regular" font-size="47.0" fill="#FEFFFF" transform="matrix(1.00, 0.00, -0.00, -1.00, 1552.3, 328.0)">e</text><text xml:space="preserve" font-family="Dosis-Regular" font-size="47.0" fill="#FEFFFF" transform="matrix(1.00, 0.00, -0.00, -1.00, 1573.9, 328.0)">r</text><text xml:space="preserve" font-family="Dosis-Regular" font-size="47.0" fill="#FEFFFF" transform="matrix(1.00, 0.00, -0.00, -1.00, 1589.4, 328.0)"> </text><text xml:space="preserve" font-family="Dosis-Regular" font-size="35.2" fill="#FEFFFF" transform="matrix(1.00, 0.00, -0.00, -1.00, 1454.6, 273.6)">-</text><text xml:space="preserve" font-family="Dosis-Regular" font-size="47.0" fill="#FEFFFF" transform="matrix(1.00, 0.00, -0.00, -1.00, 1503.0, 269.0)">A</text><text xml:space="preserve" font-family="Dosis-Regular" font-size="47.0" fill="#FEFFFF" transform="matrix(1.00, 0.00, -0.00, -1.00, 1528.4, 269.0)">i</text><text xml:space="preserve" font-family="Dosis-Regular" font-size="47.0" fill="#FEFFFF" transform="matrix(1.00, 0.00, -0.00, -1.00, 1537.4, 269.0)">r</text><text xml:space="preserve" font-family="Dosis-Regular" font-size="47.0" fill="#FEFFFF" transform="matrix(1.00, 0.00, -0.00, -1.00, 1552.9, 269.0)">b</text><text xml:space="preserve" font-family="Dosis-Regular" font-size="47.0" fill="#FEFFFF" transform="matrix(1.00, 0.00, -0.00, -1.00, 1575.7, 269.0)">n</text><text xml:space="preserve" font-family="Dosis-Regular" font-size="47.0" fill="#FEFFFF" transform="matrix(1.00, 0.00, -0.00, -1.00, 1599.0, 269.0)">b</text><text xml:space="preserve" font-family="Dosis-Regular" font-size="47.0" fill="#FEFFFF" transform="matrix(1.00, 0.00, -0.00, -1.00, 1621.7, 269.0)"> </text><text xml:space="preserve" font-family="Dosis-Regular" font-size="35.2" fill="#FEFFFF" transform="matrix(1.00, 0.00, -0.00, -1.00, 1454.6, 214.6)">-</text><text xml:space="preserve" font-family="Dosis-Regular" font-size="47.0" fill="#FEFFFF" transform="matrix(1.00, 0.00, -0.00, -1.00, 1503.0, 210.0)">T</text><text xml:space="preserve" font-family="Dosis-Regular" font-size="47.0" fill="#FEFFFF" transform="matrix(1.00, 0.00, -0.00, -1.00, 1521.4, 210.0)">e</text><text xml:space="preserve" font-family="Dosis-Regular" font-size="47.0" fill="#FEFFFF" transform="matrix(1.00, 0.00, -0.00, -1.00, 1543.0, 210.0)">m</text><text xml:space="preserve" font-family="Dosis-Regular" font-size="47.0" fill="#FEFFFF" transform="matrix(1.00, 0.00, -0.00, -1.00, 1579.6, 210.0)"> </text><text xml:space="preserve" font-family="Dosis-Regular" font-size="47.0" fill="#FEFFFF" transform="matrix(1.00, 0.00, -0.00, -1.00, 1589.0, 210.0)">A</text><text xml:space="preserve" font-family="Dosis-Regular" font-size="47.0" fill="#FEFFFF" transform="matrix(1.00, 0.00, -0.00, -1.00, 1614.4, 210.0)">ç</text><text xml:space="preserve" font-family="Dosis-Regular" font-size="47.0" fill="#FEFFFF" transform="matrix(1.00, 0.00, -0.00, -1.00, 1633.7, 210.0)">ú</text><text xml:space="preserve" font-family="Dosis-Regular" font-size="47.0" fill="#FEFFFF" transform="matrix(1.00, 0.00, -0.00, -1.00, 1657.0, 210.0)">c</text><text xml:space="preserve" font-family="Dosis-Regular" font-size="47.0" fill="#FEFFFF" transform="matrix(1.00, 0.00, -0.00, -1.00, 1676.3, 210.0)">a</text><text xml:space="preserve" font-family="Dosis-Regular" font-size="47.0" fill="#FEFFFF" transform="matrix(1.00, 0.00, -0.00, -1.00, 1696.9, 210.0)">r</text><text xml:space="preserve" font-family="Dosis-Regular" font-size="47.0" fill="#FEFFFF" transform="matrix(1.00, 0.00, -0.00, -1.00, 1712.5, 210.0)"> </text><text xml:space="preserve" font-family="Dosis-Regular" font-size="35.2" fill="#FEFFFF" transform="matrix(1.00, 0.00, -0.00, -1.00, 1454.6, 155.6)">-</text><text xml:space="preserve" font-family="Dosis-Regular" font-size="47.0" fill="#FEFFFF" transform="matrix(1.00, 0.00, -0.00, -1.00, 1503.0, 151.0)">F</text><text xml:space="preserve" font-family="Dosis-Regular" font-size="47.0" fill="#FEFFFF" transform="matrix(1.00, 0.00, -0.00, -1.00, 1526.2, 151.0)">l</text><text xml:space="preserve" font-family="Dosis-Regular" font-size="47.0" fill="#FEFFFF" transform="matrix(1.00, 0.00, -0.00, -1.00, 1535.9, 151.0)">e</text><text xml:space="preserve" font-family="Dosis-Regular" font-size="47.0" fill="#FEFFFF" transform="matrix(1.00, 0.00, -0.00, -1.00, 1557.5, 151.0)">e</text><text xml:space="preserve" font-family="Dosis-Regular" font-size="47.0" fill="#FEFFFF" transform="matrix(1.00, 0.00, -0.00, -1.00, 1579.0, 151.0)">t</text><text xml:space="preserve" font-family="Dosis-Regular" font-size="47.0" fill="#FEFFFF" transform="matrix(1.00, 0.00, -0.00, -1.00, 1593.0, 151.0)">y</text></g></g><g><clipPath id="clip-123"><path d="M 1403.1 524.7 L 1750.7 524.7 L 1750.7 872.3 L 1403.1 872.3 Z M 1403.1 524.7 "></path></clipPath><g clip-path="url(#clip-123)"><image xlink:href="../../3D7589F3-5D02-4E60-9521-9749A54F339A/assets/3D04B0FC8CA2F2C86932117639BD67D0.png" width="346.00" height="346.00" transform="matrix(1.00, 0.00, -0.00, -1.00, 1404.1, 871.3)"></image></g></g><g><clipPath id="clip-124"><path d="M 1692.0 819.5 C 1755.6 755.9 1755.6 652.8 1692.0 589.2 C 1628.5 525.6 1525.4 525.6 1461.8 589.2 C 1398.2 652.8 1398.2 755.9 1461.8 819.5 C 1525.4 883.0 1628.5 883.0 1692.0 819.5 Z M 1692.0 819.5 "></path></clipPath><g clip-path="url(#clip-124)"><g><clipPath id="clip-125"><path d="M 1403.1 524.7 L 1750.7 524.7 L 1750.7 872.3 L 1403.1 872.3 Z M 1403.1 524.7 "></path></clipPath><g clip-path="url(#clip-125)"><image xlink:href="../../3D7589F3-5D02-4E60-9521-9749A54F339A/assets/AFB0F33B0347D4C88DF4FFE7C7BEE67A.png" width="348.00" height="348.00" transform="matrix(1.00, 0.00, -0.00, 1.00, 1403.1, 525.2)"></image></g></g></g></g><g><clipPath id="clip-126"><path d="M 1478.0 805.0 L 1684.0 805.0 L 1684.0 596.0 L 1478.0 596.0 Z M 1478.2 805.3 "></path></clipPath><g clip-path="url(#clip-126)"><g><clipPath id="clip-127"><path d="M 1478.2 596.1 L 1683.6 596.1 L 1683.6 805.3 L 1478.2 805.3 Z M 1478.2 596.1 "></path></clipPath><g clip-path="url(#clip-127)"><image xlink:href="../../3D7589F3-5D02-4E60-9521-9749A54F339A/assets/E416B2AB89666BB7DCC2EABC3D886F60.png" width="291.00" height="291.00" transform="matrix(1.00, 0.00, -0.00, -1.00, 1433.0, 833.0)"></image></g></g></g></g><image xlink:href="../../3D7589F3-5D02-4E60-9521-9749A54F339A/assets/40512103AA5F2FB9D3707BFBED0BEE93.png" width="579.00" height="78.00" transform="matrix(1.00, 0.00, -0.00, -1.00, 66.0, 1013.0)"></image><g><clipPath id="clip-128"><path d="M 41.2 935.0 L 672.4 935.0 L 672.4 1040.8 L 41.2 1040.8 Z M 41.2 935.0 "></path></clipPath><g clip-path="url(#clip-128)"><text xml:space="preserve" font-family="MavenProRegular" font-size="85.7" fill="#95B71E" transform="matrix(1.00, 0.00, -0.00, -1.00, 66.0, 953.0)">a</text><text xml:space="preserve" font-family="MavenProRegular" font-size="85.7" fill="#95B71E" transform="matrix(1.00, 0.00, -0.00, -1.00, 111.7, 953.0)"> </text><text xml:space="preserve" font-family="MavenProRegular" font-size="85.7" fill="#95B71E" transform="matrix(1.00, 0.00, -0.00, -1.00, 140.6, 953.0)">o</text><text xml:space="preserve" font-family="MavenProRegular" font-size="85.7" fill="#95B71E" transform="matrix(1.00, 0.00, -0.00, -1.00, 188.0, 953.0)">p</text><text xml:space="preserve" font-family="MavenProRegular" font-size="85.7" fill="#95B71E" transform="matrix(1.00, 0.00, -0.00, -1.00, 235.9, 953.0)">o</text><text xml:space="preserve" font-family="MavenProRegular" font-size="85.7" fill="#95B71E" transform="matrix(1.00, 0.00, -0.00, -1.00, 283.5, 953.0)">r</text><text xml:space="preserve" font-family="MavenProRegular" font-size="85.7" fill="#95B71E" transform="matrix(1.00, 0.00, -0.00, -1.00, 315.7, 953.0)">t</text><text xml:space="preserve" font-family="MavenProRegular" font-size="85.7" fill="#95B71E" transform="matrix(1.00, 0.00, -0.00, -1.00, 344.7, 953.0)">u</text><text xml:space="preserve" font-family="MavenProRegular" font-size="85.7" fill="#95B71E" transform="matrix(1.00, 0.00, -0.00, -1.00, 393.1, 953.0)">n</text><text xml:space="preserve" font-family="MavenProRegular" font-size="85.7" fill="#95B71E" transform="matrix(1.00, 0.00, -0.00, -1.00, 440.2, 953.0)">i</text><text xml:space="preserve" font-family="MavenProRegular" font-size="85.7" fill="#95B71E" transform="matrix(1.00, 0.00, -0.00, -1.00, 460.0, 953.0)">d</text><text xml:space="preserve" font-family="MavenProRegular" font-size="85.7" fill="#95B71E" transform="matrix(1.00, 0.00, -0.00, -1.00, 506.8, 953.0)">a</text><text xml:space="preserve" font-family="MavenProRegular" font-size="85.7" fill="#95B71E" transform="matrix(1.00, 0.00, -0.00, -1.00, 551.3, 953.0)">d</text><text xml:space="preserve" font-family="MavenProRegular" font-size="85.7" fill="#95B71E" transform="matrix(1.00, 0.00, -0.00, -1.00, 597.6, 953.0)">e</text></g></g><text xml:space="preserve" font-family="Dosis-Regular" font-size="33.0" fill="#FEFFFF" transform="matrix(1.00, 0.00, -0.00, -1.00, 55.0, 152.0)">p</text><text xml:space="preserve" font-family="Dosis-Regular" font-size="33.0" fill="#FEFFFF" transform="matrix(1.00, 0.00, -0.00, -1.00, 71.0, 152.0)">r</text><text xml:space="preserve" font-family="Dosis-Regular" font-size="33.0" fill="#FEFFFF" transform="matrix(1.00, 0.00, -0.00, -1.00, 81.3, 152.0)">o</text><text xml:space="preserve" font-family="Dosis-Regular" font-size="33.0" fill="#FEFFFF" transform="matrix(1.00, 0.00, -0.00, -1.00, 96.7, 152.0)">j</text><text xml:space="preserve" font-family="Dosis-Regular" font-size="33.0" fill="#FEFFFF" transform="matrix(1.00, 0.00, -0.00, -1.00, 103.0, 152.0)">e</text><text xml:space="preserve" font-family="Dosis-Regular" font-size="33.0" fill="#FEFFFF" transform="matrix(1.00, 0.00, -0.00, -1.00, 118.2, 152.0)">ç</text><text xml:space="preserve" font-family="Dosis-Regular" font-size="33.0" fill="#FEFFFF" transform="matrix(1.00, 0.00, -0.00, -1.00, 131.7, 152.0)">ã</text><text xml:space="preserve" font-family="Dosis-Regular" font-size="33.0" fill="#FEFFFF" transform="matrix(1.00, 0.00, -0.00, -1.00, 146.2, 152.0)">o</text><text xml:space="preserve" font-family="Dosis-Regular" font-size="33.0" fill="#FEFFFF" transform="matrix(1.00, 0.00, -0.00, -1.00, 161.6, 152.0)"> </text><text xml:space="preserve" font-family="Dosis-Regular" font-size="33.0" fill="#FEFFFF" transform="matrix(1.00, 0.00, -0.00, -1.00, 168.2, 152.0)">i</text><text xml:space="preserve" font-family="Dosis-Regular" font-size="33.0" fill="#FEFFFF" transform="matrix(1.00, 0.00, -0.00, -1.00, 174.5, 152.0)">n</text><text xml:space="preserve" font-family="Dosis-Regular" font-size="33.0" fill="#FEFFFF" transform="matrix(1.00, 0.00, -0.00, -1.00, 190.6, 152.0)">v</text><text xml:space="preserve" font-family="Dosis-Regular" font-size="33.0" fill="#FEFFFF" transform="matrix(1.00, 0.00, -0.00, -1.00, 204.5, 152.0)">e</text><text xml:space="preserve" font-family="Dosis-Regular" font-size="33.0" fill="#FEFFFF" transform="matrix(1.00, 0.00, -0.00, -1.00, 219.6, 152.0)">s</text><text xml:space="preserve" font-family="Dosis-Regular" font-size="33.0" fill="#FEFFFF" transform="matrix(1.00, 0.00, -0.00, -1.00, 232.3, 152.0)">t</text><text xml:space="preserve" font-family="Dosis-Regular" font-size="33.0" fill="#FEFFFF" transform="matrix(1.00, 0.00, -0.00, -1.00, 242.1, 152.0)">i</text><text xml:space="preserve" font-family="Dosis-Regular" font-size="33.0" fill="#FEFFFF" transform="matrix(1.00, 0.00, -0.00, -1.00, 248.4, 152.0)">m</text><text xml:space="preserve" font-family="Dosis-Regular" font-size="33.0" fill="#FEFFFF" transform="matrix(1.00, 0.00, -0.00, -1.00, 274.2, 152.0)">e</text><text xml:space="preserve" font-family="Dosis-Regular" font-size="33.0" fill="#FEFFFF" transform="matrix(1.00, 0.00, -0.00, -1.00, 289.3, 152.0)">n</text><text xml:space="preserve" font-family="Dosis-Regular" font-size="33.0" fill="#FEFFFF" transform="matrix(1.00, 0.00, -0.00, -1.00, 305.6, 152.0)">t</text><text xml:space="preserve" font-family="Dosis-Regular" font-size="33.0" fill="#FEFFFF" transform="matrix(1.00, 0.00, -0.00, -1.00, 315.1, 152.0)">o</text><text xml:space="preserve" font-family="Dosis-Regular" font-size="33.0" fill="#FEFFFF" transform="matrix(1.00, 0.00, -0.00, -1.00, 330.6, 152.0)"> </text><text xml:space="preserve" font-family="Dosis-Regular" font-size="33.0" fill="#FEFFFF" transform="matrix(1.00, 0.00, -0.00, -1.00, 337.2, 152.0)">p</text><text xml:space="preserve" font-family="Dosis-Regular" font-size="33.0" fill="#FEFFFF" transform="matrix(1.00, 0.00, -0.00, -1.00, 353.2, 152.0)">r</text><text xml:space="preserve" font-family="Dosis-Regular" font-size="33.0" fill="#FEFFFF" transform="matrix(1.00, 0.00, -0.00, -1.00, 363.5, 152.0)">o</text><text xml:space="preserve" font-family="Dosis-Regular" font-size="33.0" fill="#FEFFFF" transform="matrix(1.00, 0.00, -0.00, -1.00, 378.9, 152.0)">s</text><text xml:space="preserve" font-family="Dosis-Regular" font-size="33.0" fill="#FEFFFF" transform="matrix(1.00, 0.00, -0.00, -1.00, 391.6, 152.0)"> </text><text xml:space="preserve" font-family="Dosis-Regular" font-size="33.0" fill="#FEFFFF" transform="matrix(1.00, 0.00, -0.00, -1.00, 398.2, 152.0)">p</text><text xml:space="preserve" font-family="Dosis-Regular" font-size="33.0" fill="#FEFFFF" transform="matrix(1.00, 0.00, -0.00, -1.00, 414.2, 152.0)">r</text><text xml:space="preserve" font-family="Dosis-Regular" font-size="33.0" fill="#FEFFFF" transform="matrix(1.00, 0.00, -0.00, -1.00, 424.5, 152.0)">ó</text><text xml:space="preserve" font-family="Dosis-Regular" font-size="33.0" fill="#FEFFFF" transform="matrix(1.00, 0.00, -0.00, -1.00, 439.7, 152.0)">x</text><text xml:space="preserve" font-family="Dosis-Regular" font-size="33.0" fill="#FEFFFF" transform="matrix(1.00, 0.00, -0.00, -1.00, 453.2, 152.0)">i</text><text xml:space="preserve" font-family="Dosis-Regular" font-size="33.0" fill="#FEFFFF" transform="matrix(1.00, 0.00, -0.00, -1.00, 459.5, 152.0)">m</text><text xml:space="preserve" font-family="Dosis-Regular" font-size="33.0" fill="#FEFFFF" transform="matrix(1.00, 0.00, -0.00, -1.00, 485.3, 152.0)">o</text><text xml:space="preserve" font-family="Dosis-Regular" font-size="33.0" fill="#FEFFFF" transform="matrix(1.00, 0.00, -0.00, -1.00, 500.7, 152.0)">s</text><text xml:space="preserve" font-family="Dosis-Regular" font-size="33.0" fill="#FEFFFF" transform="matrix(1.00, 0.00, -0.00, -1.00, 513.4, 152.0)"> </text><text xml:space="preserve" font-family="Dosis-Regular" font-size="33.0" fill="#FEFFFF" transform="matrix(1.00, 0.00, -0.00, -1.00, 520.0, 152.0)">x</text><text xml:space="preserve" font-family="Dosis-Regular" font-size="33.0" fill="#FEFFFF" transform="matrix(1.00, 0.00, -0.00, -1.00, 533.5, 152.0)">x</text><text xml:space="preserve" font-family="Dosis-Regular" font-size="33.0" fill="#FEFFFF" transform="matrix(1.00, 0.00, -0.00, -1.00, 547.1, 152.0)"> </text><text xml:space="preserve" font-family="Dosis-Regular" font-size="33.0" fill="#FEFFFF" transform="matrix(1.00, 0.00, -0.00, -1.00, 553.7, 152.0)">a</text><text xml:space="preserve" font-family="Dosis-Regular" font-size="33.0" fill="#FEFFFF" transform="matrix(1.00, 0.00, -0.00, -1.00, 568.1, 152.0)">n</text><text xml:space="preserve" font-family="Dosis-Regular" font-size="33.0" fill="#FEFFFF" transform="matrix(1.00, 0.00, -0.00, -1.00, 584.5, 152.0)">o</text><text xml:space="preserve" font-family="Dosis-Regular" font-size="33.0" fill="#FEFFFF" transform="matrix(1.00, 0.00, -0.00, -1.00, 599.9, 152.0)">s</text><text xml:space="preserve" font-family="Dosis-Regular" font-size="33.0" fill="#FEFFFF" transform="matrix(1.00, 0.00, -0.00, -1.00, 612.6, 152.0)"> </text><text xml:space="preserve" font-family="Dosis-Regular" font-size="50.0" fill="#FEFFFF" transform="matrix(1.00, 0.00, -0.00, -1.00, 55.0, 93.0)">U</text><text xml:space="preserve" font-family="Dosis-Regular" font-size="50.0" fill="#FEFFFF" transform="matrix(1.00, 0.00, -0.00, -1.00, 83.3, 93.0)">S</text><text xml:space="preserve" font-family="Dosis-Regular" font-size="50.0" fill="#FEFFFF" transform="matrix(1.00, 0.00, -0.00, -1.00, 108.0, 93.0)">$</text><text xml:space="preserve" font-family="Dosis-Regular" font-size="50.0" fill="#FEFFFF" transform="matrix(1.00, 0.00, -0.00, -1.00, 132.9, 93.0)"> </text><text xml:space="preserve" font-family="Dosis-Regular" font-size="50.0" fill="#FEFFFF" transform="matrix(1.00, 0.00, -0.00, -1.00, 142.9, 93.0)">1</text><text xml:space="preserve" font-family="Dosis-Regular" font-size="50.0" fill="#FEFFFF" transform="matrix(1.00, 0.00, -0.00, -1.00, 154.6, 93.0)">1</text><text xml:space="preserve" font-family="Dosis-Regular" font-size="50.0" fill="#FEFFFF" transform="matrix(1.00, 0.00, -0.00, -1.00, 166.2, 93.0)">0</text><text xml:space="preserve" font-family="Dosis-Regular" font-size="50.0" fill="#FEFFFF" transform="matrix(1.00, 0.00, -0.00, -1.00, 192.9, 93.0)"> </text><text xml:space="preserve" font-family="Dosis-Regular" font-size="50.0" fill="#FEFFFF" transform="matrix(1.00, 0.00, -0.00, -1.00, 202.9, 93.0)">b</text><text xml:space="preserve" font-family="Dosis-Regular" font-size="50.0" fill="#FEFFFF" transform="matrix(1.00, 0.00, -0.00, -1.00, 227.1, 93.0)">i</text><text xml:space="preserve" font-family="Dosis-Regular" font-size="50.0" fill="#FEFFFF" transform="matrix(1.00, 0.00, -0.00, -1.00, 236.6, 93.0)">l</text><text xml:space="preserve" font-family="Dosis-Regular" font-size="50.0" fill="#FEFFFF" transform="matrix(1.00, 0.00, -0.00, -1.00, 247.0, 93.0)">h</text><text xml:space="preserve" font-family="Dosis-Regular" font-size="50.0" fill="#FEFFFF" transform="matrix(1.00, 0.00, -0.00, -1.00, 271.8, 93.0)">õ</text><text xml:space="preserve" font-family="Dosis-Regular" font-size="50.0" fill="#FEFFFF" transform="matrix(1.00, 0.00, -0.00, -1.00, 295.2, 93.0)">e</text><text xml:space="preserve" font-family="Dosis-Regular" font-size="50.0" fill="#FEFFFF" transform="matrix(1.00, 0.00, -0.00, -1.00, 318.1, 93.0)">s</text><text xml:space="preserve" font-family="Dosis-Regular" font-size="50.0" fill="#FEFFFF" transform="matrix(1.00, 0.00, -0.00, -1.00, 337.3, 93.0)"> </text></g></svg>