<?xml version="1.0" encoding="UTF-8" standalone="no"?><svg xmlns="http://www.w3.org/2000/svg" xmlns:xlink="http://www.w3.org/1999/xlink" clip-rule="evenodd" stroke-miterlimit="4.00" viewBox="0 0 465 49"><desc>SVG generated by Keynote</desc><defs></defs><g transform="matrix(1.00, 0.00, -0.00, -1.00, 0.0, 49.0)"><text xml:space="preserve" font-family="Dosis-Regular" font-size="46.0" fill="#002451" transform="matrix(1.00, 0.00, -0.00, -1.00, 0.0, 12.0)">d</text><text xml:space="preserve" font-family="Dosis-Regular" font-size="46.0" fill="#002451" transform="matrix(1.00, 0.00, -0.00, -1.00, 22.3, 12.0)">i</text><text xml:space="preserve" font-family="Dosis-Regular" font-size="46.0" fill="#002451" transform="matrix(1.00, 0.00, -0.00, -1.00, 31.0, 12.0)">s</text><text xml:space="preserve" font-family="Dosis-Regular" font-size="46.0" fill="#002451" transform="matrix(1.00, 0.00, -0.00, -1.00, 48.8, 12.0)">p</text><text xml:space="preserve" font-family="Dosis-Regular" font-size="46.0" fill="#002451" transform="matrix(1.00, 0.00, -0.00, -1.00, 71.0, 12.0)">o</text><text xml:space="preserve" font-family="Dosis-Regular" font-size="46.0" fill="#002451" transform="matrix(1.00, 0.00, -0.00, -1.00, 92.6, 12.0)">n</text><text xml:space="preserve" font-family="Dosis-Regular" font-size="46.0" fill="#002451" transform="matrix(1.00, 0.00, -0.00, -1.00, 115.4, 12.0)">í</text><text xml:space="preserve" font-family="Dosis-Regular" font-size="46.0" fill="#002451" transform="matrix(1.00, 0.00, -0.00, -1.00, 124.2, 12.0)">v</text><text xml:space="preserve" font-family="Dosis-Regular" font-size="46.0" fill="#002451" transform="matrix(1.00, 0.00, -0.00, -1.00, 143.5, 12.0)">e</text><text xml:space="preserve" font-family="Dosis-Regular" font-size="46.0" fill="#002451" transform="matrix(1.00, 0.00, -0.00, -1.00, 164.5, 12.0)">l</text><text xml:space="preserve" font-family="Dosis-Regular" font-size="46.0" fill="#002451" transform="matrix(1.00, 0.00, -0.00, -1.00, 174.1, 12.0)">:</text><text xml:space="preserve" font-family="Dosis-Regular" font-size="46.0" fill="#002451" transform="matrix(1.00, 0.00, -0.00, -1.00, 183.4, 12.0)"> </text><text xml:space="preserve" font-family="Dosis-SemiBold" font-weight="bold" font-size="46.0" fill="#002451" transform="matrix(1.00, 0.00, -0.00, -1.00, 192.6, 12.0)">S</text><text xml:space="preserve" font-family="Dosis-SemiBold" font-weight="bold" font-size="46.0" fill="#002451" transform="matrix(1.00, 0.00, -0.00, -1.00, 216.2, 12.0)">a</text><text xml:space="preserve" font-family="Dosis-SemiBold" font-weight="bold" font-size="46.0" fill="#002451" transform="matrix(1.00, 0.00, -0.00, -1.00, 237.3, 12.0)">l</text><text xml:space="preserve" font-family="Dosis-SemiBold" font-weight="bold" font-size="46.0" fill="#002451" transform="matrix(1.00, 0.00, -0.00, -1.00, 248.0, 12.0)">ã</text><text xml:space="preserve" font-family="Dosis-SemiBold" font-weight="bold" font-size="46.0" fill="#002451" transform="matrix(1.00, 0.00, -0.00, -1.00, 269.2, 12.0)">o</text><text xml:space="preserve" font-family="Dosis-SemiBold" font-weight="bold" font-size="46.0" fill="#002451" transform="matrix(1.00, 0.00, -0.00, -1.00, 291.6, 12.0)"> </text><text xml:space="preserve" font-family="Dosis-SemiBold" font-weight="bold" font-size="46.0" fill="#002451" transform="matrix(1.00, 0.00, -0.00, -1.00, 300.8, 12.0)">d</text><text xml:space="preserve" font-family="Dosis-SemiBold" font-weight="bold" font-size="46.0" fill="#002451" transform="matrix(1.00, 0.00, -0.00, -1.00, 324.1, 12.0)">e</text><text xml:space="preserve" font-family="Dosis-SemiBold" font-weight="bold" font-size="46.0" fill="#002451" transform="matrix(1.00, 0.00, -0.00, -1.00, 345.9, 12.0)"> </text><text xml:space="preserve" font-family="Dosis-SemiBold" font-weight="bold" font-size="46.0" fill="#002451" transform="matrix(1.00, 0.00, -0.00, -1.00, 355.1, 12.0)">f</text><text xml:space="preserve" font-family="Dosis-SemiBold" font-weight="bold" font-size="46.0" fill="#002451" transform="matrix(1.00, 0.00, -0.00, -1.00, 369.6, 12.0)">e</text><text xml:space="preserve" font-family="Dosis-SemiBold" font-weight="bold" font-size="46.0" fill="#002451" transform="matrix(1.00, 0.00, -0.00, -1.00, 391.4, 12.0)">s</text><text xml:space="preserve" font-family="Dosis-SemiBold" font-weight="bold" font-size="46.0" fill="#002451" transform="matrix(1.00, 0.00, -0.00, -1.00, 410.0, 12.0)">t</text><text xml:space="preserve" font-family="Dosis-SemiBold" font-weight="bold" font-size="46.0" fill="#002451" transform="matrix(1.00, 0.00, -0.00, -1.00, 425.1, 12.0)">a</text><text xml:space="preserve" font-family="Dosis-SemiBold" font-weight="bold" font-size="46.0" fill="#002451" transform="matrix(1.00, 0.00, -0.00, -1.00, 446.3, 12.0)">s</text></g></svg>