<?xml version="1.0" encoding="UTF-8" standalone="no"?><svg xmlns="http://www.w3.org/2000/svg" xmlns:xlink="http://www.w3.org/1999/xlink" clip-rule="evenodd" stroke-miterlimit="4.00" viewBox="0 0 306 85"><desc>SVG generated by Keynote</desc><defs></defs><g transform="matrix(1.00, 0.00, -0.00, -1.00, 0.0, 85.0)"><image xlink:href="../../14C88248-491B-46E2-AA1E-00DDB765B323/assets/98B172381F10F11F8992ED51E074458B.png" width="300.00" height="81.00" transform="matrix(1.00, 0.00, -0.00, -1.00, 1.0, 83.0)"></image><g><clipPath id="clip-153"><path d="M 0.0 2.0 L 306.0 2.0 L 306.0 85.0 L 0.0 85.0 Z M 0.0 2.0 "></path></clipPath><g clip-path="url(#clip-153)"><text xml:space="preserve" font-family="MavenProRegular" font-size="89.8" fill="#95B71E" transform="matrix(1.00, 0.00, -0.00, -1.00, 1.0, 21.0)">s</text><text xml:space="preserve" font-family="MavenProRegular" font-size="89.8" fill="#95B71E" transform="matrix(1.00, 0.00, -0.00, -1.00, 39.0, 21.0)">o</text><text xml:space="preserve" font-family="MavenProRegular" font-size="89.8" fill="#95B71E" transform="matrix(1.00, 0.00, -0.00, -1.00, 88.1, 21.0)">l</text><text xml:space="preserve" font-family="MavenProRegular" font-size="89.8" fill="#95B71E" transform="matrix(1.00, 0.00, -0.00, -1.00, 110.0, 21.0)">u</text><text xml:space="preserve" font-family="MavenProRegular" font-size="89.8" fill="#95B71E" transform="matrix(1.00, 0.00, -0.00, -1.00, 160.5, 21.0)">รง</text><text xml:space="preserve" font-family="MavenProRegular" font-size="89.8" fill="#95B71E" transform="matrix(1.00, 0.00, -0.00, -1.00, 203.0, 21.0)">รฃ</text><text xml:space="preserve" font-family="MavenProRegular" font-size="89.8" fill="#95B71E" transform="matrix(1.00, 0.00, -0.00, -1.00, 249.5, 21.0)">o</text><text xml:space="preserve" font-family="MavenProRegular" font-size="89.8" fill="#95B71E" transform="matrix(1.00, 0.00, -0.00, -1.00, 300.1, 21.0)"> </text></g></g></g></svg>