<?xml version="1.0" encoding="UTF-8" standalone="no"?><svg xmlns="http://www.w3.org/2000/svg" xmlns:xlink="http://www.w3.org/1999/xlink" clip-rule="evenodd" stroke-miterlimit="4.00" viewBox="0 0 786 269"><desc>SVG generated by Keynote</desc><defs></defs><g transform="matrix(1.00, 0.00, -0.00, -1.00, 0.0, 269.0)"><image xlink:href="9C4D968893503EB0A569C3A14700EF71.png" width="693.00" height="140.00" transform="matrix(1.00, 0.00, -0.00, -1.00, -1.0, 283.0)"></image><path d="M 33.3 266.6 L 657.4 266.6 L 657.4 195.6 L 33.3 195.6 Z M 33.3 266.6 " fill="#B24370"></path><image xlink:href="47DDD131CCE52A3593B01F45E9DD76F5.png" width="708.00" height="140.00" transform="matrix(1.00, 0.00, -0.00, -1.00, -1.0, 212.0)"></image><path d="M 33.3 195.6 L 672.8 195.6 L 672.8 124.6 L 33.3 124.6 Z M 33.3 195.6 " fill="#B24370"></path><image xlink:href="ECDA0AB6E89BE9009B21FFE1753B56AD.png" width="786.00" height="140.00" transform="matrix(1.00, 0.00, -0.00, -1.00, -1.0, 141.0)"></image><path d="M 33.3 124.6 L 750.5 124.6 L 750.5 53.6 L 33.3 53.6 Z M 33.3 124.6 " fill="#B24370"></path><image xlink:href="46776B78E7D1DD4260F78E83371B49FE.png" width="677.00" height="124.00" transform="matrix(1.00, 0.00, -0.00, -1.00, 1.0, 268.0)"></image><text xml:space="preserve" font-family="Dosis-Regular" font-size="56.0" fill="#FEFFFF" transform="matrix(1.00, 0.00, -0.00, -1.00, 33.0, 209.0)">o</text><text xml:space="preserve" font-family="Dosis-Regular" font-size="56.0" fill="#FEFFFF" transform="matrix(1.00, 0.00, -0.00, -1.00, 59.2, 209.0)">s</text><text xml:space="preserve" font-family="Dosis-Regular" font-size="56.0" fill="#FEFFFF" transform="matrix(1.00, 0.00, -0.00, -1.00, 80.8, 209.0)"> </text><text xml:space="preserve" font-family="Dosis-Regular" font-size="56.0" fill="#FEFFFF" transform="matrix(1.00, 0.00, -0.00, -1.00, 92.0, 209.0)">p</text><text xml:space="preserve" font-family="Dosis-Regular" font-size="56.0" fill="#FEFFFF" transform="matrix(1.00, 0.00, -0.00, -1.00, 119.1, 209.0)">r</text><text xml:space="preserve" font-family="Dosis-Regular" font-size="56.0" fill="#FEFFFF" transform="matrix(1.00, 0.00, -0.00, -1.00, 136.6, 209.0)">o</text><text xml:space="preserve" font-family="Dosis-Regular" font-size="56.0" fill="#FEFFFF" transform="matrix(1.00, 0.00, -0.00, -1.00, 162.8, 209.0)">c</text><text xml:space="preserve" font-family="Dosis-Regular" font-size="56.0" fill="#FEFFFF" transform="matrix(1.00, 0.00, -0.00, -1.00, 185.5, 209.0)">e</text><text xml:space="preserve" font-family="Dosis-Regular" font-size="56.0" fill="#FEFFFF" transform="matrix(1.00, 0.00, -0.00, -1.00, 211.2, 209.0)">s</text><text xml:space="preserve" font-family="Dosis-Regular" font-size="56.0" fill="#FEFFFF" transform="matrix(1.00, 0.00, -0.00, -1.00, 232.8, 209.0)">s</text><text xml:space="preserve" font-family="Dosis-Regular" font-size="56.0" fill="#FEFFFF" transform="matrix(1.00, 0.00, -0.00, -1.00, 254.3, 209.0)">o</text><text xml:space="preserve" font-family="Dosis-Regular" font-size="56.0" fill="#FEFFFF" transform="matrix(1.00, 0.00, -0.00, -1.00, 280.5, 209.0)">s</text><text xml:space="preserve" font-family="Dosis-Regular" font-size="56.0" fill="#FEFFFF" transform="matrix(1.00, 0.00, -0.00, -1.00, 302.1, 209.0)"> </text><text xml:space="preserve" font-family="Dosis-Regular" font-size="56.0" fill="#FEFFFF" transform="matrix(1.00, 0.00, -0.00, -1.00, 313.3, 209.0)">d</text><text xml:space="preserve" font-family="Dosis-Regular" font-size="56.0" fill="#FEFFFF" transform="matrix(1.00, 0.00, -0.00, -1.00, 340.4, 209.0)">e</text><text xml:space="preserve" font-family="Dosis-Regular" font-size="56.0" fill="#FEFFFF" transform="matrix(1.00, 0.00, -0.00, -1.00, 366.0, 209.0)"> </text><text xml:space="preserve" font-family="Dosis-Regular" font-size="56.0" fill="#FEFFFF" transform="matrix(1.00, 0.00, -0.00, -1.00, 377.2, 209.0)">t</text><text xml:space="preserve" font-family="Dosis-Regular" font-size="56.0" fill="#FEFFFF" transform="matrix(1.00, 0.00, -0.00, -1.00, 393.9, 209.0)">r</text><text xml:space="preserve" font-family="Dosis-Regular" font-size="56.0" fill="#FEFFFF" transform="matrix(1.00, 0.00, -0.00, -1.00, 412.4, 209.0)">a</text><text xml:space="preserve" font-family="Dosis-Regular" font-size="56.0" fill="#FEFFFF" transform="matrix(1.00, 0.00, -0.00, -1.00, 436.9, 209.0)">b</text><text xml:space="preserve" font-family="Dosis-Regular" font-size="56.0" fill="#FEFFFF" transform="matrix(1.00, 0.00, -0.00, -1.00, 464.0, 209.0)">a</text><text xml:space="preserve" font-family="Dosis-Regular" font-size="56.0" fill="#FEFFFF" transform="matrix(1.00, 0.00, -0.00, -1.00, 488.6, 209.0)">l</text><text xml:space="preserve" font-family="Dosis-Regular" font-size="56.0" fill="#FEFFFF" transform="matrix(1.00, 0.00, -0.00, -1.00, 500.2, 209.0)">h</text><text xml:space="preserve" font-family="Dosis-Regular" font-size="56.0" fill="#FEFFFF" transform="matrix(1.00, 0.00, -0.00, -1.00, 527.9, 209.0)">o</text><text xml:space="preserve" font-family="Dosis-Regular" font-size="56.0" fill="#FEFFFF" transform="matrix(1.00, 0.00, -0.00, -1.00, 554.1, 209.0)"> </text><text xml:space="preserve" font-family="Dosis-Regular" font-size="56.0" fill="#FEFFFF" transform="matrix(1.00, 0.00, -0.00, -1.00, 565.3, 209.0)">q</text><text xml:space="preserve" font-family="Dosis-Regular" font-size="56.0" fill="#FEFFFF" transform="matrix(1.00, 0.00, -0.00, -1.00, 592.4, 209.0)">u</text><text xml:space="preserve" font-family="Dosis-Regular" font-size="56.0" fill="#FEFFFF" transform="matrix(1.00, 0.00, -0.00, -1.00, 620.2, 209.0)">e</text><text xml:space="preserve" font-family="Dosis-Regular" font-size="56.0" fill="#FEFFFF" transform="matrix(1.00, 0.00, -0.00, -1.00, 645.9, 209.0)"> </text><image xlink:href="01E60EB8550851B0EEEBC200E0160801.png" width="693.00" height="124.00" transform="matrix(1.00, 0.00, -0.00, -1.00, 1.0, 197.0)"></image><text xml:space="preserve" font-family="Dosis-Regular" font-size="56.0" fill="#FEFFFF" transform="matrix(1.00, 0.00, -0.00, -1.00, 33.0, 138.0)">c</text><text xml:space="preserve" font-family="Dosis-Regular" font-size="56.0" fill="#FEFFFF" transform="matrix(1.00, 0.00, -0.00, -1.00, 55.7, 138.0)">o</text><text xml:space="preserve" font-family="Dosis-Regular" font-size="56.0" fill="#FEFFFF" transform="matrix(1.00, 0.00, -0.00, -1.00, 81.9, 138.0)">n</text><text xml:space="preserve" font-family="Dosis-Regular" font-size="56.0" fill="#FEFFFF" transform="matrix(1.00, 0.00, -0.00, -1.00, 109.7, 138.0)">h</text><text xml:space="preserve" font-family="Dosis-Regular" font-size="56.0" fill="#FEFFFF" transform="matrix(1.00, 0.00, -0.00, -1.00, 137.5, 138.0)">e</text><text xml:space="preserve" font-family="Dosis-Regular" font-size="56.0" fill="#FEFFFF" transform="matrix(1.00, 0.00, -0.00, -1.00, 163.1, 138.0)">c</text><text xml:space="preserve" font-family="Dosis-Regular" font-size="56.0" fill="#FEFFFF" transform="matrix(1.00, 0.00, -0.00, -1.00, 185.9, 138.0)">e</text><text xml:space="preserve" font-family="Dosis-Regular" font-size="56.0" fill="#FEFFFF" transform="matrix(1.00, 0.00, -0.00, -1.00, 211.5, 138.0)">m</text><text xml:space="preserve" font-family="Dosis-Regular" font-size="56.0" fill="#FEFFFF" transform="matrix(1.00, 0.00, -0.00, -1.00, 255.2, 138.0)">o</text><text xml:space="preserve" font-family="Dosis-Regular" font-size="56.0" fill="#FEFFFF" transform="matrix(1.00, 0.00, -0.00, -1.00, 281.4, 138.0)">s</text><text xml:space="preserve" font-family="Dosis-Regular" font-size="56.0" fill="#FEFFFF" transform="matrix(1.00, 0.00, -0.00, -1.00, 303.0, 138.0)"> </text><text xml:space="preserve" font-family="Dosis-Regular" font-size="56.0" fill="#FEFFFF" transform="matrix(1.00, 0.00, -0.00, -1.00, 314.2, 138.0)">h</text><text xml:space="preserve" font-family="Dosis-Regular" font-size="56.0" fill="#FEFFFF" transform="matrix(1.00, 0.00, -0.00, -1.00, 342.0, 138.0)">o</text><text xml:space="preserve" font-family="Dosis-Regular" font-size="56.0" fill="#FEFFFF" transform="matrix(1.00, 0.00, -0.00, -1.00, 368.2, 138.0)">j</text><text xml:space="preserve" font-family="Dosis-Regular" font-size="56.0" fill="#FEFFFF" transform="matrix(1.00, 0.00, -0.00, -1.00, 378.9, 138.0)">e</text><text xml:space="preserve" font-family="Dosis-Regular" font-size="56.0" fill="#FEFFFF" transform="matrix(1.00, 0.00, -0.00, -1.00, 404.5, 138.0)"> </text><text xml:space="preserve" font-family="Dosis-Regular" font-size="56.0" fill="#FEFFFF" transform="matrix(1.00, 0.00, -0.00, -1.00, 415.7, 138.0)">t</text><text xml:space="preserve" font-family="Dosis-Regular" font-size="56.0" fill="#FEFFFF" transform="matrix(1.00, 0.00, -0.00, -1.00, 431.8, 138.0)">ê</text><text xml:space="preserve" font-family="Dosis-Regular" font-size="56.0" fill="#FEFFFF" transform="matrix(1.00, 0.00, -0.00, -1.00, 457.5, 138.0)">m</text><text xml:space="preserve" font-family="Dosis-Regular" font-size="56.0" fill="#FEFFFF" transform="matrix(1.00, 0.00, -0.00, -1.00, 501.2, 138.0)"> </text><text xml:space="preserve" font-family="Dosis-Regular" font-size="56.0" fill="#FEFFFF" transform="matrix(1.00, 0.00, -0.00, -1.00, 512.4, 138.0)">g</text><text xml:space="preserve" font-family="Dosis-Regular" font-size="56.0" fill="#FEFFFF" transform="matrix(1.00, 0.00, -0.00, -1.00, 537.7, 138.0)">r</text><text xml:space="preserve" font-family="Dosis-Regular" font-size="56.0" fill="#FEFFFF" transform="matrix(1.00, 0.00, -0.00, -1.00, 556.2, 138.0)">a</text><text xml:space="preserve" font-family="Dosis-Regular" font-size="56.0" fill="#FEFFFF" transform="matrix(1.00, 0.00, -0.00, -1.00, 580.7, 138.0)">n</text><text xml:space="preserve" font-family="Dosis-Regular" font-size="56.0" fill="#FEFFFF" transform="matrix(1.00, 0.00, -0.00, -1.00, 608.5, 138.0)">d</text><text xml:space="preserve" font-family="Dosis-Regular" font-size="56.0" fill="#FEFFFF" transform="matrix(1.00, 0.00, -0.00, -1.00, 635.6, 138.0)">e</text><text xml:space="preserve" font-family="Dosis-Regular" font-size="56.0" fill="#FEFFFF" transform="matrix(1.00, 0.00, -0.00, -1.00, 661.3, 138.0)"> </text><image xlink:href="BA56724F77372B7F39DD3269B8CD913E.png" width="781.00" height="123.00" transform="matrix(1.00, 0.00, -0.00, -1.00, 1.0, 126.0)"></image><text xml:space="preserve" font-family="Dosis-Regular" font-size="56.0" fill="#FEFFFF" transform="matrix(1.00, 0.00, -0.00, -1.00, 33.0, 67.0)">i</text><text xml:space="preserve" font-family="Dosis-Regular" font-size="56.0" fill="#FEFFFF" transform="matrix(1.00, 0.00, -0.00, -1.00, 43.7, 67.0)">n</text><text xml:space="preserve" font-family="Dosis-Regular" font-size="56.0" fill="#FEFFFF" transform="matrix(1.00, 0.00, -0.00, -1.00, 71.5, 67.0)">ﬂ</text><text xml:space="preserve" font-family="Dosis-Regular" font-size="56.0" fill="#FEFFFF" transform="matrix(1.00, 0.00, -0.00, -1.00, 100.3, 67.0)">u</text><text xml:space="preserve" font-family="Dosis-Regular" font-size="56.0" fill="#FEFFFF" transform="matrix(1.00, 0.00, -0.00, -1.00, 128.1, 67.0)">ê</text><text xml:space="preserve" font-family="Dosis-Regular" font-size="56.0" fill="#FEFFFF" transform="matrix(1.00, 0.00, -0.00, -1.00, 153.7, 67.0)">n</text><text xml:space="preserve" font-family="Dosis-Regular" font-size="56.0" fill="#FEFFFF" transform="matrix(1.00, 0.00, -0.00, -1.00, 181.5, 67.0)">c</text><text xml:space="preserve" font-family="Dosis-Regular" font-size="56.0" fill="#FEFFFF" transform="matrix(1.00, 0.00, -0.00, -1.00, 204.5, 67.0)">i</text><text xml:space="preserve" font-family="Dosis-Regular" font-size="56.0" fill="#FEFFFF" transform="matrix(1.00, 0.00, -0.00, -1.00, 215.2, 67.0)">a</text><text xml:space="preserve" font-family="Dosis-Regular" font-size="56.0" fill="#FEFFFF" transform="matrix(1.00, 0.00, -0.00, -1.00, 239.8, 67.0)"> </text><text xml:space="preserve" font-family="Dosis-Regular" font-size="56.0" fill="#FEFFFF" transform="matrix(1.00, 0.00, -0.00, -1.00, 251.0, 67.0)">d</text><text xml:space="preserve" font-family="Dosis-Regular" font-size="56.0" fill="#FEFFFF" transform="matrix(1.00, 0.00, -0.00, -1.00, 278.1, 67.0)">a</text><text xml:space="preserve" font-family="Dosis-Regular" font-size="56.0" fill="#FEFFFF" transform="matrix(1.00, 0.00, -0.00, -1.00, 302.6, 67.0)"> </text><text xml:space="preserve" font-family="Dosis-Regular" font-size="56.0" fill="#FEFFFF" transform="matrix(1.00, 0.00, -0.00, -1.00, 313.8, 67.0)">R</text><text xml:space="preserve" font-family="Dosis-Regular" font-size="56.0" fill="#FEFFFF" transform="matrix(1.00, 0.00, -0.00, -1.00, 342.7, 67.0)">e</text><text xml:space="preserve" font-family="Dosis-Regular" font-size="56.0" fill="#FEFFFF" transform="matrix(1.00, 0.00, -0.00, -1.00, 368.4, 67.0)">v</text><text xml:space="preserve" font-family="Dosis-Regular" font-size="56.0" fill="#FEFFFF" transform="matrix(1.00, 0.00, -0.00, -1.00, 391.9, 67.0)">o</text><text xml:space="preserve" font-family="Dosis-Regular" font-size="56.0" fill="#FEFFFF" transform="matrix(1.00, 0.00, -0.00, -1.00, 418.1, 67.0)">l</text><text xml:space="preserve" font-family="Dosis-Regular" font-size="56.0" fill="#FEFFFF" transform="matrix(1.00, 0.00, -0.00, -1.00, 429.7, 67.0)">u</text><text xml:space="preserve" font-family="Dosis-Regular" font-size="56.0" fill="#FEFFFF" transform="matrix(1.00, 0.00, -0.00, -1.00, 457.5, 67.0)">ç</text><text xml:space="preserve" font-family="Dosis-Regular" font-size="56.0" fill="#FEFFFF" transform="matrix(1.00, 0.00, -0.00, -1.00, 480.5, 67.0)">ã</text><text xml:space="preserve" font-family="Dosis-Regular" font-size="56.0" fill="#FEFFFF" transform="matrix(1.00, 0.00, -0.00, -1.00, 505.0, 67.0)">o</text><text xml:space="preserve" font-family="Dosis-Regular" font-size="56.0" fill="#FEFFFF" transform="matrix(1.00, 0.00, -0.00, -1.00, 531.2, 67.0)"> </text><text xml:space="preserve" font-family="Dosis-Regular" font-size="56.0" fill="#FEFFFF" transform="matrix(1.00, 0.00, -0.00, -1.00, 542.4, 67.0)">I</text><text xml:space="preserve" font-family="Dosis-Regular" font-size="56.0" fill="#FEFFFF" transform="matrix(1.00, 0.00, -0.00, -1.00, 554.4, 67.0)">n</text><text xml:space="preserve" font-family="Dosis-Regular" font-size="56.0" fill="#FEFFFF" transform="matrix(1.00, 0.00, -0.00, -1.00, 582.1, 67.0)">d</text><text xml:space="preserve" font-family="Dosis-Regular" font-size="56.0" fill="#FEFFFF" transform="matrix(1.00, 0.00, -0.00, -1.00, 609.2, 67.0)">u</text><text xml:space="preserve" font-family="Dosis-Regular" font-size="56.0" fill="#FEFFFF" transform="matrix(1.00, 0.00, -0.00, -1.00, 637.0, 67.0)">s</text><text xml:space="preserve" font-family="Dosis-Regular" font-size="56.0" fill="#FEFFFF" transform="matrix(1.00, 0.00, -0.00, -1.00, 658.6, 67.0)">t</text><text xml:space="preserve" font-family="Dosis-Regular" font-size="56.0" fill="#FEFFFF" transform="matrix(1.00, 0.00, -0.00, -1.00, 675.2, 67.0)">r</text><text xml:space="preserve" font-family="Dosis-Regular" font-size="56.0" fill="#FEFFFF" transform="matrix(1.00, 0.00, -0.00, -1.00, 693.7, 67.0)">i</text><text xml:space="preserve" font-family="Dosis-Regular" font-size="56.0" fill="#FEFFFF" transform="matrix(1.00, 0.00, -0.00, -1.00, 704.4, 67.0)">a</text><text xml:space="preserve" font-family="Dosis-Regular" font-size="56.0" fill="#FEFFFF" transform="matrix(1.00, 0.00, -0.00, -1.00, 729.0, 67.0)">l</text><text xml:space="preserve" font-family="Dosis-Regular" font-size="56.0" fill="#FEFFFF" transform="matrix(1.00, 0.00, -0.00, -1.00, 740.6, 67.0)">.</text><text xml:space="preserve" font-family="Dosis-Regular" font-size="56.0" fill="#FEFFFF" transform="matrix(1.00, 0.00, -0.00, -1.00, 750.1, 67.0)"> </text></g></svg>