<?xml version="1.0" encoding="UTF-8" standalone="no"?><svg xmlns="http://www.w3.org/2000/svg" xmlns:xlink="http://www.w3.org/1999/xlink" clip-rule="evenodd" stroke-miterlimit="4.00" viewBox="0 0 344 45"><desc>SVG generated by Keynote</desc><defs></defs><g transform="matrix(1.00, 0.00, -0.00, -1.00, 0.0, 45.0)"><text xml:space="preserve" font-family="Dosis-Regular" font-size="42.0" fill="#002451" transform="matrix(1.00, 0.00, -0.00, -1.00, 1.0, 11.0)">c</text><text xml:space="preserve" font-family="Dosis-Regular" font-size="42.0" fill="#002451" transform="matrix(1.00, 0.00, -0.00, -1.00, 18.1, 11.0)">o</text><text xml:space="preserve" font-family="Dosis-Regular" font-size="42.0" fill="#002451" transform="matrix(1.00, 0.00, -0.00, -1.00, 37.7, 11.0)">m</text><text xml:space="preserve" font-family="Dosis-Regular" font-size="42.0" fill="#002451" transform="matrix(1.00, 0.00, -0.00, -1.00, 70.5, 11.0)"> </text><text xml:space="preserve" font-family="Dosis-Regular" font-size="42.0" fill="#002451" transform="matrix(1.00, 0.00, -0.00, -1.00, 78.9, 11.0)">o</text><text xml:space="preserve" font-family="Dosis-Regular" font-size="42.0" fill="#002451" transform="matrix(1.00, 0.00, -0.00, -1.00, 98.5, 11.0)"> </text><text xml:space="preserve" font-family="Dosis-Regular" font-size="42.0" fill="#002451" transform="matrix(1.00, 0.00, -0.00, -1.00, 106.9, 11.0)">e</text><text xml:space="preserve" font-family="Dosis-Regular" font-size="42.0" fill="#002451" transform="matrix(1.00, 0.00, -0.00, -1.00, 126.2, 11.0)">s</text><text xml:space="preserve" font-family="Dosis-Regular" font-size="42.0" fill="#002451" transform="matrix(1.00, 0.00, -0.00, -1.00, 142.3, 11.0)">p</text><text xml:space="preserve" font-family="Dosis-Regular" font-size="42.0" fill="#002451" transform="matrix(1.00, 0.00, -0.00, -1.00, 162.7, 11.0)">a</text><text xml:space="preserve" font-family="Dosis-Regular" font-size="42.0" fill="#002451" transform="matrix(1.00, 0.00, -0.00, -1.00, 181.1, 11.0)">รง</text><text xml:space="preserve" font-family="Dosis-Regular" font-size="42.0" fill="#002451" transform="matrix(1.00, 0.00, -0.00, -1.00, 198.1, 11.0)">o</text><text xml:space="preserve" font-family="Dosis-Regular" font-size="42.0" fill="#002451" transform="matrix(1.00, 0.00, -0.00, -1.00, 217.8, 11.0)"> </text><text xml:space="preserve" font-family="Dosis-Regular" font-size="42.0" fill="#002451" transform="matrix(1.00, 0.00, -0.00, -1.00, 226.2, 11.0)">d</text><text xml:space="preserve" font-family="Dosis-Regular" font-size="42.0" fill="#002451" transform="matrix(1.00, 0.00, -0.00, -1.00, 246.5, 11.0)">e</text><text xml:space="preserve" font-family="Dosis-Regular" font-size="42.0" fill="#002451" transform="matrix(1.00, 0.00, -0.00, -1.00, 265.7, 11.0)"> </text><text xml:space="preserve" font-family="Dosis-Regular" font-size="42.0" fill="#002451" transform="matrix(1.00, 0.00, -0.00, -1.00, 274.1, 11.0)">S</text><text xml:space="preserve" font-family="Dosis-Regular" font-size="42.0" fill="#002451" transform="matrix(1.00, 0.00, -0.00, -1.00, 294.9, 11.0)">a</text><text xml:space="preserve" font-family="Dosis-Regular" font-size="42.0" fill="#002451" transform="matrix(1.00, 0.00, -0.00, -1.00, 313.3, 11.0)">r</text><text xml:space="preserve" font-family="Dosis-Regular" font-size="42.0" fill="#002451" transform="matrix(1.00, 0.00, -0.00, -1.00, 327.2, 11.0)">a</text></g></svg>