<?xml version="1.0" encoding="UTF-8" standalone="no"?><svg xmlns="http://www.w3.org/2000/svg" xmlns:xlink="http://www.w3.org/1999/xlink" clip-rule="evenodd" stroke-miterlimit="4.00" viewBox="0 0 1920 1080"><desc>SVG generated by Keynote</desc><defs></defs><g transform="matrix(1.00, 0.00, -0.00, -1.00, 0.0, 1080.0)"><path d="M 0.0 1080.0 L 1920.0 1080.0 L 1920.0 0.0 L 0.0 0.0 Z M 0.0 1080.0 " fill="#241D2B"></path><image xlink:href="9CA9CFD4030718EBCC283CB0F1783304.png" width="491.00" height="81.00" transform="matrix(1.00, 0.00, -0.00, -1.00, 66.0, 1016.0)"></image><g><clipPath id="clip-48"><path d="M 39.9 935.0 L 679.6 935.0 L 679.6 1040.8 L 39.9 1040.8 Z M 39.9 935.0 "></path></clipPath><g clip-path="url(#clip-48)"><text xml:space="preserve" font-family="MavenProRegular" font-size="90.1" fill="#95B71E" transform="matrix(1.00, 0.00, -0.00, -1.00, 66.0, 954.0)">a</text><text xml:space="preserve" font-family="MavenProRegular" font-size="90.1" fill="#95B71E" transform="matrix(1.00, 0.00, -0.00, -1.00, 114.1, 954.0)"> </text><text xml:space="preserve" font-family="MavenProRegular" font-size="90.1" fill="#95B71E" transform="matrix(1.00, 0.00, -0.00, -1.00, 144.5, 954.0)">m</text><text xml:space="preserve" font-family="MavenProRegular" font-size="90.1" fill="#95B71E" transform="matrix(1.00, 0.00, -0.00, -1.00, 223.1, 954.0)">o</text><text xml:space="preserve" font-family="MavenProRegular" font-size="90.1" fill="#95B71E" transform="matrix(1.00, 0.00, -0.00, -1.00, 272.7, 954.0)">t</text><text xml:space="preserve" font-family="MavenProRegular" font-size="90.1" fill="#95B71E" transform="matrix(1.00, 0.00, -0.00, -1.00, 302.5, 954.0)">i</text><text xml:space="preserve" font-family="MavenProRegular" font-size="90.1" fill="#95B71E" transform="matrix(1.00, 0.00, -0.00, -1.00, 324.9, 954.0)">v</text><text xml:space="preserve" font-family="MavenProRegular" font-size="90.1" fill="#95B71E" transform="matrix(1.00, 0.00, -0.00, -1.00, 369.0, 954.0)">a</text><text xml:space="preserve" font-family="MavenProRegular" font-size="90.1" fill="#95B71E" transform="matrix(1.00, 0.00, -0.00, -1.00, 415.6, 954.0)">รง</text><text xml:space="preserve" font-family="MavenProRegular" font-size="90.1" fill="#95B71E" transform="matrix(1.00, 0.00, -0.00, -1.00, 458.2, 954.0)">รฃ</text><text xml:space="preserve" font-family="MavenProRegular" font-size="90.1" fill="#95B71E" transform="matrix(1.00, 0.00, -0.00, -1.00, 504.8, 954.0)">o</text></g></g></g></svg>