<?xml version="1.0" encoding="UTF-8" standalone="no"?><svg xmlns="http://www.w3.org/2000/svg" xmlns:xlink="http://www.w3.org/1999/xlink" clip-rule="evenodd" stroke-miterlimit="4.00" viewBox="0 0 893 716"><desc>SVG generated by Keynote</desc><defs></defs><g transform="matrix(1.00, 0.00, -0.00, -1.00, 0.0, 716.0)"><g><clipPath id="clip-35"><path d="M 0.7 326.7 L 257.9 326.7 L 257.9 478.7 L 0.7 478.7 Z M 0.7 326.7 "></path></clipPath><g clip-path="url(#clip-35)"><image xlink:href="2BCC6F86543AFE7AD8F75958CB29DDC1.png" width="256.00" height="150.00" transform="matrix(1.00, 0.00, -0.00, -1.00, 1.7, 477.7)" opacity="0.75"></image><path d="M 134.7 416.0 C 137.7 413.0 137.7 408.1 134.7 405.0 C 131.7 402.0 126.9 402.0 123.9 405.0 C 120.9 408.1 120.9 413.0 123.9 416.0 C 126.9 419.1 131.7 419.1 134.7 416.0 Z M 134.7 416.0 " fill="#B14370"></path></g></g><g><clipPath id="clip-36"><path d="M 0.7 246.7 L 257.9 246.7 L 257.9 398.7 L 0.7 398.7 Z M 0.7 246.7 "></path></clipPath><g clip-path="url(#clip-36)"><image xlink:href="../../A3EB9C72-312C-4214-9D94-0D1BE4A8F9D8/assets/2BCC6F86543AFE7AD8F75958CB29DDC1.png" width="256.00" height="150.00" transform="matrix(1.00, 0.00, -0.00, -1.00, 1.7, 397.7)" opacity="0.75"></image><path d="M 134.7 336.0 C 137.7 333.0 137.7 328.1 134.7 325.0 C 131.7 322.0 126.9 322.0 123.9 325.0 C 120.9 328.1 120.9 333.0 123.9 336.0 C 126.9 339.1 131.7 339.1 134.7 336.0 Z M 134.7 336.0 " fill="#B14370"></path></g></g><g><clipPath id="clip-37"><path d="M 0.7 171.7 L 257.9 171.7 L 257.9 323.7 L 0.7 323.7 Z M 0.7 171.7 "></path></clipPath><g clip-path="url(#clip-37)"><image xlink:href="../../A3EB9C72-312C-4214-9D94-0D1BE4A8F9D8/assets/2BCC6F86543AFE7AD8F75958CB29DDC1.png" width="256.00" height="150.00" transform="matrix(1.00, 0.00, -0.00, -1.00, 1.7, 322.7)" opacity="0.75"></image><path d="M 134.7 261.0 C 137.7 258.0 137.7 253.1 134.7 250.0 C 131.7 247.0 126.9 247.0 123.9 250.0 C 120.9 253.1 120.9 258.0 123.9 261.0 C 126.9 264.1 131.7 264.1 134.7 261.0 Z M 134.7 261.0 " fill="#B14370"></path></g></g><g><clipPath id="clip-38"><path d="M 150.1 213.2 L 755.6 213.2 L 755.6 459.8 L 150.1 459.8 Z M 150.1 213.2 "></path></clipPath><g clip-path="url(#clip-38)"><text xml:space="preserve" font-family="Dosis-Regular" font-size="50.0" fill="#FEFFFF" transform="matrix(1.00, 0.00, -0.00, -1.00, 166.0, 393.0)">U</text><text xml:space="preserve" font-family="Dosis-Regular" font-size="50.0" fill="#FEFFFF" transform="matrix(1.00, 0.00, -0.00, -1.00, 193.9, 393.0)">n</text><text xml:space="preserve" font-family="Dosis-Regular" font-size="50.0" fill="#FEFFFF" transform="matrix(1.00, 0.00, -0.00, -1.00, 218.7, 393.0)">s</text><text xml:space="preserve" font-family="Dosis-Regular" font-size="50.0" fill="#FEFFFF" transform="matrix(1.00, 0.00, -0.00, -1.00, 237.9, 393.0)"> </text><text xml:space="preserve" font-family="Dosis-Regular" font-size="50.0" fill="#FEFFFF" transform="matrix(1.00, 0.00, -0.00, -1.00, 247.9, 393.0)">a</text><text xml:space="preserve" font-family="Dosis-Regular" font-size="50.0" fill="#FEFFFF" transform="matrix(1.00, 0.00, -0.00, -1.00, 269.9, 393.0)">p</text><text xml:space="preserve" font-family="Dosis-Regular" font-size="50.0" fill="#FEFFFF" transform="matrix(1.00, 0.00, -0.00, -1.00, 294.1, 393.0)">e</text><text xml:space="preserve" font-family="Dosis-Regular" font-size="50.0" fill="#FEFFFF" transform="matrix(1.00, 0.00, -0.00, -1.00, 317.0, 393.0)">r</text><text xml:space="preserve" font-family="Dosis-Regular" font-size="50.0" fill="#FEFFFF" transform="matrix(1.00, 0.00, -0.00, -1.00, 333.5, 393.0)">t</text><text xml:space="preserve" font-family="Dosis-Regular" font-size="50.0" fill="#FEFFFF" transform="matrix(1.00, 0.00, -0.00, -1.00, 348.4, 393.0)">a</text><text xml:space="preserve" font-family="Dosis-Regular" font-size="50.0" fill="#FEFFFF" transform="matrix(1.00, 0.00, -0.00, -1.00, 369.9, 393.0)">v</text><text xml:space="preserve" font-family="Dosis-Regular" font-size="50.0" fill="#FEFFFF" transform="matrix(1.00, 0.00, -0.00, -1.00, 390.9, 393.0)">a</text><text xml:space="preserve" font-family="Dosis-Regular" font-size="50.0" fill="#FEFFFF" transform="matrix(1.00, 0.00, -0.00, -1.00, 412.8, 393.0)">m</text><text xml:space="preserve" font-family="Dosis-Regular" font-size="50.0" fill="#FEFFFF" transform="matrix(1.00, 0.00, -0.00, -1.00, 451.8, 393.0)"> </text><text xml:space="preserve" font-family="Dosis-Regular" font-size="50.0" fill="#FEFFFF" transform="matrix(1.00, 0.00, -0.00, -1.00, 461.8, 393.0)">p</text><text xml:space="preserve" font-family="Dosis-Regular" font-size="50.0" fill="#FEFFFF" transform="matrix(1.00, 0.00, -0.00, -1.00, 486.0, 393.0)">a</text><text xml:space="preserve" font-family="Dosis-Regular" font-size="50.0" fill="#FEFFFF" transform="matrix(1.00, 0.00, -0.00, -1.00, 507.9, 393.0)">r</text><text xml:space="preserve" font-family="Dosis-Regular" font-size="50.0" fill="#FEFFFF" transform="matrix(1.00, 0.00, -0.00, -1.00, 524.5, 393.0)">a</text><text xml:space="preserve" font-family="Dosis-Regular" font-size="50.0" fill="#FEFFFF" transform="matrix(1.00, 0.00, -0.00, -1.00, 546.4, 393.0)">f</text><text xml:space="preserve" font-family="Dosis-Regular" font-size="50.0" fill="#FEFFFF" transform="matrix(1.00, 0.00, -0.00, -1.00, 561.6, 393.0)">u</text><text xml:space="preserve" font-family="Dosis-Regular" font-size="50.0" fill="#FEFFFF" transform="matrix(1.00, 0.00, -0.00, -1.00, 586.4, 393.0)">s</text><text xml:space="preserve" font-family="Dosis-Regular" font-size="50.0" fill="#FEFFFF" transform="matrix(1.00, 0.00, -0.00, -1.00, 605.7, 393.0)">o</text><text xml:space="preserve" font-family="Dosis-Regular" font-size="50.0" fill="#FEFFFF" transform="matrix(1.00, 0.00, -0.00, -1.00, 629.0, 393.0)">s</text><text xml:space="preserve" font-family="Dosis-Regular" font-size="50.0" fill="#FEFFFF" transform="matrix(1.00, 0.00, -0.00, -1.00, 648.3, 393.0)">.</text><text xml:space="preserve" font-family="Dosis-Regular" font-size="50.0" fill="#FEFFFF" transform="matrix(1.00, 0.00, -0.00, -1.00, 656.9, 393.0)"> </text><text xml:space="preserve" font-family="Dosis-Regular" font-size="50.0" fill="#FEFFFF" transform="matrix(1.00, 0.00, -0.00, -1.00, 666.9, 393.0)"> </text><text xml:space="preserve" font-family="Dosis-Regular" font-size="50.0" fill="#FEFFFF" transform="matrix(1.00, 0.00, -0.00, -1.00, 166.0, 317.0)">U</text><text xml:space="preserve" font-family="Dosis-Regular" font-size="50.0" fill="#FEFFFF" transform="matrix(1.00, 0.00, -0.00, -1.00, 193.9, 317.0)">n</text><text xml:space="preserve" font-family="Dosis-Regular" font-size="50.0" fill="#FEFFFF" transform="matrix(1.00, 0.00, -0.00, -1.00, 218.7, 317.0)">s</text><text xml:space="preserve" font-family="Dosis-Regular" font-size="50.0" fill="#FEFFFF" transform="matrix(1.00, 0.00, -0.00, -1.00, 237.9, 317.0)"> </text><text xml:space="preserve" font-family="Dosis-Regular" font-size="50.0" fill="#FEFFFF" transform="matrix(1.00, 0.00, -0.00, -1.00, 247.9, 317.0)">e</text><text xml:space="preserve" font-family="Dosis-Regular" font-size="50.0" fill="#FEFFFF" transform="matrix(1.00, 0.00, -0.00, -1.00, 270.9, 317.0)">m</text><text xml:space="preserve" font-family="Dosis-Regular" font-size="50.0" fill="#FEFFFF" transform="matrix(1.00, 0.00, -0.00, -1.00, 309.9, 317.0)">b</text><text xml:space="preserve" font-family="Dosis-Regular" font-size="50.0" fill="#FEFFFF" transform="matrix(1.00, 0.00, -0.00, -1.00, 334.1, 317.0)">a</text><text xml:space="preserve" font-family="Dosis-Regular" font-size="50.0" fill="#FEFFFF" transform="matrix(1.00, 0.00, -0.00, -1.00, 356.0, 317.0)">l</text><text xml:space="preserve" font-family="Dosis-Regular" font-size="50.0" fill="#FEFFFF" transform="matrix(1.00, 0.00, -0.00, -1.00, 366.3, 317.0)">a</text><text xml:space="preserve" font-family="Dosis-Regular" font-size="50.0" fill="#FEFFFF" transform="matrix(1.00, 0.00, -0.00, -1.00, 387.9, 317.0)">v</text><text xml:space="preserve" font-family="Dosis-Regular" font-size="50.0" fill="#FEFFFF" transform="matrix(1.00, 0.00, -0.00, -1.00, 408.9, 317.0)">a</text><text xml:space="preserve" font-family="Dosis-Regular" font-size="50.0" fill="#FEFFFF" transform="matrix(1.00, 0.00, -0.00, -1.00, 430.8, 317.0)">m</text><text xml:space="preserve" font-family="Dosis-Regular" font-size="50.0" fill="#FEFFFF" transform="matrix(1.00, 0.00, -0.00, -1.00, 469.8, 317.0)"> </text><text xml:space="preserve" font-family="Dosis-Regular" font-size="50.0" fill="#FEFFFF" transform="matrix(1.00, 0.00, -0.00, -1.00, 479.8, 317.0)">o</text><text xml:space="preserve" font-family="Dosis-Regular" font-size="50.0" fill="#FEFFFF" transform="matrix(1.00, 0.00, -0.00, -1.00, 503.1, 317.0)">s</text><text xml:space="preserve" font-family="Dosis-Regular" font-size="50.0" fill="#FEFFFF" transform="matrix(1.00, 0.00, -0.00, -1.00, 522.4, 317.0)"> </text><text xml:space="preserve" font-family="Dosis-Regular" font-size="50.0" fill="#FEFFFF" transform="matrix(1.00, 0.00, -0.00, -1.00, 532.4, 317.0)">p</text><text xml:space="preserve" font-family="Dosis-Regular" font-size="50.0" fill="#FEFFFF" transform="matrix(1.00, 0.00, -0.00, -1.00, 556.6, 317.0)">r</text><text xml:space="preserve" font-family="Dosis-Regular" font-size="50.0" fill="#FEFFFF" transform="matrix(1.00, 0.00, -0.00, -1.00, 572.2, 317.0)">o</text><text xml:space="preserve" font-family="Dosis-Regular" font-size="50.0" fill="#FEFFFF" transform="matrix(1.00, 0.00, -0.00, -1.00, 595.6, 317.0)">d</text><text xml:space="preserve" font-family="Dosis-Regular" font-size="50.0" fill="#FEFFFF" transform="matrix(1.00, 0.00, -0.00, -1.00, 619.8, 317.0)">u</text><text xml:space="preserve" font-family="Dosis-Regular" font-size="50.0" fill="#FEFFFF" transform="matrix(1.00, 0.00, -0.00, -1.00, 644.6, 317.0)">t</text><text xml:space="preserve" font-family="Dosis-Regular" font-size="50.0" fill="#FEFFFF" transform="matrix(1.00, 0.00, -0.00, -1.00, 659.0, 317.0)">o</text><text xml:space="preserve" font-family="Dosis-Regular" font-size="50.0" fill="#FEFFFF" transform="matrix(1.00, 0.00, -0.00, -1.00, 682.5, 317.0)">s</text><text xml:space="preserve" font-family="Dosis-Regular" font-size="50.0" fill="#FEFFFF" transform="matrix(1.00, 0.00, -0.00, -1.00, 701.7, 317.0)">.</text><text xml:space="preserve" font-family="Dosis-Regular" font-size="50.0" fill="#FEFFFF" transform="matrix(1.00, 0.00, -0.00, -1.00, 710.2, 317.0)"> </text><text xml:space="preserve" font-family="Dosis-Regular" font-size="50.0" fill="#FEFFFF" transform="matrix(1.00, 0.00, -0.00, -1.00, 720.2, 317.0)"> </text><text xml:space="preserve" font-family="Dosis-Regular" font-size="50.0" fill="#FEFFFF" transform="matrix(1.00, 0.00, -0.00, -1.00, 166.0, 241.0)">U</text><text xml:space="preserve" font-family="Dosis-Regular" font-size="50.0" fill="#FEFFFF" transform="matrix(1.00, 0.00, -0.00, -1.00, 193.9, 241.0)">n</text><text xml:space="preserve" font-family="Dosis-Regular" font-size="50.0" fill="#FEFFFF" transform="matrix(1.00, 0.00, -0.00, -1.00, 218.7, 241.0)">s</text><text xml:space="preserve" font-family="Dosis-Regular" font-size="50.0" fill="#FEFFFF" transform="matrix(1.00, 0.00, -0.00, -1.00, 237.9, 241.0)"> </text><text xml:space="preserve" font-family="Dosis-Regular" font-size="50.0" fill="#FEFFFF" transform="matrix(1.00, 0.00, -0.00, -1.00, 247.9, 241.0)">c</text><text xml:space="preserve" font-family="Dosis-Regular" font-size="50.0" fill="#FEFFFF" transform="matrix(1.00, 0.00, -0.00, -1.00, 268.2, 241.0)">o</text><text xml:space="preserve" font-family="Dosis-Regular" font-size="50.0" fill="#FEFFFF" transform="matrix(1.00, 0.00, -0.00, -1.00, 291.6, 241.0)">l</text><text xml:space="preserve" font-family="Dosis-Regular" font-size="50.0" fill="#FEFFFF" transform="matrix(1.00, 0.00, -0.00, -1.00, 302.0, 241.0)">a</text><text xml:space="preserve" font-family="Dosis-Regular" font-size="50.0" fill="#FEFFFF" transform="matrix(1.00, 0.00, -0.00, -1.00, 323.6, 241.0)">v</text><text xml:space="preserve" font-family="Dosis-Regular" font-size="50.0" fill="#FEFFFF" transform="matrix(1.00, 0.00, -0.00, -1.00, 344.6, 241.0)">a</text><text xml:space="preserve" font-family="Dosis-Regular" font-size="50.0" fill="#FEFFFF" transform="matrix(1.00, 0.00, -0.00, -1.00, 366.5, 241.0)">m</text><text xml:space="preserve" font-family="Dosis-Regular" font-size="50.0" fill="#FEFFFF" transform="matrix(1.00, 0.00, -0.00, -1.00, 405.5, 241.0)"> </text><text xml:space="preserve" font-family="Dosis-Regular" font-size="50.0" fill="#FEFFFF" transform="matrix(1.00, 0.00, -0.00, -1.00, 415.5, 241.0)">a</text><text xml:space="preserve" font-family="Dosis-Regular" font-size="50.0" fill="#FEFFFF" transform="matrix(1.00, 0.00, -0.00, -1.00, 437.4, 241.0)">s</text><text xml:space="preserve" font-family="Dosis-Regular" font-size="50.0" fill="#FEFFFF" transform="matrix(1.00, 0.00, -0.00, -1.00, 456.6, 241.0)"> </text><text xml:space="preserve" font-family="Dosis-Regular" font-size="50.0" fill="#FEFFFF" transform="matrix(1.00, 0.00, -0.00, -1.00, 466.6, 241.0)">e</text><text xml:space="preserve" font-family="Dosis-Regular" font-size="50.0" fill="#FEFFFF" transform="matrix(1.00, 0.00, -0.00, -1.00, 489.5, 241.0)">t</text><text xml:space="preserve" font-family="Dosis-Regular" font-size="50.0" fill="#FEFFFF" transform="matrix(1.00, 0.00, -0.00, -1.00, 504.4, 241.0)">i</text><text xml:space="preserve" font-family="Dosis-Regular" font-size="50.0" fill="#FEFFFF" transform="matrix(1.00, 0.00, -0.00, -1.00, 513.9, 241.0)">q</text><text xml:space="preserve" font-family="Dosis-Regular" font-size="50.0" fill="#FEFFFF" transform="matrix(1.00, 0.00, -0.00, -1.00, 538.1, 241.0)">u</text><text xml:space="preserve" font-family="Dosis-Regular" font-size="50.0" fill="#FEFFFF" transform="matrix(1.00, 0.00, -0.00, -1.00, 562.9, 241.0)">e</text><text xml:space="preserve" font-family="Dosis-Regular" font-size="50.0" fill="#FEFFFF" transform="matrix(1.00, 0.00, -0.00, -1.00, 585.8, 241.0)">t</text><text xml:space="preserve" font-family="Dosis-Regular" font-size="50.0" fill="#FEFFFF" transform="matrix(1.00, 0.00, -0.00, -1.00, 600.7, 241.0)">a</text><text xml:space="preserve" font-family="Dosis-Regular" font-size="50.0" fill="#FEFFFF" transform="matrix(1.00, 0.00, -0.00, -1.00, 622.5, 241.0)">s</text><text xml:space="preserve" font-family="Dosis-Regular" font-size="50.0" fill="#FEFFFF" transform="matrix(1.00, 0.00, -0.00, -1.00, 641.8, 241.0)">.</text></g></g><g><clipPath id="clip-39"><path d="M 83.1 -8.8 L 902.0 -8.8 L 902.0 148.8 L 83.1 148.8 Z M 83.1 -8.8 "></path></clipPath><g clip-path="url(#clip-39)"><text xml:space="preserve" font-family="Dosis-Regular" font-size="50.0" fill="#FEFFFF" transform="matrix(1.00, 0.00, -0.00, -1.00, 99.0, 82.0)">Q</text><text xml:space="preserve" font-family="Dosis-Regular" font-size="50.0" fill="#FEFFFF" transform="matrix(1.00, 0.00, -0.00, -1.00, 126.3, 82.0)">u</text><text xml:space="preserve" font-family="Dosis-Regular" font-size="50.0" fill="#FEFFFF" transform="matrix(1.00, 0.00, -0.00, -1.00, 151.1, 82.0)">a</text><text xml:space="preserve" font-family="Dosis-Regular" font-size="50.0" fill="#FEFFFF" transform="matrix(1.00, 0.00, -0.00, -1.00, 173.0, 82.0)">n</text><text xml:space="preserve" font-family="Dosis-Regular" font-size="50.0" fill="#FEFFFF" transform="matrix(1.00, 0.00, -0.00, -1.00, 197.8, 82.0)">t</text><text xml:space="preserve" font-family="Dosis-Regular" font-size="50.0" fill="#FEFFFF" transform="matrix(1.00, 0.00, -0.00, -1.00, 212.2, 82.0)">o</text><text xml:space="preserve" font-family="Dosis-Regular" font-size="50.0" fill="#FEFFFF" transform="matrix(1.00, 0.00, -0.00, -1.00, 235.6, 82.0)"> </text><text xml:space="preserve" font-family="Dosis-Regular" font-size="50.0" fill="#FEFFFF" transform="matrix(1.00, 0.00, -0.00, -1.00, 245.6, 82.0)">m</text><text xml:space="preserve" font-family="Dosis-Regular" font-size="50.0" fill="#FEFFFF" transform="matrix(1.00, 0.00, -0.00, -1.00, 284.6, 82.0)">a</text><text xml:space="preserve" font-family="Dosis-Regular" font-size="50.0" fill="#FEFFFF" transform="matrix(1.00, 0.00, -0.00, -1.00, 306.5, 82.0)">i</text><text xml:space="preserve" font-family="Dosis-Regular" font-size="50.0" fill="#FEFFFF" transform="matrix(1.00, 0.00, -0.00, -1.00, 316.1, 82.0)">s</text><text xml:space="preserve" font-family="Dosis-Regular" font-size="50.0" fill="#FEFFFF" transform="matrix(1.00, 0.00, -0.00, -1.00, 335.3, 82.0)"> </text><text xml:space="preserve" font-family="Dosis-Regular" font-size="50.0" fill="#FEFFFF" transform="matrix(1.00, 0.00, -0.00, -1.00, 345.3, 82.0)">e</text><text xml:space="preserve" font-family="Dosis-Regular" font-size="50.0" fill="#FEFFFF" transform="matrix(1.00, 0.00, -0.00, -1.00, 368.2, 82.0)">x</text><text xml:space="preserve" font-family="Dosis-Regular" font-size="50.0" fill="#FEFFFF" transform="matrix(1.00, 0.00, -0.00, -1.00, 388.2, 82.0)">e</text><text xml:space="preserve" font-family="Dosis-Regular" font-size="50.0" fill="#FEFFFF" transform="matrix(1.00, 0.00, -0.00, -1.00, 411.1, 82.0)">c</text><text xml:space="preserve" font-family="Dosis-Regular" font-size="50.0" fill="#FEFFFF" transform="matrix(1.00, 0.00, -0.00, -1.00, 431.7, 82.0)">u</text><text xml:space="preserve" font-family="Dosis-Regular" font-size="50.0" fill="#FEFFFF" transform="matrix(1.00, 0.00, -0.00, -1.00, 456.5, 82.0)">t</text><text xml:space="preserve" font-family="Dosis-Regular" font-size="50.0" fill="#FEFFFF" transform="matrix(1.00, 0.00, -0.00, -1.00, 471.4, 82.0)">a</text><text xml:space="preserve" font-family="Dosis-Regular" font-size="50.0" fill="#FEFFFF" transform="matrix(1.00, 0.00, -0.00, -1.00, 493.2, 82.0)">s</text><text xml:space="preserve" font-family="Dosis-Regular" font-size="50.0" fill="#FEFFFF" transform="matrix(1.00, 0.00, -0.00, -1.00, 512.5, 82.0)">s</text><text xml:space="preserve" font-family="Dosis-Regular" font-size="50.0" fill="#FEFFFF" transform="matrix(1.00, 0.00, -0.00, -1.00, 531.8, 82.0)">e</text><text xml:space="preserve" font-family="Dosis-Regular" font-size="50.0" fill="#FEFFFF" transform="matrix(1.00, 0.00, -0.00, -1.00, 554.6, 82.0)"> </text><text xml:space="preserve" font-family="Dosis-Regular" font-size="50.0" fill="#FEFFFF" transform="matrix(1.00, 0.00, -0.00, -1.00, 564.6, 82.0)">a</text><text xml:space="preserve" font-family="Dosis-Regular" font-size="50.0" fill="#FEFFFF" transform="matrix(1.00, 0.00, -0.00, -1.00, 586.5, 82.0)"> </text><text xml:space="preserve" font-family="Dosis-Regular" font-size="50.0" fill="#FEFFFF" transform="matrix(1.00, 0.00, -0.00, -1.00, 596.5, 82.0)">m</text><text xml:space="preserve" font-family="Dosis-Regular" font-size="50.0" fill="#FEFFFF" transform="matrix(1.00, 0.00, -0.00, -1.00, 635.5, 82.0)">e</text><text xml:space="preserve" font-family="Dosis-Regular" font-size="50.0" fill="#FEFFFF" transform="matrix(1.00, 0.00, -0.00, -1.00, 658.4, 82.0)">s</text><text xml:space="preserve" font-family="Dosis-Regular" font-size="50.0" fill="#FEFFFF" transform="matrix(1.00, 0.00, -0.00, -1.00, 677.7, 82.0)">m</text><text xml:space="preserve" font-family="Dosis-Regular" font-size="50.0" fill="#FEFFFF" transform="matrix(1.00, 0.00, -0.00, -1.00, 716.7, 82.0)">a</text><text xml:space="preserve" font-family="Dosis-Regular" font-size="50.0" fill="#FEFFFF" transform="matrix(1.00, 0.00, -0.00, -1.00, 738.6, 82.0)"> </text><text xml:space="preserve" font-family="Dosis-Regular" font-size="50.0" fill="#FEFFFF" transform="matrix(1.00, 0.00, -0.00, -1.00, 748.6, 82.0)">t</text><text xml:space="preserve" font-family="Dosis-Regular" font-size="50.0" fill="#FEFFFF" transform="matrix(1.00, 0.00, -0.00, -1.00, 763.4, 82.0)">a</text><text xml:space="preserve" font-family="Dosis-Regular" font-size="50.0" fill="#FEFFFF" transform="matrix(1.00, 0.00, -0.00, -1.00, 785.3, 82.0)">r</text><text xml:space="preserve" font-family="Dosis-Regular" font-size="50.0" fill="#FEFFFF" transform="matrix(1.00, 0.00, -0.00, -1.00, 801.0, 82.0)">e</text><text xml:space="preserve" font-family="Dosis-Regular" font-size="50.0" fill="#FEFFFF" transform="matrix(1.00, 0.00, -0.00, -1.00, 823.9, 82.0)">f</text><text xml:space="preserve" font-family="Dosis-Regular" font-size="50.0" fill="#FEFFFF" transform="matrix(1.00, 0.00, -0.00, -1.00, 839.1, 82.0)">a</text><text xml:space="preserve" font-family="Dosis-Regular" font-size="50.0" fill="#FEFFFF" transform="matrix(1.00, 0.00, -0.00, -1.00, 861.0, 82.0)">,</text><text xml:space="preserve" font-family="Dosis-Regular" font-size="50.0" fill="#FEFFFF" transform="matrix(1.00, 0.00, -0.00, -1.00, 869.6, 82.0)"> </text><text xml:space="preserve" font-family="Dosis-Regular" font-size="50.0" fill="#FEFFFF" transform="matrix(1.00, 0.00, -0.00, -1.00, 99.0, 19.0)">m</text><text xml:space="preserve" font-family="Dosis-Regular" font-size="50.0" fill="#FEFFFF" transform="matrix(1.00, 0.00, -0.00, -1.00, 138.0, 19.0)">a</text><text xml:space="preserve" font-family="Dosis-Regular" font-size="50.0" fill="#FEFFFF" transform="matrix(1.00, 0.00, -0.00, -1.00, 159.9, 19.0)">i</text><text xml:space="preserve" font-family="Dosis-Regular" font-size="50.0" fill="#FEFFFF" transform="matrix(1.00, 0.00, -0.00, -1.00, 169.4, 19.0)">s</text><text xml:space="preserve" font-family="Dosis-Regular" font-size="50.0" fill="#FEFFFF" transform="matrix(1.00, 0.00, -0.00, -1.00, 188.7, 19.0)"> </text><text xml:space="preserve" font-family="Dosis-Regular" font-size="50.0" fill="#FEFFFF" transform="matrix(1.00, 0.00, -0.00, -1.00, 198.7, 19.0)">r</text><text xml:space="preserve" font-family="Dosis-Regular" font-size="50.0" fill="#FEFFFF" transform="matrix(1.00, 0.00, -0.00, -1.00, 215.2, 19.0)">á</text><text xml:space="preserve" font-family="Dosis-Regular" font-size="50.0" fill="#FEFFFF" transform="matrix(1.00, 0.00, -0.00, -1.00, 237.2, 19.0)">p</text><text xml:space="preserve" font-family="Dosis-Regular" font-size="50.0" fill="#FEFFFF" transform="matrix(1.00, 0.00, -0.00, -1.00, 261.4, 19.0)">i</text><text xml:space="preserve" font-family="Dosis-Regular" font-size="50.0" fill="#FEFFFF" transform="matrix(1.00, 0.00, -0.00, -1.00, 270.9, 19.0)">d</text><text xml:space="preserve" font-family="Dosis-Regular" font-size="50.0" fill="#FEFFFF" transform="matrix(1.00, 0.00, -0.00, -1.00, 295.1, 19.0)">o</text><text xml:space="preserve" font-family="Dosis-Regular" font-size="50.0" fill="#FEFFFF" transform="matrix(1.00, 0.00, -0.00, -1.00, 318.5, 19.0)"> </text><text xml:space="preserve" font-family="Dosis-Regular" font-size="50.0" fill="#FEFFFF" transform="matrix(1.00, 0.00, -0.00, -1.00, 328.5, 19.0)">s</text><text xml:space="preserve" font-family="Dosis-Regular" font-size="50.0" fill="#FEFFFF" transform="matrix(1.00, 0.00, -0.00, -1.00, 347.8, 19.0)">e</text><text xml:space="preserve" font-family="Dosis-Regular" font-size="50.0" fill="#FEFFFF" transform="matrix(1.00, 0.00, -0.00, -1.00, 370.7, 19.0)">r</text><text xml:space="preserve" font-family="Dosis-Regular" font-size="50.0" fill="#FEFFFF" transform="matrix(1.00, 0.00, -0.00, -1.00, 387.2, 19.0)">i</text><text xml:space="preserve" font-family="Dosis-Regular" font-size="50.0" fill="#FEFFFF" transform="matrix(1.00, 0.00, -0.00, -1.00, 396.8, 19.0)">a</text><text xml:space="preserve" font-family="Dosis-Regular" font-size="50.0" fill="#FEFFFF" transform="matrix(1.00, 0.00, -0.00, -1.00, 418.7, 19.0)"> </text><text xml:space="preserve" font-family="Dosis-Regular" font-size="50.0" fill="#FEFFFF" transform="matrix(1.00, 0.00, -0.00, -1.00, 428.7, 19.0)">o</text><text xml:space="preserve" font-family="Dosis-Regular" font-size="50.0" fill="#FEFFFF" transform="matrix(1.00, 0.00, -0.00, -1.00, 452.1, 19.0)"> </text><text xml:space="preserve" font-family="Dosis-Regular" font-size="50.0" fill="#FEFFFF" transform="matrix(1.00, 0.00, -0.00, -1.00, 462.1, 19.0)">g</text><text xml:space="preserve" font-family="Dosis-Regular" font-size="50.0" fill="#FEFFFF" transform="matrix(1.00, 0.00, -0.00, -1.00, 484.7, 19.0)">a</text><text xml:space="preserve" font-family="Dosis-Regular" font-size="50.0" fill="#FEFFFF" transform="matrix(1.00, 0.00, -0.00, -1.00, 506.6, 19.0)">n</text><text xml:space="preserve" font-family="Dosis-Regular" font-size="50.0" fill="#FEFFFF" transform="matrix(1.00, 0.00, -0.00, -1.00, 531.4, 19.0)">h</text><text xml:space="preserve" font-family="Dosis-Regular" font-size="50.0" fill="#FEFFFF" transform="matrix(1.00, 0.00, -0.00, -1.00, 556.2, 19.0)">o</text><text xml:space="preserve" font-family="Dosis-Regular" font-size="50.0" fill="#FEFFFF" transform="matrix(1.00, 0.00, -0.00, -1.00, 579.5, 19.0)"> </text><text xml:space="preserve" font-family="Dosis-Regular" font-size="50.0" fill="#FEFFFF" transform="matrix(1.00, 0.00, -0.00, -1.00, 589.5, 19.0)">d</text><text xml:space="preserve" font-family="Dosis-Regular" font-size="50.0" fill="#FEFFFF" transform="matrix(1.00, 0.00, -0.00, -1.00, 613.8, 19.0)">e</text><text xml:space="preserve" font-family="Dosis-Regular" font-size="50.0" fill="#FEFFFF" transform="matrix(1.00, 0.00, -0.00, -1.00, 636.6, 19.0)"> </text><text xml:space="preserve" font-family="Dosis-Regular" font-size="50.0" fill="#FEFFFF" transform="matrix(1.00, 0.00, -0.00, -1.00, 646.6, 19.0)">e</text><text xml:space="preserve" font-family="Dosis-Regular" font-size="50.0" fill="#FEFFFF" transform="matrix(1.00, 0.00, -0.00, -1.00, 669.5, 19.0)">s</text><text xml:space="preserve" font-family="Dosis-Regular" font-size="50.0" fill="#FEFFFF" transform="matrix(1.00, 0.00, -0.00, -1.00, 688.8, 19.0)">c</text><text xml:space="preserve" font-family="Dosis-Regular" font-size="50.0" fill="#FEFFFF" transform="matrix(1.00, 0.00, -0.00, -1.00, 709.3, 19.0)">a</text><text xml:space="preserve" font-family="Dosis-Regular" font-size="50.0" fill="#FEFFFF" transform="matrix(1.00, 0.00, -0.00, -1.00, 731.2, 19.0)">l</text><text xml:space="preserve" font-family="Dosis-Regular" font-size="50.0" fill="#FEFFFF" transform="matrix(1.00, 0.00, -0.00, -1.00, 741.6, 19.0)">a</text><text xml:space="preserve" font-family="LucidaGrande" font-size="50.0" fill="#FEFFFF" transform="matrix(1.00, 0.00, -0.00, -1.00, 763.5, 19.0)"> </text></g></g><g><clipPath id="clip-40"><path d="M 97.0 440.9 L 862.7 440.9 L 862.7 724.5 L 97.0 724.5 Z M 97.0 440.9 "></path></clipPath><g clip-path="url(#clip-40)"><text xml:space="preserve" font-family="Dosis-Regular" font-size="50.0" fill="#FEFFFF" transform="matrix(1.00, 0.00, -0.00, -1.00, 113.0, 658.0)">D</text><text xml:space="preserve" font-family="Dosis-Regular" font-size="50.0" fill="#FEFFFF" transform="matrix(1.00, 0.00, -0.00, -1.00, 141.0, 658.0)">e</text><text xml:space="preserve" font-family="Dosis-Regular" font-size="50.0" fill="#FEFFFF" transform="matrix(1.00, 0.00, -0.00, -1.00, 163.9, 658.0)">n</text><text xml:space="preserve" font-family="Dosis-Regular" font-size="50.0" fill="#FEFFFF" transform="matrix(1.00, 0.00, -0.00, -1.00, 188.7, 658.0)">t</text><text xml:space="preserve" font-family="Dosis-Regular" font-size="50.0" fill="#FEFFFF" transform="matrix(1.00, 0.00, -0.00, -1.00, 203.6, 658.0)">r</text><text xml:space="preserve" font-family="Dosis-Regular" font-size="50.0" fill="#FEFFFF" transform="matrix(1.00, 0.00, -0.00, -1.00, 219.2, 658.0)">o</text><text xml:space="preserve" font-family="Dosis-Regular" font-size="50.0" fill="#FEFFFF" transform="matrix(1.00, 0.00, -0.00, -1.00, 242.6, 658.0)"> </text><text xml:space="preserve" font-family="Dosis-Regular" font-size="50.0" fill="#FEFFFF" transform="matrix(1.00, 0.00, -0.00, -1.00, 252.6, 658.0)">d</text><text xml:space="preserve" font-family="Dosis-Regular" font-size="50.0" fill="#FEFFFF" transform="matrix(1.00, 0.00, -0.00, -1.00, 276.8, 658.0)">a</text><text xml:space="preserve" font-family="Dosis-Regular" font-size="50.0" fill="#FEFFFF" transform="matrix(1.00, 0.00, -0.00, -1.00, 298.7, 658.0)"> </text><text xml:space="preserve" font-family="Dosis-Regular" font-size="50.0" fill="#FEFFFF" transform="matrix(1.00, 0.00, -0.00, -1.00, 308.7, 658.0)">f</text><text xml:space="preserve" font-family="Dosis-Regular" font-size="50.0" fill="#FEFFFF" transform="matrix(1.00, 0.00, -0.00, -1.00, 324.0, 658.0)">á</text><text xml:space="preserve" font-family="Dosis-Regular" font-size="50.0" fill="#FEFFFF" transform="matrix(1.00, 0.00, -0.00, -1.00, 345.9, 658.0)">b</text><text xml:space="preserve" font-family="Dosis-Regular" font-size="50.0" fill="#FEFFFF" transform="matrix(1.00, 0.00, -0.00, -1.00, 370.1, 658.0)">r</text><text xml:space="preserve" font-family="Dosis-Regular" font-size="50.0" fill="#FEFFFF" transform="matrix(1.00, 0.00, -0.00, -1.00, 386.6, 658.0)">i</text><text xml:space="preserve" font-family="Dosis-Regular" font-size="50.0" fill="#FEFFFF" transform="matrix(1.00, 0.00, -0.00, -1.00, 396.2, 658.0)">c</text><text xml:space="preserve" font-family="Dosis-Regular" font-size="50.0" fill="#FEFFFF" transform="matrix(1.00, 0.00, -0.00, -1.00, 416.7, 658.0)">a</text><text xml:space="preserve" font-family="Dosis-Regular" font-size="50.0" fill="#FEFFFF" transform="matrix(1.00, 0.00, -0.00, -1.00, 438.6, 658.0)">,</text><text xml:space="preserve" font-family="Dosis-Regular" font-size="50.0" fill="#FEFFFF" transform="matrix(1.00, 0.00, -0.00, -1.00, 447.2, 658.0)"> </text><text xml:space="preserve" font-family="Dosis-Regular" font-size="50.0" fill="#FEFFFF" transform="matrix(1.00, 0.00, -0.00, -1.00, 457.2, 658.0)">c</text><text xml:space="preserve" font-family="Dosis-Regular" font-size="50.0" fill="#FEFFFF" transform="matrix(1.00, 0.00, -0.00, -1.00, 477.7, 658.0)">a</text><text xml:space="preserve" font-family="Dosis-Regular" font-size="50.0" fill="#FEFFFF" transform="matrix(1.00, 0.00, -0.00, -1.00, 499.6, 658.0)">d</text><text xml:space="preserve" font-family="Dosis-Regular" font-size="50.0" fill="#FEFFFF" transform="matrix(1.00, 0.00, -0.00, -1.00, 523.8, 658.0)">a</text><text xml:space="preserve" font-family="Dosis-Regular" font-size="50.0" fill="#FEFFFF" transform="matrix(1.00, 0.00, -0.00, -1.00, 545.7, 658.0)"> </text><text xml:space="preserve" font-family="Dosis-Regular" font-size="50.0" fill="#FEFFFF" transform="matrix(1.00, 0.00, -0.00, -1.00, 555.7, 658.0)">p</text><text xml:space="preserve" font-family="Dosis-Regular" font-size="50.0" fill="#FEFFFF" transform="matrix(1.00, 0.00, -0.00, -1.00, 579.9, 658.0)">r</text><text xml:space="preserve" font-family="Dosis-Regular" font-size="50.0" fill="#FEFFFF" transform="matrix(1.00, 0.00, -0.00, -1.00, 595.5, 658.0)">o</text><text xml:space="preserve" font-family="Dosis-Regular" font-size="50.0" fill="#FEFFFF" transform="matrix(1.00, 0.00, -0.00, -1.00, 619.0, 658.0)">ﬁ</text><text xml:space="preserve" font-family="Dosis-Regular" font-size="50.0" fill="#FEFFFF" transform="matrix(1.00, 0.00, -0.00, -1.00, 644.2, 658.0)">s</text><text xml:space="preserve" font-family="Dosis-Regular" font-size="50.0" fill="#FEFFFF" transform="matrix(1.00, 0.00, -0.00, -1.00, 663.5, 658.0)">s</text><text xml:space="preserve" font-family="Dosis-Regular" font-size="50.0" fill="#FEFFFF" transform="matrix(1.00, 0.00, -0.00, -1.00, 682.8, 658.0)">i</text><text xml:space="preserve" font-family="Dosis-Regular" font-size="50.0" fill="#FEFFFF" transform="matrix(1.00, 0.00, -0.00, -1.00, 692.3, 658.0)">o</text><text xml:space="preserve" font-family="Dosis-Regular" font-size="50.0" fill="#FEFFFF" transform="matrix(1.00, 0.00, -0.00, -1.00, 715.7, 658.0)">n</text><text xml:space="preserve" font-family="Dosis-Regular" font-size="50.0" fill="#FEFFFF" transform="matrix(1.00, 0.00, -0.00, -1.00, 740.5, 658.0)">a</text><text xml:space="preserve" font-family="Dosis-Regular" font-size="50.0" fill="#FEFFFF" transform="matrix(1.00, 0.00, -0.00, -1.00, 762.4, 658.0)">l</text><text xml:space="preserve" font-family="Dosis-Regular" font-size="50.0" fill="#FEFFFF" transform="matrix(1.00, 0.00, -0.00, -1.00, 772.7, 658.0)"> </text><text xml:space="preserve" font-family="Dosis-Regular" font-size="50.0" fill="#FEFFFF" transform="matrix(1.00, 0.00, -0.00, -1.00, 113.0, 595.0)">ﬁ</text><text xml:space="preserve" font-family="Dosis-Regular" font-size="50.0" fill="#FEFFFF" transform="matrix(1.00, 0.00, -0.00, -1.00, 138.3, 595.0)">c</text><text xml:space="preserve" font-family="Dosis-Regular" font-size="50.0" fill="#FEFFFF" transform="matrix(1.00, 0.00, -0.00, -1.00, 158.8, 595.0)">a</text><text xml:space="preserve" font-family="Dosis-Regular" font-size="50.0" fill="#FEFFFF" transform="matrix(1.00, 0.00, -0.00, -1.00, 180.4, 595.0)">v</text><text xml:space="preserve" font-family="Dosis-Regular" font-size="50.0" fill="#FEFFFF" transform="matrix(1.00, 0.00, -0.00, -1.00, 201.4, 595.0)">a</text><text xml:space="preserve" font-family="Dosis-Regular" font-size="50.0" fill="#FEFFFF" transform="matrix(1.00, 0.00, -0.00, -1.00, 223.3, 595.0)"> </text><text xml:space="preserve" font-family="Dosis-Regular" font-size="50.0" fill="#FEFFFF" transform="matrix(1.00, 0.00, -0.00, -1.00, 233.3, 595.0)">r</text><text xml:space="preserve" font-family="Dosis-Regular" font-size="50.0" fill="#FEFFFF" transform="matrix(1.00, 0.00, -0.00, -1.00, 249.0, 595.0)">e</text><text xml:space="preserve" font-family="Dosis-Regular" font-size="50.0" fill="#FEFFFF" transform="matrix(1.00, 0.00, -0.00, -1.00, 271.9, 595.0)">s</text><text xml:space="preserve" font-family="Dosis-Regular" font-size="50.0" fill="#FEFFFF" transform="matrix(1.00, 0.00, -0.00, -1.00, 291.1, 595.0)">p</text><text xml:space="preserve" font-family="Dosis-Regular" font-size="50.0" fill="#FEFFFF" transform="matrix(1.00, 0.00, -0.00, -1.00, 315.3, 595.0)">o</text><text xml:space="preserve" font-family="Dosis-Regular" font-size="50.0" fill="#FEFFFF" transform="matrix(1.00, 0.00, -0.00, -1.00, 338.7, 595.0)">n</text><text xml:space="preserve" font-family="Dosis-Regular" font-size="50.0" fill="#FEFFFF" transform="matrix(1.00, 0.00, -0.00, -1.00, 363.5, 595.0)">s</text><text xml:space="preserve" font-family="Dosis-Regular" font-size="50.0" fill="#FEFFFF" transform="matrix(1.00, 0.00, -0.00, -1.00, 382.8, 595.0)">á</text><text xml:space="preserve" font-family="Dosis-Regular" font-size="50.0" fill="#FEFFFF" transform="matrix(1.00, 0.00, -0.00, -1.00, 404.3, 595.0)">v</text><text xml:space="preserve" font-family="Dosis-Regular" font-size="50.0" fill="#FEFFFF" transform="matrix(1.00, 0.00, -0.00, -1.00, 425.3, 595.0)">e</text><text xml:space="preserve" font-family="Dosis-Regular" font-size="50.0" fill="#FEFFFF" transform="matrix(1.00, 0.00, -0.00, -1.00, 448.2, 595.0)">l</text><text xml:space="preserve" font-family="Dosis-Regular" font-size="50.0" fill="#FEFFFF" transform="matrix(1.00, 0.00, -0.00, -1.00, 458.5, 595.0)"> </text><text xml:space="preserve" font-family="Dosis-Regular" font-size="50.0" fill="#FEFFFF" transform="matrix(1.00, 0.00, -0.00, -1.00, 468.5, 595.0)">p</text><text xml:space="preserve" font-family="Dosis-Regular" font-size="50.0" fill="#FEFFFF" transform="matrix(1.00, 0.00, -0.00, -1.00, 492.7, 595.0)">o</text><text xml:space="preserve" font-family="Dosis-Regular" font-size="50.0" fill="#FEFFFF" transform="matrix(1.00, 0.00, -0.00, -1.00, 516.1, 595.0)">r</text><text xml:space="preserve" font-family="Dosis-Regular" font-size="50.0" fill="#FEFFFF" transform="matrix(1.00, 0.00, -0.00, -1.00, 532.7, 595.0)"> </text><text xml:space="preserve" font-family="Dosis-Regular" font-size="50.0" fill="#FEFFFF" transform="matrix(1.00, 0.00, -0.00, -1.00, 542.7, 595.0)">u</text><text xml:space="preserve" font-family="Dosis-Regular" font-size="50.0" fill="#FEFFFF" transform="matrix(1.00, 0.00, -0.00, -1.00, 567.5, 595.0)">m</text><text xml:space="preserve" font-family="Dosis-Regular" font-size="50.0" fill="#FEFFFF" transform="matrix(1.00, 0.00, -0.00, -1.00, 606.5, 595.0)">a</text><text xml:space="preserve" font-family="Dosis-Regular" font-size="50.0" fill="#FEFFFF" transform="matrix(1.00, 0.00, -0.00, -1.00, 628.4, 595.0)"> </text><text xml:space="preserve" font-family="Dosis-Regular" font-size="50.0" fill="#FEFFFF" transform="matrix(1.00, 0.00, -0.00, -1.00, 638.4, 595.0)">ú</text><text xml:space="preserve" font-family="Dosis-Regular" font-size="50.0" fill="#FEFFFF" transform="matrix(1.00, 0.00, -0.00, -1.00, 663.2, 595.0)">n</text><text xml:space="preserve" font-family="Dosis-Regular" font-size="50.0" fill="#FEFFFF" transform="matrix(1.00, 0.00, -0.00, -1.00, 688.0, 595.0)">i</text><text xml:space="preserve" font-family="Dosis-Regular" font-size="50.0" fill="#FEFFFF" transform="matrix(1.00, 0.00, -0.00, -1.00, 697.5, 595.0)">c</text><text xml:space="preserve" font-family="Dosis-Regular" font-size="50.0" fill="#FEFFFF" transform="matrix(1.00, 0.00, -0.00, -1.00, 718.1, 595.0)">a</text><text xml:space="preserve" font-family="Dosis-Regular" font-size="50.0" fill="#FEFFFF" transform="matrix(1.00, 0.00, -0.00, -1.00, 740.0, 595.0)"> </text><text xml:space="preserve" font-family="Dosis-Regular" font-size="50.0" fill="#FEFFFF" transform="matrix(1.00, 0.00, -0.00, -1.00, 113.0, 532.0)">a</text><text xml:space="preserve" font-family="Dosis-Regular" font-size="50.0" fill="#FEFFFF" transform="matrix(1.00, 0.00, -0.00, -1.00, 134.9, 532.0)">t</text><text xml:space="preserve" font-family="Dosis-Regular" font-size="50.0" fill="#FEFFFF" transform="matrix(1.00, 0.00, -0.00, -1.00, 149.8, 532.0)">i</text><text xml:space="preserve" font-family="Dosis-Regular" font-size="50.0" fill="#FEFFFF" transform="matrix(1.00, 0.00, -0.00, -1.00, 159.3, 532.0)">v</text><text xml:space="preserve" font-family="Dosis-Regular" font-size="50.0" fill="#FEFFFF" transform="matrix(1.00, 0.00, -0.00, -1.00, 180.3, 532.0)">i</text><text xml:space="preserve" font-family="Dosis-Regular" font-size="50.0" fill="#FEFFFF" transform="matrix(1.00, 0.00, -0.00, -1.00, 189.8, 532.0)">d</text><text xml:space="preserve" font-family="Dosis-Regular" font-size="50.0" fill="#FEFFFF" transform="matrix(1.00, 0.00, -0.00, -1.00, 214.1, 532.0)">a</text><text xml:space="preserve" font-family="Dosis-Regular" font-size="50.0" fill="#FEFFFF" transform="matrix(1.00, 0.00, -0.00, -1.00, 235.9, 532.0)">d</text><text xml:space="preserve" font-family="Dosis-Regular" font-size="50.0" fill="#FEFFFF" transform="matrix(1.00, 0.00, -0.00, -1.00, 260.1, 532.0)">e</text><text xml:space="preserve" font-family="Dosis-Regular" font-size="50.0" fill="#FEFFFF" transform="matrix(1.00, 0.00, -0.00, -1.00, 283.1, 532.0)">.</text><text xml:space="preserve" font-family="Dosis-Regular" font-size="50.0" fill="#FEFFFF" transform="matrix(1.00, 0.00, -0.00, -1.00, 291.6, 532.0)"> </text><text xml:space="preserve" font-family="Dosis-Regular" font-size="50.0" fill="#FEFFFF" transform="matrix(1.00, 0.00, -0.00, -1.00, 301.6, 532.0)"> </text></g></g></g></svg>