<?xml version="1.0" encoding="UTF-8" standalone="no"?><svg xmlns="http://www.w3.org/2000/svg" xmlns:xlink="http://www.w3.org/1999/xlink" clip-rule="evenodd" stroke-miterlimit="4.00" viewBox="0 0 144 25"><desc>SVG generated by Keynote</desc><defs></defs><g transform="matrix(1.00, 0.00, -0.00, -1.00, 0.0, 25.0)"><text xml:space="preserve" font-family="Dosis-Regular" font-size="27.0" fill="#52575F" transform="matrix(1.00, 0.00, -0.00, -1.00, 0.0, 2.0)">F</text><text xml:space="preserve" font-family="Dosis-Regular" font-size="27.0" fill="#52575F" transform="matrix(1.00, 0.00, -0.00, -1.00, 10.4, 2.0)">o</text><text xml:space="preserve" font-family="Dosis-Regular" font-size="27.0" fill="#52575F" transform="matrix(1.00, 0.00, -0.00, -1.00, 23.1, 2.0)">n</text><text xml:space="preserve" font-family="Dosis-Regular" font-size="27.0" fill="#52575F" transform="matrix(1.00, 0.00, -0.00, -1.00, 36.5, 2.0)">t</text><text xml:space="preserve" font-family="Dosis-Regular" font-size="27.0" fill="#52575F" transform="matrix(1.00, 0.00, -0.00, -1.00, 44.2, 2.0)">e</text><text xml:space="preserve" font-family="Dosis-Regular" font-size="27.0" fill="#52575F" transform="matrix(1.00, 0.00, -0.00, -1.00, 56.6, 2.0)">:</text><text xml:space="preserve" font-family="Dosis-Regular" font-size="27.0" fill="#52575F" transform="matrix(1.00, 0.00, -0.00, -1.00, 62.1, 2.0)"> </text><text xml:space="preserve" font-family="Dosis-Regular" font-size="27.0" fill="#52575F" transform="matrix(1.00, 0.00, -0.00, -1.00, 67.5, 2.0)">N</text><text xml:space="preserve" font-family="Dosis-Regular" font-size="27.0" fill="#52575F" transform="matrix(1.00, 0.00, -0.00, -1.00, 82.9, 2.0)">i</text><text xml:space="preserve" font-family="Dosis-Regular" font-size="27.0" fill="#52575F" transform="matrix(1.00, 0.00, -0.00, -1.00, 88.1, 2.0)">e</text><text xml:space="preserve" font-family="Dosis-Regular" font-size="27.0" fill="#52575F" transform="matrix(1.00, 0.00, -0.00, -1.00, 100.5, 2.0)">l</text><text xml:space="preserve" font-family="Dosis-Regular" font-size="27.0" fill="#52575F" transform="matrix(1.00, 0.00, -0.00, -1.00, 106.1, 2.0)">s</text><text xml:space="preserve" font-family="Dosis-Regular" font-size="27.0" fill="#52575F" transform="matrix(1.00, 0.00, -0.00, -1.00, 116.5, 2.0)">e</text><text xml:space="preserve" font-family="Dosis-Regular" font-size="27.0" fill="#52575F" transform="matrix(1.00, 0.00, -0.00, -1.00, 128.8, 2.0)">n</text></g></svg>