<?xml version="1.0" encoding="UTF-8" standalone="no"?><svg xmlns="http://www.w3.org/2000/svg" xmlns:xlink="http://www.w3.org/1999/xlink" clip-rule="evenodd" stroke-miterlimit="4.00" viewBox="0 0 867 75"><desc>SVG generated by Keynote</desc><defs></defs><g transform="matrix(1.00, 0.00, -0.00, -1.00, 0.0, 75.0)"><image xlink:href="../../52AD0FFE-AAFB-4DBE-84D3-DCF3441A1C01/assets/F435F7CB594D0381FC5920852F9C3B0C.png" width="863.00" height="71.00" transform="matrix(1.00, 0.00, -0.00, -1.00, 2.0, 73.0)"></image><g><clipPath id="clip-142"><path d="M 0.0 0.0 L 867.0 0.0 L 867.0 75.0 L 0.0 75.0 Z M 0.0 0.0 "></path></clipPath><g clip-path="url(#clip-142)"><text xml:space="preserve" font-family="MavenProRegular" font-size="89.9" fill="#94B81F" transform="matrix(1.00, 0.00, -0.00, -1.00, 4.0, 11.0)">t</text><text xml:space="preserve" font-family="MavenProRegular" font-size="89.9" fill="#94B81F" transform="matrix(1.00, 0.00, -0.00, -1.00, 34.8, 11.0)">a</text><text xml:space="preserve" font-family="MavenProRegular" font-size="89.9" fill="#94B81F" transform="matrix(1.00, 0.00, -0.00, -1.00, 80.8, 11.0)">m</text><text xml:space="preserve" font-family="MavenProRegular" font-size="89.9" fill="#94B81F" transform="matrix(1.00, 0.00, -0.00, -1.00, 158.5, 11.0)">a</text><text xml:space="preserve" font-family="MavenProRegular" font-size="89.9" fill="#94B81F" transform="matrix(1.00, 0.00, -0.00, -1.00, 205.6, 11.0)">n</text><text xml:space="preserve" font-family="MavenProRegular" font-size="89.9" fill="#94B81F" transform="matrix(1.00, 0.00, -0.00, -1.00, 254.7, 11.0)">h</text><text xml:space="preserve" font-family="MavenProRegular" font-size="89.9" fill="#94B81F" transform="matrix(1.00, 0.00, -0.00, -1.00, 306.3, 11.0)">o</text><text xml:space="preserve" font-family="MavenProRegular" font-size="89.9" fill="#94B81F" transform="matrix(1.00, 0.00, -0.00, -1.00, 357.0, 11.0)"> </text><text xml:space="preserve" font-family="MavenProRegular" font-size="89.9" fill="#94B81F" transform="matrix(1.00, 0.00, -0.00, -1.00, 387.4, 11.0)">d</text><text xml:space="preserve" font-family="MavenProRegular" font-size="89.9" fill="#94B81F" transform="matrix(1.00, 0.00, -0.00, -1.00, 436.9, 11.0)">o</text><text xml:space="preserve" font-family="MavenProRegular" font-size="89.9" fill="#94B81F" transform="matrix(1.00, 0.00, -0.00, -1.00, 487.6, 11.0)"> </text><text xml:space="preserve" font-family="MavenProRegular" font-size="89.9" fill="#94B81F" transform="matrix(1.00, 0.00, -0.00, -1.00, 518.0, 11.0)">m</text><text xml:space="preserve" font-family="MavenProRegular" font-size="89.9" fill="#94B81F" transform="matrix(1.00, 0.00, -0.00, -1.00, 595.8, 11.0)">e</text><text xml:space="preserve" font-family="MavenProRegular" font-size="89.9" fill="#94B81F" transform="matrix(1.00, 0.00, -0.00, -1.00, 644.3, 11.0)">r</text><text xml:space="preserve" font-family="MavenProRegular" font-size="89.9" fill="#94B81F" transform="matrix(1.00, 0.00, -0.00, -1.00, 675.1, 11.0)">c</text><text xml:space="preserve" font-family="MavenProRegular" font-size="89.9" fill="#94B81F" transform="matrix(1.00, 0.00, -0.00, -1.00, 717.7, 11.0)">a</text><text xml:space="preserve" font-family="MavenProRegular" font-size="89.9" fill="#94B81F" transform="matrix(1.00, 0.00, -0.00, -1.00, 764.3, 11.0)">d</text><text xml:space="preserve" font-family="MavenProRegular" font-size="89.9" fill="#94B81F" transform="matrix(1.00, 0.00, -0.00, -1.00, 813.8, 11.0)">o</text></g></g></g></svg>