<?xml version="1.0" encoding="UTF-8" standalone="no"?><svg xmlns="http://www.w3.org/2000/svg" xmlns:xlink="http://www.w3.org/1999/xlink" clip-rule="evenodd" stroke-miterlimit="4.00" viewBox="0 0 1920 1080"><desc>SVG generated by Keynote</desc><defs></defs><g transform="matrix(1.00, 0.00, -0.00, -1.00, 0.0, 1080.0)"><path d="M 0.0 1080.0 L 1920.0 1080.0 L 1920.0 0.0 L 0.0 0.0 Z M 0.0 1080.0 " fill="#241D2B"></path><image xlink:href="98B172381F10F11F8992ED51E074458B.png" width="300.00" height="81.00" transform="matrix(1.00, 0.00, -0.00, -1.00, 66.0, 1016.0)"></image><g><clipPath id="clip-152"><path d="M 40.0 935.0 L 518.3 935.0 L 518.3 1040.8 L 40.0 1040.8 Z M 40.0 935.0 "></path></clipPath><g clip-path="url(#clip-152)"><text xml:space="preserve" font-family="MavenProRegular" font-size="89.8" fill="#95B71E" transform="matrix(1.00, 0.00, -0.00, -1.00, 66.0, 954.0)">s</text><text xml:space="preserve" font-family="MavenProRegular" font-size="89.8" fill="#95B71E" transform="matrix(1.00, 0.00, -0.00, -1.00, 104.0, 954.0)">o</text><text xml:space="preserve" font-family="MavenProRegular" font-size="89.8" fill="#95B71E" transform="matrix(1.00, 0.00, -0.00, -1.00, 153.1, 954.0)">l</text><text xml:space="preserve" font-family="MavenProRegular" font-size="89.8" fill="#95B71E" transform="matrix(1.00, 0.00, -0.00, -1.00, 175.0, 954.0)">u</text><text xml:space="preserve" font-family="MavenProRegular" font-size="89.8" fill="#95B71E" transform="matrix(1.00, 0.00, -0.00, -1.00, 225.5, 954.0)">รง</text><text xml:space="preserve" font-family="MavenProRegular" font-size="89.8" fill="#95B71E" transform="matrix(1.00, 0.00, -0.00, -1.00, 268.0, 954.0)">รฃ</text><text xml:space="preserve" font-family="MavenProRegular" font-size="89.8" fill="#95B71E" transform="matrix(1.00, 0.00, -0.00, -1.00, 314.5, 954.0)">o</text><text xml:space="preserve" font-family="MavenProRegular" font-size="89.8" fill="#95B71E" transform="matrix(1.00, 0.00, -0.00, -1.00, 365.1, 954.0)"> </text></g></g><image xlink:href="CEE11339731790ED041120F75BBA5AC9.png" width="993.00" height="80.00" transform="matrix(1.00, 0.00, -0.00, -1.00, 331.0, 837.0)"></image><text xml:space="preserve" font-family="Dosis-Regular" font-size="72.0" fill="#FEFFFF" transform="matrix(1.00, 0.00, -0.00, -1.00, 327.0, 776.0)">P</text><text xml:space="preserve" font-family="Dosis-Regular" font-size="72.0" fill="#FEFFFF" transform="matrix(1.00, 0.00, -0.00, -1.00, 364.9, 776.0)">l</text><text xml:space="preserve" font-family="Dosis-Regular" font-size="72.0" fill="#FEFFFF" transform="matrix(1.00, 0.00, -0.00, -1.00, 379.8, 776.0)">a</text><text xml:space="preserve" font-family="Dosis-Regular" font-size="72.0" fill="#FEFFFF" transform="matrix(1.00, 0.00, -0.00, -1.00, 411.4, 776.0)">t</text><text xml:space="preserve" font-family="Dosis-Regular" font-size="72.0" fill="#FEFFFF" transform="matrix(1.00, 0.00, -0.00, -1.00, 432.8, 776.0)">a</text><text xml:space="preserve" font-family="Dosis-Regular" font-size="72.0" fill="#FEFFFF" transform="matrix(1.00, 0.00, -0.00, -1.00, 464.3, 776.0)">f</text><text xml:space="preserve" font-family="Dosis-Regular" font-size="72.0" fill="#FEFFFF" transform="matrix(1.00, 0.00, -0.00, -1.00, 485.0, 776.0)">o</text><text xml:space="preserve" font-family="Dosis-Regular" font-size="72.0" fill="#FEFFFF" transform="matrix(1.00, 0.00, -0.00, -1.00, 518.7, 776.0)">r</text><text xml:space="preserve" font-family="Dosis-Regular" font-size="72.0" fill="#FEFFFF" transform="matrix(1.00, 0.00, -0.00, -1.00, 542.6, 776.0)">m</text><text xml:space="preserve" font-family="Dosis-Regular" font-size="72.0" fill="#FEFFFF" transform="matrix(1.00, 0.00, -0.00, -1.00, 598.7, 776.0)">a</text><text xml:space="preserve" font-family="Dosis-Regular" font-size="72.0" fill="#FEFFFF" transform="matrix(1.00, 0.00, -0.00, -1.00, 630.3, 776.0)"> </text><text xml:space="preserve" font-family="Dosis-Regular" font-size="72.0" fill="#FEFFFF" transform="matrix(1.00, 0.00, -0.00, -1.00, 644.7, 776.0)">d</text><text xml:space="preserve" font-family="Dosis-Regular" font-size="72.0" fill="#FEFFFF" transform="matrix(1.00, 0.00, -0.00, -1.00, 679.5, 776.0)">i</text><text xml:space="preserve" font-family="Dosis-Regular" font-size="72.0" fill="#FEFFFF" transform="matrix(1.00, 0.00, -0.00, -1.00, 693.3, 776.0)">g</text><text xml:space="preserve" font-family="Dosis-Regular" font-size="72.0" fill="#FEFFFF" transform="matrix(1.00, 0.00, -0.00, -1.00, 725.8, 776.0)">i</text><text xml:space="preserve" font-family="Dosis-Regular" font-size="72.0" fill="#FEFFFF" transform="matrix(1.00, 0.00, -0.00, -1.00, 739.6, 776.0)">t</text><text xml:space="preserve" font-family="Dosis-Regular" font-size="72.0" fill="#FEFFFF" transform="matrix(1.00, 0.00, -0.00, -1.00, 760.9, 776.0)">a</text><text xml:space="preserve" font-family="Dosis-Regular" font-size="72.0" fill="#FEFFFF" transform="matrix(1.00, 0.00, -0.00, -1.00, 792.5, 776.0)">l</text><text xml:space="preserve" font-family="Dosis-Regular" font-size="72.0" fill="#FEFFFF" transform="matrix(1.00, 0.00, -0.00, -1.00, 807.4, 776.0)"> </text><text xml:space="preserve" font-family="Dosis-Regular" font-size="72.0" fill="#FEFFFF" transform="matrix(1.00, 0.00, -0.00, -1.00, 821.8, 776.0)">q</text><text xml:space="preserve" font-family="Dosis-Regular" font-size="72.0" fill="#FEFFFF" transform="matrix(1.00, 0.00, -0.00, -1.00, 856.6, 776.0)">u</text><text xml:space="preserve" font-family="Dosis-Regular" font-size="72.0" fill="#FEFFFF" transform="matrix(1.00, 0.00, -0.00, -1.00, 892.3, 776.0)">e</text><text xml:space="preserve" font-family="Dosis-Regular" font-size="72.0" fill="#FEFFFF" transform="matrix(1.00, 0.00, -0.00, -1.00, 925.3, 776.0)"> </text><text xml:space="preserve" font-family="Dosis-Regular" font-size="72.0" fill="#FEFFFF" transform="matrix(1.00, 0.00, -0.00, -1.00, 939.7, 776.0)">a</text><text xml:space="preserve" font-family="Dosis-Regular" font-size="72.0" fill="#FEFFFF" transform="matrix(1.00, 0.00, -0.00, -1.00, 971.3, 776.0)">p</text><text xml:space="preserve" font-family="Dosis-Regular" font-size="72.0" fill="#FEFFFF" transform="matrix(1.00, 0.00, -0.00, -1.00, 1006.1, 776.0)">o</text><text xml:space="preserve" font-family="Dosis-Regular" font-size="72.0" fill="#FEFFFF" transform="matrix(1.00, 0.00, -0.00, -1.00, 1039.8, 776.0)">i</text><text xml:space="preserve" font-family="Dosis-Regular" font-size="72.0" fill="#FEFFFF" transform="matrix(1.00, 0.00, -0.00, -1.00, 1053.6, 776.0)">a</text><text xml:space="preserve" font-family="Dosis-Regular" font-size="72.0" fill="#FEFFFF" transform="matrix(1.00, 0.00, -0.00, -1.00, 1085.1, 776.0)"> </text><text xml:space="preserve" font-family="Dosis-Regular" font-size="72.0" fill="#FEFFFF" transform="matrix(1.00, 0.00, -0.00, -1.00, 1099.5, 776.0)">p</text><text xml:space="preserve" font-family="Dosis-Regular" font-size="72.0" fill="#FEFFFF" transform="matrix(1.00, 0.00, -0.00, -1.00, 1134.3, 776.0)">r</text><text xml:space="preserve" font-family="Dosis-Regular" font-size="72.0" fill="#FEFFFF" transform="matrix(1.00, 0.00, -0.00, -1.00, 1156.9, 776.0)">o</text><text xml:space="preserve" font-family="Dosis-Regular" font-size="72.0" fill="#FEFFFF" transform="matrix(1.00, 0.00, -0.00, -1.00, 1190.6, 776.0)">j</text><text xml:space="preserve" font-family="Dosis-Regular" font-size="72.0" fill="#FEFFFF" transform="matrix(1.00, 0.00, -0.00, -1.00, 1204.3, 776.0)">e</text><text xml:space="preserve" font-family="Dosis-Regular" font-size="72.0" fill="#FEFFFF" transform="matrix(1.00, 0.00, -0.00, -1.00, 1237.3, 776.0)">t</text><text xml:space="preserve" font-family="Dosis-Regular" font-size="72.0" fill="#FEFFFF" transform="matrix(1.00, 0.00, -0.00, -1.00, 1258.0, 776.0)">o</text><text xml:space="preserve" font-family="Dosis-Regular" font-size="72.0" fill="#FEFFFF" transform="matrix(1.00, 0.00, -0.00, -1.00, 1291.7, 776.0)">s</text><text xml:space="preserve" font-family="Dosis-Regular" font-size="72.0" fill="#FEFFFF" transform="matrix(1.00, 0.00, -0.00, -1.00, 1319.4, 776.0)"> </text><image xlink:href="9B80B841E56B39E7BAF00F380D014BCB.png" width="260.00" height="80.00" transform="matrix(1.00, 0.00, -0.00, -1.00, 1337.0, 837.0)"></image><text xml:space="preserve" font-family="Dosis-Regular" font-size="72.0" fill="#FEFFFF" transform="matrix(1.00, 0.00, -0.00, -1.00, 1333.8, 776.0)">p</text><text xml:space="preserve" font-family="Dosis-Regular" font-size="72.0" fill="#FEFFFF" transform="matrix(1.00, 0.00, -0.00, -1.00, 1368.7, 776.0)">a</text><text xml:space="preserve" font-family="Dosis-Regular" font-size="72.0" fill="#FEFFFF" transform="matrix(1.00, 0.00, -0.00, -1.00, 1400.2, 776.0)">r</text><text xml:space="preserve" font-family="Dosis-Regular" font-size="72.0" fill="#FEFFFF" transform="matrix(1.00, 0.00, -0.00, -1.00, 1424.1, 776.0)">a</text><text xml:space="preserve" font-family="Dosis-Regular" font-size="72.0" fill="#FEFFFF" transform="matrix(1.00, 0.00, -0.00, -1.00, 1455.6, 776.0)">l</text><text xml:space="preserve" font-family="Dosis-Regular" font-size="72.0" fill="#FEFFFF" transform="matrix(1.00, 0.00, -0.00, -1.00, 1470.5, 776.0)">e</text><text xml:space="preserve" font-family="Dosis-Regular" font-size="72.0" fill="#FEFFFF" transform="matrix(1.00, 0.00, -0.00, -1.00, 1503.5, 776.0)">l</text><text xml:space="preserve" font-family="Dosis-Regular" font-size="72.0" fill="#FEFFFF" transform="matrix(1.00, 0.00, -0.00, -1.00, 1518.4, 776.0)">o</text><text xml:space="preserve" font-family="Dosis-Regular" font-size="72.0" fill="#FEFFFF" transform="matrix(1.00, 0.00, -0.00, -1.00, 1552.1, 776.0)">s</text><text xml:space="preserve" font-family="Dosis-Regular" font-size="72.0" fill="#FEFFFF" transform="matrix(1.00, 0.00, -0.00, -1.00, 1579.8, 776.0)">,</text><text xml:space="preserve" font-family="Dosis-Regular" font-size="72.0" fill="#FEFFFF" transform="matrix(1.00, 0.00, -0.00, -1.00, 1592.1, 776.0)"> </text><image xlink:href="12B844AAB46BF6B2225DC85985C4358E.png" width="1506.00" height="80.00" transform="matrix(1.00, 0.00, -0.00, -1.00, 210.0, 746.0)"></image><text xml:space="preserve" font-family="Dosis-Regular" font-size="72.0" fill="#FEFFFF" transform="matrix(1.00, 0.00, -0.00, -1.00, 208.0, 685.0)">c</text><text xml:space="preserve" font-family="Dosis-Regular" font-size="72.0" fill="#FEFFFF" transform="matrix(1.00, 0.00, -0.00, -1.00, 237.2, 685.0)">o</text><text xml:space="preserve" font-family="Dosis-Regular" font-size="72.0" fill="#FEFFFF" transform="matrix(1.00, 0.00, -0.00, -1.00, 270.9, 685.0)">n</text><text xml:space="preserve" font-family="Dosis-Regular" font-size="72.0" fill="#FEFFFF" transform="matrix(1.00, 0.00, -0.00, -1.00, 306.6, 685.0)">e</text><text xml:space="preserve" font-family="Dosis-Regular" font-size="72.0" fill="#FEFFFF" transform="matrix(1.00, 0.00, -0.00, -1.00, 339.6, 685.0)">c</text><text xml:space="preserve" font-family="Dosis-Regular" font-size="72.0" fill="#FEFFFF" transform="matrix(1.00, 0.00, -0.00, -1.00, 369.2, 685.0)">t</text><text xml:space="preserve" font-family="Dosis-Regular" font-size="72.0" fill="#FEFFFF" transform="matrix(1.00, 0.00, -0.00, -1.00, 390.6, 685.0)">a</text><text xml:space="preserve" font-family="Dosis-Regular" font-size="72.0" fill="#FEFFFF" transform="matrix(1.00, 0.00, -0.00, -1.00, 422.1, 685.0)">n</text><text xml:space="preserve" font-family="Dosis-Regular" font-size="72.0" fill="#FEFFFF" transform="matrix(1.00, 0.00, -0.00, -1.00, 457.8, 685.0)">d</text><text xml:space="preserve" font-family="Dosis-Regular" font-size="72.0" fill="#FEFFFF" transform="matrix(1.00, 0.00, -0.00, -1.00, 492.7, 685.0)">o</text><text xml:space="preserve" font-family="Dosis-Regular" font-size="72.0" fill="#FEFFFF" transform="matrix(1.00, 0.00, -0.00, -1.00, 526.4, 685.0)"> </text><text xml:space="preserve" font-family="Dosis-Regular" font-size="72.0" fill="#FEFFFF" transform="matrix(1.00, 0.00, -0.00, -1.00, 540.8, 685.0)">p</text><text xml:space="preserve" font-family="Dosis-Regular" font-size="72.0" fill="#FEFFFF" transform="matrix(1.00, 0.00, -0.00, -1.00, 575.6, 685.0)">e</text><text xml:space="preserve" font-family="Dosis-Regular" font-size="72.0" fill="#FEFFFF" transform="matrix(1.00, 0.00, -0.00, -1.00, 608.6, 685.0)">s</text><text xml:space="preserve" font-family="Dosis-Regular" font-size="72.0" fill="#FEFFFF" transform="matrix(1.00, 0.00, -0.00, -1.00, 636.3, 685.0)">s</text><text xml:space="preserve" font-family="Dosis-Regular" font-size="72.0" fill="#FEFFFF" transform="matrix(1.00, 0.00, -0.00, -1.00, 664.0, 685.0)">o</text><text xml:space="preserve" font-family="Dosis-Regular" font-size="72.0" fill="#FEFFFF" transform="matrix(1.00, 0.00, -0.00, -1.00, 697.7, 685.0)">a</text><text xml:space="preserve" font-family="Dosis-Regular" font-size="72.0" fill="#FEFFFF" transform="matrix(1.00, 0.00, -0.00, -1.00, 729.3, 685.0)">s</text><text xml:space="preserve" font-family="Dosis-Regular" font-size="72.0" fill="#FEFFFF" transform="matrix(1.00, 0.00, -0.00, -1.00, 757.0, 685.0)"> </text><text xml:space="preserve" font-family="Dosis-Regular" font-size="72.0" fill="#FEFFFF" transform="matrix(1.00, 0.00, -0.00, -1.00, 771.4, 685.0)">q</text><text xml:space="preserve" font-family="Dosis-Regular" font-size="72.0" fill="#FEFFFF" transform="matrix(1.00, 0.00, -0.00, -1.00, 806.2, 685.0)">u</text><text xml:space="preserve" font-family="Dosis-Regular" font-size="72.0" fill="#FEFFFF" transform="matrix(1.00, 0.00, -0.00, -1.00, 842.0, 685.0)">e</text><text xml:space="preserve" font-family="Dosis-Regular" font-size="72.0" fill="#FEFFFF" transform="matrix(1.00, 0.00, -0.00, -1.00, 874.9, 685.0)"> </text><text xml:space="preserve" font-family="Dosis-Regular" font-size="72.0" fill="#FEFFFF" transform="matrix(1.00, 0.00, -0.00, -1.00, 889.3, 685.0)">q</text><text xml:space="preserve" font-family="Dosis-Regular" font-size="72.0" fill="#FEFFFF" transform="matrix(1.00, 0.00, -0.00, -1.00, 924.2, 685.0)">u</text><text xml:space="preserve" font-family="Dosis-Regular" font-size="72.0" fill="#FEFFFF" transform="matrix(1.00, 0.00, -0.00, -1.00, 959.9, 685.0)">e</text><text xml:space="preserve" font-family="Dosis-Regular" font-size="72.0" fill="#FEFFFF" transform="matrix(1.00, 0.00, -0.00, -1.00, 992.9, 685.0)">r</text><text xml:space="preserve" font-family="Dosis-Regular" font-size="72.0" fill="#FEFFFF" transform="matrix(1.00, 0.00, -0.00, -1.00, 1015.4, 685.0)">e</text><text xml:space="preserve" font-family="Dosis-Regular" font-size="72.0" fill="#FEFFFF" transform="matrix(1.00, 0.00, -0.00, -1.00, 1048.4, 685.0)">m</text><text xml:space="preserve" font-family="Dosis-Regular" font-size="72.0" fill="#FEFFFF" transform="matrix(1.00, 0.00, -0.00, -1.00, 1104.5, 685.0)"> </text><text xml:space="preserve" font-family="Dosis-Regular" font-size="72.0" fill="#FEFFFF" transform="matrix(1.00, 0.00, -0.00, -1.00, 1118.9, 685.0)">c</text><text xml:space="preserve" font-family="Dosis-Regular" font-size="72.0" fill="#FEFFFF" transform="matrix(1.00, 0.00, -0.00, -1.00, 1148.2, 685.0)">o</text><text xml:space="preserve" font-family="Dosis-Regular" font-size="72.0" fill="#FEFFFF" transform="matrix(1.00, 0.00, -0.00, -1.00, 1181.9, 685.0)">n</text><text xml:space="preserve" font-family="Dosis-Regular" font-size="72.0" fill="#FEFFFF" transform="matrix(1.00, 0.00, -0.00, -1.00, 1217.6, 685.0)">c</text><text xml:space="preserve" font-family="Dosis-Regular" font-size="72.0" fill="#FEFFFF" transform="matrix(1.00, 0.00, -0.00, -1.00, 1247.2, 685.0)">r</text><text xml:space="preserve" font-family="Dosis-Regular" font-size="72.0" fill="#FEFFFF" transform="matrix(1.00, 0.00, -0.00, -1.00, 1269.7, 685.0)">e</text><text xml:space="preserve" font-family="Dosis-Regular" font-size="72.0" fill="#FEFFFF" transform="matrix(1.00, 0.00, -0.00, -1.00, 1302.7, 685.0)">t</text><text xml:space="preserve" font-family="Dosis-Regular" font-size="72.0" fill="#FEFFFF" transform="matrix(1.00, 0.00, -0.00, -1.00, 1324.1, 685.0)">i</text><text xml:space="preserve" font-family="Dosis-Regular" font-size="72.0" fill="#FEFFFF" transform="matrix(1.00, 0.00, -0.00, -1.00, 1337.8, 685.0)">z</text><text xml:space="preserve" font-family="Dosis-Regular" font-size="72.0" fill="#FEFFFF" transform="matrix(1.00, 0.00, -0.00, -1.00, 1366.7, 685.0)">รก</text><text xml:space="preserve" font-family="Dosis-Regular" font-size="72.0" fill="#FEFFFF" transform="matrix(1.00, 0.00, -0.00, -1.00, 1398.2, 685.0)">-</text><text xml:space="preserve" font-family="Dosis-Regular" font-size="72.0" fill="#FEFFFF" transform="matrix(1.00, 0.00, -0.00, -1.00, 1428.0, 685.0)">l</text><text xml:space="preserve" font-family="Dosis-Regular" font-size="72.0" fill="#FEFFFF" transform="matrix(1.00, 0.00, -0.00, -1.00, 1442.9, 685.0)">o</text><text xml:space="preserve" font-family="Dosis-Regular" font-size="72.0" fill="#FEFFFF" transform="matrix(1.00, 0.00, -0.00, -1.00, 1476.6, 685.0)">s</text><text xml:space="preserve" font-family="Dosis-Regular" font-size="72.0" fill="#FEFFFF" transform="matrix(1.00, 0.00, -0.00, -1.00, 1504.3, 685.0)"> </text><text xml:space="preserve" font-family="Dosis-Regular" font-size="72.0" fill="#FEFFFF" transform="matrix(1.00, 0.00, -0.00, -1.00, 1518.7, 685.0)">c</text><text xml:space="preserve" font-family="Dosis-Regular" font-size="72.0" fill="#FEFFFF" transform="matrix(1.00, 0.00, -0.00, -1.00, 1547.9, 685.0)">o</text><text xml:space="preserve" font-family="Dosis-Regular" font-size="72.0" fill="#FEFFFF" transform="matrix(1.00, 0.00, -0.00, -1.00, 1581.6, 685.0)">m</text><text xml:space="preserve" font-family="Dosis-Regular" font-size="72.0" fill="#FEFFFF" transform="matrix(1.00, 0.00, -0.00, -1.00, 1637.8, 685.0)"> </text><text xml:space="preserve" font-family="Dosis-Regular" font-size="72.0" fill="#FEFFFF" transform="matrix(1.00, 0.00, -0.00, -1.00, 1652.2, 685.0)">a</text><text xml:space="preserve" font-family="Dosis-Regular" font-size="72.0" fill="#FEFFFF" transform="matrix(1.00, 0.00, -0.00, -1.00, 1683.7, 685.0)">s</text><text xml:space="preserve" font-family="Dosis-Regular" font-size="72.0" fill="#FEFFFF" transform="matrix(1.00, 0.00, -0.00, -1.00, 1711.4, 685.0)"> </text><image xlink:href="8078D6DB5EFAA57269EB2F4BFEF03498.png" width="1545.00" height="80.00" transform="matrix(1.00, 0.00, -0.00, -1.00, 191.0, 655.0)"></image><text xml:space="preserve" font-family="Dosis-Regular" font-size="72.0" fill="#FEFFFF" transform="matrix(1.00, 0.00, -0.00, -1.00, 189.0, 594.0)">q</text><text xml:space="preserve" font-family="Dosis-Regular" font-size="72.0" fill="#FEFFFF" transform="matrix(1.00, 0.00, -0.00, -1.00, 223.8, 594.0)">u</text><text xml:space="preserve" font-family="Dosis-Regular" font-size="72.0" fill="#FEFFFF" transform="matrix(1.00, 0.00, -0.00, -1.00, 259.6, 594.0)">e</text><text xml:space="preserve" font-family="Dosis-Regular" font-size="72.0" fill="#FEFFFF" transform="matrix(1.00, 0.00, -0.00, -1.00, 292.5, 594.0)"> </text><text xml:space="preserve" font-family="Dosis-Regular" font-size="72.0" fill="#FEFFFF" transform="matrix(1.00, 0.00, -0.00, -1.00, 306.9, 594.0)">p</text><text xml:space="preserve" font-family="Dosis-Regular" font-size="72.0" fill="#FEFFFF" transform="matrix(1.00, 0.00, -0.00, -1.00, 341.8, 594.0)">o</text><text xml:space="preserve" font-family="Dosis-Regular" font-size="72.0" fill="#FEFFFF" transform="matrix(1.00, 0.00, -0.00, -1.00, 375.5, 594.0)">s</text><text xml:space="preserve" font-family="Dosis-Regular" font-size="72.0" fill="#FEFFFF" transform="matrix(1.00, 0.00, -0.00, -1.00, 403.2, 594.0)">s</text><text xml:space="preserve" font-family="Dosis-Regular" font-size="72.0" fill="#FEFFFF" transform="matrix(1.00, 0.00, -0.00, -1.00, 430.9, 594.0)">u</text><text xml:space="preserve" font-family="Dosis-Regular" font-size="72.0" fill="#FEFFFF" transform="matrix(1.00, 0.00, -0.00, -1.00, 466.6, 594.0)">e</text><text xml:space="preserve" font-family="Dosis-Regular" font-size="72.0" fill="#FEFFFF" transform="matrix(1.00, 0.00, -0.00, -1.00, 499.6, 594.0)">m</text><text xml:space="preserve" font-family="Dosis-Regular" font-size="72.0" fill="#FEFFFF" transform="matrix(1.00, 0.00, -0.00, -1.00, 555.8, 594.0)"> </text><text xml:space="preserve" font-family="Dosis-Regular" font-size="72.0" fill="#FEFFFF" transform="matrix(1.00, 0.00, -0.00, -1.00, 570.2, 594.0)">u</text><text xml:space="preserve" font-family="Dosis-Regular" font-size="72.0" fill="#FEFFFF" transform="matrix(1.00, 0.00, -0.00, -1.00, 605.9, 594.0)">m</text><text xml:space="preserve" font-family="Dosis-Regular" font-size="72.0" fill="#FEFFFF" transform="matrix(1.00, 0.00, -0.00, -1.00, 662.0, 594.0)"> </text><text xml:space="preserve" font-family="Dosis-Regular" font-size="72.0" fill="#FEFFFF" transform="matrix(1.00, 0.00, -0.00, -1.00, 676.4, 594.0)">c</text><text xml:space="preserve" font-family="Dosis-Regular" font-size="72.0" fill="#FEFFFF" transform="matrix(1.00, 0.00, -0.00, -1.00, 705.7, 594.0)">o</text><text xml:space="preserve" font-family="Dosis-Regular" font-size="72.0" fill="#FEFFFF" transform="matrix(1.00, 0.00, -0.00, -1.00, 739.4, 594.0)">n</text><text xml:space="preserve" font-family="Dosis-Regular" font-size="72.0" fill="#FEFFFF" transform="matrix(1.00, 0.00, -0.00, -1.00, 775.1, 594.0)">h</text><text xml:space="preserve" font-family="Dosis-Regular" font-size="72.0" fill="#FEFFFF" transform="matrix(1.00, 0.00, -0.00, -1.00, 810.8, 594.0)">e</text><text xml:space="preserve" font-family="Dosis-Regular" font-size="72.0" fill="#FEFFFF" transform="matrix(1.00, 0.00, -0.00, -1.00, 843.8, 594.0)">c</text><text xml:space="preserve" font-family="Dosis-Regular" font-size="72.0" fill="#FEFFFF" transform="matrix(1.00, 0.00, -0.00, -1.00, 873.4, 594.0)">i</text><text xml:space="preserve" font-family="Dosis-Regular" font-size="72.0" fill="#FEFFFF" transform="matrix(1.00, 0.00, -0.00, -1.00, 887.1, 594.0)">m</text><text xml:space="preserve" font-family="Dosis-Regular" font-size="72.0" fill="#FEFFFF" transform="matrix(1.00, 0.00, -0.00, -1.00, 943.3, 594.0)">e</text><text xml:space="preserve" font-family="Dosis-Regular" font-size="72.0" fill="#FEFFFF" transform="matrix(1.00, 0.00, -0.00, -1.00, 976.2, 594.0)">n</text><text xml:space="preserve" font-family="Dosis-Regular" font-size="72.0" fill="#FEFFFF" transform="matrix(1.00, 0.00, -0.00, -1.00, 1012.0, 594.0)">t</text><text xml:space="preserve" font-family="Dosis-Regular" font-size="72.0" fill="#FEFFFF" transform="matrix(1.00, 0.00, -0.00, -1.00, 1032.7, 594.0)">o</text><text xml:space="preserve" font-family="Dosis-Regular" font-size="72.0" fill="#FEFFFF" transform="matrix(1.00, 0.00, -0.00, -1.00, 1066.4, 594.0)">,</text><text xml:space="preserve" font-family="Dosis-Regular" font-size="72.0" fill="#FEFFFF" transform="matrix(1.00, 0.00, -0.00, -1.00, 1078.7, 594.0)"> </text><text xml:space="preserve" font-family="Dosis-Regular" font-size="72.0" fill="#FEFFFF" transform="matrix(1.00, 0.00, -0.00, -1.00, 1093.1, 594.0)">u</text><text xml:space="preserve" font-family="Dosis-Regular" font-size="72.0" fill="#FEFFFF" transform="matrix(1.00, 0.00, -0.00, -1.00, 1128.8, 594.0)">m</text><text xml:space="preserve" font-family="Dosis-Regular" font-size="72.0" fill="#FEFFFF" transform="matrix(1.00, 0.00, -0.00, -1.00, 1185.0, 594.0)"> </text><text xml:space="preserve" font-family="Dosis-Regular" font-size="72.0" fill="#FEFFFF" transform="matrix(1.00, 0.00, -0.00, -1.00, 1199.4, 594.0)">b</text><text xml:space="preserve" font-family="Dosis-Regular" font-size="72.0" fill="#FEFFFF" transform="matrix(1.00, 0.00, -0.00, -1.00, 1234.2, 594.0)">e</text><text xml:space="preserve" font-family="Dosis-Regular" font-size="72.0" fill="#FEFFFF" transform="matrix(1.00, 0.00, -0.00, -1.00, 1267.2, 594.0)">m</text><text xml:space="preserve" font-family="Dosis-Regular" font-size="72.0" fill="#FEFFFF" transform="matrix(1.00, 0.00, -0.00, -1.00, 1323.4, 594.0)"> </text><text xml:space="preserve" font-family="Dosis-Regular" font-size="72.0" fill="#FEFFFF" transform="matrix(1.00, 0.00, -0.00, -1.00, 1337.8, 594.0)">o</text><text xml:space="preserve" font-family="Dosis-Regular" font-size="72.0" fill="#FEFFFF" transform="matrix(1.00, 0.00, -0.00, -1.00, 1371.5, 594.0)">u</text><text xml:space="preserve" font-family="Dosis-Regular" font-size="72.0" fill="#FEFFFF" transform="matrix(1.00, 0.00, -0.00, -1.00, 1407.2, 594.0)"> </text><text xml:space="preserve" font-family="Dosis-Regular" font-size="72.0" fill="#FEFFFF" transform="matrix(1.00, 0.00, -0.00, -1.00, 1421.6, 594.0)">u</text><text xml:space="preserve" font-family="Dosis-Regular" font-size="72.0" fill="#FEFFFF" transform="matrix(1.00, 0.00, -0.00, -1.00, 1457.3, 594.0)">m</text><text xml:space="preserve" font-family="Dosis-Regular" font-size="72.0" fill="#FEFFFF" transform="matrix(1.00, 0.00, -0.00, -1.00, 1513.4, 594.0)"> </text><text xml:space="preserve" font-family="Dosis-Regular" font-size="72.0" fill="#FEFFFF" transform="matrix(1.00, 0.00, -0.00, -1.00, 1527.8, 594.0)">s</text><text xml:space="preserve" font-family="Dosis-Regular" font-size="72.0" fill="#FEFFFF" transform="matrix(1.00, 0.00, -0.00, -1.00, 1555.6, 594.0)">e</text><text xml:space="preserve" font-family="Dosis-Regular" font-size="72.0" fill="#FEFFFF" transform="matrix(1.00, 0.00, -0.00, -1.00, 1588.5, 594.0)">r</text><text xml:space="preserve" font-family="Dosis-Regular" font-size="72.0" fill="#FEFFFF" transform="matrix(1.00, 0.00, -0.00, -1.00, 1612.4, 594.0)">v</text><text xml:space="preserve" font-family="Dosis-Regular" font-size="72.0" fill="#FEFFFF" transform="matrix(1.00, 0.00, -0.00, -1.00, 1642.6, 594.0)">i</text><text xml:space="preserve" font-family="Dosis-Regular" font-size="72.0" fill="#FEFFFF" transform="matrix(1.00, 0.00, -0.00, -1.00, 1656.4, 594.0)">รง</text><text xml:space="preserve" font-family="Dosis-Regular" font-size="72.0" fill="#FEFFFF" transform="matrix(1.00, 0.00, -0.00, -1.00, 1685.6, 594.0)">o</text><text xml:space="preserve" font-family="Dosis-Regular" font-size="72.0" fill="#FEFFFF" transform="matrix(1.00, 0.00, -0.00, -1.00, 1719.3, 594.0)">.</text></g></svg>