<?xml version="1.0" encoding="UTF-8" standalone="no"?><svg xmlns="http://www.w3.org/2000/svg" xmlns:xlink="http://www.w3.org/1999/xlink" clip-rule="evenodd" stroke-miterlimit="4.00" viewBox="0 0 203 48"><desc>SVG generated by Keynote</desc><defs></defs><g transform="matrix(1.00, 0.00, -0.00, -1.00, 0.0, 48.0)"><g><image xlink:href="3D6D360ED20E29E894DB9B47A2C209EA.png" width="195.00" height="37.00" transform="matrix(1.00, 0.00, -0.00, -1.00, 4.0, 41.0)"></image><g><clipPath id="clip-312"><path d="M 1.0 1.0 L 202.0 1.0 L 202.0 47.0 L 1.0 47.0 Z M 1.0 1.0 "></path></clipPath><g clip-path="url(#clip-312)"><text xml:space="preserve" font-family="Helvetica-Bold" font-weight="bold" font-size="34.0" fill="#FEFFFE" transform="matrix(1.00, 0.00, -0.00, -1.00, 4.0, 14.0)">R</text><text xml:space="preserve" font-family="Helvetica-Bold" font-weight="bold" font-size="34.0" fill="#FEFFFE" transform="matrix(1.00, 0.00, -0.00, -1.00, 28.6, 14.0)">$</text><text xml:space="preserve" font-family="Helvetica-Bold" font-weight="bold" font-size="34.0" fill="#FEFFFE" transform="matrix(1.00, 0.00, -0.00, -1.00, 47.5, 14.0)">1</text><text xml:space="preserve" font-family="Helvetica-Bold" font-weight="bold" font-size="34.0" fill="#FEFFFE" transform="matrix(1.00, 0.00, -0.00, -1.00, 66.4, 14.0)">2</text><text xml:space="preserve" font-family="Helvetica-Bold" font-weight="bold" font-size="34.0" fill="#FEFFFE" transform="matrix(1.00, 0.00, -0.00, -1.00, 85.3, 14.0)">.</text><text xml:space="preserve" font-family="Helvetica-Bold" font-weight="bold" font-size="34.0" fill="#FEFFFE" transform="matrix(1.00, 0.00, -0.00, -1.00, 94.8, 14.0)">6</text><text xml:space="preserve" font-family="Helvetica-Bold" font-weight="bold" font-size="34.0" fill="#FEFFFE" transform="matrix(1.00, 0.00, -0.00, -1.00, 113.7, 14.0)">0</text><text xml:space="preserve" font-family="Helvetica-Bold" font-weight="bold" font-size="34.0" fill="#FEFFFE" transform="matrix(1.00, 0.00, -0.00, -1.00, 132.6, 14.0)">0</text><text xml:space="preserve" font-family="Helvetica-Bold" font-weight="bold" font-size="34.0" fill="#FEFFFE" transform="matrix(1.00, 0.00, -0.00, -1.00, 151.5, 14.0)">,</text><text xml:space="preserve" font-family="Helvetica-Bold" font-weight="bold" font-size="34.0" fill="#FEFFFE" transform="matrix(1.00, 0.00, -0.00, -1.00, 161.0, 14.0)">0</text><text xml:space="preserve" font-family="Helvetica-Bold" font-weight="bold" font-size="34.0" fill="#FEFFFE" transform="matrix(1.00, 0.00, -0.00, -1.00, 179.9, 14.0)">0</text></g></g></g></g></svg>