<?xml version="1.0" encoding="UTF-8" standalone="no"?><svg xmlns="http://www.w3.org/2000/svg" xmlns:xlink="http://www.w3.org/1999/xlink" clip-rule="evenodd" stroke-miterlimit="4.00" viewBox="0 0 776 409"><desc>SVG generated by Keynote</desc><defs></defs><g transform="matrix(1.00, 0.00, -0.00, -1.00, 0.0, 409.0)"><g><image xlink:href="B2C4D8A6EC3B791255EDFB90327932EF.png" width="176.00" height="37.00" transform="matrix(1.00, 0.00, -0.00, -1.00, 596.0, 40.0)"></image><g><clipPath id="clip-317"><path d="M 593.0 1.0 L 775.0 1.0 L 775.0 47.0 L 593.0 47.0 Z M 593.0 1.0 "></path></clipPath><g clip-path="url(#clip-317)"><text xml:space="preserve" font-family="Helvetica-Bold" font-weight="bold" font-size="34.0" fill="#FEFFFE" transform="matrix(1.00, 0.00, -0.00, -1.00, 596.0, 13.0)">R</text><text xml:space="preserve" font-family="Helvetica-Bold" font-weight="bold" font-size="34.0" fill="#FEFFFE" transform="matrix(1.00, 0.00, -0.00, -1.00, 620.6, 13.0)">$</text><text xml:space="preserve" font-family="Helvetica-Bold" font-weight="bold" font-size="34.0" fill="#FEFFFE" transform="matrix(1.00, 0.00, -0.00, -1.00, 639.5, 13.0)">7</text><text xml:space="preserve" font-family="Helvetica-Bold" font-weight="bold" font-size="34.0" fill="#FEFFFE" transform="matrix(1.00, 0.00, -0.00, -1.00, 658.4, 13.0)">.</text><text xml:space="preserve" font-family="Helvetica-Bold" font-weight="bold" font-size="34.0" fill="#FEFFFE" transform="matrix(1.00, 0.00, -0.00, -1.00, 667.8, 13.0)">9</text><text xml:space="preserve" font-family="Helvetica-Bold" font-weight="bold" font-size="34.0" fill="#FEFFFE" transform="matrix(1.00, 0.00, -0.00, -1.00, 686.8, 13.0)">6</text><text xml:space="preserve" font-family="Helvetica-Bold" font-weight="bold" font-size="34.0" fill="#FEFFFE" transform="matrix(1.00, 0.00, -0.00, -1.00, 705.7, 13.0)">0</text><text xml:space="preserve" font-family="Helvetica-Bold" font-weight="bold" font-size="34.0" fill="#FEFFFE" transform="matrix(1.00, 0.00, -0.00, -1.00, 724.6, 13.0)">,</text><text xml:space="preserve" font-family="Helvetica-Bold" font-weight="bold" font-size="34.0" fill="#FEFFFE" transform="matrix(1.00, 0.00, -0.00, -1.00, 734.0, 13.0)">0</text><text xml:space="preserve" font-family="Helvetica-Bold" font-weight="bold" font-size="34.0" fill="#FEFFFE" transform="matrix(1.00, 0.00, -0.00, -1.00, 753.0, 13.0)">0</text></g></g></g><g><image xlink:href="DA0E6D486D1224ADE585E07E6EDC8ADF.png" width="195.00" height="37.00" transform="matrix(1.00, 0.00, -0.00, -1.00, 4.0, 402.0)"></image><g><clipPath id="clip-318"><path d="M 1.0 362.0 L 202.0 362.0 L 202.0 408.0 L 1.0 408.0 Z M 1.0 362.0 "></path></clipPath><g clip-path="url(#clip-318)"><text xml:space="preserve" font-family="Helvetica-Bold" font-weight="bold" font-size="34.0" fill="#FEFFFE" transform="matrix(1.00, 0.00, -0.00, -1.00, 4.0, 375.0)">R</text><text xml:space="preserve" font-family="Helvetica-Bold" font-weight="bold" font-size="34.0" fill="#FEFFFE" transform="matrix(1.00, 0.00, -0.00, -1.00, 28.6, 375.0)">$</text><text xml:space="preserve" font-family="Helvetica-Bold" font-weight="bold" font-size="34.0" fill="#FEFFFE" transform="matrix(1.00, 0.00, -0.00, -1.00, 47.5, 375.0)">2</text><text xml:space="preserve" font-family="Helvetica-Bold" font-weight="bold" font-size="34.0" fill="#FEFFFE" transform="matrix(1.00, 0.00, -0.00, -1.00, 66.4, 375.0)">1</text><text xml:space="preserve" font-family="Helvetica-Bold" font-weight="bold" font-size="34.0" fill="#FEFFFE" transform="matrix(1.00, 0.00, -0.00, -1.00, 85.3, 375.0)">.</text><text xml:space="preserve" font-family="Helvetica-Bold" font-weight="bold" font-size="34.0" fill="#FEFFFE" transform="matrix(1.00, 0.00, -0.00, -1.00, 94.8, 375.0)">4</text><text xml:space="preserve" font-family="Helvetica-Bold" font-weight="bold" font-size="34.0" fill="#FEFFFE" transform="matrix(1.00, 0.00, -0.00, -1.00, 113.7, 375.0)">2</text><text xml:space="preserve" font-family="Helvetica-Bold" font-weight="bold" font-size="34.0" fill="#FEFFFE" transform="matrix(1.00, 0.00, -0.00, -1.00, 132.6, 375.0)">0</text><text xml:space="preserve" font-family="Helvetica-Bold" font-weight="bold" font-size="34.0" fill="#FEFFFE" transform="matrix(1.00, 0.00, -0.00, -1.00, 151.5, 375.0)">,</text><text xml:space="preserve" font-family="Helvetica-Bold" font-weight="bold" font-size="34.0" fill="#FEFFFE" transform="matrix(1.00, 0.00, -0.00, -1.00, 161.0, 375.0)">0</text><text xml:space="preserve" font-family="Helvetica-Bold" font-weight="bold" font-size="34.0" fill="#FEFFFE" transform="matrix(1.00, 0.00, -0.00, -1.00, 179.9, 375.0)">0</text></g></g></g></g></svg>